<svg width="80" height="48" viewBox="0 0 80 48" fill="none" xmlns="http://www.w3.org/2000/svg">
<g clip-path="url(#clip0_10_150)">
<path d="M22.544 17.36C22.5186 18.1605 22.6212 18.9599 22.848 19.728C23.0817 20.3859 23.3708 21.0229 23.712 21.632C23.8282 21.8143 23.8945 22.024 23.904 22.24C23.8872 22.402 23.8319 22.5576 23.7429 22.694C23.6538 22.8303 23.5335 22.9435 23.392 23.024L21.792 24.144C21.585 24.2894 21.3407 24.3727 21.088 24.384C20.9393 24.3787 20.7931 24.3433 20.6584 24.2801C20.5237 24.2169 20.4031 24.127 20.304 24.016C19.9324 23.6483 19.6097 23.2342 19.344 22.784C19.0773 22.336 18.8053 21.8027 18.528 21.184C17.5909 22.3535 16.3987 23.2932 15.0426 23.931C13.6865 24.5689 12.2024 24.888 10.704 24.864C9.73634 24.917 8.76785 24.7759 7.85556 24.4489C6.94328 24.1219 6.10565 23.6157 5.392 22.96C4.73089 22.2875 4.21616 21.4854 3.88022 20.6043C3.54427 19.7231 3.39439 18.7819 3.44 17.84C3.39759 16.8162 3.58545 15.796 3.98975 14.8545C4.39404 13.913 5.00445 13.0742 5.776 12.4C7.62862 10.9411 9.94941 10.2073 12.304 10.336C13.2464 10.3387 14.1874 10.4082 15.12 10.544C16.1013 10.6827 17.12 10.8747 18.176 11.12V9.168C18.3314 7.63825 17.8772 6.10895 16.912 4.912C15.6772 3.96242 14.1257 3.52159 12.576 3.68C11.6109 3.68489 10.6496 3.80303 9.712 4.032C8.73626 4.26533 7.779 4.57015 6.848 4.944C6.54704 5.08231 6.23698 5.19992 5.92 5.296H5.504C5.13067 5.296 4.944 5.01867 4.944 4.464V3.2C4.92112 2.87888 4.98758 2.55768 5.136 2.272C5.33654 2.02606 5.59491 1.83365 5.888 1.712C6.95883 1.199 8.07933 0.79691 9.232 0.512001C10.5857 0.164426 11.9784 -0.00765113 13.376 7.8734e-07C15.8897 -0.222782 18.3901 0.55319 20.336 2.16C21.1271 3.04499 21.7306 4.08115 22.1101 5.20589C22.4896 6.33063 22.6372 7.52063 22.544 8.704V17.36ZM11.744 21.408C12.6823 21.3943 13.612 21.2268 14.496 20.912C15.4705 20.5745 16.3375 19.9836 17.008 19.2C17.4211 18.7393 17.7271 18.1929 17.904 17.6C18.0882 16.8462 18.1743 16.0718 18.16 15.296V14.176C17.3527 13.9825 16.5355 13.833 15.712 13.728C14.8842 13.6221 14.0505 13.5687 13.216 13.568C11.8148 13.4629 10.42 13.8413 9.264 14.64C8.84648 15.0084 8.51636 15.4652 8.2977 15.9772C8.07904 16.4893 7.97734 17.0437 8 17.6C7.96218 18.1111 8.02924 18.6246 8.19708 19.1088C8.36492 19.5931 8.62999 20.0379 8.976 20.416C9.34959 20.7551 9.78634 21.0172 10.2613 21.1874C10.7362 21.3576 11.2401 21.4326 11.744 21.408V21.408ZM33.104 24.288C32.7435 24.321 32.3826 24.2307 32.08 24.032C31.7968 23.7467 31.6022 23.3855 31.52 22.992L25.296 2.416C25.1752 2.06903 25.0947 1.70934 25.056 1.344C25.0424 1.25474 25.05 1.16353 25.0782 1.07775C25.1064 0.991971 25.1543 0.914013 25.2182 0.850169C25.282 0.786326 25.36 0.738385 25.4458 0.710215C25.5315 0.682045 25.6227 0.674436 25.712 0.688001H28.32C28.6858 0.651325 29.053 0.741726 29.36 0.944001C29.6248 1.23796 29.8069 1.59679 29.888 1.984L34.352 19.584L38.496 1.984C38.56 1.59565 38.7447 1.23734 39.024 0.960001C39.3447 0.762098 39.7205 0.672364 40.096 0.704001H42.24C42.6155 0.672364 42.9913 0.762098 43.312 0.960001C43.5884 1.24376 43.7677 1.60789 43.824 2L48 19.824L52.608 2C52.6929 1.61088 52.8808 1.2517 53.152 0.960001C53.459 0.757726 53.8262 0.667325 54.192 0.704001H56.656C56.7453 0.690436 56.8365 0.698045 56.9223 0.726215C57.008 0.754385 57.086 0.802326 57.1498 0.866169C57.2137 0.930013 57.2616 1.00797 57.2898 1.09375C57.318 1.17953 57.3256 1.27074 57.312 1.36C57.3253 1.49835 57.3253 1.63765 57.312 1.776C57.2609 1.99824 57.1968 2.21728 57.12 2.432L50.72 23.008C50.6378 23.4015 50.4432 23.7627 50.16 24.048C49.8575 24.2467 49.4965 24.337 49.136 24.304H46.8C46.4217 24.3436 46.0416 24.2472 45.728 24.032C45.4535 23.7342 45.2751 23.3607 45.216 22.96L41.072 5.824L36.976 22.944C36.9169 23.3447 36.7385 23.7182 36.464 24.016C36.1504 24.2312 35.7703 24.3276 35.392 24.288H33.104ZM67.28 24.992C65.9014 24.9943 64.5271 24.8386 63.184 24.528C62.1158 24.313 61.0821 23.9523 60.112 23.456C59.8203 23.3325 59.5718 23.1251 59.3981 22.8602C59.2243 22.5953 59.1331 22.2848 59.136 21.968V20.624C59.136 20.0693 59.3387 19.792 59.744 19.792C59.9137 19.7945 60.0816 19.827 60.24 19.888L60.912 20.16C61.8511 20.5755 62.833 20.8867 63.84 21.088C64.8929 21.3043 65.9652 21.4115 67.04 21.408C68.3931 21.4882 69.7413 21.1831 70.928 20.528C71.3611 20.2707 71.7172 19.9018 71.9592 19.46C72.2013 19.0182 72.3203 18.5195 72.304 18.016C72.3131 17.6743 72.2542 17.3343 72.1305 17.0156C72.0069 16.697 71.8211 16.4061 71.584 16.16C70.7764 15.4832 69.8238 15.0014 68.8 14.752L64.944 13.536C63.3203 13.0848 61.874 12.1467 60.8 10.848C59.9423 9.74532 59.4752 8.38897 59.472 6.992C59.4497 5.95942 59.6979 4.93897 60.192 4.032C60.6701 3.17884 61.3181 2.4328 62.096 1.84C62.9116 1.2199 63.8333 0.753614 64.816 0.464001C65.9028 0.150395 67.0289 -0.00585952 68.16 7.8734e-07C68.7591 -0.0005269 69.3576 0.0368813 69.952 0.112001C70.56 0.186667 71.136 0.288001 71.68 0.416001C72.224 0.544001 72.7307 0.682667 73.2 0.832001C73.5864 0.953173 73.9612 1.10845 74.32 1.296C74.623 1.45937 74.8897 1.68254 75.104 1.952C75.2732 2.21342 75.357 2.5209 75.344 2.832V4.096C75.344 4.65067 75.1413 4.928 74.736 4.928C74.3773 4.88794 74.0297 4.7793 73.712 4.608C72.0975 3.90667 70.3521 3.55758 68.592 3.584C67.3678 3.52036 66.1484 3.7797 65.056 4.336C64.6468 4.57503 64.3119 4.92296 64.0888 5.34105C63.8656 5.75914 63.7629 6.23097 63.792 6.704C63.784 7.05594 63.8496 7.40567 63.9847 7.73078C64.1197 8.0559 64.3211 8.34923 64.576 8.592C65.4385 9.28184 66.4359 9.78328 67.504 10.064L71.28 11.2C72.879 11.6156 74.3134 12.5086 75.392 13.76C76.238 14.858 76.6788 16.2145 76.64 17.6C76.6541 18.6707 76.4128 19.7293 75.936 20.688C75.4701 21.6039 74.8093 22.4067 74 23.04C73.1179 23.7213 72.113 24.2265 71.04 24.528C69.8155 24.8627 68.5491 25.0189 67.28 24.992V24.992Z" fill="#252F3E"/>
<path fill-rule="evenodd" clip-rule="evenodd" d="M72.304 38.096C63.552 44.56 50.848 48 40 48C25.3639 48.0964 11.2212 42.7144 0.35202 32.912C-0.46398 32.176 0.25602 31.168 1.24802 31.728C13.3055 38.6252 26.9572 42.2491 40.848 42.24C51.2216 42.1843 61.482 40.08 71.04 36.048C72.512 35.424 73.76 37.024 72.304 38.096Z" fill="#FF9900"/>
<path fill-rule="evenodd" clip-rule="evenodd" d="M75.952 33.936C74.832 32.496 68.544 33.264 65.728 33.6C64.88 33.696 64.736 32.96 65.504 32.416C70.512 28.896 78.736 29.904 79.68 31.088C80.624 32.272 79.424 40.512 74.736 44.448C74.016 45.056 73.328 44.736 73.648 43.936C74.704 41.28 77.072 35.376 75.952 33.936Z" fill="#FF9900"/>
<path d="M22.544 17.36C22.5186 18.1605 22.6212 18.9599 22.848 19.728C23.0817 20.3859 23.3708 21.0229 23.712 21.632C23.8282 21.8143 23.8945 22.024 23.904 22.24C23.8872 22.402 23.8319 22.5576 23.7429 22.694C23.6538 22.8303 23.5335 22.9435 23.392 23.024L21.792 24.144C21.585 24.2894 21.3407 24.3727 21.088 24.384C20.9393 24.3787 20.7931 24.3433 20.6584 24.2801C20.5237 24.2169 20.4031 24.127 20.304 24.016C19.9324 23.6483 19.6097 23.2342 19.344 22.784C19.0773 22.336 18.8053 21.8027 18.528 21.184C17.5909 22.3535 16.3987 23.2932 15.0426 23.931C13.6865 24.5689 12.2024 24.888 10.704 24.864C9.73634 24.917 8.76785 24.7759 7.85556 24.4489C6.94328 24.1219 6.10565 23.6157 5.392 22.96C4.73089 22.2875 4.21616 21.4854 3.88022 20.6043C3.54427 19.7231 3.39439 18.7819 3.44 17.84C3.39759 16.8162 3.58545 15.796 3.98975 14.8545C4.39404 13.913 5.00445 13.0742 5.776 12.4C7.62862 10.9411 9.94941 10.2073 12.304 10.336C13.2464 10.3387 14.1874 10.4082 15.12 10.544C16.1013 10.6827 17.12 10.8747 18.176 11.12V9.168C18.3314 7.63825 17.8772 6.10895 16.912 4.912C15.6772 3.96242 14.1257 3.52159 12.576 3.68C11.6109 3.68489 10.6496 3.80303 9.712 4.032C8.73626 4.26533 7.779 4.57015 6.848 4.944C6.54704 5.08231 6.23698 5.19992 5.92 5.296H5.504C5.13067 5.296 4.944 5.01867 4.944 4.464V3.2C4.92112 2.87888 4.98758 2.55768 5.136 2.272C5.33654 2.02606 5.59491 1.83365 5.888 1.712C6.95883 1.199 8.07933 0.79691 9.232 0.512001C10.5857 0.164426 11.9784 -0.00765113 13.376 7.8734e-07C15.8897 -0.222782 18.3901 0.55319 20.336 2.16C21.1271 3.04499 21.7306 4.08115 22.1101 5.20589C22.4896 6.33063 22.6372 7.52063 22.544 8.704V17.36ZM11.744 21.408C12.6823 21.3943 13.612 21.2268 14.496 20.912C15.4705 20.5745 16.3375 19.9836 17.008 19.2C17.4211 18.7393 17.7271 18.1929 17.904 17.6C18.0882 16.8462 18.1743 16.0718 18.16 15.296V14.176C17.3527 13.9825 16.5355 13.833 15.712 13.728C14.8842 13.6221 14.0505 13.5687 13.216 13.568C11.8148 13.4629 10.42 13.8413 9.264 14.64C8.84648 15.0084 8.51636 15.4652 8.2977 15.9772C8.07904 16.4893 7.97734 17.0437 8 17.6C7.96218 18.1111 8.02924 18.6246 8.19708 19.1088C8.36492 19.5931 8.62999 20.0379 8.976 20.416C9.34959 20.7551 9.78634 21.0172 10.2613 21.1874C10.7362 21.3576 11.2401 21.4326 11.744 21.408V21.408ZM33.104 24.288C32.7435 24.321 32.3826 24.2307 32.08 24.032C31.7968 23.7467 31.6022 23.3855 31.52 22.992L25.296 2.416C25.1752 2.06903 25.0947 1.70934 25.056 1.344C25.0424 1.25474 25.05 1.16353 25.0782 1.07775C25.1064 0.991971 25.1543 0.914013 25.2182 0.850169C25.282 0.786326 25.36 0.738385 25.4458 0.710215C25.5315 0.682045 25.6227 0.674436 25.712 0.688001H28.32C28.6858 0.651325 29.053 0.741726 29.36 0.944001C29.6248 1.23796 29.8069 1.59679 29.888 1.984L34.352 19.584L38.496 1.984C38.56 1.59565 38.7447 1.23734 39.024 0.960001C39.3447 0.762098 39.7205 0.672364 40.096 0.704001H42.24C42.6155 0.672364 42.9913 0.762098 43.312 0.960001C43.5884 1.24376 43.7677 1.60789 43.824 2L48 19.824L52.608 2C52.6929 1.61088 52.8808 1.2517 53.152 0.960001C53.459 0.757726 53.8262 0.667325 54.192 0.704001H56.656C56.7453 0.690436 56.8365 0.698045 56.9223 0.726215C57.008 0.754385 57.086 0.802326 57.1498 0.866169C57.2137 0.930013 57.2616 1.00797 57.2898 1.09375C57.318 1.17953 57.3256 1.27074 57.312 1.36C57.3253 1.49835 57.3253 1.63765 57.312 1.776C57.2609 1.99824 57.1968 2.21728 57.12 2.432L50.72 23.008C50.6378 23.4015 50.4432 23.7627 50.16 24.048C49.8575 24.2467 49.4965 24.337 49.136 24.304H46.8C46.4217 24.3436 46.0416 24.2472 45.728 24.032C45.4535 23.7342 45.2751 23.3607 45.216 22.96L41.072 5.824L36.976 22.944C36.9169 23.3447 36.7385 23.7182 36.464 24.016C36.1504 24.2312 35.7703 24.3276 35.392 24.288H33.104ZM67.28 24.992C65.9014 24.9943 64.5271 24.8386 63.184 24.528C62.1158 24.313 61.0821 23.9523 60.112 23.456C59.8203 23.3325 59.5718 23.1251 59.3981 22.8602C59.2243 22.5953 59.1331 22.2848 59.136 21.968V20.624C59.136 20.0693 59.3387 19.792 59.744 19.792C59.9137 19.7945 60.0816 19.827 60.24 19.888L60.912 20.16C61.8511 20.5755 62.833 20.8867 63.84 21.088C64.8929 21.3043 65.9652 21.4115 67.04 21.408C68.3931 21.4882 69.7413 21.1831 70.928 20.528C71.3611 20.2707 71.7172 19.9018 71.9592 19.46C72.2013 19.0182 72.3203 18.5195 72.304 18.016C72.3131 17.6743 72.2542 17.3343 72.1305 17.0156C72.0069 16.697 71.8211 16.4061 71.584 16.16C70.7764 15.4832 69.8238 15.0014 68.8 14.752L64.944 13.536C63.3203 13.0848 61.874 12.1467 60.8 10.848C59.9423 9.74532 59.4752 8.38897 59.472 6.992C59.4497 5.95942 59.6979 4.93897 60.192 4.032C60.6701 3.17884 61.3181 2.4328 62.096 1.84C62.9116 1.2199 63.8333 0.753614 64.816 0.464001C65.9028 0.150395 67.0289 -0.00585952 68.16 7.8734e-07C68.7591 -0.0005269 69.3576 0.0368813 69.952 0.112001C70.56 0.186667 71.136 0.288001 71.68 0.416001C72.224 0.544001 72.7307 0.682667 73.2 0.832001C73.5864 0.953173 73.9612 1.10845 74.32 1.296C74.623 1.45937 74.8897 1.68254 75.104 1.952C75.2732 2.21342 75.357 2.5209 75.344 2.832V4.096C75.344 4.65067 75.1413 4.928 74.736 4.928C74.3773 4.88794 74.0297 4.7793 73.712 4.608C72.0975 3.90667 70.3521 3.55758 68.592 3.584C67.3678 3.52036 66.1484 3.7797 65.056 4.336C64.6468 4.57503 64.3119 4.92296 64.0888 5.34105C63.8656 5.75914 63.7629 6.23097 63.792 6.704C63.784 7.05594 63.8496 7.40567 63.9847 7.73078C64.1197 8.0559 64.3211 8.34923 64.576 8.592C65.4385 9.28184 66.4359 9.78328 67.504 10.064L71.28 11.2C72.879 11.6156 74.3134 12.5086 75.392 13.76C76.238 14.858 76.6788 16.2145 76.64 17.6C76.6541 18.6707 76.4128 19.7293 75.936 20.688C75.4701 21.6039 74.8093 22.4067 74 23.04C73.1179 23.7213 72.113 24.2265 71.04 24.528C69.8155 24.8627 68.5491 25.0189 67.28 24.992V24.992Z" fill="#252F3E"/>
<path fill-rule="evenodd" clip-rule="evenodd" d="M72.304 38.096C63.552 44.56 50.848 48 40 48C25.3639 48.0964 11.2212 42.7144 0.35202 32.912C-0.46398 32.176 0.25602 31.168 1.24802 31.728C13.3055 38.6252 26.9572 42.2491 40.848 42.24C51.2216 42.1843 61.482 40.08 71.04 36.048C72.512 35.424 73.76 37.024 72.304 38.096Z" fill="#FF9900"/>
<path fill-rule="evenodd" clip-rule="evenodd" d="M75.952 33.936C74.832 32.496 68.544 33.264 65.728 33.6C64.88 33.696 64.736 32.96 65.504 32.416C70.512 28.896 78.736 29.904 79.68 31.088C80.624 32.272 79.424 40.512 74.736 44.448C74.016 45.056 73.328 44.736 73.648 43.936C74.704 41.28 77.072 35.376 75.952 33.936Z" fill="#FF9900"/>
</g>
<defs>
<clipPath id="clip0_10_150">
<rect width="80" height="48" fill="white"/>
</clipPath>
</defs>
</svg>
