<svg width="72" height="80" viewBox="0 0 72 80" fill="none" xmlns="http://www.w3.org/2000/svg">
<path fill-rule="evenodd" clip-rule="evenodd" d="M71.3151 23.52C71.3145 22.1749 71.0263 20.9862 70.4434 19.9661C69.8708 18.9629 69.0133 18.1221 67.863 17.4574C58.3686 11.9934 48.8649 6.54626 39.3734 1.07679C36.8146 -0.397594 34.3336 -0.343843 31.7938 1.1517C28.0147 3.37609 9.09406 14.195 3.45597 17.4543C1.13404 18.7958 0.00418567 20.8489 0.00362758 23.5175C0 34.5058 0.00362758 45.4937 0 56.4822C0.000558089 57.7979 0.276533 58.9634 0.833785 59.9682C1.40666 61.0017 2.27617 61.8657 3.4529 62.5455C9.09127 65.8048 28.0144 76.6228 31.7926 78.8478C34.3336 80.3442 36.8146 80.3976 39.3743 78.9227C48.866 73.4529 58.3702 68.006 67.8661 62.5421C69.0428 61.8626 69.9123 60.9981 70.4852 59.9654C71.0416 58.9606 71.3182 57.7951 71.3187 56.4792C71.3187 56.4792 71.3187 34.5085 71.3151 23.52Z" fill="#5C8DBC"/>
<path fill-rule="evenodd" clip-rule="evenodd" d="M35.7684 39.8928L0.83374 59.9682C1.40662 61.0017 2.27612 61.8656 3.45285 62.5455C9.09122 65.8048 28.0143 76.6228 31.7926 78.8478C34.3336 80.3442 36.8146 80.3976 39.3742 78.9227C48.8659 73.4529 58.3702 68.006 67.8661 62.5421C69.0428 61.8626 69.9123 60.9981 70.4852 59.9654L35.7684 39.8928Z" fill="#1A4674"/>
<path fill-rule="evenodd" clip-rule="evenodd" d="M25.4212 45.8393C27.454 49.3813 31.2756 51.7703 35.6593 51.7703C40.0702 51.7703 43.9135 49.3509 45.936 45.7711L35.7685 39.8928L25.4212 45.8393Z" fill="#1A4674"/>
<path fill-rule="evenodd" clip-rule="evenodd" d="M71.3151 23.52C71.3145 22.1749 71.0263 20.9862 70.4433 19.9661L35.7684 39.8928L70.4852 59.9655C71.0416 58.9606 71.3181 57.7951 71.3187 56.4792C71.3187 56.4792 71.3187 34.5086 71.3151 23.52Z" fill="#1B598E"/>
<path fill-rule="evenodd" clip-rule="evenodd" d="M69.4062 41.3276H66.6934V44.0358H63.9799V41.3276H61.2673V38.6203H63.9799V35.9128H66.6934V38.6203H69.4062V41.3276Z" fill="white"/>
<path fill-rule="evenodd" clip-rule="evenodd" d="M59.507 41.3276H56.7945V44.0358H54.0816V41.3276H51.3687V38.6203H54.0816V35.9128H56.7945V38.6203H59.507V41.3276Z" fill="white"/>
<path fill-rule="evenodd" clip-rule="evenodd" d="M45.936 45.7711C43.9134 49.351 40.0702 51.7703 35.6593 51.7703C31.2755 51.7703 27.454 49.3813 25.4212 45.8394C24.4336 44.1182 23.8658 42.1256 23.8658 39.9998C23.8658 33.4993 29.1461 28.2295 35.6593 28.2295C40.0149 28.2295 43.8163 30.5887 45.8592 34.0944L56.1674 28.1702C52.0702 21.1113 44.4207 16.3623 35.6593 16.3623C22.5788 16.3623 11.9754 26.9453 11.9754 39.9998C11.9754 44.2825 13.117 48.2988 15.1121 51.7631C19.199 58.8593 26.8702 63.6375 35.6593 63.6375C44.4645 63.6375 52.1478 58.84 56.2288 51.723L45.936 45.7711Z" fill="white"/>
</svg>
