<svg width="80" height="80" viewBox="0 0 80 80" fill="none" xmlns="http://www.w3.org/2000/svg">
<path d="M41.35 31.6575H48.5V38.9675H52.115C53.8057 38.9598 55.4841 38.6786 57.085 38.135C57.9257 37.8567 58.7351 37.4914 59.5 37.045C58.5216 35.6905 57.9414 34.0894 57.825 32.4225C57.5241 29.99 58.1488 27.5333 59.575 25.54L60.325 24.67L61.22 25.39C63.5933 27.1301 65.2014 29.721 65.7075 32.62C68.4669 31.7725 71.4495 32.0502 74.005 33.3925L74.9875 33.9575L74.47 34.9575C73.4232 36.7199 71.8767 38.1318 70.0266 39.0144C68.1764 39.8969 66.106 40.2104 64.0775 39.915C57.8775 55.335 44.4 62.635 28.055 62.635C19.61 62.635 11.865 59.4775 7.45251 51.9875L7.38001 51.865L6.75001 50.5675C5.2969 47.2633 4.72911 43.6377 5.10251 40.0475L5.20251 38.965H11.315V31.6575H18.4675V24.5H32.77V17.355H41.35V31.6575Z" fill="#0096E6"/>
<path d="M30.0149 61.4175C26.517 59.927 23.7125 57.1681 22.1649 53.695C20.3159 54.1897 18.4176 54.4773 16.5049 54.5525C15.6716 54.5992 14.8008 54.6225 13.8924 54.6225C12.8391 54.6225 11.7299 54.5917 10.5649 54.53C12.8144 56.872 15.5415 58.7024 18.5611 59.8969C21.5807 61.0914 24.8221 61.6219 28.0649 61.4525C28.7183 61.4525 29.3683 61.4408 30.0149 61.4175Z" fill="white"/>
<path d="M17.7 33.365H18.2V38.5325H17.7V33.365ZM16.76 33.365H17.26V38.5325H16.75V33.365H16.76ZM15.82 33.365H16.32V38.5325H15.82V33.365ZM14.88 33.365H15.38V38.5325H14.88V33.365ZM13.94 33.365H14.44V38.5325H13.94V33.365ZM13.02 33.365H13.52V38.5325H13.02V33.365ZM12.5 32.85H18.705V39.0475H12.5V32.85ZM19.6475 25.6975H25.8475V31.895H19.6575L19.6475 25.6975ZM24.84 26.215H25.34V31.38H24.84V26.215ZM23.9 26.215H24.4V31.38H23.9V26.215ZM22.96 26.215H23.46V31.38H22.96V26.215ZM22.02 26.215H22.52V31.38H22.02V26.215ZM21.08 26.215H21.58V31.38H21.08V26.215ZM20.16 26.215H20.66V31.38H20.16V26.215ZM19.6425 32.8475H25.8425V39.0475H19.6575V32.85L19.6425 32.8475ZM24.835 33.365H25.335V38.5325H24.835V33.365ZM23.895 33.365H24.395V38.5325H23.895V33.365ZM22.955 33.365H23.455V38.5325H22.955V33.365V33.365ZM22.015 33.365H22.515V38.5325H22.015V33.365ZM21.075 33.365H21.575V38.5325H21.075V33.365ZM20.155 33.365H20.655V38.5325H20.155V33.365ZM26.79 32.8475H33V39.0475H26.8V32.85L26.79 32.8475ZM31.98 33.365H32.5V38.5325H32L31.98 33.365ZM31.04 33.365H31.54V38.5325H31.04V33.365ZM30.1 33.365H30.6V38.5325H30.1V33.365ZM29.16 33.365H29.66V38.5325H29.16V33.365ZM28.22 33.365H28.72V38.5325H28.22V33.365ZM27.3 33.365H27.8V38.5325H27.3V33.365ZM26.785 25.6975H33V31.895H26.8V25.6975H26.785ZM31.975 26.215H32.5V31.38H32L31.975 26.215ZM31.035 26.215H31.535V31.38H31.035V26.215ZM30.095 26.215H30.595V31.38H30.095V26.215ZM29.155 26.215H29.655V31.38H29.155V26.215ZM28.215 26.215H28.715V31.38H28.215V26.215ZM27.295 26.215H27.795V31.38H27.295V26.215ZM33.93 32.8475H40.1275V39.0475H33.9275V32.85L33.93 32.8475ZM39.12 33.365H39.62V38.5325H39.12V33.365ZM38.18 33.365H38.68V38.5325H38.18V33.365ZM37.24 33.365H37.74V38.5325H37.24V33.365ZM36.3 33.365H36.8V38.5325H36.3V33.365ZM35.36 33.365H35.86V38.5325H35.36V33.365ZM34.44 33.365H34.92V38.5325H34.42V33.365H34.44ZM33.925 25.6975H40.1225V31.895H33.9225V25.6975H33.925ZM39.115 26.215H39.615V31.38H39.115V26.215ZM38.175 26.215H38.675V31.38H38.175V26.215ZM37.235 26.215H37.735V31.38H37.235V26.215ZM36.295 26.215H36.795V31.38H36.295V26.215ZM35.355 26.215H35.855V31.38H35.355V26.215ZM34.435 26.215H34.915V31.38H34.415V26.215H34.435ZM33.92 18.5475H40.1175V24.75H33.9175V18.5475H33.92ZM39.11 19.0625H39.61V24.2275H39.11V19.0625ZM38.17 19.0625H38.67V24.2275H38.17V19.0625ZM37.23 19.0625H37.73V24.2275H37.23V19.0625ZM36.29 19.0625H36.79V24.2275H36.29V19.0625ZM35.35 19.0625H35.85V24.2275H35.35V19.0625ZM34.43 19.0625H34.91V24.2275H34.41V19.0625H34.43ZM41.065 32.8475H47.2625V39.0475H41.0625V32.85L41.065 32.8475ZM46.255 33.365H46.7425V38.5325H46.2425V33.365H46.255ZM45.315 33.365H45.83V38.5325H45.315V33.365ZM44.375 33.365H44.875V38.5325H44.375V33.365ZM43.435 33.365H43.935V38.5325H43.435V33.365ZM42.495 33.365H42.995V38.5325H42.4825V33.365H42.495ZM41.575 33.365H42.075V38.5325H41.59V33.365H41.575Z" fill="white"/>
<path d="M25.47 49.095C25.8082 49.095 26.1388 49.1953 26.42 49.3832C26.7012 49.5711 26.9204 49.8381 27.0498 50.1506C27.1793 50.4631 27.2131 50.8069 27.1472 51.1386C27.0812 51.4703 26.9183 51.775 26.6792 52.0142C26.44 52.2533 26.1353 52.4162 25.8036 52.4821C25.4719 52.5481 25.1281 52.5143 24.8156 52.3848C24.5032 52.2554 24.2361 52.0362 24.0482 51.755C23.8603 51.4738 23.76 51.1432 23.76 50.805C23.76 50.3515 23.9402 49.9165 24.2609 49.5958C24.5815 49.2752 25.0165 49.095 25.47 49.095ZM25.47 49.58C25.6213 49.5799 25.7714 49.6078 25.9125 49.6625C25.8453 49.7009 25.788 49.7543 25.7449 49.8186C25.7019 49.8829 25.6744 49.9563 25.6645 50.033C25.6547 50.1097 25.6628 50.1877 25.6881 50.2608C25.7135 50.3338 25.7555 50.4 25.8108 50.4541C25.8661 50.5082 25.9332 50.5487 26.0068 50.5725C26.0805 50.5963 26.1586 50.6026 26.2351 50.5911C26.3116 50.5795 26.3843 50.5504 26.4477 50.506C26.511 50.4615 26.5631 50.403 26.6 50.335C26.702 50.5774 26.7232 50.8461 26.6607 51.1015C26.5981 51.3569 26.455 51.5854 26.2525 51.7532C26.0501 51.921 25.799 52.0192 25.5364 52.0332C25.2738 52.0473 25.0137 51.9765 24.7945 51.8313C24.5752 51.6861 24.4085 51.4743 24.319 51.227C24.2295 50.9798 24.2219 50.7103 24.2974 50.4584C24.3729 50.2065 24.5274 49.9856 24.7381 49.8283C24.9488 49.671 25.2046 49.5857 25.4675 49.585L25.47 49.58Z" fill="white"/>
</svg>
