<svg width="214" height="80" viewBox="0 0 214 80" fill="none" xmlns="http://www.w3.org/2000/svg">
<path d="M16.0883 24.4153C15.7926 24.4153 15.497 24.1197 15.7926 23.824L17.8623 20.8674C18.1579 20.5717 18.4536 20.2761 19.0449 20.2761H56.2985C56.5941 20.2761 56.8898 20.5717 56.5941 20.8674L54.8202 23.5283C54.5245 23.824 54.2288 24.1197 53.6375 24.1197L16.0883 24.4153ZM0.418132 33.8766C0.122469 33.8766 -0.173196 33.5809 0.122467 33.2852L2.19211 30.3286C2.48777 30.0329 2.78344 29.7373 3.37476 29.7373H50.9765C51.2722 29.7373 51.5679 30.0329 51.5679 30.3286L50.6809 33.2852C50.6809 33.5809 50.0895 33.8766 49.7939 33.8766H0.418132ZM25.5495 43.6334C25.2538 43.6334 24.9582 43.3378 25.2538 43.0421L26.7321 40.3811C27.0278 40.0855 27.3235 39.7898 27.9148 39.7898H48.6112C48.9069 39.7898 49.2025 40.0855 49.2025 40.3811L48.9069 42.7464C48.9069 43.0421 48.6112 43.3378 48.3156 43.3378L25.5495 43.6334ZM133.762 22.3457L116.318 26.7806C114.84 27.0763 114.544 27.372 113.361 25.598C111.883 23.824 110.7 22.6414 108.335 21.7544C101.831 18.5021 95.326 19.3891 89.4127 23.2327C82.3168 27.6676 78.7689 34.4679 78.7689 43.0421C78.7689 51.3207 84.6821 58.1209 92.9607 59.3036C100.057 60.1906 105.97 57.8253 110.7 52.5033C111.587 51.3207 112.474 50.138 113.657 48.6597H93.552C91.4824 48.6597 90.891 47.1814 91.4824 45.4074C92.9607 42.1551 95.326 36.8332 96.8043 34.1722C97.1 33.5809 97.987 32.3982 99.4653 32.3982H137.31C137.014 35.3549 137.014 38.0158 136.719 40.9725C135.536 48.364 132.875 55.46 128.145 61.3732C120.753 71.1301 110.996 77.339 98.5783 79.113C88.2301 80.5913 78.7689 78.5217 70.4903 72.3128C62.8031 66.3995 58.3681 58.7123 57.1855 49.251C55.7071 38.0158 59.2551 27.6676 66.0553 18.7977C73.4469 9.04085 83.2038 2.83193 95.326 0.762292C105.083 -1.01169 114.544 0.170963 122.823 5.78856C128.44 9.33652 132.284 14.3628 134.945 20.5717C135.241 21.7544 134.945 22.05 133.762 22.3457V22.3457Z" fill="#00ACD7"/>
<path d="M168.059 80C158.598 79.7044 150.024 77.0434 142.632 70.8345C136.423 65.5125 132.579 58.7123 131.397 50.7294C129.623 38.9028 132.875 28.5546 139.971 19.3891C147.658 9.33654 156.824 4.31026 169.242 1.94496C179.886 0.170981 189.938 1.05797 198.808 7.26689C207.087 12.8845 212.113 20.5717 213.591 30.6243C215.365 44.8161 211.226 56.0513 201.765 65.8082C194.964 72.9041 186.39 77.0434 176.929 79.113C173.677 79.7044 170.72 79.7044 168.059 80V80ZM192.895 38.0159C192.895 36.5375 192.895 35.6506 192.599 34.4679C190.825 24.1197 181.364 18.2064 171.311 20.5717C161.554 22.6414 155.345 28.8503 152.98 38.6072C151.206 46.5901 155.05 54.8687 162.441 58.4166C168.059 60.7819 173.972 60.4863 179.294 57.8253C187.868 53.686 192.303 46.8857 192.895 38.0159Z" fill="#00ACD7"/>
</svg>
