<svg width="80" height="71" viewBox="0 0 80 71" fill="none" xmlns="http://www.w3.org/2000/svg">
<g clip-path="url(#clip0_10_125)">
<path d="M25.4869 59.5256L11.4431 35.2022L25.4869 10.8784H53.5731L67.6166 35.2022L53.5728 59.5256H25.4872" fill="#CAC9C2"/>
<path d="M39.9991 46.305C33.9632 46.305 29.0529 41.3944 29.0529 35.3584C29.0529 29.3228 33.9632 24.4125 39.9991 24.4125C46.0347 24.4125 50.945 29.3228 50.945 35.3584C50.945 41.3944 46.0347 46.305 39.9991 46.305Z" fill="white"/>
<path d="M62.0203 2.72376C61.1593 1.23314 59.0468 0.0137634 57.3259 0.0137634H22.7187C20.9975 0.0137634 18.885 1.23345 18.0246 2.72376L7.91246 20.2388C7.83308 21.3703 8.04058 22.5522 8.53964 23.416L15.3846 35.1191L27.6037 14.0094H66.2256C67.1393 14.0094 68.1618 14.3553 69.0506 14.9003L62.0203 2.72376Z" fill="#5072AA"/>
<path d="M8.35215 19.4722L7.90965 20.2388C7.83027 21.3703 8.03777 22.5522 8.53652 23.4159L15.3815 35.1191L19.0234 28.8281L8.35215 19.4722Z" fill="#4D6796"/>
<path d="M23.6107 9.01156C23.0508 9.0109 22.514 8.78819 22.1181 8.39228C21.7222 7.99637 21.4994 7.45959 21.4988 6.89969C21.4994 6.33979 21.7222 5.80301 22.1181 5.4071C22.514 5.01119 23.0508 4.78847 23.6107 4.78781C24.1706 4.78831 24.7075 5.01096 25.1035 5.40689C25.4995 5.80283 25.7223 6.33971 25.7228 6.89969C25.7222 7.45964 25.4994 7.99647 25.1034 8.39239C24.7075 8.78831 24.1706 9.01098 23.6107 9.01156M58.2175 6.89969C58.2208 7.15856 58.1726 7.41551 58.0758 7.65563C57.979 7.89575 57.8355 8.11425 57.6536 8.29847C57.4717 8.4827 57.255 8.62896 57.0162 8.72879C56.7773 8.82863 56.521 8.88003 56.2621 8.88003C56.0032 8.88003 55.7468 8.82863 55.508 8.72879C55.2691 8.62896 55.0524 8.4827 54.8705 8.29847C54.6886 8.11425 54.5451 7.89575 54.4483 7.65563C54.3515 7.41551 54.3033 7.15856 54.3066 6.89969C54.3131 6.38535 54.522 5.89428 54.888 5.53286C55.254 5.17144 55.7477 4.96878 56.2621 4.96878C56.7764 4.96878 57.2701 5.17144 57.6361 5.53286C58.0021 5.89428 58.211 6.38535 58.2175 6.89969V6.89969Z" fill="white"/>
<path d="M79.324 32.695L69.0506 14.9C68.1618 14.355 67.1393 14.0094 66.2256 14.0094H52.2981L64.3409 35.2356L45.2747 68.9212C44.855 69.6475 44.1375 70.3084 43.3137 70.7962H57.3259C59.0472 70.7962 61.1597 69.5766 62.0203 68.0862L79.324 38.1153C80.185 36.6247 80.185 34.1856 79.324 32.695" fill="#CC4232"/>
<path d="M69.5144 15.6984L69.0538 14.9C68.1656 14.355 67.1431 14.0094 66.2294 14.0094H52.3019L55.9269 20.3991L69.5144 15.6984" fill="#B23F33"/>
<path d="M56.2619 65.6194C55.7019 65.6187 55.1651 65.3959 54.7692 65C54.3733 64.604 54.1506 64.0671 54.15 63.5072C54.1507 62.9473 54.3734 62.4105 54.7693 62.0146C55.1652 61.6187 55.702 61.396 56.2619 61.3953C56.8219 61.3959 57.3587 61.6186 57.7547 62.0145C58.1507 62.4104 58.3734 62.9472 58.3741 63.5072C58.3735 64.0672 58.1508 64.6041 57.7548 65.0001C57.3588 65.3961 56.8219 65.6188 56.2619 65.6194M72.6982 37.4706C72.1381 37.47 71.6012 37.2473 71.2052 36.8513C70.8093 36.4553 70.5865 35.9184 70.586 35.3584C70.5866 34.7985 70.8094 34.2616 71.2054 33.8657C71.6013 33.4698 72.1382 33.2471 72.6982 33.2466C73.2581 33.2472 73.7948 33.4699 74.1907 33.8658C74.5867 34.2617 74.8094 34.7985 74.81 35.3584C74.8095 35.9184 74.5869 36.4553 74.1909 36.8513C73.795 37.2473 73.2581 37.47 72.6982 37.4706" fill="white"/>
<path d="M27.87 56.4656L8.53966 23.4156C8.04091 22.5519 7.83341 21.37 7.91247 20.2384L0.720908 32.6947C-0.139717 34.1853 -0.139717 36.6244 0.720908 38.115L18.0247 68.0859C18.885 69.5762 20.9975 70.7956 22.7187 70.7956H43.3137C44.1375 70.3081 44.855 69.6472 45.2747 68.9206L52.3243 56.4653H27.87" fill="#ECB02A"/>
<path d="M42.1428 70.7959H43.3406C44.1647 70.3084 44.8819 69.6475 45.3013 68.9209L52.3513 56.4656H44.8438L42.1428 70.7959Z" fill="#C79732"/>
<path d="M23.6106 65.6194C23.0506 65.6187 22.5138 65.3959 22.1179 65C21.722 64.604 21.4993 64.0671 21.4987 63.5072C21.4994 62.9473 21.7221 62.4105 22.118 62.0146C22.5139 61.6187 23.0507 61.396 23.6106 61.3953C24.1706 61.3958 24.7075 61.6184 25.1035 62.0144C25.4995 62.4103 25.7222 62.9472 25.7228 63.5072C25.7223 64.0672 25.4996 64.6042 25.1036 65.0002C24.7076 65.3962 24.1706 65.6189 23.6106 65.6194M7.14527 37.4706C6.58526 37.47 6.04835 37.2473 5.65237 36.8513C5.25638 36.4553 5.03366 35.9184 5.03308 35.3584C5.03374 34.7985 5.2565 34.2616 5.65248 33.8657C6.04845 33.4698 6.58531 33.2471 7.14527 33.2466C7.70517 33.2472 8.24195 33.4699 8.63786 33.8658C9.03377 34.2617 9.25648 34.7985 9.25714 35.3584C9.25656 35.9184 9.03389 36.4552 8.63797 36.8512C8.24205 37.2472 7.70522 37.47 7.14527 37.4706" fill="white"/>
</g>
<defs>
<clipPath id="clip0_10_125">
<rect width="80" height="70.944" fill="white"/>
</clipPath>
</defs>
</svg>
