<svg width="50" height="80" viewBox="0 0 50 80" fill="none" xmlns="http://www.w3.org/2000/svg">
<g clip-path="url(#clip0_10_182)">
<path d="M48.1038 32.4754C48.1038 45.8005 37.5388 56.6129 24.4992 56.6129C11.4596 56.6129 0.894775 45.8005 0.894775 32.4754C0.894775 19.1501 11.4598 8.33765 24.4992 8.33765C37.539 8.33765 48.104 19.1501 48.104 32.4754" fill="#D33833"/>
<path d="M1.86552 38.4526C1.86552 38.4526 0.152333 13.2873 23.3571 12.5637L21.7391 9.86053L9.15627 14.0865L5.55857 18.2174L2.41766 24.2327L0.628113 31.238L1.16125 35.921" fill="#EF3D3A"/>
<path d="M8.33766 16.0092C4.20701 20.2542 1.63703 26.0984 1.63703 32.5706C1.63703 39.0427 4.20701 44.8867 8.33766 49.1317C12.4875 53.3767 18.1794 55.9847 24.4992 55.9847C30.8192 55.9847 36.5109 53.3767 40.6607 49.1319C44.7916 44.8867 47.3613 39.0427 47.3613 32.5706C47.3613 26.0982 44.7916 20.2542 40.6607 16.0092C36.5111 11.7832 30.8192 9.15645 24.4992 9.15645C18.1984 9.15645 12.4877 11.7642 8.33766 16.0092V16.0092ZM7.29075 50.1406C2.89363 45.6482 0.171326 39.4235 0.171326 32.5706C0.171326 25.7176 2.89363 19.4928 7.29075 14.9813C11.6881 10.4888 17.7796 7.69055 24.4994 7.69055C31.219 7.69055 37.3105 10.4888 41.7078 14.9813C46.1049 19.4738 48.8272 25.6984 48.8272 32.5706C48.8272 39.4233 46.1049 45.6482 41.7078 50.1406C37.3105 54.6521 31.219 57.4314 24.4992 57.4314C17.7796 57.4314 11.6881 54.6521 7.29075 50.1406V50.1406Z" fill="#231F20"/>
<path d="M34.4361 32.6085L30.8382 33.1415L25.9841 33.6936L22.8432 33.7698L19.7784 33.6746L17.4369 32.9514L15.3619 30.7048L13.7439 26.1172L13.3823 25.1273L11.2313 24.404L9.97467 22.3292L9.08009 19.3594L10.07 16.7517L12.4115 15.933L14.296 16.8278L15.1906 18.8077L16.2757 18.6362L16.6373 18.1794L16.2757 16.1044L16.1805 13.4964L16.7135 9.89871L16.6945 7.84288L18.3315 5.21592L21.2059 3.14091L26.2316 0.989929L31.8091 1.80835L36.6632 5.31108L38.9095 8.90878L40.3561 11.5167L40.7179 17.9889L39.6328 23.5664L37.6529 28.5159L35.7876 31.1618" fill="#F0D6B7"/>
<path d="M31.3903 48.1609L18.541 48.6939V50.8449L19.6261 58.4023L19.093 59.0304L10.108 55.9656L9.47991 54.8806L8.58513 44.7154L6.47214 38.6239L6.01535 37.1772L13.2109 32.2279L15.4573 31.3331L17.4369 33.7696L19.1501 35.2926L21.13 35.9208L22.0246 36.1874L23.1096 40.8702L23.9283 41.8601L26.0031 41.1367L24.5564 43.9348L32.3611 47.6278L31.3903 48.1608" fill="#335061"/>
<path d="M10.07 16.7896L12.4115 15.9712L14.296 16.8658L15.1906 18.8457L16.2757 18.6743L16.5423 17.5893L16.0092 15.5142L16.5422 10.565L16.0854 7.86187L17.7034 5.97737L21.2059 3.19809L20.216 1.84653L15.2668 4.28298L13.1919 5.9012L12.0307 8.41382L10.2413 10.8505L9.70839 13.7249L10.07 16.7896" fill="#6D6B6D"/>
<path d="M13.7631 8.33765C13.7631 8.33765 15.1144 5.00643 20.5017 3.3884C25.8887 1.77036 20.7683 2.22715 20.7683 2.22715L14.9239 4.47348L12.678 6.71962L11.6881 8.50897L13.7631 8.33765M11.0599 16.1615C11.0599 16.1615 9.17525 9.86053 16.3708 8.96595L16.1044 7.88087L11.1551 9.04211L9.70839 13.7251L10.07 16.7896L11.0599 16.1615" fill="#DCD9D8"/>
<path d="M13.9344 24.5184L15.1144 23.3761C15.1144 23.3761 15.6476 23.4333 15.7427 24.0614C15.8379 24.6897 16.1044 30.3624 19.9687 33.4081C20.3304 33.6936 17.0943 32.9512 17.0943 32.9512L14.2197 28.4587M30.4765 22.805C30.4765 22.805 30.6858 20.0829 31.4283 20.2924C32.1707 20.5017 32.1707 21.2439 32.1707 21.2439C32.1707 21.2439 30.3814 22.3862 30.4765 22.805M37.9386 12.8303C37.9386 12.8303 36.4537 13.1348 36.3206 14.4483C36.1872 15.7617 37.9386 14.7148 38.2051 14.6197M27.0692 12.9255C27.0692 12.9255 25.0893 13.1919 25.0893 14.4483C25.0893 15.7046 27.3356 15.6094 27.9637 15.0764M14.848 18.7695C14.848 18.7695 11.4408 16.6945 11.0791 18.6743C10.7175 20.654 9.91789 22.0815 11.6121 24.1565L10.4508 23.7949L9.36594 21.0156L9.00412 18.3125L11.0791 16.1615L13.4204 16.3328L14.772 17.4179L14.8481 18.7695M16.4662 13.0968C16.4662 13.0968 17.9889 5.17774 25.7176 3.65486C32.0754 2.39846 35.4258 3.92153 36.6822 5.36805C36.6822 5.36805 31.0095 -1.37056 25.6222 0.685268C20.2352 2.76028 16.2757 6.5293 16.3708 8.94695C16.5232 13.0966 16.466 13.0966 16.466 13.0966M37.3103 6.26282C37.3103 6.26282 34.7025 6.16767 34.6072 8.50896C34.6072 8.50896 34.6072 8.87079 34.7787 9.23242C34.7787 9.23242 36.8535 6.89093 38.1099 8.14733" fill="#F7E4CD"/>
<path d="M25.9079 9.4799C25.9079 9.4799 25.4511 5.9012 22.4054 7.97602C20.4255 9.32757 20.6158 11.2121 20.9587 11.5739C21.3203 11.9355 21.2251 12.6588 21.4916 12.164C21.7581 11.6691 21.6819 10.051 22.6718 9.59405C23.6426 9.13726 25.2798 8.64249 25.9079 9.4799" fill="#F7E4CD"/>
<path d="M17.4561 33.7698L9.00374 37.5386C9.00374 37.5386 12.5065 51.473 10.7169 55.7941L9.46072 55.3374L9.36556 50.0263L7.02408 39.9754L6.03415 37.196L14.8478 31.2568L17.4557 33.7696M18.3125 41.4791L19.5118 42.945V48.3321H18.0842C18.0842 48.3321 17.9129 44.5631 17.9129 44.1063C17.9129 43.6493 18.0842 42.0313 18.0842 42.0313M18.3507 49.1507L14.296 49.322L15.4573 50.1406L18.3315 50.5976" fill="#49728B"/>
<path d="M32.1899 48.2561L35.521 48.161L36.3396 56.4224L32.9322 56.8794L32.1897 48.2559" fill="#335061"/>
<path d="M33.0845 48.2561L38.1099 47.9894C38.1099 47.9894 40.1849 42.7737 40.1849 42.5072C40.1849 42.2406 41.9743 34.95 41.9743 34.95L37.9196 30.724L37.101 30.0008L34.95 32.1517V40.5086L33.0845 48.2561" fill="#335061"/>
<path d="M35.3306 47.6278L32.1897 48.2561L32.6467 50.7689C33.8078 51.3019 35.7876 49.8742 35.7876 49.8742M35.4258 31.8853L41.7268 36.5681L41.8981 34.4169L37.1392 30.0198L35.426 31.8853" fill="#49728B"/>
<path d="M21.4726 65.9595L19.6071 58.4023L18.6743 52.8247L18.522 48.6939L26.9548 48.2371H32.1897L31.714 57.6788L32.5324 64.9696L32.4372 66.3212L25.6033 66.8543L21.4726 65.9595" fill="white"/>
<path d="M31.0285 48.161C31.0285 48.161 30.5717 57.5077 31.9233 64.1702C31.9233 64.1702 29.2201 65.8834 25.2796 66.3211L32.837 66.0547L33.7316 65.5217L32.6467 50.7879L32.3611 47.6278" fill="#DCD9D8"/>
<path d="M36.4729 55.7182L39.9754 54.7283L46.6191 54.3666L47.609 51.3019L45.8195 45.9908L43.7447 45.7243L40.8702 46.6191L38.1289 47.9707L36.6632 47.704L35.521 48.161" fill="white"/>
<path d="M36.4157 53.9098C36.4157 53.9098 38.7572 52.8248 39.1189 52.9199L38.1289 47.9707L39.2902 47.5137C39.2902 47.5137 40.1088 52.1966 40.1088 52.7296C40.1088 52.7296 45.1342 52.9961 45.591 52.9961C45.591 52.9961 46.6761 50.9211 46.4096 48.7701L47.3995 51.6445L47.4947 53.2625L46.048 55.4135L44.4299 55.7754L41.7268 55.6802L40.832 54.5189L37.6911 54.9757L36.7012 55.3376" fill="#DCD9D8"/>
<path d="M32.875 47.5327L30.8952 42.5072L28.8203 39.5375C28.8203 39.5375 29.2773 38.2812 29.9054 38.2812H31.9804L33.9603 39.0045L33.7888 42.3359L32.875 47.5327" fill="white"/>
<path d="M33.2748 45.8195C33.2748 45.8195 30.762 40.9654 30.762 40.2419C30.762 40.2419 31.219 39.1568 31.8471 39.4235C32.4754 39.69 33.827 40.4134 33.827 40.4134V38.7001L30.762 38.0719L28.6872 38.3384L32.1897 46.6381L32.913 46.7332" fill="#DCD9D8"/>
<path d="M22.272 33.9601L19.7784 33.6934L17.4369 32.9702V33.7888L18.579 35.0452L22.1769 36.6632" fill="white"/>
<path d="M18.2555 34.2266C18.2555 34.2266 21.0346 35.3878 21.9486 35.1213L22.0435 36.2064L19.5309 35.6733L18.0081 34.5882L18.2555 34.2266" fill="#DCD9D8"/>
<path d="M36.4729 38.5859C34.95 38.5477 33.5603 38.3574 32.3611 38.0148C32.4372 37.5198 32.2849 37.044 32.4182 36.6822C32.7609 36.4347 33.3128 36.4347 33.8268 36.3777C33.389 36.1682 32.7609 36.0731 32.2659 36.2064C32.2467 35.8638 32.0946 35.6543 31.9992 35.3878C32.856 35.0832 34.8739 33.0845 36.0159 33.7316C36.5681 34.0552 36.7966 35.8446 36.8345 36.7394C36.8725 37.4626 36.7584 38.1861 36.4729 38.5859" fill="#D33833"/>
<path d="M36.4729 38.5859C34.95 38.5477 33.5603 38.3574 32.3611 38.0148C32.4372 37.5198 32.2849 37.044 32.4182 36.6822C32.7609 36.4347 33.3128 36.4347 33.8268 36.3777C33.389 36.1682 32.7609 36.0731 32.2659 36.2064C32.2467 35.8638 32.0946 35.6543 31.9992 35.3878C32.856 35.0832 34.8739 33.0845 36.0159 33.7316C36.5681 34.0552 36.7966 35.8446 36.8345 36.7394C36.8725 37.4626 36.7584 38.1861 36.4729 38.5859V38.5859Z" fill="black" stroke="#D33833" stroke-width="11.9904"/>
<path d="M29.1822 36.0921C29.1822 36.2064 29.1822 36.3204 29.163 36.4347C28.6872 36.7394 27.9256 36.7394 27.3926 37.0059C28.1543 37.0438 28.7634 37.2342 29.2963 37.4816C29.2771 37.7673 29.2771 38.0719 29.2583 38.3574C28.3825 38.9475 27.5831 39.8423 26.5552 40.4132C26.0602 40.6799 24.3661 41.3652 23.8521 41.2319C23.5664 41.1557 23.5284 40.7941 23.4143 40.4514C23.1668 39.7282 22.5957 38.5477 22.5385 37.4437C22.4813 36.0541 22.3292 33.7126 23.8329 33.9981C25.0511 34.2266 26.4599 34.7787 27.3926 35.2927C27.9827 35.6353 28.3064 36.0159 29.1822 36.0921" fill="#D33833"/>
<path d="M29.1822 36.0921C29.1822 36.2064 29.1822 36.3204 29.163 36.4347C28.6872 36.7394 27.9256 36.7394 27.3926 37.0059C28.1543 37.0438 28.7634 37.2342 29.2963 37.4816C29.2771 37.7673 29.2771 38.0719 29.2583 38.3574C28.3825 38.9475 27.5831 39.8423 26.5552 40.4132C26.0602 40.6799 24.3661 41.3652 23.8521 41.2319C23.5664 41.1557 23.5284 40.7941 23.4143 40.4514C23.1668 39.7282 22.5957 38.5477 22.5385 37.4437C22.4813 36.0541 22.3292 33.7126 23.8329 33.9981C25.0511 34.2266 26.4599 34.7787 27.3926 35.2927C27.9827 35.6353 28.3064 36.0159 29.1822 36.0921V36.0921Z" fill="black" stroke="#D33833" stroke-width="11.9904"/>
<path d="M30.0388 37.7483C29.9054 36.9867 29.7531 36.7776 29.8103 36.1111C31.8471 34.7595 32.2087 38.4336 30.0386 37.7483" fill="#D33833"/>
<path d="M30.0388 37.7483C29.9054 36.9867 29.7531 36.7776 29.8103 36.1111C31.8471 34.7595 32.2087 38.4336 30.0386 37.7483H30.0388Z" fill="black" stroke="#D33833" stroke-width="11.9904"/>
<path d="M32.9702 38.3574C32.9702 38.3574 32.3421 37.4626 32.7989 37.1962C33.2558 36.9297 33.6936 37.1962 33.9601 36.7394C34.2268 36.2824 33.9601 36.0161 34.0553 35.483C34.1504 34.95 34.5882 34.8549 35.0452 34.7597C35.502 34.6644 36.7584 34.493 36.9297 34.931L36.3967 33.3128L35.3117 32.9512L31.9043 34.931L31.733 35.921V37.9006M23.5284 41.327C23.4143 39.9183 23.3001 38.5287 23.1858 37.12C22.9955 35.0262 23.6808 35.3876 25.5081 35.3876C25.7938 35.3876 27.2213 35.7115 27.3166 35.921C27.8116 36.9297 26.498 36.7012 27.8876 37.4626C29.0488 38.0909 31.1238 37.082 30.6479 35.6543C30.3812 35.3306 29.2773 35.5591 28.8775 35.3496L26.7645 34.2647C25.8699 33.8078 23.8139 33.1225 22.8622 33.7698C20.4445 35.4068 23.0145 39.5187 23.8711 41.2318" fill="#EF3D3A"/>
<path d="M25.9079 9.47989C23.4523 8.90876 22.2341 10.5078 21.4916 12.1638C20.8253 12.0117 21.0918 11.0979 21.2633 10.6411C21.7009 9.4419 23.4715 7.82368 24.918 8.05217C25.5271 8.12833 26.3647 8.69946 25.9079 9.47989M37.8435 12.259H37.9576C38.5097 13.4012 38.9855 14.6197 39.69 15.6476C39.2142 16.7516 36.1493 17.7034 36.1872 15.7617C36.8535 15.4762 37.9958 15.7045 38.5859 15.3239C38.2433 14.3912 37.7673 13.5915 37.8435 12.2592M27.1453 12.2973C27.6783 13.2681 27.8494 14.277 28.5918 15.0005C28.9347 15.3239 29.5818 15.7237 29.2583 16.6373C29.1822 16.8468 28.63 17.3228 28.3064 17.4179C27.1453 17.7606 24.423 17.4941 25.3368 16.0282C26.3075 16.0664 27.6021 16.6565 28.3256 15.952C27.7734 15.0764 26.7835 13.3251 27.1453 12.2973ZM37.4057 22.0815C35.6543 23.2048 33.6934 24.4422 30.8002 24.1565C30.1911 23.6236 29.9436 22.4242 30.5527 21.6439C30.8572 22.1769 30.6669 23.1668 31.5426 23.3189C33.1797 23.6046 35.0832 22.31 36.2634 21.8724C36.9867 20.635 36.2064 20.1972 35.5401 19.3976C34.1886 17.7796 32.3992 15.7617 32.4562 13.3443C33.0083 12.9444 33.0463 13.9534 33.1225 14.1247C33.8268 15.7617 35.5973 17.8747 36.8725 19.2834C37.1962 19.6261 37.7101 19.9687 37.7673 20.1972C37.9386 20.8443 37.3295 21.6437 37.4057 22.0817M14.2197 20.9015C13.6677 20.5778 13.5346 19.2073 12.8873 19.1691C11.9545 19.1121 12.1259 20.9586 12.1259 22.0435C11.4977 21.4726 11.3834 19.6831 11.8404 18.7695C11.3074 18.5028 11.0788 19.0549 10.7743 19.2453C11.1741 16.4852 14.829 17.9699 14.2199 20.9015M38.5097 23.2428C37.6911 24.8038 36.5299 26.517 34.1314 26.5742C34.0742 26.0792 34.0363 25.2988 34.1314 24.9941C35.9779 24.8038 37.12 23.8711 38.5097 23.2428ZM27.012 24.2517C28.5349 25.0513 31.3521 25.1465 33.4461 25.0893C33.5603 25.5463 33.5603 26.1172 33.5603 26.6693C30.8764 26.7835 27.7163 26.1172 27.012 24.2517ZM26.7265 25.7366C27.7924 28.4015 31.4283 28.0971 34.493 28.0209C34.3599 28.3635 34.0742 28.7823 33.6936 28.9155C32.7037 29.3153 30.0006 29.6199 28.63 28.8965C27.7734 28.4397 27.2023 27.3926 26.7265 26.7835C26.517 26.498 25.375 25.7556 26.7265 25.7366" fill="#231F20"/>
<path d="M37.2723 40.4132C36.0349 42.5452 34.8359 44.7344 33.3702 46.5999C33.9791 44.7916 34.2456 41.7458 34.3409 39.4235C35.6353 38.8142 36.7394 39.5566 37.2723 40.4134" fill="#81B0C4"/>
<path d="M43.954 48.0658C42.5644 48.3513 41.5935 49.7028 40.2229 49.6077C40.9844 48.5606 42.2788 48.1038 43.954 48.0658M44.5631 50.2358C43.421 50.3501 42.0884 50.5404 40.9464 50.4453C41.4983 49.6077 43.5923 49.9121 44.5631 50.2358ZM44.9629 52.1205C43.6875 52.1395 42.1074 52.1205 40.8892 52.0251C41.6125 51.2447 44.1443 51.7397 44.9629 52.1205Z" fill="#231F20"/>
<path d="M34.8739 57.26C35.0642 58.8591 35.6925 60.4773 35.6163 62.2285C34.9118 62.4568 34.5122 62.6663 33.5603 62.6663C33.5033 61.1814 33.2938 58.8973 33.351 57.4695C33.8078 57.5075 34.493 57.1459 34.8739 57.26" fill="#DCD9D8"/>
<path d="M32.818 33.6556C32.1707 34.0743 31.6378 34.5882 31.0095 35.0452C29.6389 35.1214 28.8965 34.95 27.9068 34.1696C27.9258 34.1124 28.0209 34.1314 28.0209 34.0553C29.4866 34.7026 31.3521 33.7888 32.818 33.6555" fill="#F0D6B7"/>
<path d="M25.1655 43.6113C25.5653 41.879 27.1453 40.9654 28.5729 40.0136C30.0386 41.8791 30.9333 44.2776 31.9233 46.5999C29.5818 45.8956 27.2023 44.7726 25.1655 43.6113" fill="#81B0C4"/>
<path d="M33.351 57.4886C33.2938 58.9163 33.4841 61.1816 33.5603 62.6853C34.5122 62.6853 34.9118 62.476 35.6163 62.2475C35.6925 60.4961 35.0642 58.8781 34.8739 57.2791C34.493 57.1459 33.8078 57.5075 33.351 57.4886V57.4886ZM18.6552 49.4174C19.2834 55.1471 20.178 59.944 21.834 65.0268C25.5081 66.1498 29.9244 66.245 33.1797 65.2361C32.5895 62.3808 32.837 58.8973 32.4944 55.8323C32.2277 53.529 32.3611 51.2257 31.9994 48.8842C28.0589 48.0658 22.5005 48.6939 18.6552 49.4174ZM32.9322 48.9224C32.894 51.378 33.0463 53.8145 33.2368 56.2701C34.1884 56.137 34.8167 56.0418 35.6925 55.8323C35.4068 53.4719 35.445 50.7879 34.8549 48.6939C34.1886 48.7131 33.5983 48.6939 32.9322 48.9222V48.9224ZM37.7101 48.5226C37.2533 48.4274 36.7394 48.5226 36.3206 48.5226C36.5299 50.5214 37.0058 52.7296 37.1772 54.8426C37.8435 54.8616 38.2051 54.5379 38.7572 54.4428C38.7952 52.5963 38.6049 50.0455 37.7101 48.5226ZM44.9629 55.1471C46.3716 54.8044 47.2472 53.0912 46.8474 51.3209C46.5809 50.1406 46.1241 47.8945 45.61 47.1329C45.2483 46.5809 44.2394 45.8385 43.421 46.3524C42.1074 47.19 39.8041 47.4375 38.8524 48.4464C39.3282 50.0455 39.4805 52.2157 39.6708 54.2333C41.308 54.3286 43.3067 53.7767 44.6774 54.3666C43.7255 54.6713 42.5072 54.6713 41.6886 55.1281C42.3739 55.4517 43.935 55.3947 44.9629 55.1473V55.1471ZM31.9043 46.5999C30.9143 44.2776 30.0198 41.8791 28.5539 40.0136C27.1261 40.9652 25.5653 41.8791 25.1465 43.6113C27.2023 44.7726 29.582 45.8956 31.9043 46.5999ZM34.3407 39.4235C34.2456 41.7458 33.9791 44.7916 33.37 46.5999C34.8357 44.7154 36.0351 42.5452 37.2723 40.4132C36.7394 39.5567 35.6353 38.8142 34.3409 39.4233L34.3407 39.4235ZM31.5806 38.4528C31.0285 38.3954 30.5527 39.0999 29.8293 38.7952C29.6579 38.9855 29.5056 39.176 29.3343 39.3663C30.9333 41.3078 31.6758 44.0493 32.9132 46.3144C33.5795 44.1255 33.5033 41.7458 33.6556 39.3663C32.7419 39.4043 32.2279 38.5097 31.5806 38.4526V38.4528ZM29.8103 36.1111C29.7531 36.7774 29.9054 36.9869 30.0386 37.7483C32.2087 38.4336 31.8471 34.7595 29.8103 36.1111ZM27.3926 35.3117C26.4599 34.7975 25.0513 34.2456 23.8329 34.0173C22.3292 33.7316 22.4813 36.0731 22.5385 37.4628C22.5957 38.5667 23.1668 39.728 23.4143 40.4704C23.5284 40.8131 23.5664 41.1747 23.8521 41.2509C24.366 41.3652 26.0792 40.6989 26.5552 40.4322C27.5831 39.8803 28.3825 38.9857 29.2583 38.3764C29.2773 38.0909 29.2773 37.7863 29.2963 37.5008C28.7634 37.2342 28.1732 37.063 27.3926 37.025C27.9068 36.7584 28.6872 36.7584 29.163 36.4539C29.163 36.3396 29.163 36.2254 29.1822 36.1111C28.3064 36.0159 27.9827 35.6353 27.3926 35.3117ZM18.4458 33.6936C17.6654 34.4931 20.6348 35.5591 21.5678 35.6163C21.5678 35.1214 21.8532 34.6456 21.7961 34.2838C20.673 34.0934 19.2073 34.2266 18.4458 33.6936ZM28.0401 34.0553C28.0401 34.1314 27.9447 34.1124 27.9258 34.1696C28.9347 34.95 29.6769 35.1212 31.0285 35.0452C31.6378 34.6074 32.1897 34.0744 32.837 33.6555C31.3521 33.7888 29.4866 34.7026 28.0399 34.0553H28.0401ZM36.8345 36.7204C36.7965 35.8446 36.5679 34.0363 36.0159 33.7126C34.8739 33.0463 32.856 35.0642 31.9994 35.3688C32.0946 35.6353 32.2469 35.8446 32.2659 36.1873C32.78 36.0541 33.389 36.1493 33.8268 36.3586C33.3128 36.4157 32.7609 36.4157 32.4182 36.6632C32.3039 37.0249 32.4562 37.5008 32.3611 37.9958C33.5603 38.3384 34.95 38.5097 36.4729 38.5667C36.7584 38.1861 36.8725 37.4626 36.8345 36.7204V36.7204ZM17.1323 34.4551C16.8848 34.2838 15.2288 32.1326 15.0003 32.2277C12.0117 33.4082 9.21343 35.445 6.71961 37.3865C9.09908 42.5073 10.07 48.7701 10.2413 54.8044C12.9636 56.0798 15.3619 57.9263 19.074 58.1167C18.6362 55.0901 18.2555 52.3678 18.0081 49.5123C17.0753 49.1127 15.7427 49.5315 14.8671 49.3982C14.8671 48.3513 16.1995 48.9414 16.3137 48.2371C16.39 47.704 15.5712 47.666 15.8379 46.8284C16.5232 47.0759 16.8848 47.6278 17.6082 47.8373C18.2745 46.3906 17.6082 43.8208 17.7034 42.6024C17.7226 42.3741 17.8176 41.346 18.3315 41.5173C18.7885 41.6697 18.3125 44.2776 18.3507 45.4197C18.3887 46.4858 18.2174 47.4947 18.6552 48.161C22.234 47.666 25.8699 47.3614 29.7531 47.2472C28.8965 46.8856 27.8876 46.5429 26.7835 45.9146C26.1744 45.572 24.2899 44.8677 24.1186 44.2966C23.8329 43.3828 24.8418 42.9071 25.0131 42.1264C23.2048 43.1164 22.8622 41.1749 22.4244 39.8231C22.0435 38.5857 21.8152 37.6532 21.7201 36.9487C20.14 36.1493 18.4648 35.4068 17.1323 34.4551V34.4551ZM35.2545 32.4752C37.7483 31.2762 38.2051 36.9869 37.2152 38.8334C37.3675 39.3853 37.8814 39.5948 38.0909 40.0896C36.7012 42.5834 35.1595 44.9057 33.7316 47.3614C34.7787 46.6951 36.3016 47.2472 37.5388 46.7522C37.9958 46.5809 38.3194 45.534 38.6621 44.6964C39.6136 42.4121 40.6035 39.5185 41.0415 37.3487C41.1367 36.8537 41.4222 35.7685 41.346 35.3307C41.2318 34.5312 40.1658 33.9411 39.6136 33.4651C38.6049 32.5514 37.9766 31.7711 36.9105 30.9144C36.5109 31.5427 35.5971 31.9613 35.2545 32.4754V32.4752ZM11.4406 10.3745C10.2603 11.6881 10.5078 14.1247 10.6411 15.8759C12.7921 14.5245 15.6286 15.9902 15.6094 18.2745C16.6373 18.2554 15.9902 16.9991 15.7999 16.1805C15.1906 13.5346 16.8278 10.6791 15.8759 8.26169C14.0295 8.41382 12.5257 9.15627 11.4406 10.3747V10.3745ZM19.9305 2.77929C17.2466 3.54073 13.8011 5.5014 12.697 7.91886C13.5536 7.78572 14.1437 7.36692 14.9813 7.30975C15.3049 7.29076 15.7237 7.44308 16.0854 7.34793C16.8086 7.15761 17.4369 5.5204 17.9889 4.91128C18.522 4.32116 19.1691 4.05469 19.6071 3.52174C19.8926 3.38841 20.3112 3.38841 20.3304 2.9696C20.2162 2.83627 20.0829 2.74131 19.9305 2.77929V2.77929ZM33.9219 3.50255C31.1238 1.9227 26.4029 0.742458 23.4333 2.22716C21.0346 3.42639 17.7987 5.40606 16.6945 7.90006C17.7224 10.3173 16.39 12.5255 16.2947 14.9811C16.2567 16.2947 16.904 17.4179 16.961 18.8457C16.5993 19.4358 15.5332 19.4928 14.791 19.4548C14.5435 18.1982 14.1057 16.7897 12.8111 16.6373C10.9838 16.428 9.63223 17.9509 9.55606 19.5309C9.46091 21.3965 10.9838 24.4802 13.1538 24.2709C13.9914 24.1947 14.2009 23.3571 15.1144 23.3571C15.6094 24.3471 14.3532 24.6515 14.2199 25.3558C14.1817 25.5463 14.315 26.2506 14.4102 26.5932C14.81 28.2112 15.6856 30.3242 16.5422 31.5616C17.6462 33.1415 19.7974 33.37 22.1197 33.5223C22.5385 32.6275 24.0614 32.7037 25.0511 32.9322C23.8521 32.4564 22.748 31.3142 21.8342 30.3052C20.7871 29.144 19.7212 27.9068 19.6641 26.3839C21.6629 29.144 23.2999 31.5616 26.9168 32.7801C29.6579 33.6936 32.856 32.3611 34.969 30.8764C35.8446 30.2671 36.3586 29.2773 36.9869 28.4015C39.3092 25.0513 40.3942 20.2922 40.1658 15.6666C40.0706 13.7631 40.0706 11.8594 39.4233 10.584C38.7572 9.25143 36.4919 8.0332 35.1593 9.25143C34.9118 7.93805 36.2634 7.13843 37.8433 7.6144C36.7204 6.14869 35.5401 4.41632 33.9219 3.50255V3.50255ZM39.1378 46.5429C41.327 45.4579 45.4007 43.6303 46.7522 46.5429C47.2664 47.6278 47.8563 49.4364 48.1038 50.5594C48.4654 52.1205 47.704 55.4327 46.0859 55.9465C44.6582 56.4035 43.0022 56.3845 41.289 56.0418C41.0795 55.8705 40.8702 55.5849 40.6989 55.2802C39.4807 55.2422 38.3194 55.3376 37.3675 55.8515C37.4626 56.7651 36.8535 56.8984 36.2634 57.0889C35.8446 58.7829 37.12 60.9911 36.8155 62.514C36.606 63.618 35.2545 63.7894 34.2647 63.9797C34.2266 64.589 34.3027 65.1029 34.3789 65.6169C34.1506 66.4545 33.1415 66.9303 32.1707 67.0446C28.9918 67.4252 24.1757 67.5966 21.13 66.4925C20.2732 64.3987 19.6071 61.8669 18.9026 59.4874C15.933 59.8109 13.5156 58.2118 11.2503 57.1459C10.4698 56.7843 9.38474 56.5748 9.08009 55.9467C8.79462 55.3376 8.90877 54.1763 8.83261 53.0912C8.66129 50.293 8.48997 47.5898 7.76671 44.7344C7.44307 43.44 6.85295 42.3169 6.45314 41.0797C6.07251 39.9375 5.42522 38.5097 5.2539 37.3675C5.00642 35.6735 6.60546 35.5781 7.61438 34.8357C9.19443 33.6936 10.4317 33.0653 12.1448 32.0374C12.659 31.733 14.1817 30.9715 14.353 30.6097C14.6958 29.9056 13.7631 28.9157 13.5156 28.3636C13.1158 27.488 12.9063 26.7455 12.8493 25.8887C11.4216 25.6604 10.3175 24.8038 9.6704 23.8521C8.58513 22.2531 7.82369 19.3025 8.77563 17.0753C8.85179 16.904 9.21343 16.5422 9.2706 16.2757C9.38474 15.7427 9.0611 15.0383 9.04211 14.4673C8.94695 11.5547 9.53707 9.04193 11.4977 8.16634C12.2972 4.98745 15.1524 3.94054 17.8367 2.36049C18.8457 1.77037 19.9497 1.38975 21.0918 0.970756C25.1845 -0.532937 31.4855 -0.24747 34.8929 2.32231C36.3396 3.4074 38.6429 5.71071 39.4615 7.38591C41.6505 11.7832 41.4793 19.1501 39.9564 24.5184C39.747 25.2416 39.4615 26.2885 39.0427 27.1643C38.7572 27.7734 37.8624 28.9727 37.9576 29.5056C38.0719 30.0578 40.0136 31.5235 40.4324 31.9233C41.1749 32.6465 42.6024 33.5985 42.7165 34.5122C42.8499 35.483 42.2979 36.8156 42.0125 37.7483C41.0985 40.8702 40.1849 43.7447 39.1378 46.5429V46.5429Z" fill="#231F20"/>
<path d="M24.5755 24.918C24.6897 24.7657 25.3368 24.5184 26.2505 24.9562C26.2505 24.9562 25.1655 25.1275 25.2606 26.936L24.8038 26.8407C24.823 26.8598 24.347 25.2226 24.5755 24.918Z" fill="#F7E4CD"/>
<path d="M32.4562 40.3752C32.4562 40.6417 32.2279 40.8702 31.9612 40.8702C31.6948 40.8702 31.4663 40.6417 31.4663 40.3752C31.4663 40.1086 31.6948 39.8803 31.9612 39.8803C32.2469 39.8803 32.4562 40.1086 32.4562 40.3752ZM32.9512 42.6786C32.9512 42.9452 32.7229 43.1735 32.4562 43.1735C32.1897 43.1735 31.9612 42.9452 31.9612 42.6786C31.9612 42.4119 32.1897 42.1836 32.4562 42.1836C32.7419 42.1836 32.9512 42.3931 32.9512 42.6786Z" fill="#1D1919"/>
<path d="M7.02426 71.8036C6.87194 71.8227 6.7388 71.8415 6.62446 71.8607C6.51031 71.8797 6.39616 71.8987 6.24383 71.9369C6.07251 71.9749 5.97717 72.051 5.93918 72.1652C5.90119 72.2795 5.86302 72.3935 5.86302 72.546V77.1906C5.86297 77.599 5.77194 78.0022 5.59654 78.371C5.42522 78.7327 5.19673 79.0181 4.89227 79.2656C4.58762 79.4939 4.24498 79.6844 3.86436 79.7986C3.48354 79.9129 3.08374 79.9891 2.66494 79.9891C1.92249 79.9891 1.33256 79.8178 0.875583 79.4559C0.418797 79.0943 0.190308 78.6183 0.190308 77.9902C0.190308 77.6286 0.285463 77.3239 0.49496 77.0765C0.704264 76.829 0.989924 76.7148 1.35155 76.7148C1.69419 76.7148 1.96067 76.81 2.17016 77.0195C2.37947 77.2288 2.47462 77.4763 2.47462 77.7619C2.47462 78.0094 2.37947 78.2569 2.20815 78.466C2.03683 78.6755 1.82753 78.885 1.59904 79.0563V79.1325C1.63702 79.2084 1.71319 79.2846 1.82733 79.3418C1.94167 79.399 2.07482 79.4179 2.18916 79.4179C2.66494 79.4179 3.04575 79.2466 3.31223 78.9038C3.57889 78.5614 3.71203 78.0474 3.71203 77.3621V72.603C3.71203 72.4698 3.69285 72.3365 3.65486 72.2414C3.61688 72.1462 3.50254 72.07 3.33122 71.9939C3.21707 71.9369 3.06474 71.8987 2.89343 71.8607C2.72211 71.8225 2.58896 71.8036 2.47462 71.7846V71.3276H6.96709V71.8036H7.02426V71.8036ZM14.0675 78.352C13.9344 78.5803 13.7631 78.7896 13.5726 78.9991C13.3823 79.2084 13.1538 79.3608 12.9063 79.5131C12.6398 79.6654 12.3733 79.7798 12.1069 79.8557C11.8402 79.9319 11.5167 79.9699 11.1741 79.9699C10.584 79.9699 10.089 79.8939 9.65122 79.7224C9.23242 79.5511 8.87079 79.3418 8.60431 79.0563C8.31865 78.7707 8.12834 78.447 7.97601 78.0664C7.83724 77.6686 7.76648 77.2503 7.76671 76.829C7.76671 76.4294 7.84287 76.0296 7.99501 75.6679C8.14733 75.3061 8.35683 74.9635 8.62331 74.678C8.88978 74.3925 9.23242 74.1638 9.65122 73.9927C10.0862 73.815 10.5519 73.7244 11.0218 73.726C11.5739 73.726 12.0309 73.8024 12.3923 73.9355C12.7541 74.0689 13.0396 74.2592 13.2681 74.4877C13.4964 74.716 13.6487 74.9826 13.7631 75.2871C13.8582 75.5918 13.9152 75.9154 13.9152 76.2578V76.6387H9.8987C9.8987 77.4573 10.051 78.0664 10.3745 78.4852C10.6791 78.904 11.1931 79.1133 11.8594 79.1133C12.2402 79.1133 12.5636 79.0181 12.8683 78.8088C13.1724 78.603 13.4315 78.3374 13.6297 78.0282L14.0675 78.3519V78.352ZM11.8024 76.0865C11.8024 75.858 11.7834 75.6106 11.7644 75.3631C11.7452 75.1156 11.7072 74.9063 11.6311 74.754C11.5549 74.5637 11.4789 74.4303 11.3456 74.3352C11.2315 74.24 11.0789 74.2018 10.9078 74.2018C10.6032 74.2018 10.3557 74.3542 10.1846 74.6588C9.99405 74.9633 9.8987 75.4582 9.8799 76.1245L11.8024 76.0865V76.0865ZM22.4623 79.7606H18.8836V79.3228C18.9598 79.3228 19.055 79.3036 19.1503 79.2846C19.2645 79.2656 19.3404 79.2466 19.3978 79.2276C19.4738 79.1895 19.5309 79.1133 19.5689 79.0371C19.6071 78.961 19.6261 78.8278 19.6261 78.6755V75.8964C19.6261 75.4968 19.5499 75.1921 19.3978 74.9828C19.2453 74.7733 19.036 74.6782 18.7313 74.6782C18.579 74.6782 18.4269 74.6974 18.2935 74.7543C18.1602 74.7923 18.0269 74.8685 17.8937 74.9636C17.7796 75.0398 17.6844 75.116 17.6082 75.2111C17.5321 75.2873 17.4749 75.3635 17.4369 75.4394V78.6185C17.4369 78.7519 17.4561 78.866 17.4941 78.9612C17.5321 79.0565 17.6082 79.1327 17.6844 79.1707C17.7416 79.2086 17.8176 79.2468 17.9127 79.2658L18.1984 79.323V79.7608H14.5815V79.323C14.6766 79.323 14.7718 79.3038 14.8861 79.2848C14.9813 79.2658 15.0764 79.2468 15.1526 79.2278C15.2859 79.1896 15.3619 79.1135 15.4193 79.0183C15.4573 78.9232 15.4952 78.809 15.4952 78.6567V75.1921C15.4952 75.078 15.4573 74.9447 15.4001 74.8305C15.3429 74.7162 15.2478 74.621 15.1526 74.5448C15.0764 74.5069 15.0003 74.4497 14.8859 74.4307C14.7695 74.3917 14.6473 74.3724 14.5245 74.3735V73.9357L17.3608 73.7834L17.4559 73.8786V74.7354H17.4751C17.6139 74.6211 17.7473 74.5004 17.8747 74.3735C18.0149 74.2522 18.161 74.1378 18.3125 74.0309C18.4648 73.9357 18.6552 73.8596 18.8836 73.7834C19.1119 73.7072 19.3786 73.6883 19.6451 73.6883C20.2924 73.6883 20.7681 73.8786 21.0918 74.2404C21.4154 74.602 21.5676 75.097 21.5676 75.7061V78.6185C21.5676 78.7708 21.5868 78.8852 21.6247 78.9612C21.6629 79.0565 21.7581 79.1135 21.8722 79.1707C21.9294 79.1898 22.0056 79.2278 22.1007 79.2468C22.1959 79.266 22.291 79.2848 22.4244 79.304V79.7606H22.4623V79.7606ZM30.6479 79.7606H27.8496C27.5545 79.2333 27.2369 78.7188 26.8978 78.2187C26.6122 77.7999 26.3457 77.4001 26.0982 77.0575L25.7556 77.3621V78.6565C25.7556 78.7896 25.7748 78.923 25.8128 78.9991C25.8507 79.0943 25.9269 79.1515 26.0602 79.2084C26.1364 79.2466 26.2126 79.2656 26.3077 79.2846C26.4029 79.3038 26.498 79.3228 26.5932 79.3228V79.7606H22.9001V79.3228C22.9955 79.3228 23.0906 79.3036 23.2048 79.2846C23.2999 79.2656 23.3951 79.2466 23.4715 79.2276C23.6046 79.1895 23.6806 79.1133 23.7377 79.0181C23.7759 78.923 23.8139 78.8088 23.8139 78.6565V72.032C23.8139 71.8987 23.7759 71.7654 23.7187 71.6322C23.6616 71.4989 23.5856 71.3848 23.4713 71.3086C23.3951 71.2706 23.281 71.2134 23.1286 71.1944C22.9763 71.1563 22.8432 71.1373 22.7098 71.1373V70.6995L25.6604 70.5471L25.7556 70.6423V76.7718C26.0412 76.5053 26.3839 76.2009 26.7455 75.8582C27.1071 75.5156 27.4118 75.2299 27.6211 75.0016C27.7544 74.8683 27.8306 74.7731 27.8306 74.697C27.8496 74.6208 27.8496 74.5828 27.8496 74.5638C27.8496 74.4877 27.7924 74.4305 27.6593 74.3925C27.5259 74.3543 27.3546 74.2972 27.0881 74.2592V73.8404H30.0957V74.2592C29.6961 74.3733 29.3916 74.4685 29.1822 74.5638C28.9727 74.659 28.7442 74.7921 28.4969 74.9445C28.335 75.0541 28.1763 75.1684 28.0209 75.2871C27.8686 75.4013 27.6973 75.5538 27.488 75.7249C27.8686 76.296 28.2304 76.81 28.5539 77.286C28.8775 77.7617 29.2201 78.2759 29.5818 78.8088C29.6961 78.9991 29.8484 79.1133 30.0387 79.1895C30.2291 79.2466 30.4004 79.2846 30.5907 79.3038V79.7604H30.6479V79.7606ZM34.4551 79.7606H30.705V79.3228C30.8002 79.3228 30.9143 79.3036 31.0095 79.2846C31.1046 79.2656 31.1998 79.2466 31.257 79.2276C31.3903 79.1895 31.4665 79.1133 31.5236 79.0181C31.5806 78.923 31.5996 78.8088 31.5996 78.6565V75.1919C31.5996 75.0586 31.5616 74.9253 31.5045 74.8303C31.4546 74.727 31.3751 74.6409 31.2762 74.5828C31.1998 74.5447 31.1046 74.4877 30.9525 74.4495C30.8002 74.4115 30.6669 74.3733 30.5527 74.3733V73.9355L33.4651 73.7832L33.5603 73.8784V78.5995C33.5603 78.7329 33.5985 78.847 33.6554 78.9612C33.7126 79.0565 33.8078 79.1327 33.9029 79.1707C33.9791 79.2086 34.0742 79.2468 34.1696 79.2658C34.2647 79.285 34.3599 79.304 34.474 79.323V79.7608H34.4549L34.4551 79.7606ZM33.5985 71.6704C33.5985 71.9749 33.4841 72.2224 33.2558 72.4317C33.0273 72.6412 32.7417 72.7553 32.4372 72.7553C32.1136 72.7553 31.8471 72.6412 31.5996 72.4317C31.3713 72.2224 31.257 71.9559 31.257 71.6702C31.257 71.3658 31.3711 71.1183 31.5996 70.8898C31.8279 70.6805 32.1138 70.5661 32.4372 70.5661C32.7609 70.5661 33.0273 70.6805 33.2558 70.8898C33.4841 71.0993 33.5985 71.3656 33.5985 71.6702V71.6704ZM42.8499 79.7606H39.2712V79.3228C39.3473 79.3228 39.4425 79.3036 39.5376 79.2846C39.6518 79.2656 39.728 79.2466 39.7851 79.2276C39.8613 79.1895 39.9183 79.1133 39.9564 79.0371C39.9944 78.961 40.0136 78.8278 40.0136 78.6755V75.8964C40.0136 75.4968 39.9375 75.1921 39.7851 74.9828C39.6328 74.7733 39.4235 74.6782 39.1188 74.6782C38.9665 74.6782 38.8142 74.6974 38.681 74.7543C38.5477 74.8113 38.4144 74.8685 38.2812 74.9636C38.1671 75.0398 38.0719 75.116 37.9958 75.2111C37.9196 75.2873 37.8624 75.3635 37.8245 75.4394V78.6185C37.8245 78.7519 37.8434 78.866 37.8814 78.9612C37.9196 79.0565 37.9958 79.1327 38.0719 79.1707C38.1289 79.2086 38.2051 79.2468 38.3002 79.2658L38.5859 79.323V79.7608H34.969V79.323C35.0642 79.323 35.1593 79.3038 35.2737 79.2848C35.3688 79.2658 35.464 79.2468 35.5401 79.2278C35.6733 79.1896 35.7494 79.1135 35.8066 79.0183C35.8446 78.9232 35.8828 78.809 35.8828 78.6567V75.1921C35.8828 75.078 35.8446 74.9447 35.7876 74.8305C35.7304 74.7162 35.6353 74.621 35.5401 74.5448C35.464 74.5069 35.3878 74.4497 35.2735 74.4307C35.1569 74.3917 35.0347 74.3724 34.9118 74.3735V73.9357L37.7483 73.7834L37.8434 73.8786V74.7354H37.8626C38.0015 74.6211 38.1348 74.5004 38.2622 74.3735C38.4025 74.2522 38.5486 74.1378 38.7 74.0309C38.8524 73.9357 39.0427 73.8596 39.2712 73.7834C39.4995 73.7072 39.7661 73.6883 40.0326 73.6883C40.6797 73.6883 41.1557 73.8786 41.4791 74.2404C41.803 74.602 41.9551 75.097 41.9551 75.7061V78.6185C41.9551 78.7708 41.9743 78.8852 42.0123 78.9612C42.0504 79.0565 42.1456 79.1135 42.2598 79.1707C42.3169 79.1898 42.3931 79.2278 42.4881 79.2468C42.5834 79.266 42.6786 79.2848 42.8119 79.304V79.7606H42.8499V79.7606ZM46.1429 79.9699C45.7623 79.9699 45.3817 79.9129 45.02 79.7986C44.6582 79.6844 44.3728 79.5703 44.1634 79.4369L43.9921 79.8367H43.5352L43.459 77.6286H43.8968C43.954 77.7999 44.0491 78.0092 44.2014 78.2377C44.3348 78.466 44.5061 78.6565 44.6772 78.8468C44.8737 79.0248 45.0911 79.1782 45.3245 79.3038C45.572 79.4179 45.8195 79.4941 46.0861 79.4941C46.4478 79.4941 46.7142 79.4179 46.8856 79.2846C47.0569 79.1515 47.152 78.923 47.152 78.6375C47.152 78.4852 47.1139 78.3519 47.0377 78.2377C46.9617 78.1425 46.8474 78.0474 46.7142 77.971C46.5619 77.8951 46.3906 77.8189 46.2001 77.7619C46.0098 77.7048 45.7815 77.6476 45.515 77.5524C45.2483 77.4763 45.02 77.4001 44.8295 77.3049C44.6392 77.2288 44.4299 77.0955 44.2394 76.9241C44.0681 76.772 43.916 76.5815 43.8208 76.3722C43.7065 76.1627 43.6685 75.8964 43.6685 75.5918C43.6685 75.0396 43.8968 74.5826 44.3728 74.2402C44.8485 73.8976 45.4578 73.726 46.2193 73.726C46.5809 73.726 46.9046 73.7644 47.2092 73.8404C47.5137 73.9166 47.7611 73.9927 47.9706 74.0879L48.1038 73.7452H48.5606L48.6559 75.7631H48.2371C48.1038 75.3443 47.8563 75.0014 47.5327 74.697C47.19 74.3925 46.8284 74.2402 46.4478 74.2402C46.1431 74.2402 45.8956 74.2972 45.7243 74.4305C45.553 74.5638 45.4576 74.7352 45.4576 74.9635C45.4576 75.2681 45.591 75.4776 45.8385 75.6107C46.0859 75.7441 46.4478 75.8774 46.9046 75.9914C47.6088 76.1819 48.1228 76.4294 48.4654 76.7338C48.7891 77.0575 48.9604 77.4571 48.9604 77.9331C48.9604 78.5803 48.7129 79.0943 48.1989 79.4371C47.6278 79.7796 46.9615 79.9699 46.1431 79.9699H46.1429Z" fill="#231F20"/>
</g>
<defs>
<clipPath id="clip0_10_182">
<rect width="49.12" height="80" fill="white"/>
</clipPath>
</defs>
</svg>
