<svg width="80" height="80" viewBox="0 0 80 80" fill="none" xmlns="http://www.w3.org/2000/svg">
<g clip-path="url(#clip0_10_119)">
<path fill-rule="evenodd" clip-rule="evenodd" d="M73.6894 62.3157C69.3383 62.1945 65.9628 62.6405 63.1337 63.8306C62.3191 64.1578 61.0118 64.1578 60.9045 65.1831C61.3398 65.6133 61.3923 66.3174 61.774 66.9137C62.4264 67.9959 63.5703 69.4538 64.6031 70.2101L68.0847 72.6981C70.2066 73.9949 72.6004 74.7523 74.6674 76.0502C75.8649 76.8077 77.0612 77.7808 78.2587 78.5928C78.8684 79.0255 79.238 79.7296 80.0001 79.9986V79.835C79.6196 79.3503 79.5099 78.6474 79.1306 78.1044L77.4965 76.5374C75.9198 74.4287 73.9601 72.589 71.8382 71.0766C70.0968 69.8865 66.2897 68.265 65.5824 66.2653L65.4751 66.1441C66.6701 66.0229 68.0847 65.6024 69.2286 65.2776C71.0797 64.7928 72.765 64.8995 74.6674 64.4135L77.2807 63.6561V63.1713C76.3015 62.1982 75.5942 60.9002 74.5613 59.9816C71.787 57.6026 68.7383 55.277 65.5824 53.3306C63.8958 52.2496 61.7191 51.5455 59.924 50.6281C59.2692 50.3033 58.1827 50.1409 57.8022 49.6004C56.8205 48.4127 56.2779 46.8433 55.5706 45.4363L51.1098 36.0282C50.1305 33.9195 49.5306 31.8108 48.3355 29.8645C42.7308 20.6722 36.6359 15.1035 27.2777 9.64141C25.2656 8.50586 22.8718 8.01746 20.3268 7.42362L16.2464 7.20548C15.3745 6.82736 14.5051 5.79967 13.7429 5.31248C10.6418 3.36616 2.64332 -0.851275 0.356824 4.70653C-1.11263 8.22106 2.53356 11.681 3.77132 13.4662C4.69812 14.7096 5.89319 16.1154 6.54805 17.5212C6.91388 18.4399 7.03584 19.4142 7.41753 20.3874C8.28701 22.7664 9.10405 25.4168 10.2467 27.6346C10.8564 28.7701 11.4966 29.9614 12.2588 30.9879C12.6942 31.5939 13.4563 31.8532 13.6185 32.8264C12.8563 33.9086 12.8039 35.5289 12.3686 36.8826C10.4089 42.9931 11.171 50.5626 13.9453 55.0612C14.8172 56.4125 16.872 59.3877 19.6597 58.251C22.1084 57.2778 21.5621 54.1959 22.2694 51.4922C22.434 50.8438 22.3243 50.4112 22.6499 49.9773V50.0985L24.8815 54.5862C26.568 57.2354 29.5069 59.9937 31.9544 61.8334C33.2592 62.8065 34.2933 64.4838 35.925 65.0776V64.914H35.8177C35.4908 64.4293 35.0006 64.2111 34.5653 63.833C33.586 62.8599 32.4983 61.6698 31.7361 60.5887C29.4521 57.5614 27.4399 54.2081 25.6437 50.7481C24.7717 49.072 24.0096 47.2335 23.3047 45.5575C22.9755 44.9079 22.9755 43.9335 22.4328 43.6111C21.6158 44.7988 20.4207 45.8289 19.8195 47.2881C18.7854 49.6125 18.6781 52.4787 18.2976 55.4527C18.0781 55.5072 18.1757 55.4527 18.0781 55.5739C16.3391 55.1424 15.7392 53.3561 15.0868 51.8436C13.4551 48.0043 13.1819 41.8406 14.5965 37.4062C14.977 36.2706 16.6111 32.7016 15.9587 31.6205C15.6294 30.5928 14.5441 29.999 13.9441 29.187C13.2368 28.1593 12.4771 26.8626 11.9869 25.727C10.682 22.6973 10.0296 19.3464 8.61382 16.3178C7.95897 14.912 6.81755 13.4516 5.89198 12.1549C4.85787 10.6946 3.71767 9.66686 2.90063 7.93747C2.62869 7.33152 2.24821 6.36927 2.68356 5.71968C2.79087 5.28703 3.01038 5.11373 3.44329 5.01678C4.15058 4.41082 6.16513 5.17917 6.87242 5.50154C8.88454 6.31352 10.5711 7.06975 12.2576 8.20409C13.0197 8.7446 13.8368 9.7723 14.816 10.0438H15.9599C17.7013 10.4219 19.6585 10.165 21.2889 10.6497C24.173 11.5708 26.7839 12.9208 29.1252 14.3824C36.2518 18.8701 42.1296 25.2508 46.1002 32.8761C46.7526 34.1195 47.0245 35.2551 47.6245 36.553C48.7684 39.2034 50.183 41.906 51.3232 44.5031C52.467 47.0445 53.5548 49.6416 55.1864 51.7503C56.0035 52.8859 59.2668 53.4797 60.735 54.0747C61.824 54.5595 63.5093 54.9958 64.491 55.5896C66.3397 56.7252 68.1896 58.0231 69.9298 59.2666C70.7992 59.9137 73.5211 61.2662 73.6833 62.3448L73.6894 62.3157ZM18.2037 15.3277C17.452 15.3211 16.7026 15.4119 15.9745 15.5979V15.7191H16.0818C16.5172 16.5844 17.2794 17.1795 17.8232 17.9369L19.0756 20.5328L19.1829 20.4116C19.9451 19.8711 20.3268 19.0058 20.3268 17.7091C20 17.331 19.9463 16.9516 19.6744 16.5735C19.3476 16.033 18.6403 15.7615 18.2037 15.3301V15.3277Z" fill="#00678C"/>
</g>
<defs>
<clipPath id="clip0_10_119">
<rect width="80" height="80" fill="white"/>
</clipPath>
</defs>
</svg>
