<svg width="80" height="89" viewBox="0 0 80 89" fill="none" xmlns="http://www.w3.org/2000/svg">
<path d="M36.3995 1.11851C38.5747 -0.126533 41.4078 -0.132157 43.5811 1.11851C54.5146 7.29653 65.4516 13.4649 76.3833 19.6466C78.4394 20.8048 79.8147 23.0931 79.7938 25.4622V62.6316C79.8091 65.0989 78.2978 67.4418 76.1286 68.5737C65.231 74.7177 54.339 80.8692 43.4433 87.0132C41.2231 88.2826 38.3332 88.1848 36.1824 86.8113C32.9153 84.9174 29.6426 83.0328 26.3751 81.1407C25.7075 80.7427 24.9548 80.4258 24.4834 79.7785C24.9002 79.2167 25.6453 79.1467 26.2508 78.9015C27.6146 78.4678 28.8671 77.7717 30.1199 77.0963C30.4368 76.8794 30.8235 76.9625 31.1272 77.1566C33.921 78.7584 36.6901 80.4068 39.4932 81.9933C40.0912 82.3386 40.6967 81.8802 41.2078 81.5953C51.9017 75.5513 62.6088 69.5301 73.3008 63.4842C73.697 63.2937 73.916 62.8731 73.8838 62.4392C73.8913 50.1778 73.8857 37.9142 73.8876 25.6528C73.9329 25.1604 73.6479 24.7077 73.2027 24.5062C62.3429 18.3904 51.4887 12.2651 40.6308 6.14772C40.4427 6.01839 40.2198 5.949 39.9915 5.94866C39.7632 5.94833 39.5402 6.01707 39.3517 6.14585C28.4937 12.2651 17.6414 18.396 6.78349 24.5115C6.33984 24.7133 6.04209 25.1586 6.09489 25.6528C6.09677 37.9142 6.09489 50.1778 6.09489 62.441C6.07606 62.6528 6.12257 62.8652 6.22815 63.0497C6.33372 63.2342 6.4933 63.3819 6.68539 63.473C9.58288 65.1161 12.4841 66.7476 15.3835 68.385C17.0169 69.2642 19.0224 69.7866 20.822 69.113C22.4101 68.5434 23.5233 66.9229 23.493 65.2367C23.508 53.0468 23.4855 40.8551 23.5042 28.6672C23.4645 28.126 23.9779 27.6789 24.504 27.7299C25.8962 27.7205 27.2903 27.7111 28.6825 27.7336C29.2636 27.7205 29.6635 28.3032 29.5916 28.8484C29.586 41.1154 29.6066 53.3827 29.5823 65.6497C29.586 68.919 28.2429 72.4763 25.2188 74.076C21.4934 76.0059 16.8888 75.5966 13.2083 73.7461C10.0222 72.1558 6.98157 70.279 3.85195 68.5753C1.67711 67.4496 0.173375 65.0973 0.188684 62.6319V25.4622C0.165877 23.044 1.59588 20.7142 3.71604 19.5729C14.6118 13.4239 25.5056 7.27029 36.3995 1.11851Z" fill="#8CC84B"/>
<path d="M45.9049 26.866C50.657 26.5601 55.7443 26.6848 60.0206 29.0258C63.3314 30.8198 65.167 34.5849 65.2254 38.2632C65.1329 38.7593 64.6143 39.033 64.1406 38.999C62.7619 38.9971 61.3828 39.0177 60.004 38.9896C59.4192 39.0121 59.0792 38.4728 59.0058 37.9558C58.6097 36.1958 57.6499 34.4528 55.9933 33.6039C53.4505 32.3307 50.502 32.3948 47.7292 32.4213C45.705 32.5288 43.5283 32.7041 41.8133 33.8945C40.4967 34.7961 40.0968 36.6164 40.5667 38.0823C41.0097 39.1349 42.2248 39.4745 43.219 39.7875C48.9458 41.2853 55.0145 41.1363 60.632 43.1074C62.9578 43.911 65.2329 45.4732 66.029 47.9083C67.0703 51.1719 66.6138 55.073 64.2918 57.693C62.4088 59.8491 59.6663 61.0226 56.931 61.6599C53.2921 62.4713 49.5157 62.492 45.8203 62.1317C42.3454 61.7356 38.7293 60.8226 36.0468 58.455C33.7529 56.4633 32.6325 53.3599 32.7437 50.3646C32.7703 49.8588 33.2739 49.506 33.7585 49.5476C35.147 49.5364 36.5354 49.5326 37.9239 49.5495C38.4784 49.5098 38.8896 49.9891 38.918 50.5118C39.1742 52.1886 39.8044 53.9485 41.2666 54.9427C44.0885 56.7632 47.6292 56.6385 50.8604 56.6895C53.5373 56.5708 56.5423 56.5348 58.7268 54.7655C59.8794 53.7564 60.2209 52.068 59.9094 50.6155C59.5719 49.3892 58.2891 48.8178 57.1875 48.4441C51.534 46.6557 45.3975 47.3047 39.7988 45.2823C37.5258 44.479 35.3279 42.9603 34.4546 40.6252C33.2361 37.3203 33.7945 33.2324 36.3598 30.7008C38.8612 28.1826 42.4719 27.2128 45.9049 26.8657V26.866Z" fill="#8CC84B"/>
</svg>
