<svg width="80" height="80" viewBox="0 0 80 80" fill="none" xmlns="http://www.w3.org/2000/svg">
<path d="M31.4372 0.000239998C25.1173 0.000239998 19.9997 5.11781 19.9997 11.4378V18.1565H37.156C38.716 18.1565 39.9997 20.4403 39.9997 22.0003H11.4375C5.11757 22.0003 0 27.1178 0 33.4378V48.5625C0 54.8824 5.11757 60 11.4375 60H16.1563V49.2813C16.1563 42.9613 21.2427 37.8438 27.5626 37.8438H48.5625C54.8824 37.8438 60 32.7574 60 26.4374V11.4375C60 5.11757 54.8824 0 48.5625 0L31.4372 0.000239998ZM28.5623 6.4378C30.1622 6.4378 31.4372 6.92155 31.4372 9.28154C31.4372 11.6415 30.1622 12.844 28.5623 12.844C27.0023 12.844 25.7185 11.6415 25.7185 9.28154C25.7185 6.92155 27.0023 6.4378 28.5623 6.4378Z" fill="#3C78AA"/>
<path d="M63.8359 20V30.7188C63.8359 37.0388 58.7575 42.1564 52.4376 42.1564H31.4376C25.1176 42.1564 20 47.2348 20 53.5548V68.5548C19.9986 71.5894 21.203 74.5001 23.348 76.6466C25.4931 78.7931 28.403 79.9994 31.4376 80H48.5624C51.5969 79.9994 54.5069 78.7931 56.6519 76.6466C58.797 74.5001 60.0013 71.5894 59.9999 68.5548V61.836H42.836C41.276 61.836 40.0001 59.5601 40.0001 58.0001H68.5624C71.597 57.9994 74.507 56.7932 76.652 54.6467C78.797 52.5002 80.0014 49.5894 80 46.5549V31.4377C79.9987 25.1214 74.8787 20.0014 68.5624 20.0001L63.8359 20ZM25.2812 38.0548L25.2656 38.0704C25.3135 38.0608 25.3659 38.064 25.414 38.0548H25.2812ZM51.4376 67.1564C52.9976 67.1564 54.2813 68.3589 54.2813 70.7189C54.2791 72.2872 53.0059 73.5569 51.4376 73.5548C49.8376 73.5548 48.5626 73.0789 48.5626 70.7189C48.5626 68.3589 49.8376 67.1564 51.4376 67.1564Z" fill="#FDD835"/>
</svg>
