<svg width="241" height="194" viewBox="0 0 241 194" fill="none" xmlns="http://www.w3.org/2000/svg">
<g clip-path="url(#clip0_3_2)">
<path d="M159.743 53.8301L180.605 32.9679L181.991 24.1871C143.98 -10.3857 83.5517 -6.46083 49.2751 32.3649C39.7538 43.1451 32.6975 56.5913 28.9313 70.4818L36.4002 69.4238L78.1246 62.5474L81.3407 59.2572C99.8966 38.8711 131.285 36.1311 152.708 53.4704L159.743 53.8301Z" fill="#EA4335"/>
<path d="M210.333 69.8576C205.541 52.2009 195.691 36.3215 182.002 24.1766L152.719 53.4598C165.086 63.563 172.121 78.7759 171.825 94.7399V99.9343C186.212 99.9343 197.881 111.603 197.881 125.991C197.881 140.379 186.212 151.762 171.825 151.762H119.637L114.517 157.327V188.588L119.637 193.497H171.825C209.254 193.793 239.838 163.97 240.135 126.541C240.315 103.849 229.122 82.5738 210.333 69.8576Z" fill="#4285F4"/>
<path d="M67.5137 193.497H119.637V151.772H67.5137C63.8215 151.772 60.1823 150.968 56.8287 149.434L49.4338 151.698L28.4235 172.561L26.5933 179.659C38.3785 188.556 52.7557 193.56 67.5137 193.497Z" fill="#34A853"/>
<path d="M67.5137 58.1464C30.0739 58.3686 -0.0874601 88.9002 0.134703 126.34C0.261654 147.245 10.0263 166.922 26.5933 179.67L56.8287 149.434C43.7105 143.51 37.8813 128.075 43.8057 114.957C49.73 101.839 65.1651 96.0094 78.2833 101.934C84.0596 104.547 88.6933 109.17 91.3064 114.957L121.542 84.7214C108.677 67.9004 88.6827 58.0723 67.5137 58.1464Z" fill="#FBBC05"/>
</g>
<defs>
<clipPath id="clip0_3_2">
<rect width="240" height="192.933" fill="white" transform="translate(0.134705 0.563761)"/>
</clipPath>
</defs>
</svg>
