<svg width="400" height="429" viewBox="0 0 400 429" fill="none" xmlns="http://www.w3.org/2000/svg">
<rect width="400" height="428.986" fill="white"/>
<path d="M110.514 331.36H97.7541L94.1541 338H91.1941L106.274 310.4H109.434L114.714 338H111.754L110.514 331.36ZM110.074 329.12L107.234 313.88L98.9541 329.12H110.074ZM127.248 308.4L122.008 338H119.208L124.448 308.4H127.248ZM136.388 308.4L131.148 338H128.348L133.588 308.4H136.388ZM153.889 322L153.489 324.36H137.929L138.329 322H153.889ZM164.231 312.04C163.725 312.04 163.311 311.893 162.991 311.6C162.671 311.28 162.511 310.867 162.511 310.36C162.511 309.667 162.751 309.093 163.231 308.64C163.711 308.16 164.285 307.92 164.951 307.92C165.458 307.92 165.858 308.067 166.151 308.36C166.471 308.653 166.631 309.04 166.631 309.52C166.631 310.213 166.391 310.813 165.911 311.32C165.431 311.8 164.871 312.04 164.231 312.04ZM164.871 316.16L161.031 338H158.231L162.071 316.16H164.871ZM181.572 315.76C183.812 315.76 185.599 316.373 186.932 317.6C188.292 318.8 188.972 320.56 188.972 322.88C188.972 323.733 188.905 324.507 188.772 325.2L186.492 338H183.732L185.932 325.52C186.039 324.907 186.092 324.253 186.092 323.56C186.092 321.8 185.612 320.467 184.652 319.56C183.692 318.653 182.345 318.2 180.612 318.2C178.505 318.2 176.705 318.867 175.212 320.2C173.719 321.533 172.745 323.493 172.292 326.08V325.96L170.172 338H167.372L171.212 316.16H174.012L173.332 319.92C174.265 318.587 175.452 317.56 176.892 316.84C178.332 316.12 179.892 315.76 181.572 315.76ZM209.084 322L208.684 324.36H193.124L193.524 322H209.084ZM223.027 338.32C221.213 338.32 219.613 337.96 218.227 337.24C216.84 336.493 215.76 335.453 214.987 334.12C214.24 332.76 213.867 331.173 213.867 329.36C213.867 326.907 214.427 324.653 215.547 322.6C216.667 320.52 218.227 318.88 220.227 317.68C222.227 316.453 224.453 315.84 226.907 315.84C228.72 315.84 230.32 316.213 231.707 316.96C233.093 317.68 234.173 318.72 234.947 320.08C235.72 321.413 236.107 322.987 236.107 324.8C236.107 327.28 235.533 329.547 234.387 331.6C233.24 333.653 231.667 335.293 229.667 336.52C227.693 337.72 225.48 338.32 223.027 338.32ZM223.347 335.96C225.24 335.96 226.933 335.453 228.427 334.44C229.947 333.427 231.12 332.08 231.947 330.4C232.8 328.72 233.227 326.907 233.227 324.96C233.227 322.773 232.587 321.107 231.307 319.96C230.053 318.813 228.453 318.24 226.507 318.24C224.613 318.24 222.92 318.747 221.427 319.76C219.96 320.773 218.813 322.12 217.987 323.8C217.16 325.48 216.747 327.293 216.747 329.24C216.747 331.4 217.373 333.067 218.627 334.24C219.88 335.387 221.453 335.96 223.347 335.96ZM253.291 315.76C255.531 315.76 257.317 316.373 258.651 317.6C260.011 318.8 260.691 320.56 260.691 322.88C260.691 323.733 260.624 324.507 260.491 325.2L258.211 338H255.451L257.651 325.52C257.757 324.907 257.811 324.253 257.811 323.56C257.811 321.8 257.331 320.467 256.371 319.56C255.411 318.653 254.064 318.2 252.331 318.2C250.224 318.2 248.424 318.867 246.931 320.2C245.437 321.533 244.464 323.493 244.011 326.08V325.96L241.891 338H239.091L242.931 316.16H245.731L245.051 319.92C245.984 318.587 247.171 317.56 248.611 316.84C250.051 316.12 251.611 315.76 253.291 315.76ZM277.763 315.84C279.603 315.84 281.176 316.2 282.483 316.92C283.79 317.613 284.776 318.573 285.443 319.8C286.136 321.027 286.483 322.427 286.483 324C286.483 324.72 286.43 325.36 286.323 325.92C286.163 326.72 286.003 327.44 285.843 328.08H267.723C267.643 328.587 267.603 329.067 267.603 329.52C267.603 331.573 268.216 333.16 269.443 334.28C270.696 335.4 272.283 335.96 274.203 335.96C276.043 335.96 277.656 335.52 279.043 334.64C280.43 333.76 281.443 332.573 282.083 331.08H285.083C284.176 333.213 282.723 334.96 280.723 336.32C278.75 337.653 276.443 338.32 273.803 338.32C271.083 338.32 268.896 337.547 267.243 336C265.616 334.427 264.803 332.293 264.803 329.6C264.803 328.8 264.883 327.96 265.043 327.08C265.443 324.813 266.243 322.827 267.443 321.12C268.67 319.413 270.176 318.107 271.963 317.2C273.75 316.293 275.683 315.84 277.763 315.84ZM283.443 326C283.576 325.253 283.643 324.627 283.643 324.12C283.643 322.227 283.043 320.773 281.843 319.76C280.643 318.747 279.11 318.24 277.243 318.24C275.883 318.24 274.576 318.533 273.323 319.12C272.07 319.707 270.976 320.587 270.043 321.76C269.11 322.933 268.47 324.347 268.123 326H283.443ZM24.7892 387.04C25.1892 384.8 25.9892 382.84 27.1892 381.16C28.3892 379.453 29.8559 378.147 31.5892 377.24C33.3492 376.307 35.2292 375.84 37.2292 375.84C39.3092 375.84 41.0159 376.32 42.3492 377.28C43.6826 378.24 44.5492 379.467 44.9492 380.96L45.7892 376.16H48.5892L44.7492 398H41.9492L42.7892 393.16C41.8826 394.653 40.5759 395.893 38.8692 396.88C37.1892 397.84 35.3092 398.32 33.2292 398.32C31.4959 398.32 29.9759 397.96 28.6692 397.24C27.3626 396.52 26.3492 395.507 25.6292 394.2C24.9092 392.867 24.5492 391.307 24.5492 389.52C24.5492 388.747 24.6292 387.92 24.7892 387.04ZM43.8692 387.08C44.0026 386.333 44.0692 385.667 44.0692 385.08C44.0692 383 43.4426 381.347 42.1892 380.12C40.9359 378.893 39.3092 378.28 37.3092 378.28C35.7626 378.28 34.3092 378.627 32.9492 379.32C31.6159 380.013 30.4826 381.027 29.5492 382.36C28.6159 383.667 27.9892 385.227 27.6692 387.04C27.5359 387.84 27.4692 388.52 27.4692 389.08C27.4692 391.187 28.0826 392.853 29.3092 394.08C30.5626 395.28 32.1892 395.88 34.1892 395.88C35.6826 395.88 37.1092 395.52 38.4692 394.8C39.8559 394.08 41.0159 393.053 41.9492 391.72C42.9092 390.387 43.5492 388.84 43.8692 387.08ZM51.7814 387.08C52.1814 384.813 52.9814 382.84 54.1814 381.16C55.4081 379.453 56.9014 378.147 58.6614 377.24C60.4214 376.307 62.3281 375.84 64.3814 375.84C67.0747 375.84 69.1681 376.507 70.6614 377.84C72.1814 379.173 72.9947 380.987 73.1014 383.28H70.1014C70.0214 381.707 69.4347 380.48 68.3414 379.6C67.2747 378.693 65.8214 378.24 63.9814 378.24C61.7147 378.24 59.7147 379.013 57.9814 380.56C56.2747 382.08 55.1681 384.253 54.6614 387.08C54.5281 387.747 54.4614 388.507 54.4614 389.36C54.4614 391.493 55.0347 393.133 56.1814 394.28C57.3547 395.4 58.9014 395.96 60.8214 395.96C62.6881 395.96 64.3147 395.52 65.7014 394.64C67.0881 393.733 68.1147 392.48 68.7814 390.88H71.7814C70.8747 393.12 69.4214 394.92 67.4214 396.28C65.4214 397.64 63.0881 398.32 60.4214 398.32C57.7281 398.32 55.5681 397.547 53.9414 396C52.3414 394.453 51.5414 392.333 51.5414 389.64C51.5414 388.813 51.6214 387.96 51.7814 387.08ZM76.3127 387.08C76.7127 384.813 77.5127 382.84 78.7127 381.16C79.9393 379.453 81.4327 378.147 83.1927 377.24C84.9527 376.307 86.8593 375.84 88.9127 375.84C91.606 375.84 93.6993 376.507 95.1927 377.84C96.7127 379.173 97.526 380.987 97.6327 383.28H94.6327C94.5527 381.707 93.966 380.48 92.8727 379.6C91.806 378.693 90.3527 378.24 88.5127 378.24C86.246 378.24 84.246 379.013 82.5127 380.56C80.806 382.08 79.6993 384.253 79.1927 387.08C79.0593 387.747 78.9927 388.507 78.9927 389.36C78.9927 391.493 79.566 393.133 80.7127 394.28C81.886 395.4 83.4327 395.96 85.3527 395.96C87.2193 395.96 88.846 395.52 90.2327 394.64C91.6193 393.733 92.646 392.48 93.3127 390.88H96.3127C95.406 393.12 93.9527 394.92 91.9527 396.28C89.9527 397.64 87.6193 398.32 84.9527 398.32C82.2593 398.32 80.0993 397.547 78.4727 396C76.8727 394.453 76.0727 392.333 76.0727 389.64C76.0727 388.813 76.1527 387.96 76.3127 387.08ZM113.564 375.84C115.404 375.84 116.977 376.2 118.284 376.92C119.591 377.613 120.577 378.573 121.244 379.8C121.937 381.027 122.284 382.427 122.284 384C122.284 384.72 122.231 385.36 122.124 385.92C121.964 386.72 121.804 387.44 121.644 388.08H103.524C103.444 388.587 103.404 389.067 103.404 389.52C103.404 391.573 104.017 393.16 105.244 394.28C106.497 395.4 108.084 395.96 110.004 395.96C111.844 395.96 113.457 395.52 114.844 394.64C116.231 393.76 117.244 392.573 117.884 391.08H120.884C119.977 393.213 118.524 394.96 116.524 396.32C114.551 397.653 112.244 398.32 109.604 398.32C106.884 398.32 104.697 397.547 103.044 396C101.417 394.427 100.604 392.293 100.604 389.6C100.604 388.8 100.684 387.96 100.844 387.08C101.244 384.813 102.044 382.827 103.244 381.12C104.471 379.413 105.977 378.107 107.764 377.2C109.551 376.293 111.484 375.84 113.564 375.84ZM119.244 386C119.377 385.253 119.444 384.627 119.444 384.12C119.444 382.227 118.844 380.773 117.644 379.76C116.444 378.747 114.911 378.24 113.044 378.24C111.684 378.24 110.377 378.533 109.124 379.12C107.871 379.707 106.777 380.587 105.844 381.76C104.911 382.933 104.271 384.347 103.924 386H119.244ZM132.367 398.32C130.153 398.32 128.353 397.813 126.967 396.8C125.58 395.76 124.887 394.347 124.887 392.56C124.887 392.24 124.9 392 124.927 391.84H127.647C127.54 393.12 127.913 394.147 128.767 394.92C129.62 395.693 130.873 396.08 132.527 396.08C134.207 396.08 135.553 395.733 136.567 395.04C137.58 394.32 138.087 393.373 138.087 392.2C138.087 391.507 137.873 390.92 137.447 390.44C137.02 389.96 136.487 389.573 135.847 389.28C135.233 388.96 134.367 388.6 133.247 388.2C131.86 387.693 130.74 387.227 129.887 386.8C129.06 386.347 128.34 385.733 127.727 384.96C127.14 384.16 126.847 383.16 126.847 381.96C126.847 380.76 127.193 379.693 127.887 378.76C128.58 377.827 129.527 377.107 130.727 376.6C131.953 376.093 133.34 375.84 134.887 375.84C137.047 375.84 138.807 376.373 140.167 377.44C141.553 378.507 142.247 379.92 142.247 381.68C142.247 382.053 142.233 382.333 142.207 382.52H139.567C139.593 382.413 139.607 382.24 139.607 382C139.607 380.827 139.14 379.88 138.207 379.16C137.3 378.44 136.127 378.08 134.687 378.08C133.247 378.08 132.047 378.427 131.087 379.12C130.153 379.787 129.687 380.693 129.687 381.84C129.687 382.613 129.913 383.267 130.367 383.8C130.82 384.307 131.38 384.72 132.047 385.04C132.713 385.36 133.607 385.733 134.727 386.16C136.06 386.667 137.127 387.133 137.927 387.56C138.753 387.987 139.447 388.573 140.007 389.32C140.567 390.067 140.847 391 140.847 392.12C140.847 394.013 140.06 395.52 138.487 396.64C136.913 397.76 134.873 398.32 132.367 398.32ZM152.757 398.32C150.544 398.32 148.744 397.813 147.357 396.8C145.971 395.76 145.277 394.347 145.277 392.56C145.277 392.24 145.291 392 145.317 391.84H148.037C147.931 393.12 148.304 394.147 149.157 394.92C150.011 395.693 151.264 396.08 152.917 396.08C154.597 396.08 155.944 395.733 156.957 395.04C157.971 394.32 158.477 393.373 158.477 392.2C158.477 391.507 158.264 390.92 157.837 390.44C157.411 389.96 156.877 389.573 156.237 389.28C155.624 388.96 154.757 388.6 153.637 388.2C152.251 387.693 151.131 387.227 150.277 386.8C149.451 386.347 148.731 385.733 148.117 384.96C147.531 384.16 147.237 383.16 147.237 381.96C147.237 380.76 147.584 379.693 148.277 378.76C148.971 377.827 149.917 377.107 151.117 376.6C152.344 376.093 153.731 375.84 155.277 375.84C157.437 375.84 159.197 376.373 160.557 377.44C161.944 378.507 162.637 379.92 162.637 381.68C162.637 382.053 162.624 382.333 162.597 382.52H159.957C159.984 382.413 159.997 382.24 159.997 382C159.997 380.827 159.531 379.88 158.597 379.16C157.691 378.44 156.517 378.08 155.077 378.08C153.637 378.08 152.437 378.427 151.477 379.12C150.544 379.787 150.077 380.693 150.077 381.84C150.077 382.613 150.304 383.267 150.757 383.8C151.211 384.307 151.771 384.72 152.437 385.04C153.104 385.36 153.997 385.733 155.117 386.16C156.451 386.667 157.517 387.133 158.317 387.56C159.144 387.987 159.837 388.573 160.397 389.32C160.957 390.067 161.237 391 161.237 392.12C161.237 394.013 160.451 395.52 158.877 396.64C157.304 397.76 155.264 398.32 152.757 398.32ZM171.868 372.04C171.361 372.04 170.948 371.893 170.628 371.6C170.308 371.28 170.148 370.867 170.148 370.36C170.148 369.667 170.388 369.093 170.868 368.64C171.348 368.16 171.921 367.92 172.588 367.92C173.095 367.92 173.495 368.067 173.788 368.36C174.108 368.653 174.268 369.04 174.268 369.52C174.268 370.213 174.028 370.813 173.548 371.32C173.068 371.8 172.508 372.04 171.868 372.04ZM172.508 376.16L168.668 398H165.868L169.708 376.16H172.508ZM180.809 381C181.769 379.48 183.089 378.24 184.769 377.28C186.449 376.32 188.302 375.84 190.329 375.84C192.969 375.84 195.075 376.627 196.649 378.2C198.249 379.747 199.049 381.853 199.049 384.52C199.049 385.32 198.969 386.16 198.809 387.04C198.409 389.28 197.609 391.253 196.409 392.96C195.209 394.667 193.729 395.987 191.969 396.92C190.235 397.853 188.369 398.32 186.369 398.32C184.315 398.32 182.622 397.853 181.289 396.92C179.955 395.96 179.062 394.72 178.609 393.2L177.769 398H175.009L180.249 368.4H183.009L180.809 381ZM195.969 387.04C196.102 386.24 196.169 385.56 196.169 385C196.169 382.893 195.542 381.253 194.289 380.08C193.062 378.88 191.435 378.28 189.409 378.28C187.915 378.28 186.489 378.64 185.129 379.36C183.769 380.08 182.609 381.107 181.649 382.44C180.689 383.773 180.049 385.32 179.729 387.08C179.595 387.827 179.529 388.493 179.529 389.08C179.529 391.16 180.155 392.813 181.409 394.04C182.662 395.267 184.289 395.88 186.289 395.88C187.835 395.88 189.275 395.533 190.609 394.84C191.969 394.12 193.115 393.093 194.049 391.76C195.009 390.4 195.649 388.827 195.969 387.04ZM208.001 372.04C207.494 372.04 207.081 371.893 206.761 371.6C206.441 371.28 206.281 370.867 206.281 370.36C206.281 369.667 206.521 369.093 207.001 368.64C207.481 368.16 208.054 367.92 208.721 367.92C209.227 367.92 209.627 368.067 209.921 368.36C210.241 368.653 210.401 369.04 210.401 369.52C210.401 370.213 210.161 370.813 209.681 371.32C209.201 371.8 208.641 372.04 208.001 372.04ZM208.641 376.16L204.801 398H202.001L205.841 376.16H208.641ZM219.181 368.4L213.941 398H211.141L216.381 368.4H219.181ZM226.282 372.04C225.775 372.04 225.362 371.893 225.042 371.6C224.722 371.28 224.562 370.867 224.562 370.36C224.562 369.667 224.802 369.093 225.282 368.64C225.762 368.16 226.335 367.92 227.002 367.92C227.509 367.92 227.909 368.067 228.202 368.36C228.522 368.653 228.682 369.04 228.682 369.52C228.682 370.213 228.442 370.813 227.962 371.32C227.482 371.8 226.922 372.04 226.282 372.04ZM226.922 376.16L223.082 398H220.282L224.122 376.16H226.922ZM234.063 392.08C233.983 392.56 233.943 392.973 233.943 393.32C233.943 394.173 234.169 394.773 234.623 395.12C235.103 395.44 235.876 395.6 236.943 395.6H239.503L239.063 398H236.063C234.409 398 233.169 397.68 232.343 397.04C231.516 396.4 231.103 395.347 231.103 393.88C231.103 393.293 231.156 392.693 231.263 392.08L233.663 378.52H230.623L231.063 376.16H234.103L235.063 370.68H237.863L236.903 376.16H242.943L242.503 378.52H236.463L234.063 392.08ZM248.04 376.16L252.16 394.68L262.6 376.16H265.52L246.92 408.28H243.96L250.04 397.84L244.92 376.16H248.04ZM277.914 387.04C278.314 384.8 279.114 382.84 280.314 381.16C281.514 379.453 282.981 378.147 284.714 377.24C286.474 376.307 288.354 375.84 290.354 375.84C292.434 375.84 294.141 376.32 295.474 377.28C296.808 378.24 297.674 379.467 298.074 380.96L298.914 376.16H301.714L297.874 398H295.074L295.914 393.16C295.008 394.653 293.701 395.893 291.994 396.88C290.314 397.84 288.434 398.32 286.354 398.32C284.621 398.32 283.101 397.96 281.794 397.24C280.488 396.52 279.474 395.507 278.754 394.2C278.034 392.867 277.674 391.307 277.674 389.52C277.674 388.747 277.754 387.92 277.914 387.04ZM296.994 387.08C297.128 386.333 297.194 385.667 297.194 385.08C297.194 383 296.568 381.347 295.314 380.12C294.061 378.893 292.434 378.28 290.434 378.28C288.888 378.28 287.434 378.627 286.074 379.32C284.741 380.013 283.608 381.027 282.674 382.36C281.741 383.667 281.114 385.227 280.794 387.04C280.661 387.84 280.594 388.52 280.594 389.08C280.594 391.187 281.208 392.853 282.434 394.08C283.688 395.28 285.314 395.88 287.314 395.88C288.808 395.88 290.234 395.52 291.594 394.8C292.981 394.08 294.141 393.053 295.074 391.72C296.034 390.387 296.674 388.84 296.994 387.08ZM310.066 380.96C310.973 379.493 312.266 378.28 313.946 377.32C315.653 376.333 317.533 375.84 319.586 375.84C322.226 375.84 324.333 376.627 325.906 378.2C327.506 379.747 328.306 381.867 328.306 384.56C328.306 385.333 328.226 386.16 328.066 387.04C327.666 389.28 326.866 391.253 325.666 392.96C324.466 394.667 322.986 395.987 321.226 396.92C319.493 397.853 317.626 398.32 315.626 398.32C313.573 398.32 311.88 397.84 310.546 396.88C309.213 395.893 308.32 394.667 307.866 393.2L305.226 408.32H302.426L308.106 376.16H310.906L310.066 380.96ZM325.226 387.04C325.36 386.24 325.426 385.56 325.426 385C325.426 382.893 324.8 381.253 323.546 380.08C322.32 378.88 320.693 378.28 318.666 378.28C317.173 378.28 315.746 378.64 314.386 379.36C313.026 380.08 311.866 381.107 310.906 382.44C309.946 383.773 309.306 385.32 308.986 387.08C308.853 387.827 308.786 388.493 308.786 389.08C308.786 391.16 309.413 392.813 310.666 394.04C311.92 395.267 313.546 395.88 315.546 395.88C317.093 395.88 318.533 395.533 319.866 394.84C321.226 394.12 322.373 393.093 323.306 391.76C324.266 390.4 324.906 388.827 325.226 387.04ZM337.059 380.96C337.965 379.493 339.259 378.28 340.939 377.32C342.645 376.333 344.525 375.84 346.579 375.84C349.219 375.84 351.325 376.627 352.899 378.2C354.499 379.747 355.299 381.867 355.299 384.56C355.299 385.333 355.219 386.16 355.059 387.04C354.659 389.28 353.859 391.253 352.659 392.96C351.459 394.667 349.979 395.987 348.219 396.92C346.485 397.853 344.619 398.32 342.619 398.32C340.565 398.32 338.872 397.84 337.539 396.88C336.205 395.893 335.312 394.667 334.859 393.2L332.219 408.32H329.419L335.099 376.16H337.899L337.059 380.96ZM352.219 387.04C352.352 386.24 352.419 385.56 352.419 385C352.419 382.893 351.792 381.253 350.539 380.08C349.312 378.88 347.685 378.28 345.659 378.28C344.165 378.28 342.739 378.64 341.379 379.36C340.019 380.08 338.859 381.107 337.899 382.44C336.939 383.773 336.299 385.32 335.979 387.08C335.845 387.827 335.779 388.493 335.779 389.08C335.779 391.16 336.405 392.813 337.659 394.04C338.912 395.267 340.539 395.88 342.539 395.88C344.085 395.88 345.525 395.533 346.859 394.84C348.219 394.12 349.365 393.093 350.299 391.76C351.259 390.4 351.899 388.827 352.219 387.04Z" fill="black"/>
<g style="mix-blend-mode:multiply">
<rect x="130.204" y="40.9889" width="23.0453" height="124.09" rx="11.5227" fill="#F7BD4A"/>
</g>
<g style="mix-blend-mode:multiply">
<rect x="130.204" y="169.511" width="23.0453" height="93.9539" rx="11.5227" fill="#3C7CCD"/>
</g>
<g style="mix-blend-mode:multiply">
<rect x="214.547" y="59.8824" width="22.9477" height="203.76" rx="11.4738" fill="#007EDA"/>
</g>
<g style="mix-blend-mode:multiply">
<rect x="285.704" y="263.508" width="23.0453" height="60.2723" rx="11.5226" transform="rotate(-90 285.704 263.508)" fill="#007EDA"/>
</g>
<g style="mix-blend-mode:multiply">
<rect x="99.1814" y="187.238" width="23.0453" height="76.2268" rx="11.5227" fill="#007EDA"/>
</g>
<g style="mix-blend-mode:multiply">
<rect x="73.4771" y="40.9889" width="23.0453" height="124.09" rx="11.5227" fill="#F7BD4A"/>
</g>
<g style="mix-blend-mode:multiply">
<rect x="122.227" y="79.9886" width="23.0453" height="73.5677" rx="11.5227" transform="rotate(90 122.227 79.9886)" fill="#F7BD4A"/>
</g>
<g style="mix-blend-mode:multiply">
<path d="M256.317 112.039C261.944 116.999 261.655 125.859 255.717 130.442V130.442C251.039 134.053 244.423 133.697 240.16 129.606L228.108 118.041C223.16 113.294 219.907 107.055 218.847 100.281L214.631 73.3489C213.87 68.486 216.276 63.6752 220.623 61.3669V61.3669C227.845 57.5323 236.655 62.2135 237.518 70.3445L239.548 89.4549C240.135 94.991 242.779 100.105 246.955 103.786L256.317 112.039Z" fill="#007EDA"/>
</g>
<g style="mix-blend-mode:multiply">
<path fill-rule="evenodd" clip-rule="evenodd" d="M84.1134 240.419C92.4352 240.419 99.1815 233.673 99.1815 225.351C99.1815 217.029 92.4352 210.283 84.1134 210.283C75.7915 210.283 69.0453 217.029 69.0453 225.351C69.0453 233.673 75.7915 240.419 84.1134 240.419ZM84.1134 263.465C105.163 263.465 122.227 246.401 122.227 225.351C122.227 204.302 105.163 187.238 84.1134 187.238C63.0639 187.238 46 204.302 46 225.351C46 246.401 63.0639 263.465 84.1134 263.465Z" fill="#3C7CCD"/>
</g>
<g style="mix-blend-mode:multiply">
<path fill-rule="evenodd" clip-rule="evenodd" d="M168.317 240.419C176.639 240.419 183.385 233.673 183.385 225.351C183.385 217.029 176.639 210.283 168.317 210.283C159.995 210.283 153.249 217.029 153.249 225.351C153.249 233.673 159.995 240.419 168.317 240.419ZM168.317 263.465C189.367 263.465 206.431 246.401 206.431 225.351C206.431 204.302 189.367 187.238 168.317 187.238C147.268 187.238 130.204 204.302 130.204 225.351C130.204 246.401 147.268 263.465 168.317 263.465Z" fill="#007EDA"/>
</g>
<g style="mix-blend-mode:multiply">
<path fill-rule="evenodd" clip-rule="evenodd" d="M287.477 240.463C295.799 240.463 302.545 233.717 302.545 225.395C302.545 217.073 295.799 210.327 287.477 210.327C279.155 210.327 272.409 217.073 272.409 225.395C272.409 233.717 279.155 240.463 287.477 240.463ZM287.477 263.508C308.527 263.508 325.591 246.444 325.591 225.395C325.591 204.345 308.527 187.282 287.477 187.282C266.428 187.282 249.364 204.345 249.364 225.395C249.364 246.444 266.428 263.508 287.477 263.508Z" fill="#007EDA"/>
</g>
<g style="mix-blend-mode:multiply">
<path fill-rule="evenodd" clip-rule="evenodd" d="M288.347 126.015L288.798 126.015L311.843 126.015C320.165 126.015 326.911 126.146 326.911 134.467C326.911 142.789 320.165 142.034 311.843 142.034L270.184 142.034L269.733 142.034C269.735 142.036 269.736 142.039 269.737 142.042C263.581 142.277 258.662 147.342 258.662 153.556C258.662 159.92 263.821 165.079 270.184 165.079L311.843 165.079C332.893 165.079 346 155.517 346 134.467C346 113.418 332.893 102.97 311.843 102.97L288.798 102.97C282.434 102.97 277.275 108.129 277.275 114.492C277.275 120.706 282.194 125.771 288.351 126.006C288.349 126.009 288.348 126.012 288.347 126.015Z" fill="#F7BD4A"/>
</g>
<g style="mix-blend-mode:multiply">
<path fill-rule="evenodd" clip-rule="evenodd" d="M313.743 82.9354L313.292 82.9354L290.247 82.9354C281.925 82.9354 274.387 84.253 274.387 92.5749C274.387 100.897 281.925 102.911 290.247 102.911L313.292 102.911L313.743 102.911C313.742 102.913 313.74 102.916 313.739 102.919C319.896 103.154 324.815 108.219 324.815 114.433C324.815 120.797 319.656 125.956 313.292 125.956L290.247 125.956C269.197 125.956 252.529 112.437 252.529 91.3879C252.529 68.3889 269.197 59.8901 290.247 59.8901L313.292 59.8901C319.656 59.8901 324.815 65.049 324.815 71.4128C324.815 77.6268 319.896 82.6919 313.739 82.9269C313.74 82.9297 313.742 82.9326 313.743 82.9354Z" fill="#F7BD4A"/>
</g>
<g style="mix-blend-mode:multiply">
<path fill-rule="evenodd" clip-rule="evenodd" d="M168.317 103.92C176.639 103.92 183.385 110.667 183.385 118.988V153.556C183.385 153.56 183.385 153.563 183.385 153.566V154.007C183.388 154.006 183.391 154.005 183.394 154.004C183.629 160.16 188.694 165.079 194.908 165.079C201.272 165.079 206.431 159.92 206.431 153.556V118.988C206.431 97.939 189.367 80.875 168.317 80.875C147.271 80.875 130.209 97.9344 130.204 118.98C130.204 118.983 130.204 118.986 130.204 118.988L130.204 153.556C130.204 159.92 135.363 165.079 141.727 165.079C147.941 165.079 153.006 160.16 153.241 154.004C153.244 154.005 153.246 154.006 153.249 154.007V118.999L153.249 118.988C153.249 110.667 159.995 103.92 168.317 103.92Z" fill="#F7BD4A"/>
</g>
<circle cx="226.069" cy="42.5227" r="11.5227" fill="#007EDA"/>
<circle cx="277.108" cy="42.5227" r="11.5227" fill="#F7BD4A"/>
</svg>
