<svg width="80" height="49" viewBox="0 0 80 49" fill="none" xmlns="http://www.w3.org/2000/svg">
<path d="M40 0.0639954C29.3334 0.0639954 22.6666 5.39743 20 16.064C24 10.7306 28.6666 8.73056 34 10.064C37.0428 10.8246 39.2178 13.0324 41.6253 15.4759C45.5472 19.4568 50.0859 24.064 60 24.064C70.6666 24.064 77.3334 18.7306 80 8.064C76 13.3974 71.3334 15.3974 66 14.064C62.9572 13.3034 60.7822 11.0956 58.3747 8.65212C54.4528 4.67118 49.9141 0.0639954 40 0.0639954ZM20 24.064C9.33344 24.064 2.66656 29.3974 0 40.064C4 34.7306 8.66656 32.7306 14 34.064C17.0428 34.8246 19.2178 37.0324 21.6253 39.4759C25.5472 43.4568 30.0859 48.064 40 48.064C50.6666 48.064 57.3334 42.7306 60 32.064C56 37.3974 51.3334 39.3974 46 38.064C42.9572 37.3034 40.7822 35.0956 38.3747 32.6521C34.4528 28.6712 29.9141 24.064 20 24.064Z" fill="url(#paint0_linear_10_223)"/>
<defs>
<linearGradient id="paint0_linear_10_223" x1="-2.2224" y1="15.424" x2="66.8707" y2="55.2618" gradientUnits="userSpaceOnUse">
<stop stop-color="#2298BD"/>
<stop offset="1" stop-color="#0ED7B5"/>
</linearGradient>
</defs>
</svg>
