<svg width="80" height="80" viewBox="0 0 80 80" fill="none" xmlns="http://www.w3.org/2000/svg">
<g clip-path="url(#clip0_10_161)">
<path d="M75.5813 23.5141C75.5813 22.1766 75.2969 20.9719 74.7047 19.9641C74.1344 18.9562 73.2797 18.1234 72.1406 17.4656C62.675 12.0078 53.1859 6.55156 43.7188 1.09531C41.1547 -0.373443 38.7 -0.329693 36.1578 1.16093C32.3891 3.37499 13.5 14.2 7.89064 17.4656C5.5672 18.8031 4.45001 20.8625 4.45001 23.5359C4.45001 34.5141 4.45001 45.5156 4.45001 56.4937C4.45001 57.8078 4.73439 58.9703 5.28282 59.9781C5.85314 61.0078 6.7297 61.8844 7.89064 62.5641C13.5219 65.8297 32.3906 76.6328 36.1594 78.8672C38.7016 80.3578 41.1781 80.4234 43.7203 78.9328C53.1875 73.4547 62.675 68.0203 72.1422 62.5625C73.325 61.8828 74.1797 61.0281 74.75 59.9766C75.2984 58.9687 75.5828 57.8078 75.5828 56.4922C75.5813 56.4719 75.5813 34.4922 75.5813 23.5141Z" fill="#9A4993"/>
<path d="M40.1031 39.8828L5.23907 59.9563C5.80939 60.9859 6.68595 61.8625 7.84689 62.5422C13.4781 65.8078 32.3469 76.6109 36.1156 78.8453C38.6578 80.3359 41.1344 80.4016 43.6766 78.9109C53.1438 73.4328 62.6313 67.9984 72.0984 62.5406C73.2813 61.8609 74.1359 61.0062 74.7063 59.9547L40.1031 39.8828Z" fill="#6A1577"/>
<path d="M29.7812 45.8219C31.8187 49.3719 35.6328 51.7609 39.9938 51.7609C44.3984 51.7609 48.2328 49.35 50.25 45.7562L40.1047 39.8828L29.7812 45.8219Z" fill="#6A1577"/>
<path d="M75.5812 23.5141C75.5812 22.1766 75.2969 20.9719 74.7047 19.9641L40.1031 39.8828L74.7484 59.9562C75.2969 58.9484 75.5812 57.7875 75.5812 56.4719C75.5812 56.4719 75.5812 34.4922 75.5812 23.5141Z" fill="#813084"/>
<path d="M50.25 45.7562C48.2344 49.3281 44.3985 51.7609 39.9938 51.7609C35.611 51.7609 31.7985 49.3719 29.7813 45.8219C28.7953 44.0906 28.225 42.1187 28.225 39.9922C28.225 33.4844 33.4844 28.225 39.9922 28.225C44.3313 28.225 48.1219 30.5922 50.1609 34.0984L60.4391 28.1812C56.3406 21.125 48.7156 16.3703 39.9719 16.3703C26.911 16.3703 16.3484 26.9547 16.3484 39.9937C16.3484 44.2672 17.4875 48.2984 19.4828 51.7609C23.5594 58.8391 31.2281 63.6156 39.9938 63.6156C48.7813 63.6156 56.4516 58.8172 60.5266 51.6937L50.25 45.7562Z" fill="white"/>
<path d="M63.2453 34.4047H60.9V45.7344H63.2453V34.4047Z" fill="white"/>
<path d="M68.4391 34.4047H66.0938V45.7344H68.4391V34.4047Z" fill="white"/>
<path d="M70.3453 36.3109H59.0156V38.6563H70.3453V36.3109Z" fill="white"/>
<path d="M70.3453 41.4828H59.0156V43.8281H70.3453V41.4828Z" fill="white"/>
</g>
<defs>
<clipPath id="clip0_10_161">
<rect width="80" height="80" fill="white"/>
</clipPath>
</defs>
</svg>
