<svg width="80" height="78" viewBox="0 0 80 78" fill="none" xmlns="http://www.w3.org/2000/svg">
<g clip-path="url(#clip0_10_145)">
<path d="M25.6517 76.5419C23.7936 76.5419 22.0388 75.7161 20.8517 74.2194L2.78714 51.7677C1.60005 50.271 1.13553 48.3613 1.60005 46.5032L8.05166 18.4774C8.46456 16.6194 9.70327 15.1226 11.4065 14.2968L37.5226 1.80646C38.3484 1.39355 39.2775 1.1871 40.2065 1.1871C41.1355 1.1871 42.0646 1.39355 42.8904 1.80646L69.0065 14.2452C70.7097 15.071 71.9484 16.5677 72.3613 18.4258L78.813 46.4516C79.2259 48.3097 78.813 50.2194 77.6259 51.7161L59.5613 74.1678C58.3742 75.6129 56.6194 76.4903 54.7613 76.4903L25.6517 76.5419Z" fill="#326DE6"/>
<path d="M40.1549 2.47741C40.8775 2.47741 41.6 2.63225 42.271 2.94193L68.3871 15.3806C69.7291 16.0516 70.7613 17.2903 71.071 18.7355L77.5226 46.7613C77.8839 48.2581 77.5226 49.8064 76.542 50.9935L58.4775 73.4452C57.5484 74.6323 56.1033 75.3032 54.6065 75.3032H25.6517C24.1549 75.3032 22.7097 74.6323 21.7807 73.4452L3.71617 50.9935C2.78714 49.8064 2.42585 48.2581 2.73552 46.7613L9.18714 18.7355C9.54843 17.2387 10.5291 16 11.871 15.3806L37.9871 2.89031C38.6581 2.63225 39.4323 2.47741 40.1549 2.47741ZM40.1549 0.0516052C39.071 0.0516052 37.9871 0.30967 36.9549 0.774186L10.8387 13.2645C8.77423 14.2452 7.32907 16.0516 6.81294 18.271L0.36133 46.2968C-0.154799 48.5161 0.36133 50.7871 1.80649 52.5935L19.871 75.0452C21.2646 76.8 23.3807 77.7806 25.6 77.7806H54.5549C56.7742 77.7806 58.8904 76.8 60.2839 75.0452L78.3484 52.5935C79.7936 50.8387 80.3097 48.5161 79.7936 46.2968L73.342 18.271C72.8258 16.0516 71.3807 14.2452 69.3162 13.2645L43.3033 0.774186C42.3226 0.30967 41.2387 0.0516052 40.1549 0.0516052Z" fill="white"/>
<path d="M66.3226 44.5419C66.271 44.5419 66.271 44.5419 66.3226 44.5419H66.271C66.2194 44.5419 66.1678 44.5419 66.1678 44.4903C66.0645 44.4903 65.9613 44.4387 65.8581 44.4387C65.4968 44.3871 65.1871 44.3355 64.8774 44.3355C64.7226 44.3355 64.5678 44.3355 64.3613 44.2839H64.3097C63.2258 44.1806 62.3484 44.0774 61.5226 43.8193C61.1613 43.6645 61.0581 43.4581 60.9549 43.2516C60.9549 43.2 60.9033 43.2 60.9033 43.1484L60.2323 42.9419C60.542 40.5677 60.4387 38.0903 59.871 35.6645C59.3033 33.2387 58.3226 30.9677 56.9807 28.9032L57.4968 28.4387V28.3355C57.4968 28.0774 57.5484 27.8193 57.7549 27.5613C58.3742 26.9935 59.1484 26.529 60.0774 25.9613C60.2323 25.8581 60.3871 25.8064 60.542 25.7032C60.8516 25.5484 61.1097 25.3935 61.4194 25.1871C61.471 25.1355 61.5742 25.0839 61.6774 24.9806C61.7291 24.929 61.7807 24.929 61.7807 24.8774C62.5033 24.2581 62.6581 23.2258 62.142 22.5548C61.8839 22.1935 61.4194 21.9871 60.9549 21.9871C60.542 21.9871 60.1807 22.1419 59.8194 22.4C59.7678 22.4516 59.7678 22.4516 59.7162 22.5032C59.6129 22.5548 59.5613 22.6581 59.4581 22.7097C59.2 22.9677 58.9936 23.1742 58.7871 23.4322C58.6839 23.5355 58.5807 23.6903 58.4258 23.7935C57.7033 24.5677 57.0323 25.1871 56.3613 25.6516C56.2065 25.7548 56.0516 25.8064 55.8968 25.8064C55.7936 25.8064 55.6903 25.8064 55.5871 25.7548H55.4839L54.8645 26.1677C54.1936 25.4451 53.471 24.8258 52.7484 24.2064C49.6516 21.7806 45.8839 20.2839 41.9613 19.9226L41.9097 19.2516C41.8581 19.2 41.8581 19.2 41.8065 19.1484C41.6516 18.9935 41.4452 18.8387 41.3936 18.4774C41.342 17.6516 41.4452 16.7226 41.5484 15.6903V15.6387C41.5484 15.4839 41.6 15.2774 41.6516 15.1226C41.7033 14.8129 41.7549 14.5032 41.8065 14.1419V13.8322V13.6774C41.8065 12.7484 41.0839 11.9742 40.2065 11.9742C39.7936 11.9742 39.3807 12.1806 39.071 12.4903C38.7613 12.8 38.6065 13.2129 38.6065 13.6774V13.7806V14.0903C38.6065 14.4516 38.6581 14.7613 38.7613 15.071C38.8129 15.2258 38.8129 15.3806 38.8645 15.5871V15.6387C38.9678 16.671 39.1226 17.6 39.0194 18.4258C38.9678 18.7871 38.7613 18.9419 38.6065 19.0968C38.5549 19.1484 38.5549 19.1484 38.5033 19.2L38.4516 19.871C37.5226 19.9742 36.5936 20.0774 35.6645 20.2839C31.6904 21.1613 28.1807 23.1742 25.4452 26.0645L24.9291 25.7032H24.8258C24.7226 25.7032 24.6194 25.7548 24.5162 25.7548C24.3613 25.7548 24.2065 25.7032 24.0516 25.6C23.3807 25.1355 22.7097 24.4645 21.9871 23.6903C21.8839 23.5871 21.7807 23.4322 21.6258 23.329C21.4194 23.071 21.2129 22.8645 20.9549 22.6064C20.9033 22.5548 20.8 22.5032 20.6968 22.4C20.6452 22.3484 20.5936 22.3484 20.5936 22.2968C20.2839 22.0387 19.871 21.8839 19.4581 21.8839C18.9936 21.8839 18.5291 22.0903 18.271 22.4516C17.7549 23.1226 17.9097 24.1548 18.6323 24.7742C18.6839 24.7742 18.6839 24.8258 18.7355 24.8258C18.8387 24.8774 18.8904 24.9806 18.9936 25.0322C19.3033 25.2387 19.5613 25.3935 19.871 25.5484C20.0258 25.6 20.1807 25.7032 20.3355 25.8064C21.2645 26.3742 22.0387 26.8387 22.6581 27.4064C22.9162 27.6645 22.9162 27.9226 22.9162 28.1806V28.2839L23.4323 28.7484C23.3291 28.9032 23.2258 29.0064 23.1742 29.1613C20.5936 33.2387 19.6129 38.0387 20.2839 42.7871L19.6129 42.9935C19.6129 43.0452 19.5613 43.0452 19.5613 43.0968C19.4581 43.3032 19.3033 43.5097 18.9936 43.6645C18.2194 43.9226 17.2904 44.0258 16.2065 44.129H16.1549C16 44.129 15.7936 44.129 15.6387 44.1806C15.3291 44.1806 15.0194 44.2322 14.6581 44.2839C14.5549 44.2839 14.4516 44.3355 14.3484 44.3355C14.2968 44.3355 14.2452 44.3355 14.1936 44.3871C13.2645 44.5935 12.6968 45.471 12.8516 46.2968C13.0065 47.0193 13.6774 47.4839 14.5033 47.4839C14.6581 47.4839 14.7613 47.4839 14.9162 47.4322C14.9678 47.4322 15.0194 47.4322 15.0194 47.3806C15.1226 47.3806 15.2258 47.329 15.3291 47.329C15.6904 47.2258 15.9484 47.1226 16.2581 46.9677C16.4129 46.9161 16.5678 46.8129 16.7226 46.7613H16.7742C17.7549 46.4 18.6323 46.0903 19.4581 45.9871H19.5613C19.871 45.9871 20.0774 46.1419 20.2323 46.2451C20.2839 46.2451 20.2839 46.2968 20.3355 46.2968L21.0581 46.1935C22.2968 50.0129 24.671 53.4193 27.8194 55.8968C28.542 56.4645 29.2645 56.929 30.0387 57.3935L29.7291 58.0645C29.7291 58.1161 29.7807 58.1161 29.7807 58.1677C29.8839 58.3742 29.9871 58.6322 29.8839 58.9935C29.5742 59.7677 29.1097 60.5419 28.542 61.4193V61.471C28.4387 61.6258 28.3355 61.729 28.2323 61.8839C28.0258 62.1419 27.871 62.4 27.6645 62.7097C27.6129 62.7613 27.5613 62.8645 27.5097 62.9677C27.5097 63.0193 27.4581 63.071 27.4581 63.071C27.0452 63.9484 27.3549 64.929 28.1291 65.2903C28.3355 65.3935 28.542 65.4451 28.7484 65.4451C29.3678 65.4451 29.9871 65.0322 30.2968 64.4645C30.2968 64.4129 30.3484 64.3613 30.3484 64.3613C30.4 64.2581 30.4516 64.1548 30.5033 64.1032C30.6581 63.7419 30.7097 63.4839 30.8129 63.1742C30.8645 63.0193 30.9162 62.8645 30.9678 62.7097C31.3291 61.6774 31.5871 60.8516 32.0516 60.129C32.2581 59.8193 32.5162 59.7677 32.7226 59.6645C32.7742 59.6645 32.7742 59.6645 32.8258 59.6129L33.1871 58.9419C35.4581 59.8193 37.9355 60.2839 40.4129 60.2839C41.9097 60.2839 43.4581 60.129 44.9033 59.7677C45.8323 59.5613 46.7097 59.3032 47.5871 58.9935L47.8968 59.5613C47.9484 59.5613 47.9484 59.5613 48 59.6129C48.2581 59.6645 48.4645 59.7677 48.671 60.0774C49.0839 60.8 49.3936 61.6774 49.7549 62.6581V62.7097C49.8065 62.8645 49.8581 63.0193 49.9097 63.1742C50.0129 63.4839 50.0645 63.7935 50.2194 64.1032C50.271 64.2064 50.3226 64.2581 50.3742 64.3613C50.3742 64.4129 50.4258 64.4645 50.4258 64.4645C50.7355 65.0839 51.3549 65.4451 51.9742 65.4451C52.1807 65.4451 52.3871 65.3935 52.5936 65.2903C52.9549 65.0839 53.2645 64.7742 53.3678 64.3613C53.471 63.9484 53.471 63.4839 53.2645 63.071C53.2645 63.0193 53.2129 63.0193 53.2129 62.9677C53.1613 62.8645 53.1097 62.7613 53.0581 62.7097C52.9033 62.4 52.6968 62.1419 52.4904 61.8839C52.3871 61.729 52.2839 61.6258 52.1807 61.471V61.4193C51.6129 60.5419 51.0968 59.7677 50.8387 58.9935C50.7355 58.6322 50.8387 58.4258 50.8904 58.1677C50.8904 58.1161 50.942 58.1161 50.942 58.0645L50.6839 57.4451C53.4194 55.8451 55.742 53.5742 57.4968 50.7871C58.4258 49.3419 59.1484 47.7419 59.6645 46.1419L60.2839 46.2451C60.3355 46.2451 60.3355 46.1935 60.3871 46.1935C60.5936 46.0903 60.7484 45.9355 61.0581 45.9355H61.1613C61.9871 46.0387 62.8645 46.3484 63.8452 46.7097H63.8968C64.0516 46.7613 64.2065 46.8645 64.3613 46.9161C64.671 47.071 64.9291 47.1742 65.2903 47.2774C65.3936 47.2774 65.4968 47.329 65.6 47.329C65.6516 47.329 65.7033 47.329 65.7549 47.3806C65.9097 47.4322 66.0129 47.4322 66.1678 47.4322C66.942 47.4322 67.6129 46.9161 67.8194 46.2451C67.8194 45.6258 67.2516 44.8 66.3226 44.5419ZM42.4258 42.0129L40.1549 43.0968L37.8839 42.0129L37.3162 39.5871L38.8645 37.6258H41.3936L42.942 39.5871L42.4258 42.0129ZM55.8968 36.6452C56.3097 38.4 56.4129 40.1548 56.2581 41.8581L48.3613 39.5871C47.6387 39.3806 47.2258 38.6581 47.3807 37.9355C47.4323 37.729 47.5355 37.5226 47.6904 37.3677L53.9355 31.7419C54.8129 33.1871 55.4839 34.8387 55.8968 36.6452ZM51.4581 28.6451L44.6968 33.4451C44.1291 33.8064 43.3549 33.7032 42.8904 33.1355C42.7355 32.9806 42.6839 32.7742 42.6323 32.5677L42.1678 24.1548C45.7291 24.5677 48.9807 26.1677 51.4581 28.6451ZM36.4904 24.4129C37.0581 24.3097 37.5742 24.2064 38.142 24.1032L37.6774 32.3613C37.6258 33.0839 37.0581 33.7032 36.2839 33.7032C36.0775 33.7032 35.8194 33.6516 35.6645 33.5484L28.8 28.6451C30.9162 26.529 33.5484 25.0839 36.4904 24.4129ZM26.3226 31.7419L32.4645 37.2129C33.0323 37.6774 33.0839 38.5548 32.6194 39.1226C32.4645 39.329 32.2581 39.4839 32 39.5355L24 41.8581C23.6904 38.3484 24.4645 34.7871 26.3226 31.7419ZM24.9291 45.729L33.1355 44.3355C33.8065 44.2839 34.4258 44.7484 34.5807 45.4193C34.6323 45.729 34.6323 45.9871 34.5291 46.2451L31.3807 53.8322C28.4904 51.9742 26.1678 49.1355 24.9291 45.729ZM43.7678 56C42.5807 56.258 41.3936 56.4129 40.1549 56.4129C38.3484 56.4129 36.5936 56.1032 34.942 55.5871L39.0194 48.2064C39.4323 47.7419 40.1033 47.5355 40.671 47.8452C40.9291 48 41.1355 48.2064 41.2904 48.4129L45.2645 55.5871C44.8 55.7419 44.2839 55.8451 43.7678 56ZM53.8323 48.8258C52.542 50.8903 50.8387 52.5419 48.8775 53.8322L45.6258 46.0387C45.471 45.4193 45.7291 44.7484 46.3484 44.4387C46.5549 44.3355 46.8129 44.2839 47.071 44.2839L55.3291 45.6774C55.0194 46.8129 54.5033 47.8452 53.8323 48.8258Z" fill="white"/>
</g>
<defs>
<clipPath id="clip0_10_145">
<rect width="80" height="77.8125" fill="white"/>
</clipPath>
</defs>
</svg>
