<svg width="80" height="80" viewBox="0 0 80 80" fill="none" xmlns="http://www.w3.org/2000/svg">
<g clip-path="url(#clip0_9_50)">
<path d="M56.5616 28.3173C57.4335 30.2159 58.4067 32.0671 59.2716 33.9692C60.9362 37.6298 62.2004 41.4947 62.7255 45.4813C63.2506 49.4678 63.0222 53.5844 61.777 57.4068C60.369 61.7216 57.696 65.5603 54.421 68.702C50.5466 72.4188 45.5733 75.2841 40.2085 75.4957C36.7129 75.6333 33.2327 74.6339 30.1371 73.0045C27.5356 71.6353 25.1606 69.8106 23.2658 67.5631C21.3709 65.3155 19.964 62.6393 19.3125 59.7724C18.5102 56.2422 18.8733 52.4945 20.0874 49.084C20.9559 46.645 22.2431 44.3742 23.1595 41.9529C24.161 39.3072 24.7201 36.4821 26.047 33.9836C27.2493 31.7182 29.0531 29.7832 30.0113 27.4042C30.5835 25.9833 30.8318 24.4572 31.2013 22.9704C31.5709 21.4837 32.0882 19.9862 33.0946 18.8313C34.3076 17.4396 36.132 16.6853 37.9656 16.4734C39.7991 16.2616 41.6551 16.5476 43.4546 16.9581C44.8873 17.2848 46.3025 17.6905 47.687 18.183C48.8687 18.6034 50.0397 19.0929 51.0616 19.8202C52.4541 20.811 53.5145 22.2062 54.3594 23.6919C55.2042 25.1775 55.8509 26.7647 56.5643 28.3176L56.5616 28.3173Z" fill="#020204"/>
<path d="M41.1672 75.5294C42.64 75.6151 44.1101 75.7581 45.5696 75.9785C46.8528 76.1734 48.1269 76.4247 49.3882 76.7315C51.3636 77.2103 53.3321 77.8208 55.3641 77.8787C55.8988 77.8939 56.4352 77.8701 56.9601 77.7539C57.4849 77.6377 57.9889 77.4258 58.4074 77.0925C59.0314 76.5952 59.425 75.8451 59.5742 75.0608C59.7233 74.2764 59.6299 73.4605 59.4001 72.6962C58.9409 71.1682 57.9541 69.8644 57.1408 68.4931C56.6735 67.7079 56.2571 66.8917 55.751 66.1312C55.2449 65.3707 54.6397 64.6584 53.8712 64.163C52.8086 63.478 51.4911 63.2547 50.2333 63.38C48.9755 63.5053 47.7697 63.9597 46.6471 64.5411C45.0736 65.3557 43.5925 66.4745 42.7348 68.025C42.4362 68.5646 42.2193 69.1443 41.9657 69.7067C41.7121 70.269 41.4151 70.8223 40.9856 71.2647C40.5063 71.7579 39.8845 72.0905 39.3888 72.5669C39.1411 72.8079 38.9242 73.0824 38.7997 73.4018C38.6752 73.7213 38.6412 74.0863 38.7568 74.41C38.8364 74.6323 38.9818 74.8273 39.1612 74.9804C39.3406 75.1336 39.5527 75.2455 39.7752 75.3232C40.2198 75.4796 40.6991 75.5026 41.1696 75.5299L41.1672 75.5294Z" fill="#020204"/>
<path d="M36.7892 75.4343C35.5617 75.4627 34.347 75.6823 33.1473 75.9308C31.998 76.1683 30.854 76.4329 29.7186 76.7309C27.8029 77.2338 25.8847 77.8361 23.9044 77.8781C23.3833 77.8888 22.8585 77.8607 22.3505 77.7432C21.8425 77.6256 21.3509 77.4165 20.9433 77.0914C20.3207 76.5949 19.9249 75.8462 19.7784 75.0637C19.6319 74.2812 19.7214 73.4666 19.9485 72.7035C20.4029 71.1771 21.3774 69.8703 22.1754 68.4923C22.6287 67.709 23.0288 66.8947 23.5191 66.1339C24.0094 65.3731 24.5999 64.6592 25.3561 64.1619C26.3865 63.4844 27.6716 63.2549 28.8989 63.3757C30.1262 63.4965 31.3023 63.9488 32.3847 64.54C33.9126 65.3747 35.3081 66.5232 36.1915 68.0212C36.8114 69.0736 37.1689 70.2773 37.8935 71.2609C38.2837 71.7906 38.7772 72.248 39.0986 72.8202C39.2608 73.1062 39.3797 73.4214 39.4073 73.7494C39.4349 74.0775 39.3672 74.4183 39.1824 74.6907C39.0605 74.8709 38.8913 75.0166 38.7023 75.124C38.5132 75.2313 38.3046 75.302 38.0917 75.3462C37.6632 75.4351 37.2268 75.4212 36.7916 75.4319L36.7892 75.4343ZM29.9301 24.3182C29.7577 22.2429 29.7963 20.156 29.7213 18.0748C29.6468 16.0736 29.4626 14.0735 29.5298 12.0721C29.5984 10.0369 29.9395 7.975 30.8457 6.14603C31.7519 4.31706 33.2236 2.7698 35.0191 1.80202C36.7062 0.891553 38.6519 0.502462 40.5714 0.523349C43.1743 0.551734 45.7836 1.33795 47.891 2.86486C49.2125 3.82139 50.3239 5.05454 51.2006 6.43015C51.9485 7.60439 52.5296 8.88681 52.8943 10.2327C53.6422 12.9909 53.4647 15.8958 53.6104 18.7472C53.7483 21.4497 54.1808 24.1457 54.0335 26.8477C54.0013 27.4368 53.9381 28.035 53.6765 28.5615C53.4216 29.0743 52.9888 29.4867 52.4916 29.7711C51.9943 30.0555 51.4346 30.2172 50.8688 30.3045C49.7369 30.4791 48.5792 30.364 47.439 30.4697C45.7841 30.6232 44.2055 31.2369 42.5632 31.4911C40.6083 31.7937 38.6115 31.5794 36.6323 31.5002C35.8396 31.4686 35.0443 31.4587 34.2576 31.3599C33.4708 31.261 32.6857 31.0707 31.9857 30.6974C31.5572 30.4676 31.1574 30.1685 30.8355 29.8003C30.5137 29.4321 30.2678 28.9969 30.1454 28.5211C29.9615 27.8106 30.0584 27.0627 30.0611 26.3287C30.0638 25.6576 29.9856 24.989 29.9272 24.3203L29.9301 24.3182Z" fill="#020204"/>
<path d="M33.0448 23.5186C32.7647 23.8694 32.5821 24.2917 32.4717 24.7274C32.3614 25.1631 32.3212 25.6132 32.3038 26.062C32.2695 26.9599 32.3242 27.8749 32.0869 28.7415C31.8325 29.668 31.2632 30.4703 30.7057 31.2528C29.7403 32.6078 28.7642 33.9976 28.2884 35.5914C28 36.5568 27.9038 37.5792 28.0077 38.5812C26.9272 40.1681 25.9913 41.8536 25.2166 43.6102C24.0421 46.2726 23.2361 49.1071 22.9525 52.0026C22.6055 55.5486 23.0591 59.1959 24.4593 62.4722C25.4716 64.841 26.9813 67.0096 28.9276 68.6974C29.9171 69.5557 31.0163 70.288 32.1946 70.8657C36.2684 72.8679 41.3027 72.8714 45.3088 70.7371C47.4023 69.6215 49.1697 67.9902 50.8734 66.3396C51.8995 65.3455 52.9203 64.328 53.7031 63.1326C55.2099 60.8318 55.7347 58.035 56.0609 55.3041C56.6313 50.5287 56.6495 45.4845 54.556 41.1549C53.833 39.6614 52.8765 38.2927 51.7225 37.1004C51.4159 35.017 50.8104 32.9773 49.9305 31.064C49.2959 29.6835 48.5198 28.3695 47.9301 26.9695C47.6881 26.3946 47.4749 25.806 47.209 25.2431C46.9431 24.6802 46.6092 24.1385 46.1582 23.7074C45.6968 23.2655 45.1219 22.9528 44.5151 22.7525C43.9083 22.5522 43.2699 22.4614 42.6326 22.4292C41.3566 22.365 40.0779 22.5318 38.8016 22.4812C37.7854 22.441 36.7724 22.2627 35.7569 22.3227C35.2492 22.3527 34.742 22.4432 34.2707 22.6346C33.7994 22.8261 33.3651 23.1212 33.048 23.5183L33.0448 23.5186Z" fill="#FDFDFB"/>
<g filter="url(#filter0_f_9_50)">
<path d="M32.4192 28.2814C32.8753 29.6037 33.793 30.7322 34.8791 31.6137C35.2406 31.907 35.6241 32.1772 36.0482 32.3681C36.4724 32.559 36.9405 32.668 37.4038 32.6284C37.8577 32.5898 38.2893 32.4115 38.6865 32.1876C39.0836 31.9637 39.4513 31.693 39.8361 31.4493C40.4956 31.0316 41.2018 30.6942 41.8865 30.3193C42.7118 29.8675 43.5119 29.3552 44.2068 28.7233C44.525 28.4327 44.8217 28.1159 45.173 27.8664C45.5243 27.6168 45.945 27.4363 46.3748 27.4655C46.6972 27.4874 46.9996 27.6245 47.3153 27.6926C47.476 27.7266 47.6366 27.7434 47.7965 27.7188C47.9564 27.6942 48.1125 27.6267 48.2244 27.5099C48.3615 27.3672 48.4215 27.1618 48.4119 26.9636C48.4022 26.7655 48.3358 26.5746 48.2432 26.3994C48.0584 26.0492 47.7786 25.7474 47.654 25.3717C47.5432 25.0369 47.5657 24.6754 47.5753 24.3236C47.585 23.9717 47.5775 23.6032 47.4146 23.2907C47.2909 23.0524 47.0837 22.8636 46.8464 22.738C46.6091 22.6124 46.343 22.5506 46.0763 22.5227C45.542 22.4726 45.0067 22.5763 44.4711 22.6065C43.7599 22.6467 43.046 22.5578 42.335 22.6006C41.4487 22.6542 40.5792 22.9113 39.6909 22.9129C38.6771 22.9147 37.6643 22.583 36.6628 22.7415C36.233 22.8095 35.8233 22.9659 35.4106 23.1035C34.998 23.2412 34.5717 23.3625 34.1368 23.3563C33.643 23.3491 33.1647 23.1782 32.672 23.1429C32.4256 23.1252 32.1734 23.1429 31.942 23.2294C31.7107 23.3159 31.5015 23.4768 31.3882 23.6961C31.3232 23.822 31.291 23.9631 31.2849 24.1045C31.2787 24.2459 31.2983 24.3876 31.3325 24.5249C31.4008 24.7997 31.5264 25.0559 31.6271 25.3194C32.0001 26.2712 32.0802 27.3139 32.4136 28.2801L32.4192 28.2814Z" fill="black" fill-opacity="0.26"/>
</g>
<g opacity="0.3" filter="url(#filter1_f_9_50)">
<path d="M31.1477 24.5128C32.0336 25.0603 32.8286 25.7322 33.4962 26.4989C34.1156 27.2102 34.6423 28.0168 35.451 28.5436C36.0222 28.9156 36.7083 29.1253 37.4043 29.1889C38.2215 29.2636 39.0485 29.1428 39.8363 28.9294C40.5665 28.7316 41.2724 28.4534 41.9202 28.0859C43.1515 27.3863 44.1803 26.361 45.5353 25.9012C45.8317 25.8008 46.1405 25.729 46.4262 25.6052C46.7119 25.4814 46.9805 25.2959 47.1171 25.0335C47.251 24.7814 47.243 24.4903 47.2858 24.2133C47.3313 23.9173 47.4342 23.6307 47.4904 23.3362C47.5466 23.0417 47.5533 22.7265 47.4154 22.4556C47.3008 22.2312 47.0927 22.0541 46.8531 21.9413C46.6134 21.8286 46.3443 21.7776 46.0754 21.7652C45.5382 21.7406 45.0075 21.8676 44.4719 21.9127C43.7623 21.9724 43.0478 21.8881 42.3358 21.9078C41.45 21.9325 40.577 22.1175 39.6917 22.1557C38.6816 22.1996 37.6742 22.0526 36.6636 22.02C36.2266 22.0057 35.7866 22.0126 35.3557 22.0824C34.9248 22.1522 34.502 22.2852 34.1373 22.5082C33.7838 22.7245 33.4954 23.018 33.1714 23.2703C33.0094 23.3966 32.8372 23.5133 32.6481 23.6021C32.4591 23.6909 32.2518 23.7513 32.0403 23.7607C31.9313 23.7656 31.8212 23.757 31.7136 23.7723C31.6233 23.7863 31.5369 23.8166 31.4594 23.8615C31.3818 23.9064 31.3147 23.965 31.2619 24.0339C31.2091 24.1028 31.1717 24.1807 31.1517 24.263C31.1317 24.3453 31.1297 24.4304 31.1456 24.5135L31.1477 24.5128Z" fill="black"/>
</g>
<path d="M33.4539 12.4184C32.9773 12.4443 32.5207 12.6647 32.1718 12.9906C31.8229 13.3165 31.5773 13.7436 31.4257 14.1967C31.1231 15.1029 31.1914 16.0851 31.2597 17.0353C31.3221 17.8981 31.3856 18.7772 31.7088 19.5797C31.8703 19.9809 32.0971 20.3563 32.3997 20.668C32.7023 20.9797 33.0831 21.2148 33.5024 21.3198C33.8961 21.4184 34.3159 21.398 34.7029 21.2764C35.0898 21.1549 35.443 20.9337 35.7328 20.6503C36.1559 20.2366 36.4405 19.6954 36.6039 19.1267C36.7672 18.5579 36.8138 17.9613 36.8053 17.37C36.7946 16.6298 36.6982 15.8865 36.4663 15.1838C36.2344 14.4811 35.8648 13.8173 35.3488 13.2863C35.0989 13.0292 34.8138 12.8029 34.4919 12.6444C34.17 12.4859 33.8109 12.3967 33.4529 12.416L33.4539 12.4184Z" fill="url(#paint0_radial_9_50)"/>
<path d="M41.894 12.4184C41.1495 12.9272 40.5256 13.6435 40.2203 14.4937C39.8358 15.5654 39.9831 16.7645 40.3542 17.841C40.7345 18.9435 41.3702 19.994 42.3305 20.656C42.8106 20.9869 43.3663 21.2138 43.9452 21.2826C44.5242 21.3514 45.1262 21.2571 45.643 20.988C46.2731 20.6597 46.7538 20.0848 47.0521 19.4402C47.3504 18.7957 47.4778 18.0825 47.5175 17.3729C47.571 16.4691 47.48 15.5504 47.1827 14.6951C46.8601 13.7659 46.2723 12.9089 45.4494 12.3742C45.037 12.1069 44.5678 11.9232 44.081 11.856C43.5942 11.7888 43.0888 11.8391 42.6307 12.0172C42.3696 12.119 42.1254 12.2601 41.8943 12.4189L41.894 12.4184Z" fill="url(#paint1_radial_9_50)"/>
<g opacity="0.3" filter="url(#filter2_f_9_50)">
<path d="M33.2954 20.1284L31.9201 21.383C31.678 21.6267 31.4354 21.8875 31.3269 22.2131C31.2305 22.5024 31.2487 22.8165 31.2011 23.1183C31.185 23.2216 31.1609 23.3245 31.1604 23.4289C31.1595 23.4812 31.1665 23.5334 31.1812 23.5837C31.1965 23.6337 31.2214 23.6809 31.2576 23.7192C31.317 23.7826 31.4016 23.8172 31.4868 23.8343C31.5719 23.8515 31.6595 23.8536 31.746 23.863C32.1359 23.905 32.4953 24.0941 32.8182 24.3169L33.7688 25.0091C34.4999 25.4734 35.3737 25.6799 36.2394 25.7128C37.1052 25.7458 37.9688 25.6137 38.8182 25.4437C39.493 25.3087 40.1662 25.1491 40.8065 24.8964C41.7874 24.5097 42.6714 23.9144 43.516 23.2837C43.8997 22.9972 44.2781 22.7019 44.6227 22.3693C44.7397 22.2563 44.853 22.139 44.9783 22.0356C45.1036 21.9322 45.2429 21.8423 45.3977 21.7925C45.6333 21.7167 45.8893 21.7384 46.1336 21.7791C46.3175 21.8099 46.502 21.8514 46.6884 21.8433C46.7816 21.8396 46.875 21.8235 46.9615 21.7887C47.048 21.7539 47.1281 21.7003 47.1873 21.628C47.2645 21.5314 47.3063 21.4111 47.3056 21.2874C47.3062 21.1648 47.2682 21.0437 47.2066 20.938C47.082 20.7264 46.867 20.5837 46.6429 20.4841C46.336 20.3475 46.0039 20.2805 45.6772 20.2013C44.6744 19.9592 43.6997 19.6014 42.7755 19.1425C42.316 18.9143 41.8693 18.6615 41.4173 18.4194C40.9524 18.1704 40.4787 17.931 39.974 17.7781C38.8458 17.4361 37.6121 17.5483 36.4989 17.935C35.2617 18.3645 34.1432 19.1301 33.2946 20.1276L33.2954 20.1284Z" fill="black"/>
</g>
<path d="M35.6948 18.7113C36.1679 18.1792 36.4917 17.5304 36.9464 16.9822C37.174 16.7083 37.4359 16.4587 37.7449 16.2814C38.0539 16.1042 38.4122 16.0029 38.767 16.0335C39.1618 16.0677 39.5316 16.2643 39.8205 16.5356C40.1095 16.8068 40.324 17.1515 40.4953 17.5063C40.6592 17.8485 40.7894 18.2132 41.0255 18.5105C41.2773 18.8275 41.6307 19.0439 41.9494 19.2932C42.109 19.4177 42.2619 19.553 42.388 19.711C42.5142 19.869 42.613 20.0527 42.6531 20.2511C42.6926 20.4542 42.6755 20.6642 42.6036 20.8582C42.5334 21.051 42.4143 21.2256 42.2662 21.368C41.97 21.6532 41.5662 21.8072 41.1592 21.8648C40.3451 21.9799 39.5217 21.7373 38.6998 21.7603C37.8678 21.7831 37.0551 22.0774 36.2234 22.0468C35.8075 22.0316 35.3857 21.9301 35.044 21.6926C34.8717 21.5745 34.7261 21.4216 34.6166 21.2438C34.509 21.0657 34.4434 20.8608 34.4364 20.653C34.4297 20.4549 34.4761 20.2567 34.5553 20.0746C34.6346 19.8925 34.7463 19.726 34.8718 19.5722C35.1236 19.2648 35.4307 19.0083 35.6945 18.7116L35.6948 18.7113Z" fill="url(#paint2_radial_9_50)"/>
<g filter="url(#filter3_f_9_50)">
<path d="M44.9714 3.97975C44.2849 4.46417 44.5848 5.06892 44.8801 5.67613C45.1754 6.28335 44.2309 8.03342 44.2207 8.10871C44.2106 8.18399 46.0797 7.22164 46.5891 6.59622C47.1908 5.85787 48.711 7.59529 48.6286 7.33056C48.6292 6.85756 45.6583 3.49533 44.9717 3.97975H44.9714Z" fill="#7C7C7C"/>
</g>
<path d="M43.611 14.6664C43.3312 14.6865 43.0583 14.7821 42.8211 14.9342C42.5838 15.0863 42.3811 15.2863 42.222 15.518C41.9042 15.9807 41.7641 16.5481 41.7419 17.1086C41.725 17.5296 41.7713 17.9562 41.9111 18.3538C42.0509 18.7515 42.286 19.1197 42.6109 19.3883C42.9429 19.6633 43.3649 19.8285 43.7958 19.8489C44.2267 19.8692 44.6634 19.7452 45.0169 19.4989C45.2989 19.3026 45.5262 19.0324 45.6882 18.7295C45.8503 18.4267 45.948 18.0914 45.9922 17.7508C46.0709 17.1491 45.982 16.5208 45.7038 15.9815C45.4255 15.4422 44.954 14.9979 44.3844 14.7883C44.138 14.6972 43.8729 14.6501 43.611 14.6688V14.6664Z" fill="#020204"/>
<g filter="url(#filter4_f_9_50)">
<path d="M44.2789 16.5021C44.047 16.5937 43.6799 16.5361 43.5784 16.7637C43.5181 16.8987 43.6033 17.1207 43.7398 17.1761C44.0162 17.2886 44.4447 17.085 44.5566 16.8079C44.6048 16.6874 44.5317 16.4973 44.412 16.4464C44.3678 16.4276 44.3236 16.4839 44.2792 16.5015L44.2789 16.5021Z" fill="#141413"/>
</g>
<g filter="url(#filter5_f_9_50)">
<path d="M45.3417 17.1046C45.6523 16.794 45.1205 15.9692 44.7057 15.6318C44.4053 15.3873 43.5301 15.131 43.5676 15.3975C43.6051 15.6639 43.9961 16.0043 44.2625 16.2643C44.5871 16.5843 45.1944 17.2524 45.3417 17.1046Z" fill="url(#paint3_linear_9_50)"/>
</g>
<path d="M39.0822 15.1297C39.7229 14.5981 40.4619 14.1978 41.2572 13.9514C42.8869 13.448 44.7384 13.647 46.1785 14.5606C46.6758 14.8761 47.119 15.2681 47.5817 15.6329C48.0444 15.9976 48.535 16.3398 49.0909 16.5353C49.3909 16.6408 49.7117 16.7021 50.0282 16.6692C50.3142 16.6392 50.5905 16.5321 50.8273 16.3693C51.064 16.2064 51.2624 15.9895 51.411 15.7434C51.7088 15.2515 51.8047 14.6549 51.7533 14.0824C51.6507 12.9371 51.0045 11.9259 50.4631 10.9118C50.2936 10.5942 50.1321 10.271 49.9275 9.97455C49.3001 9.06516 48.3013 8.46532 47.2537 8.11398C46.2061 7.76265 45.0991 7.63572 44.0028 7.49754C43.5138 7.43595 43.0192 7.37168 42.5299 7.4306C41.9676 7.49835 41.4385 7.72516 40.8898 7.86575C40.6292 7.93269 40.3638 7.97956 40.1057 8.05427C39.8475 8.12898 39.5934 8.23368 39.3835 8.40132C39.0769 8.64661 38.8841 9.01454 38.8005 9.39828C38.717 9.78202 38.7362 10.1813 38.7973 10.569C38.9199 11.3445 39.2097 12.1018 39.1824 12.8864C39.1636 13.4252 38.9944 13.9544 39.015 14.4932C39.0212 14.6538 39.0437 14.8083 39.0819 14.9618" fill="url(#paint4_linear_9_50)"/>
<g filter="url(#filter6_f_9_50)">
<path d="M44.4797 10.2126C44.352 10.3733 44.2365 10.5479 44.145 10.7402C44.7196 10.8639 45.2697 11.1006 45.7597 11.4265C46.709 12.0569 47.4299 12.9786 47.9355 14.0039C48.0533 13.8732 48.1609 13.7329 48.2536 13.5771C47.7453 12.5091 47.01 11.5432 46.0278 10.8912C45.5559 10.5779 45.0303 10.3412 44.48 10.2137L44.4797 10.2126Z" fill="url(#paint5_linear_9_50)"/>
</g>
<g filter="url(#filter7_f_9_50)">
<path d="M33.3998 10.7361C33.335 10.7348 33.2721 10.7407 33.207 10.7436L33.0812 10.7511C33.4596 10.7854 33.8358 10.8872 34.1775 11.0403C34.6434 11.2492 35.0542 11.5473 35.416 11.8865C36.0865 12.5145 36.5849 13.2897 36.9223 14.1118C36.8399 13.4906 36.6532 12.8878 36.3701 12.3287C36.2378 12.176 36.1007 12.0261 35.9518 11.8868C35.5903 11.5478 35.179 11.25 34.7133 11.0406C34.3063 10.8577 33.8527 10.7439 33.3996 10.7359L33.3998 10.7361Z" fill="url(#paint6_linear_9_50)"/>
</g>
<path d="M32.3046 16.3682C32.205 16.9696 32.2012 17.6005 32.4079 18.1739C32.5418 18.5525 32.7695 18.8961 33.0431 19.1914C33.2225 19.3848 33.4255 19.5604 33.6633 19.6743C33.9011 19.7881 34.1764 19.8365 34.4319 19.7725C34.6675 19.7136 34.8742 19.561 35.0263 19.3717C35.1784 19.1823 35.2802 18.9558 35.3525 18.7236C35.5659 18.0381 35.5319 17.2878 35.3198 16.6017C35.1653 16.1017 34.9096 15.6195 34.5093 15.2823C34.3183 15.1216 34.0947 14.9958 33.8518 14.9377C33.609 14.8796 33.3457 14.8935 33.1186 14.9966C32.8664 15.1112 32.6709 15.3294 32.5429 15.575C32.4149 15.8206 32.3493 16.0945 32.304 16.3676L32.3046 16.3682Z" fill="#020204"/>
<g filter="url(#filter8_f_9_50)">
<path d="M33.576 15.933C33.6409 16.1028 33.8583 16.1644 33.9777 16.3012C34.0937 16.4343 34.2153 16.5717 34.279 16.7364C34.4008 17.0513 34.1585 17.5183 34.4129 17.7406C34.4927 17.8102 34.6525 17.8118 34.731 17.7406C35.0376 17.4615 34.9693 16.8987 34.8483 16.5021C34.7385 16.1422 34.4662 15.8015 34.1306 15.6304C33.9753 15.5514 33.7423 15.4858 33.6095 15.5983C33.5238 15.6706 33.5361 15.8286 33.576 15.933V15.933Z" fill="url(#paint7_linear_9_50)"/>
</g>
<path d="M31.1831 23.8447C31.1992 23.9237 31.2295 24.0001 31.2707 24.0697C31.3419 24.1888 31.4458 24.2855 31.558 24.3669C31.6703 24.4483 31.7918 24.5169 31.9094 24.5905C32.5344 24.9834 33.0435 25.5358 33.496 26.1188C34.1031 26.9012 34.64 27.7697 35.4508 28.3387C36.0234 28.7404 36.7084 28.9693 37.4041 29.0392C38.2208 29.1214 39.0483 28.9894 39.8361 28.7575C40.5661 28.5425 41.2722 28.2407 41.92 27.8417C43.1518 27.0823 44.1801 25.9691 45.5351 25.4699C45.8315 25.3609 46.1403 25.283 46.4257 25.1486C46.7112 25.0142 46.9801 24.8128 47.1166 24.5279C47.2505 24.2542 47.2425 23.9382 47.2853 23.6375C47.3309 23.3161 47.4337 23.005 47.4899 22.6852C47.5462 22.3655 47.5528 22.0233 47.4149 21.7292C47.3003 21.4856 47.0923 21.2933 46.8526 21.1709C46.6129 21.0485 46.3438 20.9931 46.0749 20.9797C45.5378 20.9529 45.007 21.0908 44.4714 21.1398C43.7618 21.2046 43.0474 21.1136 42.3353 21.1345C41.4495 21.1613 40.5765 21.3608 39.6912 21.4036C38.6811 21.4526 37.6735 21.2965 36.6631 21.2563C36.2255 21.2387 35.7848 21.2429 35.3531 21.3166C34.9214 21.3902 34.4975 21.5372 34.1374 21.786C33.7866 22.0286 33.5065 22.3591 33.184 22.6386C33.0228 22.7784 32.8493 22.9064 32.6576 22.9993C32.4658 23.0923 32.254 23.1504 32.0406 23.1458C31.9335 23.1431 31.8183 23.1252 31.7139 23.1584C31.6486 23.179 31.5907 23.2192 31.5414 23.2671C31.4922 23.3151 31.4517 23.3708 31.4134 23.4278C31.3244 23.56 31.2467 23.6996 31.1813 23.845L31.1831 23.8447Z" fill="url(#paint8_radial_9_50)"/>
<g filter="url(#filter9_f_9_50)">
<path d="M35.1477 24.9333C35.0476 25.3655 35.1111 25.8194 35.326 26.2074C35.541 26.5955 35.892 26.8902 36.3115 27.0346C36.8411 27.2113 37.438 27.1246 37.9329 26.8664C38.2194 26.7165 38.4819 26.506 38.6479 26.228C38.7319 26.0891 38.787 25.9346 38.8099 25.7739C38.8313 25.6132 38.8166 25.4472 38.7604 25.2959C38.6988 25.1298 38.589 24.9831 38.4535 24.8685C38.318 24.7539 38.1576 24.6709 37.9894 24.6152C37.6525 24.5038 37.2905 24.5016 36.9359 24.5188C36.3987 24.5446 35.8643 24.612 35.3375 24.7204" fill="#D9B30D"/>
</g>
<g filter="url(#filter10_f_9_50)">
<path d="M33.4095 21.6082L32.3657 22.2945C32.1897 22.4193 32.0085 22.5543 31.9158 22.7487C31.8499 22.8866 31.8349 23.0433 31.8355 23.1959C31.836 23.3485 31.8435 23.5023 31.8231 23.6511C31.8098 23.7545 31.7819 23.8563 31.7771 23.9604C31.7744 24.0127 31.7784 24.0649 31.7921 24.1158C31.8051 24.1665 31.8304 24.2133 31.8657 24.2521C31.9121 24.3011 31.975 24.3313 32.0398 24.3511C32.1046 24.371 32.171 24.3806 32.2369 24.3967C32.5515 24.4706 32.8252 24.6636 33.0654 24.8797L33.7724 25.5428C34.4517 26.0955 35.3523 26.3247 36.2253 26.3389C37.0982 26.3531 37.9669 26.1702 38.8214 25.9774L40.8097 25.43C41.8014 25.0645 42.7217 24.511 43.5192 23.8174C43.8807 23.5031 44.22 23.1576 44.6259 22.903C44.9848 22.6775 45.3873 22.5286 45.7523 22.313C45.7849 22.2937 45.8173 22.2739 45.8465 22.2496C45.8757 22.2252 45.9017 22.1965 45.9188 22.1625C45.9483 22.1036 45.9483 22.034 45.9295 21.9708C45.9108 21.9076 45.8744 21.8519 45.8331 21.801C45.7876 21.7448 45.7359 21.6934 45.6805 21.6462C45.2992 21.3195 44.7815 21.2012 44.281 21.1615C43.7806 21.1219 43.2742 21.15 42.7814 21.0673C42.3155 20.987 41.8728 20.8156 41.4232 20.6718C40.9516 20.5192 40.4692 20.402 39.9801 20.321C38.83 20.1335 37.6459 20.1694 36.5051 20.4067C35.4184 20.6329 34.3709 21.0413 33.4149 21.6063L33.4095 21.6082Z" fill="#604405"/>
</g>
<path d="M33.2954 20.3962C32.7786 20.7443 32.3137 21.1682 31.9201 21.6508C31.6951 21.9266 31.4905 22.2265 31.3773 22.5644C31.2881 22.8301 31.2578 23.1113 31.2016 23.3857C31.1802 23.4886 31.1561 23.5919 31.1561 23.6964C31.1563 23.7489 31.163 23.8016 31.1791 23.8517C31.1952 23.9018 31.2214 23.9486 31.2578 23.9864C31.3181 24.049 31.4024 24.0828 31.4876 24.1005C31.5727 24.1181 31.66 24.1205 31.7463 24.1305C32.1359 24.1746 32.4945 24.364 32.8174 24.5862L33.7691 25.2766C34.5012 25.7398 35.3745 25.9455 36.24 25.979C37.1054 26.0124 37.9691 25.881 38.8187 25.7112C39.4936 25.5765 40.1668 25.4166 40.807 25.1638C41.7877 24.7772 42.6719 24.1819 43.5165 23.5512C43.9002 23.2647 44.2786 22.9693 44.6232 22.6367C44.7403 22.5237 44.8535 22.4065 44.9789 22.3031C45.1042 22.1997 45.2434 22.1097 45.3982 22.0599C45.6339 21.9842 45.8899 22.0058 46.1341 22.0465C46.3181 22.0773 46.5026 22.1189 46.6889 22.1108C46.7821 22.1071 46.8756 22.091 46.9621 22.0562C47.0486 22.0214 47.1286 21.9678 47.1878 21.8955C47.2651 21.7989 47.3068 21.6786 47.3062 21.5549C47.3067 21.4323 47.2687 21.3112 47.2071 21.2054C47.0826 20.9939 46.8675 20.8512 46.6434 20.7515C46.3365 20.615 46.0045 20.548 45.6778 20.4688C44.6749 20.2267 43.7002 19.8689 42.7761 19.4099C42.3165 19.1818 41.8699 18.929 41.4179 18.6869C40.953 18.4379 40.4793 18.1985 39.9745 18.0456C38.8463 17.7036 37.6126 17.8158 36.4994 18.2025C35.2623 18.632 34.1437 19.3976 33.2951 20.3951L33.2954 20.3962Z" fill="url(#paint9_linear_9_50)"/>
<g filter="url(#filter11_f_9_50)">
<path d="M41.2219 20.6442C41.1613 20.5676 41.0746 20.5135 40.9808 20.4862C40.8871 20.4589 40.7867 20.4594 40.6906 20.4728C40.4978 20.5057 40.3253 20.6067 40.1641 20.7205C39.7062 21.0354 39.3018 21.4242 38.9492 21.8532C38.4819 22.4209 38.0963 23.0775 37.9669 23.8014C37.9455 23.9232 37.9308 24.0477 37.946 24.1709C37.9613 24.2941 38.0084 24.4159 38.096 24.5038C38.1726 24.5809 38.277 24.628 38.3847 24.6435C38.4923 24.6591 38.6032 24.6441 38.706 24.6093C38.9122 24.5396 39.0836 24.395 39.2453 24.2504C40.1387 23.4511 40.9466 22.4916 41.2698 21.3369C41.3019 21.221 41.3298 21.1024 41.3287 20.9821C41.3276 20.8619 41.2966 20.7384 41.2221 20.6442H41.2219Z" fill="#F6DA4A"/>
</g>
<g opacity="0.8" filter="url(#filter12_f_9_50)">
<path d="M39.0823 18.9893C39.1439 19.188 39.4647 19.1553 39.65 19.2504C39.8125 19.3339 39.9429 19.5173 40.1258 19.5227C40.2999 19.5281 40.5714 19.4625 40.5945 19.2897C40.6245 19.0613 40.2908 18.9162 40.0763 18.8324C39.8005 18.7247 39.4462 18.6701 39.1872 18.8141C39.1278 18.8471 39.063 18.9245 39.0833 18.9895L39.0823 18.9893Z" fill="url(#paint10_radial_9_50)"/>
</g>
<g opacity="0.8" filter="url(#filter13_f_9_50)">
<path d="M36.0234 18.8741C35.7856 18.7965 35.3922 19.2161 35.5205 19.4311C35.5558 19.49 35.6637 19.565 35.7363 19.5248C35.8461 19.4646 35.9355 19.249 36.0542 19.1647C36.1334 19.1084 36.1157 18.9044 36.0231 18.8744L36.0234 18.8741Z" fill="url(#paint11_radial_9_50)"/>
</g>
<g filter="url(#filter14_f_9_50)">
<path d="M46.5091 22.9558C46.9317 22.9558 47.3218 22.5321 47.3804 22.0094C47.4389 21.4867 47.1439 21.063 46.7213 21.063C46.2987 21.063 45.9086 21.4867 45.85 22.0094C45.7914 22.5321 46.0865 22.9558 46.5091 22.9558Z" fill="url(#paint12_linear_9_50)"/>
</g>
<path d="M32.4257 14.337C33.1447 13.9086 34.0203 13.8095 34.8537 13.8882C35.687 13.9669 36.4938 14.2117 37.3012 14.4318C37.8936 14.593 38.4934 14.7425 39.0485 15.0043C39.6036 15.2662 40.1197 15.6513 40.4255 16.1834L40.5701 16.441C40.622 16.5246 40.6833 16.6044 40.7618 16.6633C40.8403 16.7222 40.9377 16.7608 41.036 16.7554C41.0853 16.7527 41.134 16.7393 41.1763 16.7142C41.2186 16.689 41.2548 16.6526 41.2776 16.6092C41.3038 16.5591 41.3118 16.501 41.3089 16.4442C41.3045 16.3877 41.294 16.3319 41.2776 16.2777C41.0754 15.5405 40.5987 14.9152 40.2359 14.2425L39.6205 13.0118C38.8659 11.63 37.6271 10.5439 36.2196 9.83931C34.8122 9.13477 33.24 8.79602 31.6681 8.7039C29.8472 8.59732 28.0209 8.8137 26.224 9.12968C25.4448 9.26679 24.6548 9.42826 23.965 9.81575C23.6204 10.0094 23.3044 10.2595 23.0577 10.5682C22.8111 10.877 22.6357 11.2471 22.5789 11.6386C22.5243 12.0161 22.5816 12.4044 22.7128 12.7622C22.844 13.1199 23.0497 13.4472 23.2904 13.7428C23.7716 14.3341 24.3884 14.7963 24.9566 15.304C25.5248 15.8117 26.0545 16.373 26.6873 16.7937C27.0049 17.0039 27.3495 17.178 27.7164 17.2803C28.0833 17.3825 28.4742 17.4115 28.8475 17.3349C29.2345 17.2556 29.5928 17.0658 29.9063 16.8256C30.2199 16.5854 30.4917 16.2953 30.7493 15.996C31.2648 15.3972 31.7463 14.7411 32.4249 14.3368L32.4257 14.337Z" fill="url(#paint13_radial_9_50)"/>
<path d="M57.7876 40.0238C59.417 41.3346 60.4509 43.3138 60.7707 45.3803C61.0203 46.9923 60.858 48.6459 60.4949 50.2358C60.1317 51.8256 59.5705 53.3624 59.0135 54.8952C58.7912 55.5066 58.5684 56.1235 58.48 56.7678C58.3917 57.4121 58.4479 58.0944 58.7585 58.6659C59.1147 59.3209 59.7796 59.7719 60.4943 59.9842C61.1999 60.1939 61.9618 60.1893 62.6762 60.0115C63.3907 59.8337 64.0572 59.4859 64.6386 59.0341C66.1157 57.8872 67.0069 56.1019 67.3518 54.2643C67.6967 52.4268 67.5381 50.5287 67.2179 48.6864C66.7806 46.1745 66.0444 43.7189 65.1077 41.3469C64.4187 39.6023 63.6124 37.8871 62.4861 36.3875C61.3836 34.9201 59.9938 33.6848 58.9139 32.2007C58.1633 31.1697 57.5621 30.0183 56.6629 29.1142C56.213 28.6622 55.6881 28.2755 55.0936 28.0444C54.4992 27.8133 53.8316 27.7456 53.2178 27.9186C52.4091 28.1462 51.745 28.7835 51.3961 29.5472C51.0471 30.3109 50.9829 31.1869 51.1197 32.0162C51.2964 33.086 51.7854 34.0789 52.3371 35.0127C52.9602 36.067 53.6819 37.0819 54.6229 37.8657C55.6048 38.6838 56.7925 39.2234 57.7881 40.024L57.7876 40.0238Z" fill="#020204"/>
<g filter="url(#filter15_f_9_50)">
<path d="M53.9523 37.498L54.3613 37.8663C55.361 38.6843 55.8934 39.6028 56.907 40.404C58.566 41.7149 60.2494 43.9774 60.5749 46.0436C60.829 47.6557 60.4931 48.5313 60.0828 50.4321C59.6725 52.3328 58.5098 55.024 57.8817 56.8568C57.6309 57.5878 58.3888 57.286 58.2895 58.0564C58.2397 58.4348 58.2365 58.8178 58.28 59.1969L58.2991 58.9768C58.4198 57.9263 58.7415 56.9162 59.0924 55.9254C59.7669 54.0182 60.5411 52.1496 61.0749 50.1927C61.6087 48.2357 61.5493 46.8282 61.2712 45.1465C60.9209 43.0321 59.6908 41.0797 57.9487 39.7908C56.7165 38.8795 55.2642 38.2952 53.9531 37.498H53.9523Z" fill="#838384"/>
</g>
<g opacity="0.25" filter="url(#filter16_f_9_50)">
<path d="M28.5493 36.3131C28.8213 36.7212 28.3802 38.1281 34.7203 37.2276C34.7203 37.2276 33.6069 37.3499 32.5093 37.6035C30.803 38.1747 29.3162 38.8131 28.1694 39.6588C27.0332 40.4948 26.2014 41.586 25.1588 42.5233C25.1588 42.5233 26.8471 39.4384 27.2678 38.51C27.6885 37.5816 27.1973 37.6263 27.5305 36.2568C27.8637 34.8874 28.6782 33.5771 28.6782 33.5771C28.6782 33.5771 28.013 35.5078 28.5493 36.3128V36.3131Z" fill="url(#paint14_radial_9_50)"/>
</g>
<g opacity="0.42" filter="url(#filter17_f_9_50)">
<path d="M48.9367 35.9449C47.6446 36.8446 46.8876 36.7383 45.3197 36.9143C43.7519 37.0902 39.5093 37.0267 39.5093 37.0267C39.5093 37.0267 40.1236 37.0152 41.4851 37.2688C42.8465 37.5224 45.6231 37.7648 47.1867 38.36C48.7503 38.9553 49.3204 39.1251 50.2708 39.7257C51.6231 40.5811 52.6161 41.9208 53.9092 42.858C53.9092 42.858 53.9719 41.6144 53.4497 40.6858C52.9275 39.7571 51.5216 38.2931 51.1114 36.9261C50.7011 35.559 50.5024 32.8739 50.5024 32.8739C50.5024 32.8739 50.2293 35.0443 48.937 35.9444L48.9367 35.9449Z" fill="url(#paint15_radial_9_50)"/>
</g>
<g opacity="0.2" filter="url(#filter18_f_9_50)">
<path d="M36.7846 34.0227L36.598 35.186C36.5605 35.3761 36.519 35.5662 36.448 35.7465C36.3771 35.9267 36.2756 36.0978 36.132 36.2274C36.0062 36.3409 35.8525 36.4191 35.6982 36.4898C35.0962 36.7657 34.4519 36.9485 33.7948 37.0308L34.5807 37.1025C34.7454 37.1205 34.9107 37.1406 35.0713 37.1818C35.232 37.223 35.3887 37.2889 35.5223 37.384C35.669 37.4911 35.7842 37.6378 35.8704 37.798C36.0418 38.1172 36.0991 38.4843 36.131 38.8423C36.1711 39.3037 36.1743 39.7689 36.1398 40.2305C36.1709 39.9215 36.2357 39.6157 36.3326 39.3206C36.5075 38.7888 36.7889 38.2902 37.1681 37.8783C37.3186 37.7149 37.4841 37.565 37.6662 37.437C38.2305 37.0434 38.9217 36.8752 39.6039 36.9654C38.912 36.9936 38.2317 36.7824 37.6774 36.3675C37.3984 36.1572 37.1552 35.8954 36.9865 35.5895C36.7245 35.1103 36.6527 34.5499 36.7854 34.0201L36.7846 34.0227Z" fill="url(#paint16_radial_9_50)"/>
</g>
<g opacity="0.1" filter="url(#filter19_f_9_50)">
<path d="M35.1324 43.1381C34.803 44.3919 34.5768 45.6706 34.456 46.9613C34.2854 48.7854 34.3264 50.6224 34.2284 52.4522C34.148 54.0048 33.9633 55.5735 34.2326 57.1047C34.3612 57.835 34.5923 58.5467 34.9168 59.2135C34.9684 58.959 35.0061 58.7019 35.0298 58.4434C35.1442 57.2019 34.935 55.9565 34.8643 54.7118C34.7406 52.5301 35.0427 50.3469 35.1656 48.1677C35.26 46.4922 35.2488 44.8124 35.1321 43.1384L35.1324 43.1381Z" fill="black"/>
</g>
<g filter="url(#filter20_f_9_50)">
<path d="M50.1787 24.3348C49.5997 24.8623 50.4502 25.6544 50.8535 26.5852C51.1042 27.1637 51.798 27.9791 52.4688 27.8487C52.9736 27.7504 53.2866 27.0239 53.2389 26.5124C53.1468 25.5243 52.3132 25.2932 51.708 24.9539C51.2287 24.685 50.5852 23.9647 50.179 24.3353L50.1787 24.3348Z" fill="#838384"/>
</g>
<g opacity="0.2" filter="url(#filter21_f_9_50)">
<path d="M68.7544 67.5205C68.627 67.939 68.4371 68.337 68.1907 68.7017C67.6462 69.5083 66.8559 70.1156 66.0659 70.6753C64.7185 71.6302 63.3152 72.5064 62.0613 73.5941C61.221 74.3212 60.4554 75.1366 59.7451 75.9948C59.138 76.7285 58.5671 77.4998 57.8752 78.1524C57.1768 78.8111 56.3546 79.3432 55.4686 79.6332C54.3912 79.9859 53.2527 79.9687 52.215 79.7028C51.4876 79.5164 50.7784 79.1922 50.328 78.6057C49.8757 78.0171 49.7291 77.2261 49.6769 76.4495C49.5842 75.0758 49.7484 73.6726 49.8977 72.2788C50.022 71.1203 50.1364 69.9611 50.1837 68.805C50.2661 66.7024 50.1295 64.618 49.8449 62.5729C49.7973 62.2301 49.7453 61.8852 49.7742 61.5323C49.8031 61.1793 49.9213 60.8125 50.1691 60.5401C50.3979 60.2884 50.7171 60.1395 51.0353 60.0662C51.3534 59.9928 51.676 59.9858 51.9958 59.9805C52.7493 59.9604 53.5071 59.9162 54.2493 59.9821C54.7176 60.0238 55.1768 60.1093 55.6443 60.1543C56.4247 60.2292 57.2337 60.1899 58.0166 59.9604C58.8591 59.7135 59.6626 59.2502 60.5189 59.123C60.8701 59.0708 61.2229 59.0767 61.5639 59.1246C61.9123 59.1734 62.259 59.2698 62.5269 59.4824C62.7303 59.6441 62.8794 59.8661 62.996 60.1028C63.1692 60.4555 63.2765 60.8446 63.337 61.2436C63.3911 61.5971 63.4101 61.9613 63.5014 62.3032C63.6513 62.8656 63.9909 63.3438 64.3998 63.7332C64.8087 64.1226 65.2866 64.43 65.7637 64.7331C66.2394 65.0349 66.7173 65.3348 67.2252 65.5836C67.4636 65.7003 67.7087 65.8059 67.9363 65.9406C68.164 66.0753 68.3763 66.2405 68.5276 66.4587C68.7327 66.7546 68.8152 67.1424 68.7536 67.5232" fill="url(#paint17_linear_9_50)"/>
</g>
<path d="M74.0967 68.5231C73.9173 68.9837 73.661 69.414 73.3426 69.7918C72.64 70.626 71.6642 71.1763 70.6926 71.6717C69.0351 72.5163 67.318 73.2575 65.76 74.2738C64.7162 74.9545 63.7527 75.7538 62.8519 76.6147C62.0815 77.3511 61.3507 78.1376 60.4868 78.7618C59.6149 79.3911 58.607 79.8474 57.5439 80.007C56.2505 80.2012 54.9142 79.95 53.7145 79.4275C52.8742 79.0615 52.066 78.5377 51.5822 77.7592C51.0964 76.9778 50.9855 76.0219 50.9842 75.1017C50.9821 73.4744 51.2836 71.8615 51.5674 70.2621C51.8031 68.9306 52.028 67.5963 52.1726 66.252C52.4359 63.8071 52.434 61.3373 52.2583 58.8844C52.2315 58.4736 52.1946 58.0588 52.2562 57.6515C52.3178 57.2442 52.4851 56.8383 52.7971 56.5697C53.0855 56.3214 53.4719 56.2119 53.8522 56.191C54.2324 56.1702 54.6111 56.2304 54.9876 56.2853C55.8748 56.4149 56.7689 56.5169 57.636 56.7451C58.1831 56.8889 58.716 57.0825 59.262 57.2298C60.1732 57.4761 61.1274 57.594 62.0649 57.4847C63.0744 57.3669 64.0545 56.9874 65.0705 57.0121C65.4874 57.0222 65.9006 57.101 66.2986 57.2263C66.7043 57.3543 67.1046 57.5375 67.4026 57.8409C67.6292 58.0712 67.7872 58.3617 67.9061 58.663C68.0828 59.1112 68.1779 59.5887 68.2186 60.0688C68.2547 60.4941 68.2488 60.9241 68.3294 61.3435C68.462 62.033 68.824 62.6618 69.2742 63.2006C69.7243 63.7394 70.265 64.1967 70.7995 64.6488C71.3351 65.0986 71.8733 65.5472 72.4509 65.9416C72.7219 66.1269 73.0015 66.3005 73.2588 66.504C73.5162 66.7075 73.7529 66.945 73.9136 67.231C74.1318 67.6193 74.1985 68.0901 74.0965 68.5233L74.0967 68.5231Z" fill="url(#paint18_linear_9_50)"/>
<g filter="url(#filter22_f_9_50)">
<path d="M73.2623 67.679C73.0966 68.0943 72.864 68.4796 72.5738 68.8198C71.9306 69.5733 71.0394 70.066 70.1536 70.5095C68.6398 71.2673 67.0733 71.9336 65.6494 72.8486C64.6977 73.4602 63.8178 74.1784 62.9935 74.9534C62.2893 75.6156 61.6211 76.3234 60.8336 76.8836C60.0356 77.4513 59.115 77.8602 58.1458 78.0029C56.9649 78.177 55.7465 77.9512 54.6491 77.4818C53.884 77.1546 53.1449 76.6865 52.7018 75.9822C52.261 75.2814 52.1582 74.421 52.1555 73.593C52.152 72.1296 52.4281 70.6822 52.6884 69.2421C52.9045 68.0451 53.1101 66.8459 53.2411 65.6369C53.4794 63.4389 53.4682 61.219 53.3193 59.0132C53.2944 58.6437 53.2657 58.2704 53.3225 57.9046C53.3793 57.5388 53.5308 57.1743 53.8115 56.9325C54.0747 56.7057 54.4282 56.6064 54.7755 56.5882C55.1228 56.57 55.4683 56.6262 55.8118 56.6765C56.6213 56.7957 57.4378 56.8854 58.2299 57.0897C58.7293 57.2188 59.2164 57.3929 59.7148 57.5257C60.5476 57.7479 61.4184 57.8537 62.2748 57.7549C63.196 57.6486 64.0923 57.3077 65.0196 57.3299C65.3999 57.3393 65.7774 57.4103 66.1416 57.5227C66.5117 57.6368 66.878 57.7996 67.1498 58.0752C67.355 58.2827 67.4966 58.5449 67.6094 58.8143C67.777 59.2151 67.886 59.6436 67.8948 60.0782C67.9042 60.5318 67.8048 60.9873 67.8664 61.4367C67.9162 61.8017 68.0708 62.1458 68.2681 62.4569C68.4655 62.7681 68.7057 63.0487 68.9437 63.3299C69.4035 63.8735 69.8649 64.427 70.4415 64.8442C71.0981 65.3193 71.8773 65.5967 72.5556 66.0404C72.7578 66.1727 72.9535 66.3221 73.096 66.5171C73.2149 66.6832 73.2922 66.8755 73.3213 67.0777C73.3504 67.2799 73.3304 67.4861 73.2631 67.679H73.2623Z" fill="#CD8907"/>
</g>
<g filter="url(#filter23_f_9_50)">
<path d="M73.1681 67.2113C72.9838 67.6287 72.7451 68.0178 72.4611 68.363C71.8021 69.1642 70.9123 69.716 69.9748 70.0697C68.4316 70.6528 66.747 70.731 65.2323 71.395C64.3092 71.7995 63.4785 72.409 62.6368 72.9855C61.9567 73.4508 61.2619 73.8996 60.5151 74.225C59.6719 74.5929 58.7748 74.7992 57.8749 74.9444C57.3026 75.0368 56.7232 75.1041 56.145 75.0721C55.5669 75.0401 54.9869 74.9048 54.4769 74.6101C54.0901 74.3863 53.7424 74.0646 53.5355 73.6472C53.3059 73.1832 53.2661 72.6387 53.2716 72.1127C53.2857 70.7115 53.5857 69.3256 53.5765 67.9244C53.5685 66.7048 53.327 65.5006 53.2576 64.2833C53.1238 61.942 53.6264 59.5601 53.1841 57.2633C53.1137 56.8957 53.0182 56.5284 53.0228 56.1529C53.0253 55.9648 53.0534 55.7767 53.1192 55.6028C53.185 55.4289 53.2915 55.2712 53.4329 55.1613C53.5523 55.0689 53.6931 55.0128 53.8379 54.9874C53.9826 54.962 54.1308 54.9669 54.2762 54.9897C54.5663 55.0349 54.843 55.1488 55.1255 55.2329C55.9341 55.4738 56.7884 55.4685 57.6099 55.6503C58.1256 55.7645 58.6251 55.9506 59.1353 56.0906C59.9923 56.3215 60.8861 56.4248 61.7651 56.3215C62.7109 56.211 63.6343 55.8678 64.5849 55.8926C64.9746 55.9025 65.3614 55.975 65.7373 56.0872C66.1131 56.1994 66.4887 56.3578 66.773 56.6449C66.9781 56.8522 67.125 57.1168 67.245 57.3907C67.4195 57.7907 67.541 58.2256 67.5382 58.6671C67.5367 58.8971 67.5015 59.1252 67.481 59.3535C67.4605 59.5819 67.454 59.8168 67.5085 60.0389C67.563 60.261 67.6781 60.4636 67.8094 60.6461C67.9407 60.8286 68.0894 60.9959 68.225 61.1747C68.6052 61.6753 68.877 62.2588 69.1729 62.8214C69.4689 63.3841 69.801 63.9411 70.2687 64.346C70.9053 64.8977 71.7311 65.1182 72.4405 65.5538C72.6487 65.6815 72.8498 65.8309 72.9958 66.0355C73.1129 66.2002 73.1899 66.3938 73.2199 66.5987C73.2499 66.8037 73.2319 67.0135 73.1675 67.209L73.1681 67.2113Z" fill="#F5C021"/>
</g>
<g filter="url(#filter24_f_9_50)">
<path d="M53.0231 57.4834C53.9004 57.2458 54.6475 57.911 55.2837 58.4131C55.6948 58.7639 56.2887 58.6755 56.7933 58.6921C57.6287 58.6619 58.4602 58.8322 59.2962 58.7286C60.9418 58.5893 62.5546 58.185 64.208 58.1127C64.9979 58.0628 65.8843 58.0171 66.5666 58.4782C66.8432 58.6699 67.2487 59.4797 67.5215 59.1758C67.4091 58.3247 66.7779 57.5005 65.9309 57.274C65.2681 57.1695 64.592 57.3516 63.9252 57.2927C61.9374 57.2453 59.9638 56.8763 57.9712 56.9821C56.5852 56.9941 55.2005 56.9299 53.8166 56.8758C53.273 56.7646 53.081 57.248 52.7856 57.4327" fill="url(#paint19_linear_9_50)"/>
</g>
<g opacity="0.75" filter="url(#filter25_f_9_50)">
<path d="M56.9561 41.3019C57.2741 41.2527 59.2368 42.9214 58.9685 43.544C58.7002 44.1666 58.1961 43.7902 57.8355 43.7944C57.4748 43.7986 56.4884 44.2464 56.3231 43.9638C56.1578 43.6813 56.7594 43.0212 57.0743 42.4698C57.3278 42.0256 56.638 41.3542 56.9562 41.305L56.9561 41.3019Z" fill="#7C7C7C"/>
</g>
<g opacity="0.25" filter="url(#filter26_f_9_50)">
<path d="M29.2609 30.7995C29.2291 30.415 28.6802 30.3575 28.4353 30.5491C28.2286 30.7113 28.0347 31.2644 28.213 31.4808C28.503 31.8316 29.3042 31.3269 29.2609 30.8L29.2609 30.7995Z" fill="#7C7C7C"/>
</g>
<g opacity="0.35" filter="url(#filter27_f_9_50)">
<path d="M64.8522 58.8196C64.7015 58.5245 64.4273 58.3039 64.1212 58.1761C63.8151 58.0484 63.4793 58.0074 63.148 58.0101C62.4853 58.0154 61.8265 58.1879 61.1664 58.1306C60.6086 58.0824 60.0792 57.8727 59.5329 57.7404C58.9714 57.6065 58.3756 57.553 57.8178 57.7021C57.2217 57.8644 56.6958 58.2629 56.3664 58.7853C56.0761 59.2459 55.9379 59.7903 55.8951 60.3331C55.8522 60.8759 55.8986 61.4219 55.9535 61.9639C55.9931 62.356 56.0376 62.7485 56.1323 63.1315C56.2271 63.5144 56.3744 63.8874 56.6053 64.2066C56.9373 64.6662 57.4308 64.9939 57.9629 65.1907C58.8419 65.512 59.8089 65.4951 60.6761 65.1434C62.1918 64.4854 63.4745 63.3053 64.2564 61.8496C64.5362 61.3285 64.7537 60.7731 64.8943 60.1987C64.95 59.9703 64.9939 59.7376 64.996 59.5025C64.9982 59.2673 64.9567 59.0285 64.8498 58.8196H64.8522Z" fill="url(#paint20_radial_9_50)"/>
</g>
<g opacity="0.35" filter="url(#filter28_f_9_50)">
<path d="M64.8522 58.5101C64.7015 58.2967 64.4273 58.1372 64.1212 58.0449C63.8151 57.9525 63.4793 57.9229 63.148 57.9248C62.4853 57.9287 61.8265 58.0534 61.1664 58.012C60.6086 57.9771 60.0792 57.8255 59.5329 57.7299C58.9714 57.6331 58.3756 57.5944 57.8178 57.7022C57.2217 57.8195 56.6958 58.1076 56.3664 58.4853C56.0761 58.8182 55.9379 59.2118 55.8951 59.6042C55.8522 59.9966 55.8986 60.3913 55.9535 60.7832C55.9931 61.0666 56.0376 61.3504 56.1323 61.6272C56.2271 61.904 56.3744 62.1737 56.6053 62.4045C56.9373 62.7367 57.4308 62.9736 57.9629 63.1159C58.8419 63.3481 59.8089 63.3359 60.6761 63.0816C62.1918 62.606 63.4745 61.7529 64.2564 60.7005C64.5362 60.3238 64.7537 59.9223 64.8943 59.507C64.95 59.3419 64.9939 59.1737 64.996 59.0037C64.9982 58.8337 64.9567 58.6611 64.8498 58.5101H64.8522Z" fill="url(#paint21_radial_9_50)"/>
</g>
<path d="M66.1119 56.0582C66.0034 55.7626 65.8125 55.5007 65.579 55.2897C65.3455 55.0786 65.0702 54.9169 64.7802 54.7937C64.2004 54.5474 63.5698 54.4563 62.9507 54.3396L61.2026 53.9976C60.5947 53.8942 59.966 53.8284 59.3643 53.9641C58.8378 54.0828 58.351 54.3551 57.9525 54.7193C57.554 55.0835 57.2429 55.5376 57.0193 56.0314C56.6251 56.8964 56.5011 57.8698 56.5763 58.8172C56.6326 59.5223 56.8107 60.2488 57.2753 60.7827C57.6502 61.2139 58.1822 61.483 58.7304 61.645C59.6743 61.9243 60.7032 61.9096 61.6385 61.6035C63.1941 61.0777 64.5394 60.0658 65.4759 58.717C65.7812 58.2752 66.0415 57.7937 66.1596 57.2702C66.2495 56.8685 66.2528 56.4454 66.1119 56.0611V56.0582Z" fill="#020204"/>
<g filter="url(#filter29_f_9_50)">
<path d="M59.6936 53.6824C59.5477 53.6904 59.4024 53.7072 59.2585 53.7328C58.3292 53.898 57.4785 54.4852 56.9992 55.2977C56.6609 55.8769 56.5063 56.5451 56.5557 57.214C56.5753 56.7475 56.6976 56.2909 56.9239 55.8831C57.3079 55.1917 58.0036 54.67 58.7818 54.5275C59.2638 54.4397 59.7544 54.4927 60.238 54.5527C60.7021 54.6106 61.1699 54.6713 61.6273 54.7704C62.3342 54.9236 63.0342 55.1587 63.6276 55.5738C63.7658 55.6702 63.8954 55.78 64.0041 55.9085C64.1129 56.0371 64.1975 56.1865 64.2302 56.352C64.2778 56.594 64.2087 56.8482 64.0882 57.0632C63.9677 57.2782 63.803 57.4668 63.6276 57.6405C63.4857 57.7814 63.3344 57.9174 63.1842 58.0503C63.8697 57.9174 64.5638 57.7294 65.1337 57.3307C65.3747 57.162 65.5929 56.9598 65.7362 56.703C65.8794 56.4462 65.9402 56.1353 65.8701 55.8496C65.8227 55.6568 65.7174 55.4795 65.5857 55.3309C65.4539 55.1823 65.2965 55.0599 65.1339 54.9461C64.4163 54.4435 63.5768 54.1213 62.7073 54.0169C62.1503 53.9143 61.5879 53.8278 61.0256 53.7571C60.5856 53.702 60.1365 53.6572 59.6947 53.6821L59.6936 53.6824Z" fill="url(#paint22_radial_9_50)"/>
</g>
<g filter="url(#filter30_f_9_50)">
<path d="M59.6936 53.6824C59.5477 53.6904 59.4024 53.7072 59.2585 53.7328C58.3292 53.898 57.4785 54.4852 56.9992 55.2977C56.6609 55.8769 56.5063 56.5451 56.5557 57.214C56.5753 56.7475 56.6976 56.2909 56.9239 55.8831C57.3079 55.1917 58.0036 54.67 58.7818 54.5275C59.2638 54.4397 59.7544 54.4927 60.238 54.5527C60.7021 54.6106 61.1699 54.6713 61.6273 54.7704C62.3342 54.9236 63.0342 55.1587 63.6276 55.5738C63.7658 55.6702 63.8954 55.78 64.0041 55.9085C64.1129 56.0371 64.1975 56.1865 64.2302 56.352C64.2778 56.594 64.2087 56.8482 64.0882 57.0632C63.9677 57.2782 63.803 57.4668 63.6276 57.6405C63.4857 57.7814 63.3344 57.9174 63.1842 58.0503C63.8697 57.9174 64.5638 57.7294 65.1337 57.3307C65.3747 57.162 65.5929 56.9598 65.7362 56.703C65.8794 56.4462 65.9402 56.1353 65.8701 55.8496C65.8227 55.6568 65.7174 55.4795 65.5857 55.3309C65.4539 55.1823 65.2965 55.0599 65.1339 54.9461C64.4163 54.4435 63.5768 54.1213 62.7073 54.0169C62.1503 53.9143 61.5879 53.8278 61.0256 53.7571C60.5856 53.702 60.1365 53.6572 59.6947 53.6821L59.6936 53.6824Z" fill="url(#paint23_linear_9_50)"/>
</g>
<path d="M29.2406 29.0379L24.7092 34.7112C23.7631 35.8841 22.7945 37.0661 22.1786 38.4414C21.6494 39.6232 21.3993 40.9069 21.0365 42.1503C20.6246 43.562 20.0655 44.9272 19.4378 46.257C18.8581 47.4848 18.2194 48.6839 17.5794 49.8817C17.114 50.7531 16.6408 51.6438 16.4793 52.6185C16.3519 53.3887 16.4258 54.1834 16.6223 54.9391C16.8189 55.6948 17.1311 56.4146 17.4894 57.1098C19.0069 60.0755 21.2839 62.6321 23.981 64.5877C25.2048 65.4751 26.5162 66.2426 27.8912 66.8708C28.6362 67.2109 29.4214 67.5146 30.2403 67.5288C30.65 67.5357 31.0634 67.4685 31.4383 67.3038C31.8132 67.1392 32.148 66.8743 32.371 66.5307C32.645 66.1082 32.7379 65.5833 32.683 65.0828C32.6281 64.5823 32.4326 64.1046 32.1707 63.6743C31.528 62.6238 30.5198 61.8641 29.5475 61.1108C27.4481 59.4843 25.4169 57.7688 23.4736 55.9586C22.9246 55.4471 22.3762 54.9201 21.9927 54.2758C21.6195 53.6481 21.4175 52.9332 21.281 52.2158C20.9061 50.2475 21.0025 48.1768 21.6719 46.2889C21.9338 45.5503 22.2798 44.845 22.614 44.1359C23.1924 42.9068 23.7406 41.6546 24.5019 40.5296C25.4493 39.1291 26.7157 37.9428 27.4877 36.4384C28.1395 35.1691 28.4035 33.7413 28.6558 32.3365L29.2406 29.0379V29.0379Z" fill="#020204"/>
<g opacity="0.95" filter="url(#filter31_f_9_50)">
<path d="M24.9111 39.7078C24.2886 40.2813 23.7517 40.9413 23.3169 41.6674C22.6025 42.8618 22.1815 44.2028 21.6626 45.4941C21.2759 46.4554 20.8257 47.4203 20.7716 48.4547C20.7441 48.986 20.8225 49.5168 20.8405 50.0486C20.8584 50.5804 20.8089 51.1331 20.5459 51.5975C20.3282 51.9857 19.9659 52.291 19.5463 52.4394C20.1165 52.6314 20.6148 52.9924 20.9749 53.4743C21.2735 53.876 21.4644 54.3457 21.7236 54.7731C21.9344 55.1207 22.193 55.4426 22.5117 55.6956C22.8304 55.9487 23.2106 56.1294 23.6142 56.1811C23.8918 56.2148 24.1735 56.1882 24.4399 56.103C24.7063 56.0179 24.9513 55.8763 25.158 55.6879C24.6425 50.8581 25.1146 45.9252 26.5371 41.281C26.6268 40.9878 26.721 40.6924 26.7433 40.3866C26.7655 40.0808 26.7084 39.7579 26.5226 39.5142C26.4235 39.3843 26.2902 39.2812 26.1397 39.2175C25.9892 39.1537 25.8221 39.1304 25.6603 39.15C25.4986 39.1695 25.3417 39.2319 25.2105 39.3294C25.0792 39.4269 24.9743 39.5589 24.9087 39.7083L24.9111 39.7078Z" fill="#7C7C7C"/>
</g>
<path d="M18.2826 54.9046C18.711 54.727 19.1925 54.6946 19.6483 54.7787C20.104 54.8628 20.5346 55.0599 20.9184 55.3202C21.6853 55.8413 22.2541 56.5997 22.799 57.35C24.0501 59.0729 25.2546 60.8317 26.3458 62.6602C27.2311 64.1432 28.0447 65.6746 29.0676 67.066C29.7355 67.9744 30.4887 68.8174 31.1598 69.723C31.8309 70.6287 32.4259 71.6125 32.7237 72.7C33.1104 74.1131 32.9607 75.6705 32.288 76.9719C31.8148 77.8878 31.0894 78.6729 30.2068 79.2053C29.3242 79.7376 28.2868 80.0124 27.2569 79.9738C25.6196 79.9122 24.1238 79.0941 22.6017 78.4876C19.5007 77.2526 16.132 76.8648 12.9354 75.9029C11.9527 75.6073 10.987 75.2576 9.99784 74.9855C9.55867 74.865 9.11147 74.7584 8.69641 74.5705C8.28134 74.3825 7.89305 74.1018 7.66222 73.709C7.48388 73.4053 7.40836 73.0476 7.41318 72.6951C7.418 72.3427 7.50048 71.9949 7.62045 71.6636C7.86038 71.0011 8.24787 70.4013 8.50949 69.7471C8.93661 68.6786 9.01346 67.5009 8.95589 66.3516C8.89832 65.2023 8.71221 64.0634 8.63321 62.9159C8.5984 62.4034 8.58501 61.8841 8.68275 61.3799C8.78049 60.8757 8.99767 60.3824 9.36774 60.0262C9.7089 59.6977 10.1617 59.5027 10.6253 59.4058C11.0888 59.3088 11.5665 59.3048 12.0402 59.3153C12.5139 59.3257 12.9882 59.3512 13.4606 59.3126C13.9329 59.274 14.4067 59.168 14.8182 58.9329C15.2092 58.7095 15.5289 58.3772 15.794 58.0133C16.0592 57.6494 16.2734 57.2512 16.493 56.8581C16.7125 56.465 16.9396 56.0729 17.2272 55.7264C17.5148 55.3799 17.8672 55.0776 18.2831 54.9051L18.2826 54.9046Z" fill="url(#paint24_linear_9_50)"/>
<g filter="url(#filter32_f_9_50)">
<path d="M18.9582 55.6437C19.3478 55.4867 19.7867 55.4696 20.1962 55.5623C20.6056 55.6549 20.9861 55.8568 21.3176 56.1104C21.9812 56.623 22.4423 57.346 22.8853 58.0572C23.9484 59.7799 24.9874 61.5207 25.9691 63.297C26.7127 64.634 27.4218 65.9997 28.3355 67.228C28.9418 68.0426 29.6334 68.7892 30.2523 69.5945C30.8711 70.3997 31.4225 71.2767 31.6965 72.2544C32.0489 73.5146 31.9061 74.9054 31.2961 76.0657C30.8544 76.9024 30.188 77.5992 29.3718 78.0776C28.5536 78.5531 27.6162 78.7844 26.6707 78.7439C25.1716 78.6748 23.8027 77.926 22.3915 77.4183C19.686 76.4366 16.7538 76.3049 13.9787 75.5385C12.9839 75.2686 12.014 74.9084 11.0144 74.6564C10.572 74.5447 10.1218 74.4537 9.70167 74.2761C9.28152 74.0986 8.88573 73.8236 8.65785 73.4286C8.48834 73.1348 8.42059 72.7891 8.43103 72.4501C8.44148 72.1111 8.52743 71.7806 8.64526 71.4609C8.8868 70.8271 9.26652 70.2559 9.51021 69.6199C9.87975 68.6628 9.92527 67.6104 9.85672 66.587C9.78817 65.5635 9.61036 64.5491 9.54796 63.5251C9.52011 63.0672 9.51583 62.6039 9.60848 62.1551C9.70114 61.7063 9.89662 61.2714 10.223 60.9469C10.5765 60.5961 11.0639 60.4049 11.5558 60.3299C12.0477 60.2549 12.5482 60.2876 13.0434 60.3318C13.5385 60.376 14.0355 60.4317 14.5322 60.4019C15.029 60.3722 15.5327 60.2512 15.9435 59.9716C16.3176 59.7185 16.5985 59.3493 16.8122 58.9546C17.0259 58.5598 17.1785 58.1365 17.3413 57.7182C17.5041 57.2999 17.6806 56.8822 17.9363 56.5132C18.1921 56.1442 18.5351 55.8156 18.9555 55.6469" fill="#D99A03"/>
</g>
<g filter="url(#filter33_f_9_50)">
<path d="M18.5975 54.6703C18.9751 54.4831 19.4196 54.4447 19.8336 54.5291C20.2476 54.6135 20.631 54.8158 20.9572 55.0803C21.6093 55.6063 22.023 56.3623 22.4086 57.1013C23.2936 58.7988 24.1179 60.5332 25.177 62.1315C25.9455 63.2886 26.8319 64.3713 27.609 65.5253C28.663 67.09 29.5199 68.8114 29.8734 70.6552C30.1112 71.8954 30.1037 73.2324 29.506 74.3521C29.1123 75.0874 28.475 75.6933 27.7217 76.068C26.9685 76.4428 26.1035 76.5985 25.2608 76.5241C23.9342 76.407 22.7291 75.7548 21.4805 75.2999C19.2645 74.4925 16.8697 74.2998 14.5893 73.6905C13.6274 73.4335 12.688 73.1027 11.7106 72.9015C11.2805 72.8116 10.8419 72.7464 10.4314 72.5912C10.0209 72.4361 9.63178 72.1794 9.42184 71.7997C9.27456 71.5325 9.22448 71.2198 9.24671 70.9168C9.26893 70.6139 9.35918 70.3186 9.47834 70.038C9.71613 69.4768 10.0675 68.9624 10.2549 68.3823C10.5262 67.5297 10.4148 66.6053 10.211 65.7346C10.0072 64.8639 9.71372 64.0095 9.62348 63.1206C9.58331 62.7248 9.58412 62.3211 9.67436 61.9333C9.7646 61.5454 9.94937 61.1727 10.2394 60.8945C10.6124 60.5363 11.1349 60.358 11.6541 60.3081C12.1733 60.2581 12.6963 60.3265 13.2126 60.4001C13.7289 60.4737 14.2484 60.5579 14.7698 60.5316C15.2911 60.5053 15.8216 60.3712 16.23 60.0519C16.6338 59.7363 16.8877 59.2664 17.0334 58.7802C17.179 58.2939 17.2262 57.7856 17.2859 57.2822C17.3456 56.7789 17.4198 56.2708 17.6153 55.8017C17.8107 55.3325 18.1401 54.9002 18.6007 54.6717L18.5975 54.6703Z" fill="#F5BD0C"/>
</g>
<g filter="url(#filter34_f_9_50)">
<path d="M23.325 58.908C24.0228 60.17 24.4486 61.6185 25.1405 62.8913C25.7773 64.062 26.502 65.2676 27.1489 66.3473C27.4368 66.828 28.1084 67.5671 28.7878 68.7137C29.4031 69.7527 30.0244 71.2033 30.3722 71.6904C30.1725 71.12 29.7617 69.5891 29.2717 68.4976C28.8164 67.4774 28.2808 66.8957 27.9523 66.3473C27.3053 65.2676 26.6088 64.2971 25.9439 63.2678C25.0267 61.848 24.3275 60.2592 23.325 58.9082V58.908Z" fill="url(#paint25_linear_9_50)"/>
</g>
</g>
<defs>
<filter id="filter0_f_9_50" x="30.4114" y="21.6369" width="18.8738" height="11.8719" filterUnits="userSpaceOnUse" color-interpolation-filters="sRGB">
<feFlood flood-opacity="0" result="BackgroundImageFix"/>
<feBlend mode="normal" in="SourceGraphic" in2="BackgroundImageFix" result="shape"/>
<feGaussianBlur stdDeviation="0.436168" result="effect1_foregroundBlur_9_50"/>
</filter>
<filter id="filter1_f_9_50" x="30.7518" y="21.3788" width="17.1595" height="8.21553" filterUnits="userSpaceOnUse" color-interpolation-filters="sRGB">
<feFlood flood-opacity="0" result="BackgroundImageFix"/>
<feBlend mode="normal" in="SourceGraphic" in2="BackgroundImageFix" result="shape"/>
<feGaussianBlur stdDeviation="0.191623" result="effect1_foregroundBlur_9_50"/>
</filter>
<filter id="filter2_f_9_50" x="30.5771" y="16.991" width="17.3116" height="9.31003" filterUnits="userSpaceOnUse" color-interpolation-filters="sRGB">
<feFlood flood-opacity="0" result="BackgroundImageFix"/>
<feBlend mode="normal" in="SourceGraphic" in2="BackgroundImageFix" result="shape"/>
<feGaussianBlur stdDeviation="0.291564" result="effect1_foregroundBlur_9_50"/>
</filter>
<filter id="filter3_f_9_50" x="43.3617" y="3.07317" width="6.12911" height="5.89871" filterUnits="userSpaceOnUse" color-interpolation-filters="sRGB">
<feFlood flood-opacity="0" result="BackgroundImageFix"/>
<feBlend mode="normal" in="SourceGraphic" in2="BackgroundImageFix" result="shape"/>
<feGaussianBlur stdDeviation="0.429496" result="effect1_foregroundBlur_9_50"/>
</filter>
<filter id="filter4_f_9_50" x="43.452" y="16.3359" width="1.22625" height="0.978416" filterUnits="userSpaceOnUse" color-interpolation-filters="sRGB">
<feFlood flood-opacity="0" result="BackgroundImageFix"/>
<feBlend mode="normal" in="SourceGraphic" in2="BackgroundImageFix" result="shape"/>
<feGaussianBlur stdDeviation="0.0533428" result="effect1_foregroundBlur_9_50"/>
</filter>
<filter id="filter5_f_9_50" x="43.3441" y="15.062" width="2.31308" height="2.28602" filterUnits="userSpaceOnUse" color-interpolation-filters="sRGB">
<feFlood flood-opacity="0" result="BackgroundImageFix"/>
<feBlend mode="normal" in="SourceGraphic" in2="BackgroundImageFix" result="shape"/>
<feGaussianBlur stdDeviation="0.111184" result="effect1_foregroundBlur_9_50"/>
</filter>
<filter id="filter6_f_9_50" x="44.0815" y="10.1492" width="4.23547" height="3.91811" filterUnits="userSpaceOnUse" color-interpolation-filters="sRGB">
<feFlood flood-opacity="0" result="BackgroundImageFix"/>
<feBlend mode="normal" in="SourceGraphic" in2="BackgroundImageFix" result="shape"/>
<feGaussianBlur stdDeviation="0.0317057" result="effect1_foregroundBlur_9_50"/>
</filter>
<filter id="filter7_f_9_50" x="33.0233" y="10.678" width="3.95681" height="3.49166" filterUnits="userSpaceOnUse" color-interpolation-filters="sRGB">
<feFlood flood-opacity="0" result="BackgroundImageFix"/>
<feBlend mode="normal" in="SourceGraphic" in2="BackgroundImageFix" result="shape"/>
<feGaussianBlur stdDeviation="0.0289208" result="effect1_foregroundBlur_9_50"/>
</filter>
<filter id="filter8_f_9_50" x="33.3256" y="15.3184" width="1.84481" height="2.69481" filterUnits="userSpaceOnUse" color-interpolation-filters="sRGB">
<feFlood flood-opacity="0" result="BackgroundImageFix"/>
<feBlend mode="normal" in="SourceGraphic" in2="BackgroundImageFix" result="shape"/>
<feGaussianBlur stdDeviation="0.109899" result="effect1_foregroundBlur_9_50"/>
</filter>
<filter id="filter9_f_9_50" x="34.7162" y="24.1257" width="4.48826" height="3.38682" filterUnits="userSpaceOnUse" color-interpolation-filters="sRGB">
<feFlood flood-opacity="0" result="BackgroundImageFix"/>
<feBlend mode="normal" in="SourceGraphic" in2="BackgroundImageFix" result="shape"/>
<feGaussianBlur stdDeviation="0.192591" result="effect1_foregroundBlur_9_50"/>
</filter>
<filter id="filter10_f_9_50" x="31.4515" y="19.8765" width="14.8157" height="6.78791" filterUnits="userSpaceOnUse" color-interpolation-filters="sRGB">
<feFlood flood-opacity="0" result="BackgroundImageFix"/>
<feBlend mode="normal" in="SourceGraphic" in2="BackgroundImageFix" result="shape"/>
<feGaussianBlur stdDeviation="0.162385" result="effect1_foregroundBlur_9_50"/>
</filter>
<filter id="filter11_f_9_50" x="37.576" y="20.1001" width="4.1165" height="4.91334" filterUnits="userSpaceOnUse" color-interpolation-filters="sRGB">
<feFlood flood-opacity="0" result="BackgroundImageFix"/>
<feBlend mode="normal" in="SourceGraphic" in2="BackgroundImageFix" result="shape"/>
<feGaussianBlur stdDeviation="0.18188" result="effect1_foregroundBlur_9_50"/>
</filter>
<filter id="filter12_f_9_50" x="39.0324" y="18.6798" width="1.61111" height="0.890342" filterUnits="userSpaceOnUse" color-interpolation-filters="sRGB">
<feFlood flood-opacity="0" result="BackgroundImageFix"/>
<feBlend mode="normal" in="SourceGraphic" in2="BackgroundImageFix" result="shape"/>
<feGaussianBlur stdDeviation="0.0235651" result="effect1_foregroundBlur_9_50"/>
</filter>
<filter id="filter13_f_9_50" x="35.4482" y="18.8175" width="0.703269" height="0.765769" filterUnits="userSpaceOnUse" color-interpolation-filters="sRGB">
<feFlood flood-opacity="0" result="BackgroundImageFix"/>
<feBlend mode="normal" in="SourceGraphic" in2="BackgroundImageFix" result="shape"/>
<feGaussianBlur stdDeviation="0.0235651" result="effect1_foregroundBlur_9_50"/>
</filter>
<filter id="filter14_f_9_50" x="45.6963" y="20.9167" width="1.83784" height="2.18549" filterUnits="userSpaceOnUse" color-interpolation-filters="sRGB">
<feFlood flood-opacity="0" result="BackgroundImageFix"/>
<feBlend mode="normal" in="SourceGraphic" in2="BackgroundImageFix" result="shape"/>
<feGaussianBlur stdDeviation="0.073168" result="effect1_foregroundBlur_9_50"/>
</filter>
<filter id="filter15_f_9_50" x="53.3678" y="36.9136" width="8.69637" height="22.8679" filterUnits="userSpaceOnUse" color-interpolation-filters="sRGB">
<feFlood flood-opacity="0" result="BackgroundImageFix"/>
<feBlend mode="normal" in="SourceGraphic" in2="BackgroundImageFix" result="shape"/>
<feGaussianBlur stdDeviation="0.292242" result="effect1_foregroundBlur_9_50"/>
</filter>
<filter id="filter16_f_9_50" x="24.8628" y="33.2811" width="10.1536" height="9.53815" filterUnits="userSpaceOnUse" color-interpolation-filters="sRGB">
<feFlood flood-opacity="0" result="BackgroundImageFix"/>
<feBlend mode="normal" in="SourceGraphic" in2="BackgroundImageFix" result="shape"/>
<feGaussianBlur stdDeviation="0.147995" result="effect1_foregroundBlur_9_50"/>
</filter>
<filter id="filter17_f_9_50" x="39.0218" y="32.3863" width="15.3774" height="10.9593" filterUnits="userSpaceOnUse" color-interpolation-filters="sRGB">
<feFlood flood-opacity="0" result="BackgroundImageFix"/>
<feBlend mode="normal" in="SourceGraphic" in2="BackgroundImageFix" result="shape"/>
<feGaussianBlur stdDeviation="0.243791" result="effect1_foregroundBlur_9_50"/>
</filter>
<filter id="filter18_f_9_50" x="33.4585" y="33.6837" width="6.48176" height="6.88316" filterUnits="userSpaceOnUse" color-interpolation-filters="sRGB">
<feFlood flood-opacity="0" result="BackgroundImageFix"/>
<feBlend mode="normal" in="SourceGraphic" in2="BackgroundImageFix" result="shape"/>
<feGaussianBlur stdDeviation="0.168169" result="effect1_foregroundBlur_9_50"/>
</filter>
<filter id="filter19_f_9_50" x="33.472" y="42.5186" width="2.37648" height="17.3145" filterUnits="userSpaceOnUse" color-interpolation-filters="sRGB">
<feFlood flood-opacity="0" result="BackgroundImageFix"/>
<feBlend mode="normal" in="SourceGraphic" in2="BackgroundImageFix" result="shape"/>
<feGaussianBlur stdDeviation="0.309774" result="effect1_foregroundBlur_9_50"/>
</filter>
<filter id="filter20_f_9_50" x="49.5969" y="23.8455" width="4.03288" height="4.40312" filterUnits="userSpaceOnUse" color-interpolation-filters="sRGB">
<feFlood flood-opacity="0" result="BackgroundImageFix"/>
<feBlend mode="normal" in="SourceGraphic" in2="BackgroundImageFix" result="shape"/>
<feGaussianBlur stdDeviation="0.193019" result="effect1_foregroundBlur_9_50"/>
</filter>
<filter id="filter21_f_9_50" x="48.6908" y="58.1271" width="21.0419" height="22.7324" filterUnits="userSpaceOnUse" color-interpolation-filters="sRGB">
<feFlood flood-opacity="0" result="BackgroundImageFix"/>
<feBlend mode="normal" in="SourceGraphic" in2="BackgroundImageFix" result="shape"/>
<feGaussianBlur stdDeviation="0.479548" result="effect1_foregroundBlur_9_50"/>
</filter>
<filter id="filter22_f_9_50" x="50.1079" y="54.5371" width="25.274" height="25.572" filterUnits="userSpaceOnUse" color-interpolation-filters="sRGB">
<feFlood flood-opacity="0" result="BackgroundImageFix"/>
<feBlend mode="normal" in="SourceGraphic" in2="BackgroundImageFix" result="shape"/>
<feGaussianBlur stdDeviation="1.0238" result="effect1_foregroundBlur_9_50"/>
</filter>
<filter id="filter23_f_9_50" x="51.4092" y="53.3569" width="23.4382" height="23.3367" filterUnits="userSpaceOnUse" color-interpolation-filters="sRGB">
<feFlood flood-opacity="0" result="BackgroundImageFix"/>
<feBlend mode="normal" in="SourceGraphic" in2="BackgroundImageFix" result="shape"/>
<feGaussianBlur stdDeviation="0.806721" result="effect1_foregroundBlur_9_50"/>
</filter>
<filter id="filter24_f_9_50" x="52.5804" y="56.6541" width="15.1464" height="2.79437" filterUnits="userSpaceOnUse" color-interpolation-filters="sRGB">
<feFlood flood-opacity="0" result="BackgroundImageFix"/>
<feBlend mode="normal" in="SourceGraphic" in2="BackgroundImageFix" result="shape"/>
<feGaussianBlur stdDeviation="0.102615" result="effect1_foregroundBlur_9_50"/>
</filter>
<filter id="filter25_f_9_50" x="55.3128" y="40.3187" width="4.66291" height="4.72065" filterUnits="userSpaceOnUse" color-interpolation-filters="sRGB">
<feFlood flood-opacity="0" result="BackgroundImageFix"/>
<feBlend mode="normal" in="SourceGraphic" in2="BackgroundImageFix" result="shape"/>
<feGaussianBlur stdDeviation="0.491044" result="effect1_foregroundBlur_9_50"/>
</filter>
<filter id="filter26_f_9_50" x="27.8688" y="30.1685" width="1.66795" height="1.70284" filterUnits="userSpaceOnUse" color-interpolation-filters="sRGB">
<feFlood flood-opacity="0" result="BackgroundImageFix"/>
<feBlend mode="normal" in="SourceGraphic" in2="BackgroundImageFix" result="shape"/>
<feGaussianBlur stdDeviation="0.137066" result="effect1_foregroundBlur_9_50"/>
</filter>
<filter id="filter27_f_9_50" x="54.6598" y="56.3939" width="11.5549" height="10.2446" filterUnits="userSpaceOnUse" color-interpolation-filters="sRGB">
<feFlood flood-opacity="0" result="BackgroundImageFix"/>
<feBlend mode="normal" in="SourceGraphic" in2="BackgroundImageFix" result="shape"/>
<feGaussianBlur stdDeviation="0.609264" result="effect1_foregroundBlur_9_50"/>
</filter>
<filter id="filter28_f_9_50" x="55.4058" y="57.1649" width="10.0628" height="6.58927" filterUnits="userSpaceOnUse" color-interpolation-filters="sRGB">
<feFlood flood-opacity="0" result="BackgroundImageFix"/>
<feBlend mode="normal" in="SourceGraphic" in2="BackgroundImageFix" result="shape"/>
<feGaussianBlur stdDeviation="0.236245" result="effect1_foregroundBlur_9_50"/>
</filter>
<filter id="filter29_f_9_50" x="56.1075" y="53.2359" width="10.2309" height="5.25352" filterUnits="userSpaceOnUse" color-interpolation-filters="sRGB">
<feFlood flood-opacity="0" result="BackgroundImageFix"/>
<feBlend mode="normal" in="SourceGraphic" in2="BackgroundImageFix" result="shape"/>
<feGaussianBlur stdDeviation="0.219584" result="effect1_foregroundBlur_9_50"/>
</filter>
<filter id="filter30_f_9_50" x="56.1075" y="53.2359" width="10.2309" height="5.25352" filterUnits="userSpaceOnUse" color-interpolation-filters="sRGB">
<feFlood flood-opacity="0" result="BackgroundImageFix"/>
<feBlend mode="normal" in="SourceGraphic" in2="BackgroundImageFix" result="shape"/>
<feGaussianBlur stdDeviation="0.219584" result="effect1_foregroundBlur_9_50"/>
</filter>
<filter id="filter31_f_9_50" x="19.0613" y="38.6583" width="8.17156" height="18.022" filterUnits="userSpaceOnUse" color-interpolation-filters="sRGB">
<feFlood flood-opacity="0" result="BackgroundImageFix"/>
<feBlend mode="normal" in="SourceGraphic" in2="BackgroundImageFix" result="shape"/>
<feGaussianBlur stdDeviation="0.242506" result="effect1_foregroundBlur_9_50"/>
</filter>
<filter id="filter32_f_9_50" x="6.74873" y="53.8244" width="26.8184" height="26.6052" filterUnits="userSpaceOnUse" color-interpolation-filters="sRGB">
<feFlood flood-opacity="0" result="BackgroundImageFix"/>
<feBlend mode="normal" in="SourceGraphic" in2="BackgroundImageFix" result="shape"/>
<feGaussianBlur stdDeviation="0.840631" result="effect1_foregroundBlur_9_50"/>
</filter>
<filter id="filter33_f_9_50" x="8.20694" y="53.4519" width="22.8471" height="24.125" filterUnits="userSpaceOnUse" color-interpolation-filters="sRGB">
<feFlood flood-opacity="0" result="BackgroundImageFix"/>
<feBlend mode="normal" in="SourceGraphic" in2="BackgroundImageFix" result="shape"/>
<feGaussianBlur stdDeviation="0.517366" result="effect1_foregroundBlur_9_50"/>
</filter>
<filter id="filter34_f_9_50" x="23.1664" y="58.7494" width="7.36436" height="13.0995" filterUnits="userSpaceOnUse" color-interpolation-filters="sRGB">
<feFlood flood-opacity="0" result="BackgroundImageFix"/>
<feBlend mode="normal" in="SourceGraphic" in2="BackgroundImageFix" result="shape"/>
<feGaussianBlur stdDeviation="0.0792644" result="effect1_foregroundBlur_9_50"/>
</filter>
<radialGradient id="paint0_radial_9_50" cx="0" cy="0" r="1" gradientUnits="userSpaceOnUse" gradientTransform="translate(1034.39 1508.67) rotate(-2.41004) scale(66.6463 163.126)">
<stop stop-color="#FEFEFC"/>
<stop offset="0.757" stop-color="#FEFEFC"/>
<stop offset="1" stop-color="#D4D4D4"/>
</radialGradient>
<radialGradient id="paint1_radial_9_50" cx="0" cy="0" r="1" gradientUnits="userSpaceOnUse" gradientTransform="translate(1856.76 1580.08) rotate(-1.81001) scale(119.32 172.429)">
<stop stop-color="#FEFEFC"/>
<stop offset="0.757" stop-color="#FEFEFC"/>
<stop offset="1" stop-color="#D4D4D4"/>
</radialGradient>
<radialGradient id="paint2_radial_9_50" cx="0" cy="0" r="1" gradientUnits="userSpaceOnUse" gradientTransform="translate(1980.79 -521.239) rotate(-36.0085) scale(109.317 72.5192)">
<stop stop-color="#020204"/>
<stop offset="0.734" stop-color="#020204"/>
<stop offset="1" stop-color="#5C5C5C"/>
</radialGradient>
<linearGradient id="paint3_linear_9_50" x1="609.713" y1="259.751" x2="622.049" y2="274.576" gradientUnits="userSpaceOnUse">
<stop stop-color="#949494" stop-opacity="0.392"/>
<stop offset="0.5" stop-color="#949494"/>
<stop offset="1" stop-color="#949494" stop-opacity="0.392"/>
</linearGradient>
<linearGradient id="paint4_linear_9_50" x1="1174.91" y1="1119.78" x2="1397.95" y2="1302.99" gradientUnits="userSpaceOnUse">
<stop stop-color="#747474"/>
<stop offset="0.125" stop-color="#8C8C8C"/>
<stop offset="0.25" stop-color="#A4A4A4"/>
<stop offset="0.5" stop-color="#D4D4D4"/>
<stop offset="0.619" stop-color="#D4D4D4"/>
<stop offset="1" stop-color="#7C7C7C"/>
</linearGradient>
<linearGradient id="paint5_linear_9_50" x1="107.87" y1="410.43" x2="161.899" y2="465.706" gradientUnits="userSpaceOnUse">
<stop stop-color="#646464" stop-opacity="0"/>
<stop offset="0.306" stop-color="#646464" stop-opacity="0.583"/>
<stop offset="0.47" stop-color="#646464"/>
<stop offset="0.728" stop-color="#646464" stop-opacity="0.257"/>
<stop offset="1" stop-color="#646464" stop-opacity="0"/>
</linearGradient>
<linearGradient id="paint6_linear_9_50" x1="-65.9157" y1="370.836" x2="-20.8343" y2="420.234" gradientUnits="userSpaceOnUse">
<stop stop-color="#646464" stop-opacity="0"/>
<stop offset="0.306" stop-color="#646464" stop-opacity="0.583"/>
<stop offset="0.47" stop-color="#646464"/>
<stop offset="0.728" stop-color="#646464" stop-opacity="0.257"/>
<stop offset="1" stop-color="#646464" stop-opacity="0"/>
</linearGradient>
<linearGradient id="paint7_linear_9_50" x1="264.068" y1="313.369" x2="279.417" y2="330.471" gradientUnits="userSpaceOnUse">
<stop stop-color="#757574" stop-opacity="0"/>
<stop offset="0.263" stop-color="#757574"/>
<stop offset="0.5" stop-color="#757574"/>
<stop offset="1" stop-color="#757574" stop-opacity="0"/>
</linearGradient>
<radialGradient id="paint8_radial_9_50" cx="0" cy="0" r="1" gradientUnits="userSpaceOnUse" gradientTransform="translate(4906.43 -792.041) rotate(-22.428) scale(515.056 178.94)">
<stop stop-color="#D2940A"/>
<stop offset="0.751" stop-color="#D89C08"/>
<stop offset="0.866" stop-color="#B67E07"/>
<stop offset="1" stop-color="#946106"/>
</radialGradient>
<linearGradient id="paint9_linear_9_50" x1="787.902" y1="1306.93" x2="1699.9" y2="1292.77" gradientUnits="userSpaceOnUse">
<stop stop-color="#AD780A"/>
<stop offset="0.12" stop-color="#D89E08"/>
<stop offset="0.255" stop-color="#EDB80B"/>
<stop offset="0.392" stop-color="#EBC80D"/>
<stop offset="0.527" stop-color="#F5D838"/>
<stop offset="0.769" stop-color="#F6D811"/>
<stop offset="1" stop-color="#F5CD31"/>
</linearGradient>
<radialGradient id="paint10_radial_9_50" cx="0" cy="0" r="1" gradientUnits="userSpaceOnUse" gradientTransform="translate(156.894 87.1973) scale(4.89934 1.49992)">
<stop stop-color="#3A2903"/>
<stop offset="0.555" stop-color="#735208"/>
<stop offset="1" stop-color="#AC8C04"/>
</radialGradient>
<radialGradient id="paint11_radial_9_50" cx="0" cy="0" r="1" gradientUnits="userSpaceOnUse" gradientTransform="translate(73.9394 125.285) scale(0.934838 1.1082)">
<stop stop-color="#3A2903"/>
<stop offset="0.555" stop-color="#735208"/>
<stop offset="1" stop-color="#AC8C04"/>
</radialGradient>
<linearGradient id="paint12_linear_9_50" x1="384.557" y1="318.27" x2="385.528" y2="323.305" gradientUnits="userSpaceOnUse">
<stop stop-color="#F5CE2D"/>
<stop offset="1" stop-color="#D79B08"/>
</linearGradient>
<radialGradient id="paint13_radial_9_50" cx="0" cy="0" r="1" gradientUnits="userSpaceOnUse" gradientTransform="translate(1065.88 53.7657) rotate(-9.34942) scale(135.92 58.3005)">
<stop stop-color="#C8C8C8"/>
<stop offset="1" stop-color="#797978"/>
</radialGradient>
<radialGradient id="paint14_radial_9_50" cx="0" cy="0" r="1" gradientUnits="userSpaceOnUse" gradientTransform="translate(-2131.02 1540.35) rotate(180) scale(182.922 187.057)">
<stop/>
<stop offset="1" stop-opacity="0.25"/>
</radialGradient>
<radialGradient id="paint15_radial_9_50" cx="0" cy="0" r="1" gradientUnits="userSpaceOnUse" gradientTransform="translate(4457.7 1833.34) scale(394.491 208.759)">
<stop/>
<stop offset="1" stop-opacity="0.25"/>
</radialGradient>
<radialGradient id="paint16_radial_9_50" cx="0" cy="0" r="1" gradientUnits="userSpaceOnUse" gradientTransform="translate(1557.11 1526.23) scale(62.9993 72.0157)">
<stop/>
<stop offset="1" stop-opacity="0.25"/>
</radialGradient>
<linearGradient id="paint17_linear_9_50" x1="590.582" y1="6800.82" x2="674.04" y2="7373.14" gradientUnits="userSpaceOnUse">
<stop/>
<stop offset="1" stop-opacity="0"/>
</linearGradient>
<linearGradient id="paint18_linear_9_50" x1="10288.2" y1="8930.75" x2="11452.3" y2="7100.79" gradientUnits="userSpaceOnUse">
<stop stop-color="#3E2A06"/>
<stop offset="1" stop-color="#AD780A"/>
</linearGradient>
<linearGradient id="paint19_linear_9_50" x1="718.32" y1="747.214" x2="717.768" y2="777.921" gradientUnits="userSpaceOnUse">
<stop stop-color="#F3CD0C"/>
<stop offset="1" stop-color="#F3CD0C" stop-opacity="0"/>
</linearGradient>
<radialGradient id="paint20_radial_9_50" cx="0" cy="0" r="1" gradientUnits="userSpaceOnUse" gradientTransform="translate(3409.43 4440.26) rotate(15) scale(208.027 186.987)">
<stop stop-color="#110800"/>
<stop offset="0.591" stop-color="#A65A00" stop-opacity="0.8"/>
<stop offset="1" stop-color="#FF921E" stop-opacity="0"/>
</radialGradient>
<radialGradient id="paint21_radial_9_50" cx="0" cy="0" r="1" gradientUnits="userSpaceOnUse" gradientTransform="translate(3409.43 3225.96) rotate(10.9628) scale(204.674 137.392)">
<stop stop-color="#110800"/>
<stop offset="0.591" stop-color="#A65A00" stop-opacity="0.8"/>
<stop offset="1" stop-color="#FF921E" stop-opacity="0"/>
</radialGradient>
<radialGradient id="paint22_radial_9_50" cx="0" cy="0" r="1" gradientUnits="userSpaceOnUse" gradientTransform="translate(1270.52 795.79) rotate(23.5217) scale(75.4693 16.3163)">
<stop stop-color="#7C7C7C"/>
<stop offset="1" stop-color="#7C7C7C" stop-opacity="0.33"/>
</radialGradient>
<linearGradient id="paint23_linear_9_50" x1="3409.45" y1="1275.93" x2="3437.33" y2="1273.45" gradientUnits="userSpaceOnUse">
<stop stop-color="#7C7C7C"/>
<stop offset="1" stop-color="#7C7C7C" stop-opacity="0.33"/>
</linearGradient>
<linearGradient id="paint24_linear_9_50" x1="3149.85" y1="7666.48" x2="4348.38" y2="9699.46" gradientUnits="userSpaceOnUse">
<stop stop-color="#B98309"/>
<stop offset="1" stop-color="#382605"/>
</linearGradient>
<linearGradient id="paint25_linear_9_50" x1="1228.69" y1="4177.71" x2="1460.33" y2="4418.1" gradientUnits="userSpaceOnUse">
<stop stop-color="#EBC40C"/>
<stop offset="1" stop-color="#EBC40C" stop-opacity="0"/>
</linearGradient>
<clipPath id="clip0_9_50">
<rect width="80" height="80" fill="white"/>
</clipPath>
</defs>
</svg>
