<svg width="81" height="81" viewBox="0 0 81 81" fill="none" xmlns="http://www.w3.org/2000/svg">
<path d="M37.3011 10.5756L39.0349 13.8319C39.4247 14.4329 39.8469 14.9648 40.3443 15.4601C41.8025 16.9001 43.1617 18.4371 44.4127 20.0604C47.3503 23.9177 49.3317 28.2013 50.7467 32.834C51.5953 35.664 52.0562 38.5671 52.0907 41.5027C52.2328 50.279 49.2241 57.8149 43.1581 64.0779C42.1714 65.071 41.1054 65.9822 39.9708 66.8023C39.3698 66.8023 39.0856 66.3415 38.8379 65.9172C38.3869 65.1304 38.0867 64.2663 37.9528 63.3693C37.7396 62.3076 37.5996 61.2458 37.6686 60.1495V59.6542C37.6199 59.5486 37.09 10.8253 37.3011 10.5756V10.5756Z" fill="#599636"/>
<path d="M37.3011 10.468C37.2301 10.3259 37.159 10.4335 37.088 10.5025C37.1225 11.2131 36.8748 11.8465 36.487 12.4515C36.0607 13.0524 35.4963 13.5132 34.9299 14.0086C31.7832 16.733 29.3065 20.0239 27.323 23.7045C24.6838 28.658 23.3236 33.9669 22.9379 39.5558C22.7613 41.5717 23.5754 48.6853 24.2108 50.7378C25.9445 56.1867 29.0588 60.7525 33.0927 64.7153C34.0834 65.6695 35.1431 66.5546 36.2394 67.4052C36.5581 67.4052 36.5926 67.121 36.6657 66.9099C36.8054 66.4581 36.912 65.9967 36.9844 65.5294L37.695 60.2226L37.3011 10.468Z" fill="#6CAC48"/>
<path d="M39.0349 68.9583C39.1059 68.1462 39.4957 67.4722 39.92 66.8003C39.4937 66.6236 39.177 66.2724 38.9293 65.8806C38.7157 65.5096 38.539 65.1187 38.4015 64.7133C37.9061 63.2272 37.8006 61.6681 37.6584 60.1495V59.2299C37.4818 59.372 37.4453 60.5738 37.4453 60.7525C37.342 62.3575 37.129 63.9535 36.8078 65.5294C36.7023 66.1669 36.6312 66.8023 36.2394 67.3687C36.2394 67.4398 36.2394 67.5108 36.2739 67.6164C36.9114 69.4922 37.0859 71.4026 37.1935 73.3495V74.06C37.1935 74.9086 37.159 74.73 37.8635 75.0142C38.1477 75.1198 38.4644 75.1563 38.7486 75.3674C38.9618 75.3674 38.9963 75.1908 38.9963 75.0487L38.8907 73.8814V70.625C38.8562 70.0566 38.9618 69.4922 39.0329 68.9603L39.0349 68.9583Z" fill="#C2BFBF"/>
</svg>
