<svg width="120" height="64" viewBox="0 0 120 64" fill="none" xmlns="http://www.w3.org/2000/svg">
<path d="M59.9996 60.7599C91.842 60.7599 117.655 47.683 117.655 31.5518C117.655 15.4206 91.842 2.34375 59.9996 2.34375C28.1571 2.34375 2.34375 15.4206 2.34375 31.5518C2.34375 47.683 28.1571 60.7599 59.9996 60.7599Z" fill="#6181B6"/>
<path d="M71.6737 40.9914L74.5387 26.2786C75.1898 22.9586 74.6471 20.4849 72.9329 18.9222C71.2832 17.4032 68.4844 16.6653 64.3612 16.6653H59.4147L60.8244 9.3742C60.8683 9.09209 60.8037 8.80998 60.63 8.59323C60.4563 8.37647 60.1965 8.24576 59.9135 8.24576H53.0783C52.6225 8.24576 52.2535 8.57172 52.1666 9.00523L49.1288 24.6289C48.8467 22.8709 48.1741 21.352 47.0895 20.1151C45.0932 17.8152 41.9031 16.6653 37.6714 16.6653H24.413C23.9571 16.6653 23.5882 16.9912 23.5013 17.4247L17.3387 49.0411C17.2957 49.324 17.3602 49.6061 17.5339 49.8229C17.7077 50.0396 17.9674 50.1704 18.2504 50.1704H25.151C25.6068 50.1704 25.9758 49.8436 26.0626 49.4109L27.5601 41.75H32.6811C35.3715 41.75 37.6284 41.4679 39.4079 40.8822C41.209 40.2956 42.8793 39.2979 44.3337 37.9312C45.5267 36.8458 46.5037 35.6313 47.2417 34.3076L46.0049 40.6224C45.961 40.9037 46.0264 41.1866 46.2001 41.4026C46.3739 41.6201 46.6345 41.75 46.9166 41.75H53.7518C54.2076 41.75 54.5766 41.4241 54.6635 40.9906L58.0273 23.6312H62.7148C64.7103 23.6312 65.2968 24.0217 65.4491 24.1954C65.6013 24.3476 65.9049 24.9119 65.5574 26.626L62.8877 40.6439C62.8439 40.9269 62.9092 41.2081 63.083 41.4249C63.2567 41.6416 63.5165 41.7724 63.7986 41.7724H70.743C71.1972 41.7509 71.5868 41.4472 71.6737 40.9914ZM39.992 28.8391C39.5585 31.0521 38.7552 32.6141 37.5829 33.5258C36.3899 34.4375 34.5012 34.8925 31.9415 34.8925H28.8813L31.0951 23.522H35.0439C37.9519 23.522 39.1233 24.1516 39.5792 24.6719C40.2311 25.3892 40.3833 26.8213 39.992 28.8391Z" fill="white"/>
<path d="M100.903 20.1159C98.907 17.816 95.7169 16.6661 91.4852 16.6661H78.2276C77.7718 16.6661 77.4028 16.992 77.3159 17.4255L71.174 49.0642C71.1302 49.3455 71.1964 49.6285 71.3693 49.8444C71.543 50.062 71.8036 50.1919 72.0849 50.1919H78.9863C79.4421 50.1919 79.8103 49.8667 79.898 49.4324L81.3954 41.7724H86.5164C89.2068 41.7724 91.4637 41.4902 93.2432 40.9037C95.0451 40.3188 96.7155 39.3202 98.169 37.9535C99.3843 36.8251 100.404 35.5667 101.164 34.1992C101.923 32.8325 102.465 31.3135 102.791 29.6854C103.551 25.649 102.922 22.4382 100.903 20.1159ZM93.7645 28.8391C93.3318 31.0521 92.5285 32.6141 91.357 33.5258C90.1632 34.4375 88.2753 34.8925 85.7148 34.8925H82.6554L84.8684 23.522H88.818C91.726 23.522 92.8974 24.1515 93.3525 24.6719C94.0251 25.3892 94.1549 26.8213 93.7645 28.8391Z" fill="white"/>
</svg>
