<svg width="80" height="80" viewBox="0 0 80 80" fill="none" xmlns="http://www.w3.org/2000/svg">
<g clip-path="url(#clip0_10_230)">
<path d="M71.6587 15.55C66.823 9.28809 60.2389 4.60087 52.7391 2.08113C45.2393 -0.438596 37.1607 -0.677651 29.5251 1.3942C21.8894 3.46606 15.0397 7.75575 9.84215 13.7208C4.64462 19.6858 1.33276 27.0582 0.32544 34.9055C-0.681883 42.7529 0.660577 50.7227 4.18304 57.8071C7.7055 64.8914 13.2497 70.7721 20.1145 74.7053C26.9794 78.6385 34.8564 80.4476 42.7494 79.9037C50.6425 79.3599 58.197 76.4875 64.4575 71.65C81.9325 58.145 85.1575 33.0312 71.6575 15.55H71.6587Z" fill="#FF6C37"/>
<path d="M53.4913 25.485L36.625 42.485L31.8588 37.585C48.4588 20.985 50.125 22.485 53.4925 25.485H53.4913Z" fill="white"/>
<path d="M36.6249 42.95C36.4756 42.9463 36.3329 42.887 36.2249 42.7837L31.4249 37.9837C31.3169 37.8719 31.2565 37.7224 31.2565 37.5669C31.2565 37.4113 31.3169 37.2619 31.4249 37.15C47.7912 20.7837 50.0249 21.55 53.8912 25.05C54.0224 25.155 54.0962 25.315 54.0912 25.4837C54.1162 25.6462 54.0537 25.8125 53.9249 25.9175L37.0587 42.785C36.9399 42.8937 36.7862 42.9525 36.6249 42.9512V42.95ZM32.6912 37.5837L36.6249 41.5175L52.6249 25.5175C52.0725 24.8252 51.2842 24.3608 50.4109 24.2132C49.5376 24.0656 48.6405 24.2452 47.8912 24.7175C44.9912 26.0175 40.3249 29.9837 32.6912 37.5837V37.5837Z" fill="#FF6C37"/>
<path d="M41.4588 47.185L36.8588 42.485L53.725 25.8175C58.2588 30.2513 51.525 37.6513 41.4588 47.1838V47.185Z" fill="white"/>
<path d="M41.4588 47.785C41.3112 47.7733 41.1712 47.7151 41.0588 47.6187L36.3588 43.0187C36.2883 42.8478 36.2883 42.6559 36.3588 42.485C36.3088 42.345 36.3088 42.1912 36.3588 42.0512L53.225 25.185C53.4688 24.9562 53.8475 24.9562 54.0913 25.185C55.1975 26.2025 55.8038 27.65 55.7575 29.1512C55.7575 33.6512 50.6238 39.3175 41.8913 47.585C41.7746 47.7004 41.6211 47.7712 41.4575 47.785H41.4588ZM37.725 42.485L41.4913 46.25C48.1575 39.95 54.525 33.45 54.5575 29.05C54.5938 28.1172 54.2854 27.2037 53.6913 26.4837L37.725 42.485Z" fill="#FF6C37"/>
<path d="M31.9912 37.685L35.325 41.0187C35.3462 41.0375 35.3633 41.0606 35.375 41.0865C35.3866 41.1123 35.3927 41.1404 35.3927 41.1687C35.3927 41.1971 35.3866 41.2252 35.375 41.251C35.3633 41.2769 35.3462 41.3 35.325 41.3187L28.2912 42.8187C28 42.8812 27.7037 42.7412 27.5637 42.4787C27.4237 42.2162 27.4762 41.8912 27.6912 41.685L31.7912 37.6187C31.7912 37.6187 31.925 37.6187 31.9912 37.685V37.685Z" fill="white"/>
<path d="M28.125 43.485C27.9027 43.4822 27.6849 43.4225 27.4924 43.3115C27.2998 43.2006 27.1389 43.0421 27.025 42.8513C26.7625 42.355 26.8562 41.7438 27.2587 41.3513L31.325 37.2513C31.4716 37.1202 31.6614 37.0477 31.8581 37.0477C32.0548 37.0477 32.2446 37.1202 32.3912 37.2513L35.725 40.585C35.9225 40.7725 36 41.0563 35.925 41.3188C35.85 41.5813 35.63 41.79 35.3587 41.8525L28.325 43.3525L28.125 43.485ZM31.8587 38.4188L28.0925 42.185L34.3262 40.8513L31.8587 38.4188Z" fill="#FF6C37"/>
<path d="M62.4588 16.1175C60.0463 13.79 56.2563 13.6925 53.7263 15.8887C51.1963 18.085 50.7638 21.855 52.7338 24.5675C54.7038 27.28 58.4175 28.04 61.2925 26.3175L56.7588 21.7837L62.4588 16.1175Z" fill="white"/>
<path d="M57.9588 27.85C56.5727 27.8322 55.2225 27.407 54.0765 26.6273C52.9304 25.8475 52.0392 24.7477 51.5138 23.465C50.4388 20.8425 51.0338 17.8325 53.0138 15.8175C54.3483 14.5075 56.1437 13.7735 58.0138 13.7735C59.8839 13.7735 61.6792 14.5075 63.0138 15.8175C63.1413 15.925 63.2138 16.0838 63.2138 16.2513C63.2135 16.3337 63.1955 16.4151 63.1609 16.4899C63.1264 16.5647 63.0762 16.6313 63.0138 16.685L57.6138 21.785L61.7138 25.8188C61.7802 25.8822 61.8301 25.9609 61.8591 26.0481C61.888 26.1353 61.8952 26.2282 61.88 26.3188C61.8702 26.4062 61.8412 26.4903 61.7952 26.5653C61.7492 26.6402 61.6872 26.7041 61.6138 26.7525C60.5123 27.441 59.2461 27.8209 57.9475 27.8525L57.9588 27.85ZM57.9588 14.9163C55.5838 14.9288 53.4588 16.3575 52.5675 18.5413C51.6763 20.725 52.1613 23.2388 53.8263 24.9163C55.5213 26.62 58.0763 27.11 60.2925 26.15L56.3588 22.2163C56.2275 22.1113 56.1538 21.9513 56.1588 21.7825C56.1638 21.6263 56.2363 21.48 56.3588 21.3825L61.5588 16.1488C60.525 15.3563 59.2613 14.9238 57.9588 14.915V14.9163Z" fill="#FF6C37"/>
<path d="M62.5588 16.2175L56.8588 21.8837L61.3925 26.4175C61.8488 26.1555 62.2737 25.8423 62.6588 25.4837C65.1288 22.8587 65.0838 18.7737 62.5588 16.2175Z" fill="white"/>
<path d="M61.2912 26.9175C61.2163 26.9216 61.1415 26.9087 61.0723 26.8799C61.003 26.8512 60.9412 26.8072 60.8912 26.7513L56.3575 22.2175C56.2262 22.1125 56.1525 21.9525 56.1575 21.7838C56.1625 21.6275 56.235 21.4813 56.3575 21.3838L62.0237 15.8175C62.0784 15.735 62.1527 15.6673 62.24 15.6205C62.3272 15.5737 62.4247 15.5492 62.5237 15.5492C62.6227 15.5492 62.7202 15.5737 62.8074 15.6205C62.8947 15.6673 62.969 15.735 63.0237 15.8175C63.6889 16.4693 64.2174 17.2472 64.5781 18.1058C64.9389 18.9643 65.1247 19.8862 65.1247 20.8175C65.1247 21.7488 64.9389 22.6707 64.5781 23.5292C64.2174 24.3878 63.6889 25.1657 63.0237 25.8175C62.6313 26.2337 62.1823 26.5926 61.69 26.8838C61.566 26.9462 61.4227 26.9583 61.29 26.9175H61.2912ZM57.625 21.785L61.3912 25.5513C61.6503 25.3697 61.8956 25.1691 62.125 24.9513C63.2321 23.8471 63.8557 22.3486 63.8587 20.785C63.8613 19.3857 63.3512 18.0339 62.425 16.985L57.625 21.785Z" fill="#FF6C37"/>
<path d="M54.1913 26.185C53.2538 25.305 51.795 25.305 50.8575 26.185L35.7588 41.25L38.2588 43.7837L54.225 29.7837C54.7188 29.3125 54.995 28.6587 54.9875 27.9762C54.98 27.2937 54.6925 26.645 54.1913 26.1837V26.185Z" fill="white"/>
<path d="M38.1251 44.385C37.9757 44.3813 37.833 44.3221 37.7251 44.2188L35.1913 41.685C35.0832 41.5731 35.0228 41.4237 35.0228 41.2681C35.0228 41.1126 35.0832 40.9631 35.1913 40.8513L50.2913 25.8175C51.4888 24.6225 53.4288 24.6225 54.6251 25.8175C55.2251 26.4175 55.55 27.2363 55.525 28.0838C55.49 28.9263 55.1175 29.7188 54.4913 30.2838L38.5251 44.2838C38.4088 44.3663 38.2663 44.4013 38.1251 44.3838V44.385ZM36.3588 41.25L38.0251 42.95L53.6913 29.3163C54.0788 28.9788 54.31 28.4963 54.325 27.9825C54.34 27.4688 54.1376 26.9663 53.7588 26.6163C53.0301 25.8913 51.8538 25.8913 51.1251 26.6163L36.3588 41.25Z" fill="#FF6C37"/>
<path d="M24.0588 58.4175C24.0161 58.4755 23.9931 58.5455 23.9931 58.6175C23.9931 58.6895 24.0161 58.7595 24.0588 58.8175L24.725 61.7175C24.7825 62.0638 24.6163 62.4088 24.31 62.5925C24.1615 62.6794 23.9893 62.7169 23.8181 62.6996C23.6469 62.6823 23.4856 62.6111 23.3575 62.4963L18.7913 58.0963L33.025 43.75H37.9588L41.2925 47.0837C36.0921 51.6305 30.2937 55.4439 24.0588 58.4175V58.4175Z" fill="white"/>
<path d="M23.7587 63.3175C23.3812 63.31 23.0088 63.155 22.7588 62.8838L18.3925 58.5175C18.2612 58.4125 18.1875 58.2525 18.1925 58.0838C18.1975 57.9275 18.27 57.7813 18.3925 57.6838L32.725 43.3175C32.8053 43.2322 32.9101 43.1741 33.025 43.1513H37.9912C38.1207 43.1055 38.2618 43.1055 38.3912 43.1513L41.725 46.485C41.8538 46.6038 41.9163 46.7788 41.8913 46.9513C41.8936 47.0341 41.8768 47.1163 41.8421 47.1916C41.8074 47.2668 41.7558 47.333 41.6913 47.385L41.425 47.6188C36.2036 51.9717 30.4592 55.6556 24.325 58.585L24.9587 61.285C25.0077 61.4933 25.0096 61.7099 24.9642 61.919C24.9189 62.1281 24.8274 62.3244 24.6965 62.4937C24.5655 62.6629 24.3985 62.8008 24.2075 62.8973C24.0165 62.9937 23.8064 63.0463 23.5925 63.0513L23.7587 63.3175ZM19.6925 58.0838L23.625 62.05C23.6616 62.0827 23.709 62.1008 23.7581 62.1008C23.8072 62.1008 23.8546 62.0827 23.8913 62.05C23.9158 62.016 23.929 61.9751 23.929 61.9331C23.929 61.8912 23.9158 61.8503 23.8913 61.8163L23.225 58.9163C23.1175 58.4875 23.325 58.0413 23.725 57.85C29.6943 54.9597 35.2906 51.3554 40.3913 47.1163L37.6575 44.3825H33.1912L19.6925 58.0838Z" fill="#FF6C37"/>
<path d="M15.3587 61.5175L18.6924 58.1837L23.8262 63.3175L15.6599 62.7512C15.3724 62.73 15.1287 62.5262 15.0599 62.2437C14.9912 61.9612 15.1124 61.6687 15.3599 61.5187L15.3587 61.5175Z" fill="white"/>
<path d="M23.925 63.8175L15.7912 63.2513C15.3087 63.2063 14.8937 62.8763 14.7237 62.435C14.5537 61.9938 14.6575 61.47 14.9912 61.1175L18.325 57.7838C18.4368 57.6757 18.5863 57.6153 18.7419 57.6153C18.8974 57.6153 19.0469 57.6757 19.1587 57.7838L24.2587 62.8838C24.4037 63.0838 24.4037 63.3513 24.2587 63.55C24.1812 63.675 24.0637 63.7688 23.925 63.8163V63.8175ZM15.7912 61.9513L22.4575 62.385L18.7912 58.9513L15.7912 61.9513Z" fill="#FF6C37"/>
<path d="M38.425 44.1525L31.6913 45.1863L35.5913 41.32L38.425 44.1525Z" fill="white"/>
<path d="M31.6912 45.8175C31.4625 45.8238 31.2537 45.6925 31.1575 45.4838C31.0865 45.3872 31.0482 45.2705 31.0482 45.1506C31.0482 45.0308 31.0865 44.9141 31.1575 44.8175L35.0237 40.9175C35.2675 40.6888 35.6462 40.6888 35.89 40.9175L38.725 43.75C38.7816 43.8398 38.8116 43.9438 38.8116 44.05C38.8116 44.1562 38.7816 44.2602 38.725 44.35C38.6972 44.4595 38.6384 44.5586 38.5557 44.6355C38.473 44.7125 38.3699 44.7639 38.2587 44.7838L31.5925 45.8175H31.6912ZM35.5912 42.1838L33.425 44.35L37.1587 43.7838L35.5912 42.1838Z" fill="#FF6C37"/>
<path d="M38.425 44.15L33.725 44.75C33.5992 44.7785 33.4676 44.7658 33.3496 44.7137C33.2317 44.6615 33.1336 44.5728 33.0701 44.4605C33.0065 44.3483 32.9808 44.2186 32.9968 44.0906C33.0128 43.9626 33.0696 43.8432 33.1587 43.75L35.5925 41.3163L38.425 44.15Z" fill="white"/>
<path d="M33.5912 45.385C33.1475 45.3813 32.7412 45.1388 32.525 44.7513C32.3977 44.5231 32.3483 44.2596 32.3844 44.0008C32.4205 43.7421 32.5401 43.5021 32.725 43.3175L35.1587 40.8838C35.4025 40.655 35.7812 40.655 36.025 40.8838L38.8587 43.7175C38.943 43.7974 39.0023 43.8999 39.0294 44.0128C39.0566 44.1257 39.0504 44.244 39.0116 44.3534C38.9728 44.4629 38.9032 44.5587 38.811 44.6293C38.7189 44.6999 38.6082 44.7423 38.4925 44.7513L33.8262 45.3513L33.5912 45.385ZM33.5912 44.1513L37.125 43.7175L35.5587 42.1513L33.5587 44.1513H33.5912ZM62.5912 20.0513C62.5284 19.9461 62.4292 19.8676 62.3124 19.8307C62.1956 19.7939 62.0693 19.8012 61.9575 19.8513C61.9023 19.8792 61.8533 19.918 61.8134 19.9652C61.7734 20.0124 61.7434 20.0672 61.725 20.1263C61.6875 20.245 61.7 20.3738 61.7575 20.485C61.9912 20.9763 61.9262 21.5575 61.5912 21.985C61.5037 22.0675 61.4662 22.1813 61.4662 22.3013C61.4674 22.4185 61.512 22.5311 61.5912 22.6175C61.6768 22.6513 61.7719 22.6513 61.8575 22.6175C61.9351 22.637 62.0166 22.6349 62.0931 22.6113C62.1695 22.5877 62.2381 22.5436 62.2912 22.4838C62.5657 22.1477 62.7395 21.7408 62.7926 21.3102C62.8457 20.8795 62.7759 20.4427 62.5912 20.05V20.0513Z" fill="#FF6C37"/>
</g>
<defs>
<clipPath id="clip0_10_230">
<rect width="80" height="80" fill="white"/>
</clipPath>
</defs>
</svg>
