<svg width="54" height="80" viewBox="0 0 54 80" fill="none" xmlns="http://www.w3.org/2000/svg">
<g clip-path="url(#clip0_10_176)">
<path d="M13.3387 80C20.6987 80 26.672 74.0267 26.672 66.6667V53.3333H13.3387C5.97867 53.3333 0.00534058 59.3067 0.00534058 66.6667C0.00534058 74.0267 5.97867 80 13.3387 80Z" fill="#0ACF83"/>
<path d="M0.00534058 40C0.00534058 32.64 5.97867 26.6667 13.3387 26.6667H26.672V53.3333H13.3387C5.97867 53.3333 0.00534058 47.36 0.00534058 40Z" fill="#A259FF"/>
<path d="M0.00534058 13.3333C0.00534058 5.97333 5.97867 0 13.3387 0H26.672V26.6667H13.3387C5.97867 26.6667 0.00534058 20.6933 0.00534058 13.3333Z" fill="#F24E1E"/>
<path d="M26.672 0H40.0053C47.3653 0 53.3387 5.97333 53.3387 13.3333C53.3387 20.6933 47.3653 26.6667 40.0053 26.6667H26.672V0Z" fill="#FF7262"/>
<path d="M53.3387 40C53.3387 47.36 47.3653 53.3333 40.0053 53.3333C32.6453 53.3333 26.672 47.36 26.672 40C26.672 32.64 32.6453 26.6667 40.0053 26.6667C47.3653 26.6667 53.3387 32.64 53.3387 40Z" fill="#1ABCFE"/>
</g>
<defs>
<clipPath id="clip0_10_176">
<rect width="53.344" height="80" fill="white"/>
</clipPath>
</defs>
</svg>
