<svg width="80" height="80" viewBox="0 0 80 80" fill="none" xmlns="http://www.w3.org/2000/svg">
<g clip-path="url(#clip0_10_172)">
<path d="M44.625 24.25C43.6875 23.875 42.1875 23.625 40.3125 23.5625C37.6875 23.5 34.6875 23.8125 34.5625 23.875V36.375C42.875 36.75 44.25 35.3125 44.25 35.3125C51.5 31.625 46.9375 25.1875 44.625 24.25V24.25Z" fill="#75AADB"/>
<path d="M40 0C17.875 0 0 17.875 0 40C0 62.125 17.875 80 40 80C62.125 80 80 62.125 80 40C80 17.875 62.0625 0 40 0ZM57.875 56.125H51.25L40.25 39.6875H34.625V52.5H40.25V56.125H25.9375V52.5625L30.6875 52.5L30.625 23.8125C30.125 23.6875 25.9375 23.3125 25.9375 23.3125V20C26.5625 20.625 30.875 20.75 30.875 20.75C31.875 20.8125 33.3125 20.875 34.125 20.6875C39.9375 19.625 44.375 20.4375 44.375 20.4375C53.125 22.4375 53.25 30.3125 50.8125 34.5625C48.625 38.1875 44.375 39.0625 44.375 39.0625L53.375 52.6875L57.875 52.625V56.125V56.125Z" fill="#75AADB"/>
<path d="M25.9969 54.4206V52.7169L27.1344 52.6287C27.9149 52.5739 28.697 52.5439 29.4794 52.5387H30.6863V23.7475L30.1 23.6681C29.7775 23.6244 28.7225 23.5131 27.755 23.42L25.9969 23.2512V21.6825C25.9969 20.225 26.0138 20.1231 26.2406 20.245C27.23 20.7744 32.9281 20.9137 36.1344 20.4875C38.7606 20.1387 43.3188 20.2219 44.9063 20.6481C48.3331 21.5681 50.6 23.5519 51.6713 26.5687C52.1194 27.83 52.1819 30.2231 51.8063 31.7087C51.2419 33.9412 50.3125 35.4887 48.7656 36.7719C47.8394 37.5406 45.7363 38.6656 44.925 38.8281C44.6769 38.8775 44.4425 38.9681 44.405 39.0287C44.3675 39.09 46.3569 42.1987 48.8269 45.9375L53.3169 52.735L55.5875 52.6925L57.8588 52.65V56.125L54.5825 56.12L51.3075 56.1156L45.795 47.8444L40.2844 39.5731H34.5481V52.5381H40.2038V56.125H25.9969V54.4206ZM41.7206 36.1944C43.8931 35.8506 46.2613 34.4606 47.3288 32.905C48.8981 30.6156 48.2894 27.2862 45.895 25.0631C45.0469 24.2756 44.5169 24.0444 42.8988 23.7506C41.5713 23.5094 37.4863 23.4669 35.5825 23.6744L34.6175 23.7794L34.5813 30.0812L34.5456 36.3825L34.9956 36.4487C35.8494 36.5737 40.4144 36.4019 41.7206 36.1944V36.1944Z" fill="white" stroke="white" stroke-width="0.788"/>
</g>
<defs>
<clipPath id="clip0_10_172">
<rect width="80" height="80" fill="white"/>
</clipPath>
</defs>
</svg>
