<svg width="80" height="80" viewBox="0 0 80 80" fill="none" xmlns="http://www.w3.org/2000/svg">
<path d="M80 0H0V80H80V0Z" fill="#F7DF1E"/>
<path d="M21.0411 66.8493L27.1562 63.1452C28.3398 65.2493 29.4137 67.0027 31.9781 67.0027C34.4548 67.0027 36.011 66.0383 36.011 62.2685V36.7342H43.5288V62.4C43.5288 70.1808 38.9699 73.7315 32.3069 73.7315C26.3014 73.7315 22.8165 70.6192 21.0411 66.8493Z" fill="black"/>
<path d="M47.6274 66.0384L53.7425 62.4877C55.3644 65.1178 57.4466 67.0466 61.1507 67.0466C64.263 67.0466 66.2575 65.4904 66.2575 63.3425C66.2575 60.7562 64.2192 59.8576 60.7781 58.3452L58.8931 57.5343C53.4794 55.2329 49.863 52.3178 49.863 46.2028C49.863 40.5699 54.1589 36.274 60.8657 36.274C65.6438 36.274 69.0849 37.9397 71.5616 42.2795L65.7096 46.0274C64.4164 43.726 63.0356 42.8055 60.8877 42.8055C58.6959 42.8055 57.2931 44.2082 57.2931 46.0274C57.2931 48.2849 58.6959 49.2055 61.9178 50.5863L63.8027 51.3973C70.2027 54.137 73.7972 56.9206 73.7972 63.211C73.7972 69.9836 68.4712 73.6877 61.3479 73.6877C54.3342 73.7315 49.8192 70.4 47.6274 66.0384Z" fill="black"/>
</svg>
