<svg width="90" height="81" viewBox="0 0 90 81" fill="none" xmlns="http://www.w3.org/2000/svg">
<path d="M73.9981 25.9536C73.0644 25.6323 72.097 25.3282 71.1009 25.0406C71.2646 24.3725 71.4149 23.7129 71.5485 23.0646C73.7416 12.4189 72.3076 3.84266 67.4112 1.019C62.7161 -1.68852 55.0376 1.13451 47.2827 7.88336C46.5369 8.53232 45.7891 9.21942 45.0417 9.93951C44.5436 9.46308 44.0463 9.00267 43.5504 8.56228C35.423 1.34597 27.2766 -1.69509 22.3849 1.13675C17.6943 3.85212 16.3052 11.9146 18.2793 22.0036C18.47 22.9781 18.6928 23.9732 18.9448 24.9851C17.7918 25.3123 16.6788 25.6613 15.6138 26.0324C6.08531 29.3545 0 34.5609 0 39.9614C0 45.539 6.53259 51.1335 16.4572 54.5257C17.2404 54.7934 18.0531 55.0465 18.8906 55.2868C18.6188 56.3811 18.3823 57.4535 18.1838 58.4994C16.3015 68.4133 17.7715 76.2854 22.4496 78.9836C27.2817 81.7701 35.3913 78.9059 43.288 72.0032C43.9121 71.4576 44.5385 70.879 45.166 70.2725C45.9793 71.0557 46.7913 71.7969 47.5991 72.4922C55.2479 79.0743 62.8024 81.7321 67.4762 79.0264C72.3035 76.2318 73.8723 67.7754 71.8355 57.4868C71.68 56.7011 71.499 55.8983 71.2957 55.0813C71.8652 54.9129 72.4243 54.7391 72.9694 54.5584C83.287 51.1399 90 45.6135 90 39.9614C90 34.5414 83.7184 29.2999 73.9981 25.9536ZM71.7602 50.9089C71.2681 51.0718 70.7632 51.2293 70.2486 51.382C69.1096 47.7761 67.5723 43.9417 65.6911 39.9801C67.4863 36.1129 68.9641 32.3276 70.0713 28.7451C70.9919 29.0115 71.8855 29.2925 72.7466 29.589C81.075 32.4561 86.1552 36.6951 86.1552 39.9614C86.1552 43.4406 80.6687 47.9571 71.7602 50.9089ZM68.0638 58.2335C68.9645 62.783 69.0931 66.8963 68.4965 70.1118C67.9605 73.0011 66.8825 74.9275 65.5497 75.699C62.7133 77.3407 56.6479 75.2067 50.1065 69.5777C49.3566 68.9324 48.6013 68.2434 47.8435 67.5142C50.3795 64.7406 52.914 61.5163 55.3876 57.9354C59.7384 57.5493 63.849 56.9181 67.5767 56.0564C67.7602 56.797 67.9233 57.5234 68.0638 58.2335ZM30.683 75.4153C27.9119 76.394 25.7049 76.422 24.3707 75.6527C21.5318 74.0153 20.3517 67.6949 21.9615 59.2165C22.1459 58.2455 22.3654 57.2481 22.6183 56.2286C26.3051 57.0439 30.3855 57.6305 34.7468 57.9841C37.2371 61.4881 39.8448 64.7089 42.4727 67.529C41.8986 68.0833 41.3266 68.611 40.7579 69.1083C37.2661 72.1606 33.7669 74.3261 30.683 75.4153ZM17.7007 50.8876C13.3122 49.3877 9.68802 47.4382 7.20382 45.3109C4.97161 43.3993 3.84461 41.5014 3.84461 39.9614C3.84461 36.6842 8.73051 32.5041 16.8793 29.663C17.8681 29.3183 18.9031 28.9934 19.9773 28.6882C21.1035 32.3516 22.5808 36.1818 24.3637 40.055C22.5578 43.9856 21.0594 47.8768 19.9222 51.5832C19.1564 51.3631 18.4145 51.1314 17.7007 50.8876ZM22.0525 21.2652C20.3611 12.6212 21.4844 6.10051 24.3111 4.46424C27.3221 2.72111 33.9801 5.20644 40.9974 11.4374C41.446 11.8356 41.8963 12.2525 42.3479 12.6837C39.733 15.4915 37.1491 18.6881 34.681 22.1715C30.4482 22.5638 26.3964 23.194 22.6712 24.038C22.437 23.0958 22.2295 22.1702 22.0525 21.2652ZM60.8744 30.8514C59.9839 29.3131 59.0696 27.8113 58.1376 26.3504C61.0091 26.7134 63.7604 27.1953 66.3441 27.785C65.5684 30.271 64.6016 32.8702 63.4635 35.5348C62.6472 33.9849 61.7837 32.4221 60.8744 30.8514ZM45.0429 15.4314C46.8163 17.3527 48.5923 19.4978 50.3391 21.8251C48.5788 21.742 46.7968 21.6987 45 21.6987C43.2202 21.6987 41.4513 21.741 39.7019 21.8227C41.4505 19.517 43.2418 17.3748 45.0429 15.4314ZM29.11 30.878C28.2205 32.4205 27.373 33.9748 26.5695 35.5319C25.4498 32.8766 24.492 30.2655 23.7096 27.7443C26.2774 27.1697 29.0157 26.6998 31.869 26.3437C30.9238 27.818 30.002 29.3309 29.11 30.8776V30.878ZM31.9512 53.8534C29.0032 53.5245 26.2237 53.0788 23.6566 52.52C24.4515 49.9538 25.4304 47.287 26.5738 44.5745C27.3794 46.1305 28.2302 47.6854 29.1253 49.2313H29.1254C30.0371 50.8062 30.9816 52.3489 31.9512 53.8534ZM45.1493 64.7624C43.327 62.7963 41.5094 60.6214 39.7343 58.2821C41.4575 58.3497 43.2144 58.3843 45 58.3843C46.8344 58.3843 48.6479 58.3429 50.4328 58.2635C48.6802 60.645 46.9107 62.8232 45.1493 64.7624ZM63.5002 44.4362C64.7032 47.178 65.7172 49.8309 66.5224 52.3534C63.9129 52.9487 61.0955 53.4282 58.127 53.7845C59.0613 52.3039 59.9836 50.7763 60.8898 49.2049C61.8066 47.6151 62.6771 46.0228 63.5002 44.4362ZM57.5594 47.2841C56.1526 49.7234 54.7082 52.0521 53.2419 54.2502C50.5712 54.4411 47.8121 54.5395 45 54.5395C42.1992 54.5395 39.4749 54.4525 36.8515 54.2822C35.3261 52.0553 33.8503 49.7198 32.4524 47.3051H32.4527C31.0585 44.897 29.7753 42.4685 28.6126 40.0537C29.775 37.6332 31.0549 35.2021 32.4411 32.7983L32.4407 32.7988C33.8306 30.3886 35.2934 28.0644 36.8047 25.8514C39.4813 25.6491 42.226 25.5435 44.9998 25.5435H45C47.7863 25.5435 50.5345 25.6499 53.2103 25.854C54.6986 28.0508 56.1514 30.3674 57.5468 32.7779C58.958 35.2155 60.2543 37.6305 61.4266 39.999C60.2578 42.4083 58.9644 44.8476 57.5594 47.2841ZM65.4907 4.34985C68.5045 6.08785 69.6765 13.0972 67.783 22.2886C67.6622 22.8751 67.5262 23.4725 67.3785 24.0779C63.6446 23.2163 59.5899 22.5752 55.3448 22.1769C52.8718 18.6553 50.3091 15.4537 47.7368 12.682C48.4284 12.0166 49.119 11.3823 49.8068 10.7836C56.4512 5.00122 62.6613 2.71823 65.4907 4.34985ZM45 31.9247C49.4385 31.9247 53.0367 35.5228 53.0367 39.9614C53.0367 44.3999 49.4385 47.9981 45 47.9981C40.5615 47.9981 36.9633 44.3999 36.9633 39.9614C36.9633 35.5228 40.5615 31.9247 45 31.9247Z" fill="#257BC2"/>
</svg>
