<svg width="26" height="26" viewBox="0 0 26 26" fill="none" xmlns="http://www.w3.org/2000/svg">
<path fill-rule="evenodd" clip-rule="evenodd" d="M7.47145 0.209664C8.80261 0.148384 9.22704 0.134766 12.6179 0.134766C16.0088 0.134766 16.4332 0.149518 17.7632 0.209664C19.0933 0.269811 20.0011 0.482024 20.7955 0.789563C21.6273 1.10391 22.382 1.59529 23.0062 2.2308C23.6417 2.85382 24.1319 3.60735 24.4451 4.44032C24.7538 5.2347 24.9649 6.14256 25.0262 7.47032C25.0874 8.80374 25.1011 9.22817 25.1011 12.6179C25.1011 16.0088 25.0863 16.4332 25.0262 17.7644C24.966 19.0921 24.7538 20 24.4451 20.7944C24.1319 21.6274 23.6408 22.3822 23.0062 23.0062C22.382 23.6417 21.6273 24.1319 20.7955 24.4451C20.0011 24.7538 19.0933 24.9649 17.7655 25.0262C16.4332 25.0874 16.0088 25.1011 12.6179 25.1011C9.22704 25.1011 8.80261 25.0863 7.47145 25.0262C6.1437 24.966 5.23583 24.7538 4.44145 24.4451C3.60839 24.1319 2.85362 23.6408 2.22966 23.0062C1.59459 22.3828 1.10313 21.6283 0.789563 20.7955C0.482024 20.0011 0.270945 19.0933 0.209664 17.7655C0.148384 16.4321 0.134766 16.0077 0.134766 12.6179C0.134766 9.22704 0.149518 8.80261 0.209664 7.47259C0.269811 6.14256 0.482024 5.2347 0.789563 4.44032C1.1036 3.60744 1.59543 2.85304 2.2308 2.22966C2.85387 1.59473 3.60789 1.10328 4.44032 0.789563C5.2347 0.482024 6.14256 0.270945 7.47032 0.209664H7.47145ZM17.6622 2.45663C16.3458 2.39648 15.9509 2.384 12.6179 2.384C9.28491 2.384 8.88999 2.39648 7.57359 2.45663C6.35591 2.51224 5.69544 2.71537 5.25513 2.88673C4.67296 3.1137 4.25647 3.38265 3.81956 3.81956C3.4054 4.22249 3.08667 4.713 2.88673 5.25513C2.71537 5.69544 2.51224 6.35591 2.45663 7.57359C2.39648 8.88999 2.384 9.28491 2.384 12.6179C2.384 15.9509 2.39648 16.3458 2.45663 17.6622C2.51224 18.8799 2.71537 19.5404 2.88673 19.9807C3.08646 20.522 3.40535 21.0134 3.81956 21.4163C4.22243 21.8305 4.71381 22.1494 5.25513 22.3491C5.69544 22.5205 6.35591 22.7236 7.57359 22.7792C8.88999 22.8393 9.28378 22.8518 12.6179 22.8518C15.952 22.8518 16.3458 22.8393 17.6622 22.7792C18.8799 22.7236 19.5404 22.5205 19.9807 22.3491C20.5629 22.1221 20.9793 21.8532 21.4163 21.4163C21.8305 21.0134 22.1494 20.522 22.3491 19.9807C22.5205 19.5404 22.7236 18.8799 22.7792 17.6622C22.8393 16.3458 22.8518 15.9509 22.8518 12.6179C22.8518 9.28491 22.8393 8.88999 22.7792 7.57359C22.7236 6.35591 22.5205 5.69544 22.3491 5.25513C22.1221 4.67296 21.8532 4.25647 21.4163 3.81956C21.0133 3.40543 20.5228 3.0867 19.9807 2.88673C19.5404 2.71537 18.8799 2.51224 17.6622 2.45663ZM11.0235 16.4661C11.9139 16.8368 12.9055 16.8868 13.8287 16.6077C14.7519 16.3285 15.5496 15.7375 16.0855 14.9355C16.6214 14.1336 16.8622 13.1704 16.7669 12.2106C16.6716 11.2508 16.246 10.3539 15.5628 9.67302C15.1273 9.23779 14.6007 8.90453 14.0209 8.69724C13.4412 8.48994 12.8227 8.41377 12.2099 8.47421C11.5972 8.53464 11.0055 8.73018 10.4774 9.04674C9.9493 9.36331 9.49797 9.79303 9.15588 10.305C8.8138 10.8169 8.58947 11.3983 8.49906 12.0073C8.40864 12.6164 8.45439 13.2379 8.633 13.8271C8.81161 14.4163 9.11864 14.9586 9.53199 15.415C9.94534 15.8713 10.4547 16.2303 11.0235 16.4661ZM8.08085 8.08085C8.67667 7.48504 9.384 7.01241 10.1625 6.68996C10.9409 6.36751 11.7753 6.20154 12.6179 6.20154C13.4605 6.20154 14.2949 6.36751 15.0733 6.68996C15.8518 7.01241 16.5592 7.48504 17.155 8.08085C17.7508 8.67667 18.2234 9.384 18.5459 10.1625C18.8683 10.9409 19.0343 11.7753 19.0343 12.6179C19.0343 13.4605 18.8683 14.2949 18.5459 15.0733C18.2234 15.8518 17.7508 16.5592 17.155 17.155C15.9517 18.3583 14.3196 19.0343 12.6179 19.0343C10.9162 19.0343 9.28416 18.3583 8.08085 17.155C6.87755 15.9517 6.20155 14.3196 6.20155 12.6179C6.20155 10.9162 6.87755 9.28416 8.08085 8.08085ZM20.4573 7.1571C20.605 7.01782 20.7232 6.85034 20.8049 6.66456C20.8867 6.47878 20.9303 6.27848 20.9333 6.07553C20.9363 5.87258 20.8985 5.67109 20.8222 5.48301C20.7458 5.29493 20.6326 5.12406 20.4891 4.98054C20.3455 4.83702 20.1747 4.72375 19.9866 4.64744C19.7985 4.57114 19.597 4.53334 19.3941 4.5363C19.1911 4.53926 18.9908 4.58291 18.805 4.66467C18.6193 4.74642 18.4518 4.86462 18.3125 5.01227C18.0416 5.29942 17.8933 5.68082 17.8991 6.07553C17.9048 6.47023 18.0642 6.84716 18.3433 7.12628C18.6224 7.40541 18.9994 7.56477 19.3941 7.57052C19.7888 7.57627 20.1702 7.42798 20.4573 7.1571Z" fill="#686868"/>
</svg>
