<svg width="21" height="26" viewBox="0 0 21 26" fill="none" xmlns="http://www.w3.org/2000/svg">
<path d="M10.6179 13.7528C12.4981 13.7528 14.0224 12.2286 14.0224 10.3483C14.0224 8.46809 12.4981 6.94385 10.6179 6.94385C8.73762 6.94385 7.21338 8.46809 7.21338 10.3483C7.21338 12.2286 8.73762 13.7528 10.6179 13.7528Z" stroke="#686868" stroke-width="2.26966" stroke-linecap="round" stroke-linejoin="round"/>
<path d="M10.6182 1.26953C8.21039 1.26953 5.9012 2.22603 4.19863 3.92861C2.49605 5.63118 1.53955 7.94037 1.53955 10.3482C1.53955 12.4953 1.99575 13.9002 3.2418 15.4549L10.6182 23.9662L17.9946 15.4549C19.2407 13.9002 19.6969 12.4953 19.6969 10.3482C19.6969 7.94037 18.7404 5.63118 17.0378 3.92861C15.3352 2.22603 13.026 1.26953 10.6182 1.26953V1.26953Z" stroke="#686868" stroke-width="2.26966" stroke-linecap="round" stroke-linejoin="round"/>
</svg>
