<svg width="23" height="19" viewBox="0 0 23 19" fill="none" xmlns="http://www.w3.org/2000/svg">
<path d="M20.6965 18.6969H2.53919C1.93724 18.6969 1.35994 18.4577 0.9343 18.0321C0.508656 17.6064 0.269531 17.0291 0.269531 16.4272V2.71048C0.294989 2.12581 0.545305 1.57356 0.968222 1.16904C1.39114 0.764523 1.95396 0.538998 2.53919 0.539552H20.6965C21.2984 0.539552 21.8757 0.778676 22.3014 1.20432C22.727 1.62996 22.9662 2.20726 22.9662 2.80921V16.4272C22.9662 17.0291 22.727 17.6064 22.3014 18.0321C21.8757 18.4577 21.2984 18.6969 20.6965 18.6969ZM2.53919 4.92908V16.4272H20.6965V4.92908L11.6178 10.98L2.53919 4.92908ZM3.44706 2.80921L11.6178 8.25641L19.7886 2.80921H3.44706Z" fill="#686868"/>
</svg>
