<?xml version="1.0" encoding="UTF-8"?>
<svg xmlns="http://www.w3.org/2000/svg" xmlns:xlink="http://www.w3.org/1999/xlink" viewBox="0 0 24 24" width="24px" height="24px">
<g id="surface10937700">
<path style=" stroke:none;fill-rule:nonzero;fill:rgb(6.666667%,9.411765%,15.294118%);fill-opacity:1;" d="M 12 24 C 5.371094 24 0 18.628906 0 12 C 0 5.371094 5.371094 0 12 0 C 18.628906 0 24 5.371094 24 12 C 24 18.628906 18.628906 24 12 24 Z M 12 24 "/>
<path style=" stroke:none;fill-rule:nonzero;fill:rgb(100%,100%,100%);fill-opacity:1;" d="M 12 4 C 7.589844 4 4 7.589844 4 12 C 4 16.410156 7.589844 20 12 20 C 16.410156 20 20 16.410156 20 12 C 20 7.589844 16.410156 4 12 4 Z M 12 5.601562 C 15.542969 5.601562 18.398438 8.457031 18.398438 12 C 18.398438 15.542969 15.542969 18.398438 12 18.398438 C 8.457031 18.398438 5.601562 15.542969 5.601562 12 C 5.601562 8.457031 8.457031 5.601562 12 5.601562 Z M 11.199219 7.199219 L 11.199219 12.332031 L 14.632812 15.765625 L 15.765625 14.632812 L 12.800781 11.667969 L 12.800781 7.199219 Z M 11.199219 7.199219 "/>
</g>
</svg>
