<svg width="64" height="64" viewBox="0 0 64 64" fill="none" xmlns="http://www.w3.org/2000/svg">
<g clip-path="url(#clip0_1_2)">
<path d="M59.26 0.0019989H4.724C2.12 0.0019989 0 2.068 0 4.612V59.38C0 61.93 2.12 64 4.724 64H59.264C61.874 64 64 61.93 64 59.38V4.612C64 2.068 61.874 0.0019989 59.26 0.0019989Z" fill="#0177B5"/>
<path d="M9.48999 23.994H19V54.534H9.48999V23.994ZM14.238 8.794C17.272 8.794 19.738 11.26 19.738 14.294C19.738 17.328 17.272 19.8 14.24 19.8C12.7805 19.7968 11.3817 19.2158 10.3495 18.1839C9.31725 17.1521 8.73569 15.7535 8.73199 14.294C8.73199 13.5712 8.87445 12.8555 9.15123 12.1879C9.42801 11.5202 9.83367 10.9136 10.345 10.4028C10.8564 9.89199 11.4634 9.48699 12.1314 9.21094C12.7994 8.93489 13.5152 8.79321 14.238 8.794ZM24.938 23.994H34.042V28.168H34.168C35.436 25.768 38.532 23.236 43.168 23.236C52.78 23.236 54.554 29.562 54.554 37.784V54.536H45.068V39.68C45.068 36.14 45.004 31.58 40.136 31.58C35.196 31.58 34.436 35.44 34.436 39.42V54.528H24.952V23.988L24.938 23.994Z" fill="white"/>
</g>
<defs>
<clipPath id="clip0_1_2">
<rect width="64" height="64" fill="white"/>
</clipPath>
</defs>
</svg>
