<svg width="400" height="429" viewBox="0 0 400 429" fill="none" xmlns="http://www.w3.org/2000/svg">
<rect width="400" height="428.986" fill="white"/>
<path d="M91.8489 352.384C90.8035 352.384 89.8329 352.203 88.9369 351.84C88.0409 351.456 87.2729 350.933 86.6329 350.272C86.0142 349.589 85.5555 348.8 85.2569 347.904L86.9849 347.232C87.3902 348.299 88.0195 349.131 88.8729 349.728C89.7475 350.304 90.7609 350.592 91.9129 350.592C93.1289 350.592 94.1209 350.283 94.8889 349.664C95.6569 349.045 96.0409 348.267 96.0409 347.328C96.0409 346.688 95.8275 346.155 95.4009 345.728C94.9742 345.28 94.3129 344.939 93.4169 344.704L90.8249 343.968C89.5449 343.605 88.5849 343.072 87.9449 342.368C87.3049 341.664 86.9849 340.8 86.9849 339.776C86.9849 338.816 87.2409 337.952 87.7529 337.184C88.2862 336.395 88.9902 335.776 89.8649 335.328C90.7609 334.859 91.7635 334.624 92.8729 334.624C94.3235 334.624 95.5929 334.997 96.6809 335.744C97.7689 336.491 98.4729 337.483 98.7929 338.72L97.0329 339.392C96.6915 338.432 96.1582 337.696 95.4329 337.184C94.7075 336.651 93.8435 336.384 92.8409 336.384C91.7315 336.384 90.8035 336.693 90.0569 337.312C89.3315 337.909 88.9689 338.656 88.9689 339.552C88.9689 340.171 89.1609 340.693 89.5449 341.12C89.9289 341.525 90.5262 341.845 91.3369 342.08L94.0889 342.88C95.2622 343.2 96.2115 343.723 96.9369 344.448C97.6835 345.173 98.0569 346.123 98.0569 347.296C98.0569 348.256 97.7795 349.12 97.2249 349.888C96.6915 350.656 95.9555 351.264 95.0169 351.712C94.0782 352.16 93.0222 352.384 91.8489 352.384ZM102.019 352L104.419 335.008H106.339L103.971 352H102.019ZM104.867 331.68L105.347 328.16H107.299L106.819 331.68H104.867ZM109.269 352L111.637 335.008H113.557L113.109 338.336L112.821 337.824C113.397 336.843 114.186 336.064 115.189 335.488C116.192 334.912 117.258 334.624 118.389 334.624C119.712 334.624 120.864 335.008 121.845 335.776C122.848 336.544 123.477 337.6 123.733 338.944L123.157 338.88C123.69 337.536 124.544 336.491 125.717 335.744C126.89 334.997 128.128 334.624 129.429 334.624C130.581 334.624 131.594 334.901 132.469 335.456C133.365 336.011 134.037 336.789 134.485 337.792C134.954 338.795 135.093 339.957 134.901 341.28L133.429 352H131.509L132.981 341.376C133.13 340.352 133.056 339.477 132.757 338.752C132.458 338.027 132 337.472 131.381 337.088C130.762 336.704 130.037 336.512 129.205 336.512C128.309 336.512 127.466 336.736 126.677 337.184C125.888 337.611 125.237 338.208 124.725 338.976C124.213 339.744 123.882 340.629 123.733 341.632L122.293 352H120.373L121.845 341.376C121.994 340.352 121.92 339.477 121.621 338.752C121.322 338.027 120.864 337.472 120.245 337.088C119.648 336.704 118.933 336.512 118.101 336.512C117.162 336.512 116.298 336.747 115.509 337.216C114.741 337.664 114.101 338.293 113.589 339.104C113.077 339.893 112.746 340.8 112.597 341.824L111.189 352H109.269ZM137.498 358.4L140.762 335.008H142.714L142.106 339.296L141.466 338.656C142.191 337.419 143.183 336.437 144.442 335.712C145.701 334.987 147.098 334.624 148.634 334.624C150.191 334.624 151.557 334.987 152.73 335.712C153.903 336.437 154.821 337.419 155.482 338.656C156.143 339.872 156.474 341.259 156.474 342.816C156.474 344.117 156.239 345.355 155.77 346.528C155.322 347.68 154.693 348.693 153.882 349.568C153.071 350.443 152.122 351.136 151.034 351.648C149.946 352.139 148.773 352.384 147.514 352.384C145.957 352.384 144.549 351.989 143.29 351.2C142.031 350.411 141.125 349.333 140.57 347.968L140.922 347.68L139.45 358.4H137.498ZM147.45 350.464C148.815 350.464 150.01 350.112 151.034 349.408C152.079 348.704 152.901 347.776 153.498 346.624C154.117 345.472 154.426 344.203 154.426 342.816C154.426 341.579 154.17 340.491 153.658 339.552C153.146 338.613 152.442 337.877 151.546 337.344C150.671 336.811 149.647 336.544 148.474 336.544C147.151 336.544 145.957 336.896 144.89 337.6C143.845 338.283 143.013 339.2 142.394 340.352C141.797 341.483 141.498 342.72 141.498 344.064C141.498 345.301 141.754 346.4 142.266 347.36C142.799 348.32 143.503 349.077 144.378 349.632C145.274 350.187 146.298 350.464 147.45 350.464ZM159.863 352L163.255 327.776H165.207L161.815 352H159.863ZM175.593 352.384C174.057 352.384 172.681 352.021 171.465 351.296C170.27 350.571 169.331 349.589 168.649 348.352C167.966 347.093 167.625 345.675 167.625 344.096C167.625 342.816 167.838 341.611 168.265 340.48C168.713 339.328 169.331 338.315 170.121 337.44C170.931 336.565 171.87 335.883 172.937 335.392C174.003 334.88 175.166 334.624 176.425 334.624C177.918 334.624 179.209 334.965 180.297 335.648C181.385 336.331 182.227 337.248 182.825 338.4C183.422 339.531 183.721 340.779 183.721 342.144C183.721 342.464 183.689 342.805 183.625 343.168C183.582 343.531 183.539 343.84 183.497 344.096H168.745L168.873 342.336H182.505L181.609 342.976C181.843 341.739 181.758 340.629 181.353 339.648C180.947 338.645 180.307 337.856 179.433 337.28C178.579 336.704 177.577 336.416 176.425 336.416C175.038 336.416 173.833 336.768 172.809 337.472C171.785 338.176 170.985 339.136 170.409 340.352C169.854 341.568 169.577 342.923 169.577 344.416C169.577 345.632 169.843 346.709 170.377 347.648C170.91 348.565 171.625 349.291 172.521 349.824C173.438 350.336 174.462 350.592 175.593 350.592C176.83 350.592 177.929 350.293 178.889 349.696C179.87 349.099 180.681 348.309 181.321 347.328L182.921 348.256C182.473 349.045 181.875 349.76 181.129 350.4C180.403 351.019 179.561 351.509 178.601 351.872C177.662 352.213 176.659 352.384 175.593 352.384ZM198.603 352.192C197.153 352.192 196.086 351.787 195.403 350.976C194.742 350.144 194.518 348.96 194.731 347.424L196.203 336.832H193.003L193.291 335.008H194.411C195.051 335.008 195.574 334.805 195.979 334.4C196.406 333.995 196.662 333.461 196.747 332.8L197.003 331.04H198.955L198.411 335.008H202.091L201.835 336.832H198.155L196.651 347.552C196.587 348.021 196.587 348.48 196.651 348.928C196.715 349.355 196.918 349.707 197.259 349.984C197.601 350.24 198.145 350.368 198.891 350.368C199.105 350.368 199.329 350.357 199.563 350.336C199.819 350.315 200.022 350.293 200.171 350.272L200.043 352.064C199.809 352.128 199.542 352.16 199.243 352.16C198.966 352.181 198.753 352.192 198.603 352.192ZM212.627 352.384C211.091 352.384 209.704 352.032 208.467 351.328C207.251 350.603 206.28 349.611 205.555 348.352C204.851 347.093 204.499 345.664 204.499 344.064C204.499 342.763 204.723 341.547 205.171 340.416C205.64 339.264 206.291 338.261 207.123 337.408C207.976 336.533 208.958 335.851 210.067 335.36C211.176 334.869 212.371 334.624 213.651 334.624C215.23 334.624 216.627 334.976 217.843 335.68C219.059 336.384 220.019 337.365 220.723 338.624C221.427 339.861 221.779 341.28 221.779 342.88C221.779 344.181 221.544 345.408 221.075 346.56C220.606 347.712 219.944 348.725 219.091 349.6C218.259 350.475 217.288 351.157 216.179 351.648C215.07 352.139 213.886 352.384 212.627 352.384ZM212.595 350.496C213.939 350.496 215.144 350.144 216.211 349.44C217.299 348.736 218.152 347.808 218.771 346.656C219.411 345.483 219.731 344.213 219.731 342.848C219.731 341.632 219.464 340.544 218.931 339.584C218.419 338.624 217.704 337.877 216.787 337.344C215.891 336.789 214.856 336.512 213.683 336.512C212.36 336.512 211.155 336.864 210.067 337.568C209 338.251 208.147 339.168 207.507 340.32C206.867 341.451 206.547 342.709 206.547 344.096C206.547 345.312 206.803 346.411 207.315 347.392C207.848 348.352 208.563 349.109 209.459 349.664C210.376 350.219 211.422 350.496 212.595 350.496ZM233.495 352.384C231.959 352.384 230.594 352.021 229.399 351.296C228.226 350.571 227.308 349.589 226.647 348.352C225.986 347.093 225.655 345.685 225.655 344.128C225.655 342.827 225.879 341.611 226.327 340.48C226.775 339.328 227.404 338.315 228.215 337.44C229.026 336.565 229.975 335.883 231.063 335.392C232.151 334.88 233.335 334.624 234.615 334.624C236.215 334.624 237.612 335.008 238.807 335.776C240.023 336.523 240.908 337.557 241.463 338.88L241.207 339.296L242.807 327.776H244.759L241.367 352H239.447L240.023 347.68L240.663 348.16C239.98 349.483 238.988 350.517 237.687 351.264C236.407 352.011 235.01 352.384 233.495 352.384ZM233.559 350.464C234.903 350.464 236.108 350.112 237.175 349.408C238.242 348.704 239.084 347.776 239.703 346.624C240.322 345.472 240.631 344.213 240.631 342.848C240.631 341.589 240.364 340.491 239.831 339.552C239.298 338.613 238.583 337.877 237.687 337.344C236.791 336.811 235.778 336.544 234.647 336.544C233.324 336.544 232.13 336.896 231.063 337.6C230.018 338.283 229.196 339.211 228.599 340.384C228.002 341.536 227.703 342.805 227.703 344.192C227.703 345.387 227.948 346.464 228.439 347.424C228.93 348.363 229.612 349.109 230.487 349.664C231.383 350.197 232.407 350.464 233.559 350.464ZM255.283 352.384C253.747 352.384 252.36 352.032 251.123 351.328C249.907 350.603 248.936 349.611 248.211 348.352C247.507 347.093 247.155 345.664 247.155 344.064C247.155 342.763 247.379 341.547 247.827 340.416C248.296 339.264 248.947 338.261 249.779 337.408C250.632 336.533 251.614 335.851 252.723 335.36C253.832 334.869 255.027 334.624 256.307 334.624C257.886 334.624 259.283 334.976 260.499 335.68C261.715 336.384 262.675 337.365 263.379 338.624C264.083 339.861 264.435 341.28 264.435 342.88C264.435 344.181 264.2 345.408 263.731 346.56C263.262 347.712 262.6 348.725 261.747 349.6C260.915 350.475 259.944 351.157 258.835 351.648C257.726 352.139 256.542 352.384 255.283 352.384ZM255.251 350.496C256.595 350.496 257.8 350.144 258.867 349.44C259.955 348.736 260.808 347.808 261.427 346.656C262.067 345.483 262.387 344.213 262.387 342.848C262.387 341.632 262.12 340.544 261.587 339.584C261.075 338.624 260.36 337.877 259.443 337.344C258.547 336.789 257.512 336.512 256.339 336.512C255.016 336.512 253.811 336.864 252.723 337.568C251.656 338.251 250.803 339.168 250.163 340.32C249.523 341.451 249.203 342.709 249.203 344.096C249.203 345.312 249.459 346.411 249.971 347.392C250.504 348.352 251.219 349.109 252.115 349.664C253.032 350.219 254.078 350.496 255.251 350.496ZM273.113 352L276.505 327.776H278.457L275.065 352H273.113ZM280.363 352L282.763 335.008H284.683L282.315 352H280.363ZM283.211 331.68L283.691 328.16H285.643L285.163 331.68H283.211ZM293.693 352.384C292.647 352.384 291.677 352.203 290.781 351.84C289.885 351.456 289.117 350.933 288.477 350.272C287.858 349.589 287.399 348.8 287.101 347.904L288.829 347.232C289.234 348.299 289.863 349.131 290.717 349.728C291.591 350.304 292.605 350.592 293.757 350.592C294.973 350.592 295.965 350.283 296.733 349.664C297.501 349.045 297.885 348.267 297.885 347.328C297.885 346.688 297.671 346.155 297.245 345.728C296.818 345.28 296.157 344.939 295.261 344.704L292.669 343.968C291.389 343.605 290.429 343.072 289.789 342.368C289.149 341.664 288.829 340.8 288.829 339.776C288.829 338.816 289.085 337.952 289.597 337.184C290.13 336.395 290.834 335.776 291.709 335.328C292.605 334.859 293.607 334.624 294.717 334.624C296.167 334.624 297.437 334.997 298.525 335.744C299.613 336.491 300.317 337.483 300.637 338.72L298.877 339.392C298.535 338.432 298.002 337.696 297.277 337.184C296.551 336.651 295.687 336.384 294.685 336.384C293.575 336.384 292.647 336.693 291.901 337.312C291.175 337.909 290.813 338.656 290.813 339.552C290.813 340.171 291.005 340.693 291.389 341.12C291.773 341.525 292.37 341.845 293.181 342.08L295.933 342.88C297.106 343.2 298.055 343.723 298.781 344.448C299.527 345.173 299.901 346.123 299.901 347.296C299.901 348.256 299.623 349.12 299.069 349.888C298.535 350.656 297.799 351.264 296.861 351.712C295.922 352.16 294.866 352.384 293.693 352.384ZM310.135 352.192C308.684 352.192 307.617 351.787 306.935 350.976C306.273 350.144 306.049 348.96 306.263 347.424L307.735 336.832H304.535L304.823 335.008H305.943C306.583 335.008 307.105 334.805 307.511 334.4C307.937 333.995 308.193 333.461 308.279 332.8L308.535 331.04H310.487L309.943 335.008H313.623L313.367 336.832H309.687L308.183 347.552C308.119 348.021 308.119 348.48 308.183 348.928C308.247 349.355 308.449 349.707 308.791 349.984C309.132 350.24 309.676 350.368 310.423 350.368C310.636 350.368 310.86 350.357 311.095 350.336C311.351 350.315 311.553 350.293 311.703 350.272L311.575 352.064C311.34 352.128 311.073 352.16 310.775 352.16C310.497 352.181 310.284 352.192 310.135 352.192ZM30.6099 392.384C29.6499 392.384 28.7645 392.213 27.9539 391.872C27.1645 391.509 26.5245 390.997 26.0339 390.336C25.5432 389.653 25.2979 388.821 25.2979 387.84C25.2979 386.859 25.5432 385.995 26.0339 385.248C26.5245 384.48 27.2179 383.84 28.1139 383.328C29.0312 382.816 30.0979 382.464 31.3139 382.272L38.3539 381.12L38.1939 382.912L31.7619 383.968C30.3965 384.181 29.3085 384.619 28.4979 385.28C27.7085 385.941 27.3139 386.773 27.3139 387.776C27.3139 388.672 27.6339 389.376 28.2739 389.888C28.9352 390.379 29.7885 390.624 30.8339 390.624C32.0072 390.624 33.0739 390.336 34.0339 389.76C34.9939 389.184 35.7832 388.416 36.4019 387.456C37.0419 386.475 37.4365 385.408 37.5859 384.256L38.0979 380.544C38.2259 379.669 38.1192 378.933 37.7779 378.336C37.4365 377.717 36.9352 377.248 36.2739 376.928C35.6339 376.608 34.8979 376.448 34.0659 376.448C32.9565 376.448 31.9432 376.725 31.0259 377.28C30.1299 377.813 29.4045 378.507 28.8499 379.36L27.1859 378.336C27.5699 377.653 28.1139 377.035 28.8179 376.48C29.5219 375.904 30.3219 375.456 31.2179 375.136C32.1352 374.795 33.1059 374.624 34.1299 374.624C35.3459 374.624 36.4232 374.88 37.3619 375.392C38.3219 375.904 39.0472 376.619 39.5379 377.536C40.0285 378.432 40.1885 379.488 40.0179 380.704L38.4179 392H36.4979L36.9779 388.448L37.2979 388.64C36.9352 389.323 36.4125 389.952 35.7299 390.528C35.0685 391.083 34.2899 391.531 33.3939 391.872C32.5192 392.213 31.5912 392.384 30.6099 392.384ZM42.8416 398.4L46.1056 375.008H48.0576L47.4496 379.296L46.8096 378.656C47.535 377.419 48.527 376.437 49.7856 375.712C51.0443 374.987 52.4416 374.624 53.9776 374.624C55.535 374.624 56.9003 374.987 58.0736 375.712C59.247 376.437 60.1643 377.419 60.8256 378.656C61.487 379.872 61.8176 381.259 61.8176 382.816C61.8176 384.117 61.583 385.355 61.1136 386.528C60.6656 387.68 60.0363 388.693 59.2256 389.568C58.415 390.443 57.4656 391.136 56.3776 391.648C55.2896 392.139 54.1163 392.384 52.8576 392.384C51.3003 392.384 49.8923 391.989 48.6336 391.2C47.375 390.411 46.4683 389.333 45.9136 387.968L46.2656 387.68L44.7936 398.4H42.8416ZM52.7936 390.464C54.159 390.464 55.3536 390.112 56.3776 389.408C57.423 388.704 58.2443 387.776 58.8416 386.624C59.4603 385.472 59.7696 384.203 59.7696 382.816C59.7696 381.579 59.5136 380.491 59.0016 379.552C58.4896 378.613 57.7856 377.877 56.8896 377.344C56.015 376.811 54.991 376.544 53.8176 376.544C52.495 376.544 51.3003 376.896 50.2336 377.6C49.1883 378.283 48.3563 379.2 47.7376 380.352C47.1403 381.483 46.8416 382.72 46.8416 384.064C46.8416 385.301 47.0976 386.4 47.6096 387.36C48.143 388.32 48.847 389.077 49.7216 389.632C50.6176 390.187 51.6416 390.464 52.7936 390.464ZM64.3104 398.4L67.5744 375.008H69.5264L68.9184 379.296L68.2784 378.656C69.0037 377.419 69.9957 376.437 71.2544 375.712C72.513 374.987 73.9104 374.624 75.4464 374.624C77.0037 374.624 78.369 374.987 79.5424 375.712C80.7157 376.437 81.633 377.419 82.2944 378.656C82.9557 379.872 83.2864 381.259 83.2864 382.816C83.2864 384.117 83.0517 385.355 82.5824 386.528C82.1344 387.68 81.505 388.693 80.6944 389.568C79.8837 390.443 78.9344 391.136 77.8464 391.648C76.7584 392.139 75.585 392.384 74.3264 392.384C72.769 392.384 71.361 391.989 70.1024 391.2C68.8437 390.411 67.937 389.333 67.3824 387.968L67.7344 387.68L66.2624 398.4H64.3104ZM74.2624 390.464C75.6277 390.464 76.8224 390.112 77.8464 389.408C78.8917 388.704 79.713 387.776 80.3104 386.624C80.929 385.472 81.2384 384.203 81.2384 382.816C81.2384 381.579 80.9824 380.491 80.4704 379.552C79.9584 378.613 79.2544 377.877 78.3584 377.344C77.4837 376.811 76.4597 376.544 75.2864 376.544C73.9637 376.544 72.769 376.896 71.7024 377.6C70.657 378.283 69.825 379.2 69.2064 380.352C68.609 381.483 68.3104 382.72 68.3104 384.064C68.3104 385.301 68.5664 386.4 69.0784 387.36C69.6117 388.32 70.3157 389.077 71.1904 389.632C72.0864 390.187 73.1104 390.464 74.2624 390.464ZM86.6751 392L90.0671 367.776H92.0191L88.6271 392H86.6751ZM93.9251 392L96.3251 375.008H98.2451L95.8771 392H93.9251ZM96.7731 371.68L97.2531 368.16H99.2051L98.7251 371.68H96.7731ZM109.495 392.384C108.002 392.384 106.658 392.032 105.463 391.328C104.29 390.603 103.362 389.621 102.679 388.384C101.996 387.147 101.655 385.728 101.655 384.128C101.655 382.805 101.89 381.568 102.359 380.416C102.828 379.264 103.468 378.251 104.279 377.376C105.111 376.501 106.071 375.829 107.159 375.36C108.247 374.869 109.42 374.624 110.679 374.624C111.746 374.624 112.727 374.805 113.623 375.168C114.54 375.531 115.319 376.032 115.959 376.672C116.62 377.291 117.122 378.005 117.463 378.816L115.735 379.648C115.287 378.667 114.626 377.899 113.751 377.344C112.876 376.768 111.852 376.48 110.679 376.48C109.335 376.48 108.13 376.832 107.063 377.536C105.996 378.24 105.164 379.179 104.567 380.352C103.97 381.504 103.671 382.773 103.671 384.16C103.671 385.44 103.927 386.56 104.439 387.52C104.972 388.459 105.687 389.195 106.583 389.728C107.479 390.24 108.482 390.496 109.591 390.496C110.786 390.496 111.863 390.208 112.823 389.632C113.804 389.035 114.583 388.235 115.159 387.232L116.823 388.224C116.375 389.013 115.778 389.728 115.031 390.368C114.306 390.987 113.474 391.477 112.535 391.84C111.596 392.203 110.583 392.384 109.495 392.384ZM125.797 392.384C124.837 392.384 123.952 392.213 123.141 391.872C122.352 391.509 121.712 390.997 121.221 390.336C120.731 389.653 120.485 388.821 120.485 387.84C120.485 386.859 120.731 385.995 121.221 385.248C121.712 384.48 122.405 383.84 123.301 383.328C124.219 382.816 125.285 382.464 126.501 382.272L133.541 381.12L133.381 382.912L126.949 383.968C125.584 384.181 124.496 384.619 123.685 385.28C122.896 385.941 122.501 386.773 122.501 387.776C122.501 388.672 122.821 389.376 123.461 389.888C124.123 390.379 124.976 390.624 126.021 390.624C127.195 390.624 128.261 390.336 129.221 389.76C130.181 389.184 130.971 388.416 131.589 387.456C132.229 386.475 132.624 385.408 132.773 384.256L133.285 380.544C133.413 379.669 133.307 378.933 132.965 378.336C132.624 377.717 132.123 377.248 131.461 376.928C130.821 376.608 130.085 376.448 129.253 376.448C128.144 376.448 127.131 376.725 126.213 377.28C125.317 377.813 124.592 378.507 124.037 379.36L122.373 378.336C122.757 377.653 123.301 377.035 124.005 376.48C124.709 375.904 125.509 375.456 126.405 375.136C127.323 374.795 128.293 374.624 129.317 374.624C130.533 374.624 131.611 374.88 132.549 375.392C133.509 375.904 134.235 376.619 134.725 377.536C135.216 378.432 135.376 379.488 135.205 380.704L133.605 392H131.685L132.165 388.448L132.485 388.64C132.123 389.323 131.6 389.952 130.917 390.528C130.256 391.083 129.477 391.531 128.581 391.872C127.707 392.213 126.779 392.384 125.797 392.384ZM144.572 392.192C143.121 392.192 142.055 391.787 141.372 390.976C140.711 390.144 140.487 388.96 140.7 387.424L142.172 376.832H138.972L139.26 375.008H140.38C141.02 375.008 141.543 374.805 141.948 374.4C142.375 373.995 142.631 373.461 142.716 372.8L142.972 371.04H144.924L144.38 375.008H148.06L147.804 376.832H144.124L142.62 387.552C142.556 388.021 142.556 388.48 142.62 388.928C142.684 389.355 142.887 389.707 143.228 389.984C143.569 390.24 144.113 390.368 144.86 390.368C145.073 390.368 145.297 390.357 145.532 390.336C145.788 390.315 145.991 390.293 146.14 390.272L146.012 392.064C145.777 392.128 145.511 392.16 145.212 392.16C144.935 392.181 144.721 392.192 144.572 392.192ZM150.613 392L153.013 375.008H154.933L152.565 392H150.613ZM153.461 371.68L153.941 368.16H155.893L155.413 371.68H153.461ZM166.471 392.384C164.935 392.384 163.548 392.032 162.311 391.328C161.095 390.603 160.124 389.611 159.399 388.352C158.695 387.093 158.343 385.664 158.343 384.064C158.343 382.763 158.567 381.547 159.015 380.416C159.484 379.264 160.135 378.261 160.967 377.408C161.82 376.533 162.801 375.851 163.911 375.36C165.02 374.869 166.215 374.624 167.495 374.624C169.073 374.624 170.471 374.976 171.687 375.68C172.903 376.384 173.863 377.365 174.567 378.624C175.271 379.861 175.623 381.28 175.623 382.88C175.623 384.181 175.388 385.408 174.919 386.56C174.449 387.712 173.788 388.725 172.935 389.6C172.103 390.475 171.132 391.157 170.023 391.648C168.913 392.139 167.729 392.384 166.471 392.384ZM166.439 390.496C167.783 390.496 168.988 390.144 170.055 389.44C171.143 388.736 171.996 387.808 172.615 386.656C173.255 385.483 173.575 384.213 173.575 382.848C173.575 381.632 173.308 380.544 172.775 379.584C172.263 378.624 171.548 377.877 170.631 377.344C169.735 376.789 168.7 376.512 167.527 376.512C166.204 376.512 164.999 376.864 163.911 377.568C162.844 378.251 161.991 379.168 161.351 380.32C160.711 381.451 160.391 382.709 160.391 384.096C160.391 385.312 160.647 386.411 161.159 387.392C161.692 388.352 162.407 389.109 163.303 389.664C164.22 390.219 165.265 390.496 166.439 390.496ZM179.019 392L181.387 375.008H183.307L182.827 378.432L182.379 378.24C182.891 377.109 183.68 376.224 184.747 375.584C185.835 374.944 187.019 374.624 188.299 374.624C189.494 374.624 190.539 374.901 191.435 375.456C192.352 376.011 193.035 376.789 193.483 377.792C193.931 378.795 194.059 379.957 193.867 381.28L192.363 392H190.443L191.915 381.376C192.128 379.84 191.862 378.645 191.115 377.792C190.368 376.939 189.334 376.512 188.011 376.512C187.008 376.512 186.102 376.747 185.291 377.216C184.502 377.664 183.851 378.293 183.339 379.104C182.827 379.893 182.496 380.8 182.347 381.824L180.939 392H179.019ZM206.293 392L202.869 375.008H204.949L207.861 390.4H207.029L213.845 375.008H215.797L218.261 390.4H217.365L224.629 375.008H226.869L218.645 392H216.661L214.325 377.152H214.901L208.277 392H206.293ZM227.675 392L230.075 375.008H231.995L229.627 392H227.675ZM230.523 371.68L231.003 368.16H232.955L232.475 371.68H230.523ZM241.197 392.192C239.746 392.192 238.68 391.787 237.997 390.976C237.336 390.144 237.112 388.96 237.325 387.424L238.797 376.832H235.597L235.885 375.008H237.005C237.645 375.008 238.168 374.805 238.573 374.4C239 373.995 239.256 373.461 239.341 372.8L239.597 371.04H241.549L241.005 375.008H244.685L244.429 376.832H240.749L239.245 387.552C239.181 388.021 239.181 388.48 239.245 388.928C239.309 389.355 239.512 389.707 239.853 389.984C240.194 390.24 240.738 390.368 241.485 390.368C241.698 390.368 241.922 390.357 242.157 390.336C242.413 390.315 242.616 390.293 242.765 390.272L242.637 392.064C242.402 392.128 242.136 392.16 241.837 392.16C241.56 392.181 241.346 392.192 241.197 392.192ZM247.238 392L250.63 367.776H252.55L251.078 378.432L250.598 378.24C251.131 377.109 251.931 376.224 252.998 375.584C254.086 374.944 255.259 374.624 256.518 374.624C257.712 374.624 258.758 374.901 259.654 375.456C260.571 376.011 261.254 376.789 261.702 377.792C262.15 378.795 262.278 379.957 262.086 381.28L260.614 392H258.662L260.134 381.376C260.347 379.84 260.08 378.645 259.334 377.792C258.587 376.939 257.552 376.512 256.23 376.512C255.248 376.512 254.352 376.747 253.542 377.216C252.752 377.664 252.102 378.293 251.59 379.104C251.078 379.893 250.747 380.8 250.598 381.824L249.19 392H247.238ZM270.863 392L273.231 375.008H275.183L274.735 378.176L274.383 377.888C274.895 376.928 275.631 376.171 276.591 375.616C277.572 375.061 278.671 374.784 279.887 374.784H280.943L280.687 376.704H279.375C277.988 376.704 276.836 377.152 275.919 378.048C275.023 378.944 274.457 380.181 274.223 381.76L272.783 392H270.863ZM290.218 392.384C288.682 392.384 287.306 392.021 286.09 391.296C284.895 390.571 283.956 389.589 283.274 388.352C282.591 387.093 282.25 385.675 282.25 384.096C282.25 382.816 282.463 381.611 282.89 380.48C283.338 379.328 283.956 378.315 284.746 377.44C285.556 376.565 286.495 375.883 287.562 375.392C288.628 374.88 289.791 374.624 291.05 374.624C292.543 374.624 293.834 374.965 294.922 375.648C296.01 376.331 296.852 377.248 297.45 378.4C298.047 379.531 298.346 380.779 298.346 382.144C298.346 382.464 298.314 382.805 298.25 383.168C298.207 383.531 298.164 383.84 298.122 384.096H283.37L283.498 382.336H297.13L296.234 382.976C296.468 381.739 296.383 380.629 295.978 379.648C295.572 378.645 294.932 377.856 294.058 377.28C293.204 376.704 292.202 376.416 291.05 376.416C289.663 376.416 288.458 376.768 287.434 377.472C286.41 378.176 285.61 379.136 285.034 380.352C284.479 381.568 284.202 382.923 284.202 384.416C284.202 385.632 284.468 386.709 285.002 387.648C285.535 388.565 286.25 389.291 287.146 389.824C288.063 390.336 289.087 390.592 290.218 390.592C291.455 390.592 292.554 390.293 293.514 389.696C294.495 389.099 295.306 388.309 295.946 387.328L297.546 388.256C297.098 389.045 296.5 389.76 295.754 390.4C295.028 391.019 294.186 391.509 293.226 391.872C292.287 392.213 291.284 392.384 290.218 392.384ZM306.579 392.384C305.619 392.384 304.733 392.213 303.923 391.872C303.133 391.509 302.493 390.997 302.003 390.336C301.512 389.653 301.267 388.821 301.267 387.84C301.267 386.859 301.512 385.995 302.003 385.248C302.493 384.48 303.187 383.84 304.083 383.328C305 382.816 306.067 382.464 307.283 382.272L314.323 381.12L314.163 382.912L307.731 383.968C306.365 384.181 305.277 384.619 304.467 385.28C303.677 385.941 303.283 386.773 303.283 387.776C303.283 388.672 303.603 389.376 304.243 389.888C304.904 390.379 305.757 390.624 306.803 390.624C307.976 390.624 309.043 390.336 310.003 389.76C310.963 389.184 311.752 388.416 312.371 387.456C313.011 386.475 313.405 385.408 313.555 384.256L314.067 380.544C314.195 379.669 314.088 378.933 313.747 378.336C313.405 377.717 312.904 377.248 312.243 376.928C311.603 376.608 310.867 376.448 310.035 376.448C308.925 376.448 307.912 376.725 306.995 377.28C306.099 377.813 305.373 378.507 304.819 379.36L303.155 378.336C303.539 377.653 304.083 377.035 304.787 376.48C305.491 375.904 306.291 375.456 307.187 375.136C308.104 374.795 309.075 374.624 310.099 374.624C311.315 374.624 312.392 374.88 313.331 375.392C314.291 375.904 315.016 376.619 315.507 377.536C315.997 378.432 316.157 379.488 315.987 380.704L314.387 392H312.467L312.947 388.448L313.267 388.64C312.904 389.323 312.381 389.952 311.699 390.528C311.037 391.083 310.259 391.531 309.363 391.872C308.488 392.213 307.56 392.384 306.579 392.384ZM328.026 392.384C326.533 392.384 325.189 392.032 323.994 391.328C322.821 390.603 321.893 389.621 321.21 388.384C320.528 387.147 320.186 385.728 320.186 384.128C320.186 382.805 320.421 381.568 320.89 380.416C321.36 379.264 322 378.251 322.81 377.376C323.642 376.501 324.602 375.829 325.69 375.36C326.778 374.869 327.952 374.624 329.21 374.624C330.277 374.624 331.258 374.805 332.154 375.168C333.072 375.531 333.85 376.032 334.49 376.672C335.152 377.291 335.653 378.005 335.994 378.816L334.266 379.648C333.818 378.667 333.157 377.899 332.282 377.344C331.408 376.768 330.384 376.48 329.21 376.48C327.866 376.48 326.661 376.832 325.594 377.536C324.528 378.24 323.696 379.179 323.098 380.352C322.501 381.504 322.202 382.773 322.202 384.16C322.202 385.44 322.458 386.56 322.97 387.52C323.504 388.459 324.218 389.195 325.114 389.728C326.01 390.24 327.013 390.496 328.122 390.496C329.317 390.496 330.394 390.208 331.354 389.632C332.336 389.035 333.114 388.235 333.69 387.232L335.354 388.224C334.906 389.013 334.309 389.728 333.562 390.368C332.837 390.987 332.005 391.477 331.066 391.84C330.128 392.203 329.114 392.384 328.026 392.384ZM345.697 392.192C344.246 392.192 343.18 391.787 342.497 390.976C341.836 390.144 341.612 388.96 341.825 387.424L343.297 376.832H340.097L340.385 375.008H341.505C342.145 375.008 342.668 374.805 343.073 374.4C343.5 373.995 343.756 373.461 343.841 372.8L344.097 371.04H346.049L345.505 375.008H349.185L348.929 376.832H345.249L343.745 387.552C343.681 388.021 343.681 388.48 343.745 388.928C343.809 389.355 344.012 389.707 344.353 389.984C344.694 390.24 345.238 390.368 345.985 390.368C346.198 390.368 346.422 390.357 346.657 390.336C346.913 390.315 347.116 390.293 347.265 390.272L347.137 392.064C346.902 392.128 346.636 392.16 346.337 392.16C346.06 392.181 345.846 392.192 345.697 392.192ZM348.987 399.04C348.774 399.04 348.539 399.019 348.283 398.976C348.006 398.933 347.782 398.891 347.611 398.848L347.739 397.12C347.931 397.141 348.134 397.163 348.347 397.184C348.56 397.205 348.752 397.216 348.923 397.216C349.926 397.216 350.79 396.917 351.515 396.32C352.24 395.723 352.678 394.859 352.827 393.728L355.483 375.008H357.403L354.747 393.856C354.598 394.987 354.246 395.936 353.691 396.704C353.158 397.472 352.486 398.048 351.675 398.432C350.864 398.837 349.968 399.04 348.987 399.04ZM355.931 371.68L356.411 368.16H358.363L357.883 371.68H355.931ZM366.38 392.384C365.335 392.384 364.364 392.203 363.468 391.84C362.572 391.456 361.804 390.933 361.164 390.272C360.545 389.589 360.087 388.8 359.788 387.904L361.516 387.232C361.921 388.299 362.551 389.131 363.404 389.728C364.279 390.304 365.292 390.592 366.444 390.592C367.66 390.592 368.652 390.283 369.42 389.664C370.188 389.045 370.572 388.267 370.572 387.328C370.572 386.688 370.359 386.155 369.932 385.728C369.505 385.28 368.844 384.939 367.948 384.704L365.356 383.968C364.076 383.605 363.116 383.072 362.476 382.368C361.836 381.664 361.516 380.8 361.516 379.776C361.516 378.816 361.772 377.952 362.284 377.184C362.817 376.395 363.521 375.776 364.396 375.328C365.292 374.859 366.295 374.624 367.404 374.624C368.855 374.624 370.124 374.997 371.212 375.744C372.3 376.491 373.004 377.483 373.324 378.72L371.564 379.392C371.223 378.432 370.689 377.696 369.964 377.184C369.239 376.651 368.375 376.384 367.372 376.384C366.263 376.384 365.335 376.693 364.588 377.312C363.863 377.909 363.5 378.656 363.5 379.552C363.5 380.171 363.692 380.693 364.076 381.12C364.46 381.525 365.057 381.845 365.868 382.08L368.62 382.88C369.793 383.2 370.743 383.723 371.468 384.448C372.215 385.173 372.588 386.123 372.588 387.296C372.588 388.256 372.311 389.12 371.756 389.888C371.223 390.656 370.487 391.264 369.548 391.712C368.609 392.16 367.553 392.384 366.38 392.384Z" fill="black"/>
<path d="M72.7188 147.5H87.3125C90.3542 147.5 92.9479 148.021 95.0938 149.062C97.2396 150.104 98.8854 151.646 100.031 153.688C101.177 155.729 101.75 158.25 101.75 161.25C101.75 163.708 101.417 165.812 100.75 167.562C100.083 169.292 99.1354 170.74 97.9062 171.906C96.6771 173.052 95.2083 173.969 93.5 174.656L90.7188 176.312H78.875L78.8438 168.719H87.0625C88.3125 168.719 89.3438 168.448 90.1562 167.906C90.9896 167.344 91.6042 166.562 92 165.562C92.4167 164.542 92.625 163.354 92.625 162C92.625 160.562 92.4375 159.333 92.0625 158.312C91.7083 157.271 91.1354 156.479 90.3438 155.938C89.5729 155.375 88.5625 155.094 87.3125 155.094H81.875V193H72.7188V147.5ZM93.375 193L85.0312 172.719L94.625 172.688L103.156 192.562V193H93.375ZM121.312 193.625C119 193.625 116.948 193.271 115.156 192.562C113.385 191.854 111.885 190.833 110.656 189.5C109.427 188.146 108.49 186.51 107.844 184.594C107.198 182.677 106.875 180.49 106.875 178.031V175.25C106.875 172.5 107.188 170.094 107.812 168.031C108.438 165.948 109.323 164.198 110.469 162.781C111.615 161.365 113.021 160.312 114.688 159.625C116.375 158.917 118.281 158.562 120.406 158.562C122.531 158.562 124.396 158.917 126 159.625C127.625 160.312 128.969 161.354 130.031 162.75C131.094 164.125 131.896 165.833 132.438 167.875C132.979 169.917 133.25 172.292 133.25 175V179H110.594V172.844H124.656V172.062C124.656 170.688 124.51 169.542 124.219 168.625C123.927 167.688 123.469 166.99 122.844 166.531C122.219 166.073 121.385 165.844 120.344 165.844C119.469 165.844 118.729 166.021 118.125 166.375C117.521 166.729 117.042 167.281 116.688 168.031C116.333 168.781 116.073 169.76 115.906 170.969C115.74 172.156 115.656 173.583 115.656 175.25V178.031C115.656 179.594 115.792 180.906 116.062 181.969C116.333 183.01 116.729 183.865 117.25 184.531C117.792 185.177 118.448 185.646 119.219 185.938C119.99 186.208 120.885 186.344 121.906 186.344C123.448 186.344 124.833 186.073 126.062 185.531C127.312 184.969 128.375 184.208 129.25 183.25L132.75 188.562C132.146 189.354 131.312 190.146 130.25 190.938C129.188 191.729 127.917 192.375 126.438 192.875C124.958 193.375 123.25 193.625 121.312 193.625ZM153.219 185.219V169.594C153.219 168.573 153.094 167.76 152.844 167.156C152.615 166.552 152.26 166.115 151.781 165.844C151.323 165.552 150.76 165.406 150.094 165.406C149.344 165.406 148.719 165.562 148.219 165.875C147.719 166.188 147.344 166.635 147.094 167.219C146.865 167.802 146.75 168.5 146.75 169.312H137.969C137.969 167.854 138.25 166.479 138.812 165.188C139.375 163.875 140.198 162.729 141.281 161.75C142.385 160.75 143.698 159.969 145.219 159.406C146.74 158.844 148.448 158.562 150.344 158.562C152.594 158.562 154.594 158.948 156.344 159.719C158.094 160.469 159.479 161.667 160.5 163.312C161.521 164.958 162.031 167.094 162.031 169.719V184.781C162.031 186.677 162.125 188.219 162.312 189.406C162.521 190.594 162.823 191.615 163.219 192.469V193H154.406C154.01 192.062 153.708 190.896 153.5 189.5C153.312 188.083 153.219 186.656 153.219 185.219ZM154.281 172.344L154.312 177.594H151.094C150.26 177.594 149.531 177.729 148.906 178C148.302 178.271 147.792 178.656 147.375 179.156C146.958 179.635 146.646 180.198 146.438 180.844C146.25 181.49 146.156 182.177 146.156 182.906C146.156 183.719 146.271 184.406 146.5 184.969C146.729 185.531 147.073 185.958 147.531 186.25C147.99 186.542 148.531 186.688 149.156 186.688C150.115 186.688 150.948 186.49 151.656 186.094C152.365 185.698 152.885 185.219 153.219 184.656C153.573 184.094 153.688 183.573 153.562 183.094L155.562 186.5C155.312 187.271 154.969 188.073 154.531 188.906C154.115 189.74 153.583 190.51 152.938 191.219C152.292 191.927 151.49 192.51 150.531 192.969C149.594 193.406 148.479 193.625 147.188 193.625C145.375 193.625 143.719 193.208 142.219 192.375C140.719 191.542 139.531 190.375 138.656 188.875C137.802 187.375 137.375 185.594 137.375 183.531C137.375 181.823 137.646 180.281 138.188 178.906C138.75 177.51 139.583 176.333 140.688 175.375C141.792 174.396 143.188 173.646 144.875 173.125C146.562 172.604 148.542 172.344 150.812 172.344H154.281ZM180.719 186.344C181.531 186.344 182.229 186.177 182.812 185.844C183.417 185.51 183.875 184.969 184.188 184.219C184.5 183.469 184.667 182.5 184.688 181.312H192.906C192.906 183.854 192.365 186.052 191.281 187.906C190.219 189.74 188.781 191.156 186.969 192.156C185.177 193.135 183.146 193.625 180.875 193.625C178.604 193.625 176.625 193.26 174.938 192.531C173.25 191.802 171.854 190.74 170.75 189.344C169.667 187.948 168.844 186.25 168.281 184.25C167.74 182.229 167.469 179.917 167.469 177.312V174.844C167.469 172.281 167.74 169.99 168.281 167.969C168.844 165.948 169.667 164.24 170.75 162.844C171.854 161.448 173.24 160.385 174.906 159.656C176.594 158.927 178.573 158.562 180.844 158.562C183.281 158.562 185.396 159.073 187.188 160.094C188.979 161.094 190.375 162.573 191.375 164.531C192.396 166.49 192.906 168.906 192.906 171.781H184.688C184.667 170.49 184.51 169.417 184.219 168.562C183.948 167.688 183.521 167.021 182.938 166.562C182.375 166.083 181.625 165.844 180.688 165.844C179.708 165.844 178.917 166.052 178.312 166.469C177.729 166.865 177.281 167.448 176.969 168.219C176.677 168.969 176.479 169.906 176.375 171.031C176.271 172.156 176.219 173.427 176.219 174.844V177.312C176.219 178.833 176.26 180.156 176.344 181.281C176.448 182.385 176.646 183.323 176.938 184.094C177.25 184.844 177.698 185.406 178.281 185.781C178.885 186.156 179.698 186.344 180.719 186.344ZM212.688 159.188V165.781H195.438V159.188H212.688ZM199.406 150.844H208.125V182.688C208.125 183.625 208.219 184.344 208.406 184.844C208.594 185.344 208.875 185.698 209.25 185.906C209.646 186.094 210.167 186.188 210.812 186.188C211.25 186.188 211.656 186.167 212.031 186.125C212.406 186.062 212.688 186 212.875 185.938V192.781C212.188 193.052 211.458 193.26 210.688 193.406C209.938 193.552 209.042 193.625 208 193.625C206.25 193.625 204.729 193.292 203.438 192.625C202.167 191.958 201.177 190.896 200.469 189.438C199.76 187.958 199.406 186.021 199.406 183.625V150.844ZM233.312 169.844V177.125H218.094V169.844H233.312ZM255.594 185.219V169.594C255.594 168.573 255.469 167.76 255.219 167.156C254.99 166.552 254.635 166.115 254.156 165.844C253.698 165.552 253.135 165.406 252.469 165.406C251.719 165.406 251.094 165.562 250.594 165.875C250.094 166.188 249.719 166.635 249.469 167.219C249.24 167.802 249.125 168.5 249.125 169.312H240.344C240.344 167.854 240.625 166.479 241.188 165.188C241.75 163.875 242.573 162.729 243.656 161.75C244.76 160.75 246.073 159.969 247.594 159.406C249.115 158.844 250.823 158.562 252.719 158.562C254.969 158.562 256.969 158.948 258.719 159.719C260.469 160.469 261.854 161.667 262.875 163.312C263.896 164.958 264.406 167.094 264.406 169.719V184.781C264.406 186.677 264.5 188.219 264.688 189.406C264.896 190.594 265.198 191.615 265.594 192.469V193H256.781C256.385 192.062 256.083 190.896 255.875 189.5C255.688 188.083 255.594 186.656 255.594 185.219ZM256.656 172.344L256.688 177.594H253.469C252.635 177.594 251.906 177.729 251.281 178C250.677 178.271 250.167 178.656 249.75 179.156C249.333 179.635 249.021 180.198 248.812 180.844C248.625 181.49 248.531 182.177 248.531 182.906C248.531 183.719 248.646 184.406 248.875 184.969C249.104 185.531 249.448 185.958 249.906 186.25C250.365 186.542 250.906 186.688 251.531 186.688C252.49 186.688 253.323 186.49 254.031 186.094C254.74 185.698 255.26 185.219 255.594 184.656C255.948 184.094 256.062 183.573 255.938 183.094L257.938 186.5C257.688 187.271 257.344 188.073 256.906 188.906C256.49 189.74 255.958 190.51 255.312 191.219C254.667 191.927 253.865 192.51 252.906 192.969C251.969 193.406 250.854 193.625 249.562 193.625C247.75 193.625 246.094 193.208 244.594 192.375C243.094 191.542 241.906 190.375 241.031 188.875C240.177 187.375 239.75 185.594 239.75 183.531C239.75 181.823 240.021 180.281 240.562 178.906C241.125 177.51 241.958 176.333 243.062 175.375C244.167 174.396 245.562 173.646 247.25 173.125C248.938 172.604 250.917 172.344 253.188 172.344H256.656ZM279.625 165.688V206H270.906V159.188H278.969L279.625 165.688ZM297.188 174.938V177.188C297.188 179.833 296.958 182.177 296.5 184.219C296.042 186.24 295.354 187.958 294.438 189.375C293.542 190.771 292.417 191.833 291.062 192.562C289.708 193.271 288.125 193.625 286.312 193.625C284.625 193.625 283.167 193.229 281.938 192.438C280.729 191.625 279.708 190.51 278.875 189.094C278.042 187.677 277.375 186.021 276.875 184.125C276.375 182.229 275.99 180.198 275.719 178.031V174.531C275.969 172.219 276.333 170.094 276.812 168.156C277.292 166.198 277.948 164.5 278.781 163.062C279.635 161.625 280.667 160.521 281.875 159.75C283.104 158.958 284.562 158.562 286.25 158.562C288.083 158.562 289.677 158.896 291.031 159.562C292.406 160.229 293.542 161.24 294.438 162.594C295.354 163.927 296.042 165.625 296.5 167.688C296.958 169.75 297.188 172.167 297.188 174.938ZM288.438 177.188V174.938C288.438 173.312 288.344 171.927 288.156 170.781C287.99 169.635 287.719 168.698 287.344 167.969C286.969 167.24 286.479 166.708 285.875 166.375C285.271 166.042 284.531 165.875 283.656 165.875C282.802 165.875 282.052 166.042 281.406 166.375C280.781 166.708 280.271 167.198 279.875 167.844C279.479 168.469 279.177 169.24 278.969 170.156C278.76 171.052 278.646 172.073 278.625 173.219V179.344C278.667 180.698 278.844 181.896 279.156 182.938C279.49 183.979 280.021 184.812 280.75 185.438C281.479 186.042 282.469 186.344 283.719 186.344C284.615 186.344 285.354 186.156 285.938 185.781C286.542 185.406 287.031 184.844 287.406 184.094C287.781 183.344 288.042 182.396 288.188 181.25C288.354 180.104 288.438 178.75 288.438 177.188ZM311.312 165.688V206H302.594V159.188H310.656L311.312 165.688ZM328.875 174.938V177.188C328.875 179.833 328.646 182.177 328.188 184.219C327.729 186.24 327.042 187.958 326.125 189.375C325.229 190.771 324.104 191.833 322.75 192.562C321.396 193.271 319.812 193.625 318 193.625C316.312 193.625 314.854 193.229 313.625 192.438C312.417 191.625 311.396 190.51 310.562 189.094C309.729 187.677 309.062 186.021 308.562 184.125C308.062 182.229 307.677 180.198 307.406 178.031V174.531C307.656 172.219 308.021 170.094 308.5 168.156C308.979 166.198 309.635 164.5 310.469 163.062C311.323 161.625 312.354 160.521 313.562 159.75C314.792 158.958 316.25 158.562 317.938 158.562C319.771 158.562 321.365 158.896 322.719 159.562C324.094 160.229 325.229 161.24 326.125 162.594C327.042 163.927 327.729 165.625 328.188 167.688C328.646 169.75 328.875 172.167 328.875 174.938ZM320.125 177.188V174.938C320.125 173.312 320.031 171.927 319.844 170.781C319.677 169.635 319.406 168.698 319.031 167.969C318.656 167.24 318.167 166.708 317.562 166.375C316.958 166.042 316.219 165.875 315.344 165.875C314.49 165.875 313.74 166.042 313.094 166.375C312.469 166.708 311.958 167.198 311.562 167.844C311.167 168.469 310.865 169.24 310.656 170.156C310.448 171.052 310.333 172.073 310.312 173.219V179.344C310.354 180.698 310.531 181.896 310.844 182.938C311.177 183.979 311.708 184.812 312.438 185.438C313.167 186.042 314.156 186.344 315.406 186.344C316.302 186.344 317.042 186.156 317.625 185.781C318.229 185.406 318.719 184.844 319.094 184.094C319.469 183.344 319.729 182.396 319.875 181.25C320.042 180.104 320.125 178.75 320.125 177.188ZM113.062 229.188V235.781H95.8125V229.188H113.062ZM99.7812 220.844H108.5V252.688C108.5 253.625 108.594 254.344 108.781 254.844C108.969 255.344 109.25 255.698 109.625 255.906C110.021 256.094 110.542 256.188 111.188 256.188C111.625 256.188 112.031 256.167 112.406 256.125C112.781 256.062 113.062 256 113.25 255.938V262.781C112.562 263.052 111.833 263.26 111.062 263.406C110.312 263.552 109.417 263.625 108.375 263.625C106.625 263.625 105.104 263.292 103.812 262.625C102.542 261.958 101.552 260.896 100.844 259.438C100.135 257.958 99.7812 256.021 99.7812 253.625V220.844ZM116 247.25V244.969C116 242.323 116.312 239.979 116.938 237.938C117.583 235.896 118.5 234.188 119.688 232.812C120.875 231.417 122.302 230.365 123.969 229.656C125.656 228.927 127.542 228.562 129.625 228.562C131.729 228.562 133.615 228.927 135.281 229.656C136.969 230.365 138.406 231.417 139.594 232.812C140.802 234.188 141.729 235.896 142.375 237.938C143.021 239.979 143.344 242.323 143.344 244.969V247.25C143.344 249.875 143.021 252.208 142.375 254.25C141.729 256.292 140.802 258.01 139.594 259.406C138.406 260.802 136.979 261.854 135.312 262.562C133.646 263.271 131.771 263.625 129.688 263.625C127.604 263.625 125.719 263.271 124.031 262.562C122.365 261.854 120.927 260.802 119.719 259.406C118.51 258.01 117.583 256.292 116.938 254.25C116.312 252.208 116 249.875 116 247.25ZM124.75 244.969V247.25C124.75 248.812 124.854 250.167 125.062 251.312C125.292 252.458 125.615 253.406 126.031 254.156C126.469 254.906 126.99 255.458 127.594 255.812C128.198 256.167 128.896 256.344 129.688 256.344C130.479 256.344 131.188 256.167 131.812 255.812C132.438 255.458 132.948 254.906 133.344 254.156C133.76 253.406 134.062 252.458 134.25 251.312C134.458 250.167 134.562 248.812 134.562 247.25V244.969C134.562 243.448 134.448 242.115 134.219 240.969C133.99 239.802 133.667 238.854 133.25 238.125C132.833 237.375 132.312 236.812 131.688 236.438C131.083 236.042 130.396 235.844 129.625 235.844C128.854 235.844 128.167 236.042 127.562 236.438C126.979 236.812 126.469 237.375 126.031 238.125C125.615 238.854 125.292 239.802 125.062 240.969C124.854 242.115 124.75 243.448 124.75 244.969ZM165.25 255.531V215H174.031V263L166.094 263.031L165.25 255.531ZM147.719 247.281V245.031C147.719 242.281 147.948 239.875 148.406 237.812C148.885 235.75 149.594 234.031 150.531 232.656C151.469 231.281 152.615 230.26 153.969 229.594C155.344 228.906 156.917 228.562 158.688 228.562C160.292 228.562 161.698 228.969 162.906 229.781C164.135 230.573 165.177 231.688 166.031 233.125C166.885 234.562 167.573 236.26 168.094 238.219C168.615 240.177 168.979 242.323 169.188 244.656V247.906C168.938 250.115 168.552 252.177 168.031 254.094C167.531 256.01 166.844 257.677 165.969 259.094C165.115 260.51 164.083 261.625 162.875 262.438C161.667 263.229 160.26 263.625 158.656 263.625C156.885 263.625 155.312 263.271 153.938 262.562C152.583 261.854 151.438 260.812 150.5 259.438C149.583 258.042 148.885 256.333 148.406 254.312C147.948 252.271 147.719 249.927 147.719 247.281ZM156.469 245.031V247.281C156.469 248.865 156.542 250.229 156.688 251.375C156.854 252.5 157.115 253.427 157.469 254.156C157.844 254.865 158.333 255.396 158.938 255.75C159.542 256.083 160.292 256.25 161.188 256.25C162.354 256.25 163.302 255.958 164.031 255.375C164.76 254.771 165.302 253.948 165.656 252.906C166.031 251.844 166.24 250.625 166.281 249.25V243.344C166.24 242.198 166.104 241.167 165.875 240.25C165.646 239.333 165.323 238.552 164.906 237.906C164.49 237.26 163.969 236.76 163.344 236.406C162.74 236.052 162.031 235.875 161.219 235.875C160.344 235.875 159.594 236.052 158.969 236.406C158.365 236.76 157.885 237.312 157.531 238.062C157.177 238.792 156.906 239.74 156.719 240.906C156.552 242.052 156.469 243.427 156.469 245.031ZM179.625 247.25V244.969C179.625 242.323 179.938 239.979 180.562 237.938C181.208 235.896 182.125 234.188 183.312 232.812C184.5 231.417 185.927 230.365 187.594 229.656C189.281 228.927 191.167 228.562 193.25 228.562C195.354 228.562 197.24 228.927 198.906 229.656C200.594 230.365 202.031 231.417 203.219 232.812C204.427 234.188 205.354 235.896 206 237.938C206.646 239.979 206.969 242.323 206.969 244.969V247.25C206.969 249.875 206.646 252.208 206 254.25C205.354 256.292 204.427 258.01 203.219 259.406C202.031 260.802 200.604 261.854 198.938 262.562C197.271 263.271 195.396 263.625 193.312 263.625C191.229 263.625 189.344 263.271 187.656 262.562C185.99 261.854 184.552 260.802 183.344 259.406C182.135 258.01 181.208 256.292 180.562 254.25C179.938 252.208 179.625 249.875 179.625 247.25ZM188.375 244.969V247.25C188.375 248.812 188.479 250.167 188.688 251.312C188.917 252.458 189.24 253.406 189.656 254.156C190.094 254.906 190.615 255.458 191.219 255.812C191.823 256.167 192.521 256.344 193.312 256.344C194.104 256.344 194.812 256.167 195.438 255.812C196.062 255.458 196.573 254.906 196.969 254.156C197.385 253.406 197.688 252.458 197.875 251.312C198.083 250.167 198.188 248.812 198.188 247.25V244.969C198.188 243.448 198.073 242.115 197.844 240.969C197.615 239.802 197.292 238.854 196.875 238.125C196.458 237.375 195.938 236.812 195.312 236.438C194.708 236.042 194.021 235.844 193.25 235.844C192.479 235.844 191.792 236.042 191.188 236.438C190.604 236.812 190.094 237.375 189.656 238.125C189.24 238.854 188.917 239.802 188.688 240.969C188.479 242.115 188.375 243.448 188.375 244.969ZM236.438 215V263H227.656V215H236.438ZM252.562 229.188V263H243.781V229.188H252.562ZM243.375 220.438C243.375 219.083 243.802 217.969 244.656 217.094C245.531 216.198 246.698 215.75 248.156 215.75C249.635 215.75 250.802 216.198 251.656 217.094C252.51 217.969 252.938 219.083 252.938 220.438C252.938 221.771 252.5 222.885 251.625 223.781C250.771 224.656 249.625 225.094 248.188 225.094C246.708 225.094 245.531 224.656 244.656 223.781C243.802 222.885 243.375 221.771 243.375 220.438ZM274.5 253.875C274.5 253.292 274.302 252.771 273.906 252.312C273.51 251.854 272.885 251.385 272.031 250.906C271.177 250.406 270.042 249.854 268.625 249.25C267.083 248.625 265.719 247.979 264.531 247.312C263.344 246.646 262.333 245.906 261.5 245.094C260.688 244.281 260.073 243.354 259.656 242.312C259.24 241.271 259.031 240.083 259.031 238.75C259.031 237.312 259.292 235.99 259.812 234.781C260.354 233.552 261.125 232.479 262.125 231.562C263.125 230.625 264.344 229.896 265.781 229.375C267.24 228.833 268.875 228.562 270.688 228.562C273.229 228.562 275.406 229.01 277.219 229.906C279.052 230.781 280.458 232.01 281.438 233.594C282.417 235.177 282.906 237.021 282.906 239.125H274.156C274.156 238.375 274.042 237.708 273.812 237.125C273.583 236.521 273.208 236.052 272.688 235.719C272.188 235.385 271.51 235.219 270.656 235.219C270.031 235.219 269.469 235.354 268.969 235.625C268.49 235.896 268.104 236.26 267.812 236.719C267.542 237.156 267.406 237.677 267.406 238.281C267.406 238.74 267.5 239.146 267.688 239.5C267.896 239.854 268.219 240.198 268.656 240.531C269.094 240.865 269.677 241.219 270.406 241.594C271.156 241.948 272.073 242.344 273.156 242.781C275.406 243.615 277.25 244.51 278.688 245.469C280.146 246.427 281.229 247.552 281.938 248.844C282.646 250.115 283 251.688 283 253.562C283 255.062 282.708 256.427 282.125 257.656C281.562 258.885 280.74 259.948 279.656 260.844C278.573 261.74 277.271 262.427 275.75 262.906C274.25 263.385 272.573 263.625 270.719 263.625C267.99 263.625 265.688 263.083 263.812 262C261.938 260.917 260.521 259.531 259.562 257.844C258.604 256.135 258.125 254.365 258.125 252.531H266.438C266.479 253.656 266.688 254.542 267.062 255.188C267.458 255.812 267.99 256.25 268.656 256.5C269.323 256.75 270.062 256.875 270.875 256.875C271.688 256.875 272.354 256.771 272.875 256.562C273.417 256.333 273.823 255.99 274.094 255.531C274.365 255.052 274.5 254.5 274.5 253.875ZM303.312 229.188V235.781H286.062V229.188H303.312ZM290.031 220.844H298.75V252.688C298.75 253.625 298.844 254.344 299.031 254.844C299.219 255.344 299.5 255.698 299.875 255.906C300.271 256.094 300.792 256.188 301.438 256.188C301.875 256.188 302.281 256.167 302.656 256.125C303.031 256.062 303.312 256 303.5 255.938V262.781C302.812 263.052 302.083 263.26 301.312 263.406C300.562 263.552 299.667 263.625 298.625 263.625C296.875 263.625 295.354 263.292 294.062 262.625C292.792 261.958 291.802 260.896 291.094 259.438C290.385 257.958 290.031 256.021 290.031 253.625V220.844Z" fill="url(#paint0_linear_13_48)"/>
<path d="M228.998 51.9536C228.064 51.6323 227.097 51.3282 226.101 51.0406C226.265 50.3725 226.415 49.7129 226.548 49.0646C228.742 38.4189 227.308 29.8427 222.411 27.019C217.716 24.3115 210.038 27.1345 202.283 33.8834C201.537 34.5323 200.789 35.2194 200.042 35.9395C199.544 35.4631 199.046 35.0027 198.55 34.5623C190.423 27.346 182.277 24.3049 177.385 27.1367C172.694 29.8521 171.305 37.9146 173.279 48.0036C173.47 48.9781 173.693 49.9732 173.945 50.9851C172.792 51.3123 171.679 51.6613 170.614 52.0324C161.085 55.3545 155 60.5609 155 65.9614C155 71.539 161.533 77.1335 171.457 80.5257C172.24 80.7934 173.053 81.0465 173.891 81.2868C173.619 82.3811 173.382 83.4535 173.184 84.4994C171.302 94.4133 172.771 102.285 177.45 104.984C182.282 107.77 190.391 104.906 198.288 98.0032C198.912 97.4576 199.538 96.879 200.166 96.2725C200.979 97.0557 201.791 97.7969 202.599 98.4922C210.248 105.074 217.802 107.732 222.476 105.026C227.303 102.232 228.872 93.7754 226.836 83.4868C226.68 82.7011 226.499 81.8983 226.296 81.0813C226.865 80.9129 227.424 80.7391 227.969 80.5584C238.287 77.1399 245 71.6135 245 65.9614C245 60.5414 238.718 55.2999 228.998 51.9536ZM226.76 76.9089C226.268 77.0718 225.763 77.2293 225.249 77.382C224.11 73.7761 222.572 69.9417 220.691 65.9801C222.486 62.1129 223.964 58.3276 225.071 54.7451C225.992 55.0115 226.886 55.2925 227.747 55.589C236.075 58.4561 241.155 62.6951 241.155 65.9614C241.155 69.4406 235.669 73.9571 226.76 76.9089ZM223.064 84.2335C223.964 88.783 224.093 92.8963 223.497 96.1118C222.96 99.0011 221.883 100.928 220.55 101.699C217.713 103.341 211.648 101.207 205.106 95.5777C204.357 94.9324 203.601 94.2434 202.844 93.5142C205.379 90.7406 207.914 87.5163 210.388 83.9354C214.738 83.5493 218.849 82.9181 222.577 82.0564C222.76 82.797 222.923 83.5234 223.064 84.2335ZM185.683 101.415C182.912 102.394 180.705 102.422 179.371 101.653C176.532 100.015 175.352 93.6949 176.961 85.2165C177.146 84.2455 177.365 83.2481 177.618 82.2286C181.305 83.0439 185.386 83.6305 189.747 83.9841C192.237 87.4881 194.845 90.7089 197.473 93.529C196.899 94.0833 196.327 94.611 195.758 95.1083C192.266 98.1606 188.767 100.326 185.683 101.415ZM172.701 76.8876C168.312 75.3877 164.688 73.4382 162.204 71.3109C159.972 69.3993 158.845 67.5014 158.845 65.9614C158.845 62.6842 163.731 58.5041 171.879 55.663C172.868 55.3183 173.903 54.9934 174.977 54.6882C176.103 58.3516 177.581 62.1818 179.364 66.055C177.558 69.9856 176.059 73.8768 174.922 77.5832C174.156 77.3631 173.415 77.1314 172.701 76.8876ZM177.052 47.2652C175.361 38.6212 176.484 32.1005 179.311 30.4642C182.322 28.7211 188.98 31.2064 195.997 37.4374C196.446 37.8356 196.896 38.2525 197.348 38.6837C194.733 41.4915 192.149 44.6881 189.681 48.1715C185.448 48.5638 181.396 49.194 177.671 50.038C177.437 49.0958 177.23 48.1702 177.052 47.2652ZM215.874 56.8514C214.984 55.3131 214.07 53.8113 213.138 52.3504C216.009 52.7134 218.76 53.1953 221.344 53.785C220.568 56.271 219.602 58.8702 218.464 61.5348C217.647 59.9849 216.784 58.4221 215.874 56.8514ZM200.043 41.4314C201.816 43.3527 203.592 45.4978 205.339 47.8251C203.579 47.742 201.797 47.6987 200 47.6987C198.22 47.6987 196.451 47.741 194.702 47.8227C196.45 45.517 198.242 43.3748 200.043 41.4314ZM184.11 56.878C183.22 58.4205 182.373 59.9748 181.569 61.5319C180.45 58.8766 179.492 56.2655 178.71 53.7443C181.277 53.1697 184.016 52.6998 186.869 52.3437C185.924 53.818 185.002 55.3309 184.11 56.8776V56.878ZM186.951 79.8534C184.003 79.5245 181.224 79.0788 178.657 78.52C179.451 75.9538 180.43 73.287 181.574 70.5745C182.379 72.1305 183.23 73.6854 184.125 75.2313H184.125C185.037 76.8062 185.982 78.3489 186.951 79.8534ZM200.149 90.7624C198.327 88.7963 196.509 86.6214 194.734 84.2821C196.458 84.3497 198.214 84.3843 200 84.3843C201.834 84.3843 203.648 84.3429 205.433 84.2635C203.68 86.645 201.911 88.8232 200.149 90.7624ZM218.5 70.4362C219.703 73.178 220.717 75.8309 221.522 78.3534C218.913 78.9487 216.095 79.4282 213.127 79.7845C214.061 78.3039 214.984 76.7763 215.89 75.2049C216.807 73.6151 217.677 72.0228 218.5 70.4362ZM212.559 73.2841C211.153 75.7234 209.708 78.0521 208.242 80.2502C205.571 80.4411 202.812 80.5395 200 80.5395C197.199 80.5395 194.475 80.4525 191.851 80.2822C190.326 78.0553 188.85 75.7198 187.452 73.3051H187.453C186.059 70.897 184.775 68.4685 183.613 66.0537C184.775 63.6332 186.055 61.2021 187.441 58.7983L187.441 58.7988C188.831 56.3886 190.293 54.0644 191.805 51.8514C194.481 51.6491 197.226 51.5435 200 51.5435H200C202.786 51.5435 205.535 51.6499 208.21 51.854C209.699 54.0508 211.151 56.3674 212.547 58.7779C213.958 61.2155 215.254 63.6305 216.427 65.999C215.258 68.4083 213.964 70.8476 212.559 73.2841ZM220.491 30.3499C223.505 32.0879 224.677 39.0972 222.783 48.2886C222.662 48.8751 222.526 49.4725 222.378 50.0779C218.645 49.2163 214.59 48.5752 210.345 48.1769C207.872 44.6553 205.309 41.4537 202.737 38.682C203.428 38.0166 204.119 37.3823 204.807 36.7836C211.451 31.0012 217.661 28.7182 220.491 30.3499ZM200 57.9247C204.438 57.9247 208.037 61.5228 208.037 65.9614C208.037 70.3999 204.438 73.9981 200 73.9981C195.562 73.9981 191.963 70.3999 191.963 65.9614C191.963 61.5228 195.562 57.9247 200 57.9247Z" fill="url(#paint1_linear_13_48)"/>
<defs>
<linearGradient id="paint0_linear_13_48" x1="200" y1="73.5" x2="125.793" y2="299.09" gradientUnits="userSpaceOnUse">
<stop stop-color="#231557"/>
<stop offset="0.285953" stop-color="#44107A"/>
<stop offset="0.668208" stop-color="#FF1361"/>
<stop offset="1" stop-color="#FFF800"/>
</linearGradient>
<linearGradient id="paint1_linear_13_48" x1="200" y1="26" x2="200" y2="106.074" gradientUnits="userSpaceOnUse">
<stop stop-color="#C225A9"/>
<stop offset="1" stop-color="#257BC2" stop-opacity="0"/>
</linearGradient>
</defs>
</svg>
