<svg width="400" height="429" viewBox="0 0 400 429" fill="none" xmlns="http://www.w3.org/2000/svg">
<rect width="400" height="428.986" fill="white"/>
<path d="M22.6688 352L24.7808 336.832H21.3568L21.6128 335.008H25.0368L25.2608 333.44C25.4528 332.203 25.8474 331.168 26.4448 330.336C27.0421 329.483 27.7674 328.843 28.6208 328.416C29.4741 327.989 30.3701 327.776 31.3088 327.776C31.6074 327.776 31.8741 327.787 32.1088 327.808C32.3648 327.829 32.5888 327.861 32.7808 327.904L32.6848 329.664C32.5141 329.621 32.3114 329.6 32.0768 329.6C31.8634 329.579 31.7034 329.568 31.5968 329.568C30.4448 329.568 29.4741 329.888 28.6848 330.528C27.8954 331.168 27.3941 332.181 27.1808 333.568L26.9888 335.008H36.8128L36.5568 336.832H26.7328L24.6208 352H22.6688ZM33.7408 352L37.1328 327.776H39.0848L35.6928 352H33.7408ZM49.4833 352.384C47.9473 352.384 46.5713 352.021 45.3553 351.296C44.1606 350.571 43.2219 349.589 42.5393 348.352C41.8566 347.093 41.5153 345.675 41.5153 344.096C41.5153 342.816 41.7286 341.611 42.1553 340.48C42.6033 339.328 43.2219 338.315 44.0113 337.44C44.8219 336.565 45.7606 335.883 46.8273 335.392C47.8939 334.88 49.0566 334.624 50.3153 334.624C51.8086 334.624 53.0993 334.965 54.1873 335.648C55.2753 336.331 56.1179 337.248 56.7153 338.4C57.3126 339.531 57.6112 340.779 57.6112 342.144C57.6112 342.464 57.5793 342.805 57.5153 343.168C57.4726 343.531 57.4299 343.84 57.3873 344.096H42.6353L42.7633 342.336H56.3953L55.4993 342.976C55.7339 341.739 55.6486 340.629 55.2433 339.648C54.8379 338.645 54.1979 337.856 53.3233 337.28C52.4699 336.704 51.4673 336.416 50.3153 336.416C48.9286 336.416 47.7233 336.768 46.6993 337.472C45.6753 338.176 44.8753 339.136 44.2993 340.352C43.7446 341.568 43.4673 342.923 43.4673 344.416C43.4673 345.632 43.7339 346.709 44.2673 347.648C44.8006 348.565 45.5153 349.291 46.4113 349.824C47.3286 350.336 48.3526 350.592 49.4833 350.592C50.7206 350.592 51.8193 350.293 52.7793 349.696C53.7606 349.099 54.5713 348.309 55.2113 347.328L56.8113 348.256C56.3633 349.045 55.7659 349.76 55.0193 350.4C54.2939 351.019 53.4513 351.509 52.4913 351.872C51.5526 352.213 50.5499 352.384 49.4833 352.384ZM58.4842 352L65.7483 343.424L61.0443 335.008H63.3483L67.7003 342.848L66.3563 342.72L72.7243 335.008H75.3162L68.1483 343.648L72.8203 352H70.4843L66.2283 344.192L67.5083 344.32L61.0443 352H58.4842ZM76.1283 352L78.5283 335.008H80.4483L78.0803 352H76.1283ZM78.9763 331.68L79.4563 328.16H81.4083L80.9283 331.68H78.9763ZM92.4983 352.384C90.9409 352.384 89.5329 351.989 88.2743 351.2C87.0156 350.411 86.1089 349.333 85.5543 347.968L85.9062 347.68L85.3303 352H83.3783L86.7703 327.776H88.7223L87.0903 339.296L86.4503 338.656C87.1756 337.419 88.1676 336.437 89.4263 335.712C90.6849 334.987 92.0823 334.624 93.6183 334.624C95.1756 334.624 96.5409 334.987 97.7143 335.712C98.8876 336.437 99.8049 337.419 100.466 338.656C101.128 339.872 101.458 341.259 101.458 342.816C101.458 344.117 101.224 345.355 100.754 346.528C100.306 347.68 99.6769 348.693 98.8663 349.568C98.0556 350.443 97.1063 351.136 96.0183 351.648C94.9303 352.139 93.7569 352.384 92.4983 352.384ZM92.4343 350.464C93.7996 350.464 94.9943 350.112 96.0183 349.408C97.0636 348.704 97.8849 347.776 98.4823 346.624C99.1009 345.472 99.4103 344.203 99.4103 342.816C99.4103 341.579 99.1543 340.491 98.6423 339.552C98.1303 338.613 97.4263 337.877 96.5303 337.344C95.6556 336.811 94.6316 336.544 93.4583 336.544C92.1356 336.544 90.9409 336.896 89.8743 337.6C88.8289 338.283 87.9969 339.2 87.3783 340.352C86.7809 341.483 86.4823 342.72 86.4823 344.064C86.4823 345.301 86.7383 346.4 87.2503 347.36C87.7836 348.32 88.4876 349.077 89.3623 349.632C90.2583 350.187 91.2823 350.464 92.4343 350.464ZM104.847 352L108.239 327.776H110.191L106.799 352H104.847ZM120.577 352.384C119.041 352.384 117.665 352.021 116.449 351.296C115.254 350.571 114.316 349.589 113.633 348.352C112.95 347.093 112.609 345.675 112.609 344.096C112.609 342.816 112.822 341.611 113.249 340.48C113.697 339.328 114.316 338.315 115.105 337.44C115.916 336.565 116.854 335.883 117.921 335.392C118.988 334.88 120.15 334.624 121.409 334.624C122.902 334.624 124.193 334.965 125.281 335.648C126.369 336.331 127.212 337.248 127.809 338.4C128.406 339.531 128.705 340.779 128.705 342.144C128.705 342.464 128.673 342.805 128.609 343.168C128.566 343.531 128.524 343.84 128.481 344.096H113.729L113.857 342.336H127.489L126.593 342.976C126.828 341.739 126.742 340.629 126.337 339.648C125.932 338.645 125.292 337.856 124.417 337.28C123.564 336.704 122.561 336.416 121.409 336.416C120.022 336.416 118.817 336.768 117.793 337.472C116.769 338.176 115.969 339.136 115.393 340.352C114.838 341.568 114.561 342.923 114.561 344.416C114.561 345.632 114.828 346.709 115.361 347.648C115.894 348.565 116.609 349.291 117.505 349.824C118.422 350.336 119.446 350.592 120.577 350.592C121.814 350.592 122.913 350.293 123.873 349.696C124.854 349.099 125.665 348.309 126.305 347.328L127.905 348.256C127.457 349.045 126.86 349.76 126.113 350.4C125.388 351.019 124.545 351.509 123.585 351.872C122.646 352.213 121.644 352.384 120.577 352.384ZM137.316 352L140.708 327.776H142.66L139.268 352H137.316ZM144.566 352L146.966 335.008H148.886L146.518 352H144.566ZM147.414 331.68L147.894 328.16H149.846L149.366 331.68H147.414ZM160.936 352.384C159.378 352.384 157.97 351.989 156.712 351.2C155.453 350.411 154.546 349.333 153.992 347.968L154.344 347.68L153.768 352H151.816L155.208 327.776H157.16L155.528 339.296L154.888 338.656C155.613 337.419 156.605 336.437 157.864 335.712C159.122 334.987 160.52 334.624 162.056 334.624C163.613 334.624 164.978 334.987 166.152 335.712C167.325 336.437 168.242 337.419 168.904 338.656C169.565 339.872 169.896 341.259 169.896 342.816C169.896 344.117 169.661 345.355 169.192 346.528C168.744 347.68 168.114 348.693 167.304 349.568C166.493 350.443 165.544 351.136 164.456 351.648C163.368 352.139 162.194 352.384 160.936 352.384ZM160.872 350.464C162.237 350.464 163.432 350.112 164.456 349.408C165.501 348.704 166.322 347.776 166.92 346.624C167.538 345.472 167.848 344.203 167.848 342.816C167.848 341.579 167.592 340.491 167.08 339.552C166.568 338.613 165.864 337.877 164.968 337.344C164.093 336.811 163.069 336.544 161.896 336.544C160.573 336.544 159.378 336.896 158.312 337.6C157.266 338.283 156.434 339.2 155.816 340.352C155.218 341.483 154.92 342.72 154.92 344.064C154.92 345.301 155.176 346.4 155.688 347.36C156.221 348.32 156.925 349.077 157.8 349.632C158.696 350.187 159.72 350.464 160.872 350.464ZM173.285 352L175.653 335.008H177.605L177.157 338.176L176.805 337.888C177.317 336.928 178.053 336.171 179.013 335.616C179.994 335.061 181.093 334.784 182.309 334.784H183.365L183.109 336.704H181.797C180.41 336.704 179.258 337.152 178.341 338.048C177.445 338.944 176.879 340.181 176.645 341.76L175.205 352H173.285ZM189.376 352.384C188.416 352.384 187.53 352.213 186.72 351.872C185.93 351.509 185.29 350.997 184.799 350.336C184.309 349.653 184.064 348.821 184.064 347.84C184.064 346.859 184.309 345.995 184.799 345.248C185.29 344.48 185.984 343.84 186.88 343.328C187.797 342.816 188.864 342.464 190.08 342.272L197.12 341.12L196.96 342.912L190.528 343.968C189.162 344.181 188.074 344.619 187.264 345.28C186.474 345.941 186.08 346.773 186.08 347.776C186.08 348.672 186.4 349.376 187.04 349.888C187.701 350.379 188.554 350.624 189.6 350.624C190.773 350.624 191.84 350.336 192.8 349.76C193.76 349.184 194.549 348.416 195.168 347.456C195.808 346.475 196.202 345.408 196.352 344.256L196.864 340.544C196.992 339.669 196.885 338.933 196.544 338.336C196.202 337.717 195.701 337.248 195.04 336.928C194.4 336.608 193.664 336.448 192.832 336.448C191.722 336.448 190.709 336.725 189.792 337.28C188.896 337.813 188.17 338.507 187.616 339.36L185.952 338.336C186.336 337.653 186.88 337.035 187.584 336.48C188.288 335.904 189.088 335.456 189.984 335.136C190.901 334.795 191.872 334.624 192.896 334.624C194.112 334.624 195.189 334.88 196.128 335.392C197.088 335.904 197.813 336.619 198.304 337.536C198.794 338.432 198.954 339.488 198.784 340.704L197.184 352H195.264L195.744 348.448L196.064 348.64C195.701 349.323 195.178 349.952 194.496 350.528C193.834 351.083 193.056 351.531 192.16 351.872C191.285 352.213 190.357 352.384 189.376 352.384ZM202.503 352L204.871 335.008H206.823L206.375 338.176L206.023 337.888C206.535 336.928 207.271 336.171 208.231 335.616C209.213 335.061 210.311 334.784 211.527 334.784H212.583L212.327 336.704H211.015C209.629 336.704 208.477 337.152 207.559 338.048C206.663 338.944 206.098 340.181 205.863 341.76L204.423 352H202.503ZM212.578 359.04C212.258 359.04 211.928 359.008 211.586 358.944C211.224 358.901 210.882 358.816 210.562 358.688L210.69 356.96C210.968 357.003 211.256 357.045 211.554 357.088C211.853 357.131 212.141 357.152 212.418 357.152C213.144 357.131 213.762 357.003 214.274 356.768C214.808 356.555 215.288 356.203 215.714 355.712C216.141 355.243 216.578 354.635 217.026 353.888L218.658 351.104L218.466 352.896L213.762 334.976H215.81L219.81 350.432H218.978L227.426 334.976H229.666L218.978 354.432C218.594 355.136 218.104 355.84 217.506 356.544C216.93 357.269 216.237 357.867 215.426 358.336C214.616 358.805 213.666 359.04 212.578 359.04ZM244.073 352.384C242.537 352.384 241.172 352.021 239.977 351.296C238.804 350.571 237.887 349.589 237.225 348.352C236.564 347.093 236.233 345.685 236.233 344.128C236.233 342.827 236.457 341.611 236.905 340.48C237.353 339.328 237.983 338.315 238.793 337.44C239.604 336.565 240.553 335.883 241.641 335.392C242.729 334.88 243.913 334.624 245.193 334.624C246.793 334.624 248.191 335.008 249.385 335.776C250.601 336.523 251.487 337.557 252.041 338.88L251.785 339.296L253.385 327.776H255.337L251.945 352H250.025L250.601 347.68L251.241 348.16C250.559 349.483 249.567 350.517 248.265 351.264C246.985 352.011 245.588 352.384 244.073 352.384ZM244.137 350.464C245.481 350.464 246.687 350.112 247.753 349.408C248.82 348.704 249.663 347.776 250.281 346.624C250.9 345.472 251.209 344.213 251.209 342.848C251.209 341.589 250.943 340.491 250.409 339.552C249.876 338.613 249.161 337.877 248.265 337.344C247.369 336.811 246.356 336.544 245.225 336.544C243.903 336.544 242.708 336.896 241.641 337.6C240.596 338.283 239.775 339.211 239.177 340.384C238.58 341.536 238.281 342.805 238.281 344.192C238.281 345.387 238.527 346.464 239.017 347.424C239.508 348.363 240.191 349.109 241.065 349.664C241.961 350.197 242.985 350.464 244.137 350.464ZM262.469 352.384C261.509 352.384 260.624 352.213 259.813 351.872C259.024 351.509 258.384 350.997 257.893 350.336C257.403 349.653 257.157 348.821 257.157 347.84C257.157 346.859 257.403 345.995 257.893 345.248C258.384 344.48 259.077 343.84 259.973 343.328C260.891 342.816 261.957 342.464 263.173 342.272L270.213 341.12L270.053 342.912L263.621 343.968C262.256 344.181 261.168 344.619 260.357 345.28C259.568 345.941 259.173 346.773 259.173 347.776C259.173 348.672 259.493 349.376 260.133 349.888C260.795 350.379 261.648 350.624 262.693 350.624C263.867 350.624 264.933 350.336 265.893 349.76C266.853 349.184 267.643 348.416 268.261 347.456C268.901 346.475 269.296 345.408 269.445 344.256L269.957 340.544C270.085 339.669 269.979 338.933 269.637 338.336C269.296 337.717 268.795 337.248 268.133 336.928C267.493 336.608 266.757 336.448 265.925 336.448C264.816 336.448 263.803 336.725 262.885 337.28C261.989 337.813 261.264 338.507 260.709 339.36L259.045 338.336C259.429 337.653 259.973 337.035 260.677 336.48C261.381 335.904 262.181 335.456 263.077 335.136C263.995 334.795 264.965 334.624 265.989 334.624C267.205 334.624 268.283 334.88 269.221 335.392C270.181 335.904 270.907 336.619 271.397 337.536C271.888 338.432 272.048 339.488 271.877 340.704L270.277 352H268.357L268.837 348.448L269.157 348.64C268.795 349.323 268.272 349.952 267.589 350.528C266.928 351.083 266.149 351.531 265.253 351.872C264.379 352.213 263.451 352.384 262.469 352.384ZM281.244 352.192C279.793 352.192 278.727 351.787 278.044 350.976C277.383 350.144 277.159 348.96 277.372 347.424L278.844 336.832H275.644L275.932 335.008H277.052C277.692 335.008 278.215 334.805 278.62 334.4C279.047 333.995 279.303 333.461 279.388 332.8L279.644 331.04H281.596L281.052 335.008H284.732L284.476 336.832H280.796L279.292 347.552C279.228 348.021 279.228 348.48 279.292 348.928C279.356 349.355 279.559 349.707 279.9 349.984C280.241 350.24 280.785 350.368 281.532 350.368C281.745 350.368 281.969 350.357 282.204 350.336C282.46 350.315 282.663 350.293 282.812 350.272L282.684 352.064C282.449 352.128 282.183 352.16 281.884 352.16C281.607 352.181 281.393 352.192 281.244 352.192ZM292.032 352.384C291.072 352.384 290.186 352.213 289.376 351.872C288.586 351.509 287.946 350.997 287.456 350.336C286.965 349.653 286.72 348.821 286.72 347.84C286.72 346.859 286.965 345.995 287.456 345.248C287.946 344.48 288.64 343.84 289.536 343.328C290.453 342.816 291.52 342.464 292.736 342.272L299.776 341.12L299.616 342.912L293.184 343.968C291.818 344.181 290.73 344.619 289.92 345.28C289.13 345.941 288.736 346.773 288.736 347.776C288.736 348.672 289.056 349.376 289.696 349.888C290.357 350.379 291.21 350.624 292.256 350.624C293.429 350.624 294.496 350.336 295.456 349.76C296.416 349.184 297.205 348.416 297.824 347.456C298.464 346.475 298.858 345.408 299.008 344.256L299.52 340.544C299.648 339.669 299.541 338.933 299.2 338.336C298.858 337.717 298.357 337.248 297.696 336.928C297.056 336.608 296.32 336.448 295.488 336.448C294.378 336.448 293.365 336.725 292.448 337.28C291.552 337.813 290.826 338.507 290.272 339.36L288.608 338.336C288.992 337.653 289.536 337.035 290.24 336.48C290.944 335.904 291.744 335.456 292.64 335.136C293.557 334.795 294.528 334.624 295.552 334.624C296.768 334.624 297.845 334.88 298.784 335.392C299.744 335.904 300.469 336.619 300.96 337.536C301.45 338.432 301.61 339.488 301.44 340.704L299.84 352H297.92L298.4 348.448L298.72 348.64C298.357 349.323 297.834 349.952 297.152 350.528C296.49 351.083 295.712 351.531 294.816 351.872C293.941 352.213 293.013 352.384 292.032 352.384ZM314.28 352.384C312.722 352.384 311.314 351.989 310.056 351.2C308.797 350.411 307.89 349.333 307.336 347.968L307.688 347.68L307.112 352H305.16L308.552 327.776H310.504L308.872 339.296L308.232 338.656C308.957 337.419 309.949 336.437 311.208 335.712C312.466 334.987 313.864 334.624 315.4 334.624C316.957 334.624 318.322 334.987 319.496 335.712C320.669 336.437 321.586 337.419 322.248 338.656C322.909 339.872 323.24 341.259 323.24 342.816C323.24 344.117 323.005 345.355 322.536 346.528C322.088 347.68 321.458 348.693 320.648 349.568C319.837 350.443 318.888 351.136 317.8 351.648C316.712 352.139 315.538 352.384 314.28 352.384ZM314.216 350.464C315.581 350.464 316.776 350.112 317.8 349.408C318.845 348.704 319.666 347.776 320.264 346.624C320.882 345.472 321.192 344.203 321.192 342.816C321.192 341.579 320.936 340.491 320.424 339.552C319.912 338.613 319.208 337.877 318.312 337.344C317.437 336.811 316.413 336.544 315.24 336.544C313.917 336.544 312.722 336.896 311.656 337.6C310.61 338.283 309.778 339.2 309.16 340.352C308.562 341.483 308.264 342.72 308.264 344.064C308.264 345.301 308.52 346.4 309.032 347.36C309.565 348.32 310.269 349.077 311.144 349.632C312.04 350.187 313.064 350.464 314.216 350.464ZM331.844 352.384C330.884 352.384 329.999 352.213 329.188 351.872C328.399 351.509 327.759 350.997 327.268 350.336C326.778 349.653 326.532 348.821 326.532 347.84C326.532 346.859 326.778 345.995 327.268 345.248C327.759 344.48 328.452 343.84 329.348 343.328C330.266 342.816 331.332 342.464 332.548 342.272L339.588 341.12L339.428 342.912L332.996 343.968C331.631 344.181 330.543 344.619 329.732 345.28C328.943 345.941 328.548 346.773 328.548 347.776C328.548 348.672 328.868 349.376 329.508 349.888C330.17 350.379 331.023 350.624 332.068 350.624C333.242 350.624 334.308 350.336 335.268 349.76C336.228 349.184 337.018 348.416 337.636 347.456C338.276 346.475 338.671 345.408 338.82 344.256L339.332 340.544C339.46 339.669 339.354 338.933 339.012 338.336C338.671 337.717 338.17 337.248 337.508 336.928C336.868 336.608 336.132 336.448 335.3 336.448C334.191 336.448 333.178 336.725 332.26 337.28C331.364 337.813 330.639 338.507 330.084 339.36L328.42 338.336C328.804 337.653 329.348 337.035 330.052 336.48C330.756 335.904 331.556 335.456 332.452 335.136C333.37 334.795 334.34 334.624 335.364 334.624C336.58 334.624 337.658 334.88 338.596 335.392C339.556 335.904 340.282 336.619 340.772 337.536C341.263 338.432 341.423 339.488 341.252 340.704L339.652 352H337.732L338.212 348.448L338.532 348.64C338.17 349.323 337.647 349.952 336.964 350.528C336.303 351.083 335.524 351.531 334.628 351.872C333.754 352.213 332.826 352.384 331.844 352.384ZM351.052 352.384C350.007 352.384 349.036 352.203 348.14 351.84C347.244 351.456 346.476 350.933 345.836 350.272C345.217 349.589 344.759 348.8 344.46 347.904L346.188 347.232C346.593 348.299 347.223 349.131 348.076 349.728C348.951 350.304 349.964 350.592 351.116 350.592C352.332 350.592 353.324 350.283 354.092 349.664C354.86 349.045 355.244 348.267 355.244 347.328C355.244 346.688 355.031 346.155 354.604 345.728C354.177 345.28 353.516 344.939 352.62 344.704L350.028 343.968C348.748 343.605 347.788 343.072 347.148 342.368C346.508 341.664 346.188 340.8 346.188 339.776C346.188 338.816 346.444 337.952 346.956 337.184C347.489 336.395 348.193 335.776 349.068 335.328C349.964 334.859 350.967 334.624 352.076 334.624C353.527 334.624 354.796 334.997 355.884 335.744C356.972 336.491 357.676 337.483 357.996 338.72L356.236 339.392C355.895 338.432 355.361 337.696 354.636 337.184C353.911 336.651 353.047 336.384 352.044 336.384C350.935 336.384 350.007 336.693 349.26 337.312C348.535 337.909 348.172 338.656 348.172 339.552C348.172 340.171 348.364 340.693 348.748 341.12C349.132 341.525 349.729 341.845 350.54 342.08L353.292 342.88C354.465 343.2 355.415 343.723 356.14 344.448C356.887 345.173 357.26 346.123 357.26 347.296C357.26 348.256 356.983 349.12 356.428 349.888C355.895 350.656 355.159 351.264 354.22 351.712C353.281 352.16 352.225 352.384 351.052 352.384ZM369.546 352.384C368.01 352.384 366.634 352.021 365.418 351.296C364.223 350.571 363.284 349.589 362.602 348.352C361.919 347.093 361.578 345.675 361.578 344.096C361.578 342.816 361.791 341.611 362.218 340.48C362.666 339.328 363.284 338.315 364.074 337.44C364.884 336.565 365.823 335.883 366.89 335.392C367.956 334.88 369.119 334.624 370.378 334.624C371.871 334.624 373.162 334.965 374.25 335.648C375.338 336.331 376.18 337.248 376.778 338.4C377.375 339.531 377.674 340.779 377.674 342.144C377.674 342.464 377.642 342.805 377.578 343.168C377.535 343.531 377.492 343.84 377.45 344.096H362.698L362.826 342.336H376.458L375.562 342.976C375.796 341.739 375.711 340.629 375.306 339.648C374.9 338.645 374.26 337.856 373.386 337.28C372.532 336.704 371.53 336.416 370.378 336.416C368.991 336.416 367.786 336.768 366.762 337.472C365.738 338.176 364.938 339.136 364.362 340.352C363.807 341.568 363.53 342.923 363.53 344.416C363.53 345.632 363.796 346.709 364.33 347.648C364.863 348.565 365.578 349.291 366.474 349.824C367.391 350.336 368.415 350.592 369.546 350.592C370.783 350.592 371.882 350.293 372.842 349.696C373.823 349.099 374.634 348.309 375.274 347.328L376.874 348.256C376.426 349.045 375.828 349.76 375.082 350.4C374.356 351.019 373.514 351.509 372.554 351.872C371.615 352.213 370.612 352.384 369.546 352.384ZM115.48 392L112.056 375.008H114.136L117.048 390.4H116.216L123.032 375.008H124.984L127.448 390.4H126.552L133.816 375.008H136.056L127.832 392H125.848L123.512 377.152H124.088L117.464 392H115.48ZM136.863 392L139.263 375.008H141.183L138.815 392H136.863ZM139.711 371.68L140.191 368.16H142.143L141.663 371.68H139.711ZM150.385 392.192C148.934 392.192 147.867 391.787 147.185 390.976C146.523 390.144 146.299 388.96 146.513 387.424L147.985 376.832H144.785L145.073 375.008H146.193C146.833 375.008 147.355 374.805 147.761 374.4C148.187 373.995 148.443 373.461 148.529 372.8L148.785 371.04H150.737L150.193 375.008H153.873L153.617 376.832H149.937L148.433 387.552C148.369 388.021 148.369 388.48 148.433 388.928C148.497 389.355 148.699 389.707 149.041 389.984C149.382 390.24 149.926 390.368 150.673 390.368C150.886 390.368 151.11 390.357 151.345 390.336C151.601 390.315 151.803 390.293 151.953 390.272L151.825 392.064C151.59 392.128 151.323 392.16 151.025 392.16C150.747 392.181 150.534 392.192 150.385 392.192ZM156.425 392L159.817 367.776H161.737L160.265 378.432L159.785 378.24C160.318 377.109 161.118 376.224 162.185 375.584C163.273 374.944 164.446 374.624 165.705 374.624C166.9 374.624 167.945 374.901 168.841 375.456C169.758 376.011 170.441 376.789 170.889 377.792C171.337 378.795 171.465 379.957 171.273 381.28L169.801 392H167.849L169.321 381.376C169.534 379.84 169.268 378.645 168.521 377.792C167.774 376.939 166.74 376.512 165.417 376.512C164.436 376.512 163.54 376.747 162.729 377.216C161.94 377.664 161.289 378.293 160.777 379.104C160.265 379.893 159.934 380.8 159.785 381.824L158.377 392H156.425ZM180.402 392L183.73 368.16H185.49L196.914 388.864H196.37L199.25 368.16H201.33L198.002 392H196.242L184.786 371.168H185.394L182.482 392H180.402ZM212.283 392.384C210.747 392.384 209.36 392.032 208.123 391.328C206.907 390.603 205.936 389.611 205.211 388.352C204.507 387.093 204.155 385.664 204.155 384.064C204.155 382.763 204.379 381.547 204.827 380.416C205.296 379.264 205.947 378.261 206.779 377.408C207.632 376.533 208.614 375.851 209.723 375.36C210.832 374.869 212.027 374.624 213.307 374.624C214.886 374.624 216.283 374.976 217.499 375.68C218.715 376.384 219.675 377.365 220.379 378.624C221.083 379.861 221.435 381.28 221.435 382.88C221.435 384.181 221.2 385.408 220.731 386.56C220.262 387.712 219.6 388.725 218.747 389.6C217.915 390.475 216.944 391.157 215.835 391.648C214.726 392.139 213.542 392.384 212.283 392.384ZM212.251 390.496C213.595 390.496 214.8 390.144 215.867 389.44C216.955 388.736 217.808 387.808 218.427 386.656C219.067 385.483 219.387 384.213 219.387 382.848C219.387 381.632 219.12 380.544 218.587 379.584C218.075 378.624 217.36 377.877 216.443 377.344C215.547 376.789 214.512 376.512 213.339 376.512C212.016 376.512 210.811 376.864 209.723 377.568C208.656 378.251 207.803 379.168 207.163 380.32C206.523 381.451 206.203 382.709 206.203 384.096C206.203 385.312 206.459 386.411 206.971 387.392C207.504 388.352 208.219 389.109 209.115 389.664C210.032 390.219 211.078 390.496 212.251 390.496ZM233.311 392.384C231.903 392.384 230.613 392.128 229.439 391.616C228.287 391.083 227.306 390.347 226.495 389.408C225.706 388.469 225.183 387.392 224.927 386.176L226.847 385.568C227.253 387.168 228.031 388.395 229.183 389.248C230.335 390.101 231.743 390.528 233.407 390.528C234.623 390.528 235.658 390.325 236.511 389.92C237.386 389.493 238.058 388.917 238.527 388.192C239.018 387.467 239.263 386.645 239.263 385.728C239.263 384.725 238.986 383.893 238.431 383.232C237.877 382.571 237.055 382.08 235.967 381.76L231.711 380.48C230.239 380.011 229.109 379.275 228.319 378.272C227.551 377.248 227.167 376.032 227.167 374.624C227.167 373.365 227.498 372.213 228.159 371.168C228.821 370.123 229.727 369.301 230.879 368.704C232.031 368.085 233.333 367.776 234.783 367.776C236.106 367.776 237.29 368.032 238.335 368.544C239.381 369.035 240.245 369.707 240.927 370.56C241.631 371.392 242.101 372.352 242.335 373.44L240.447 374.048C240.085 372.661 239.402 371.573 238.399 370.784C237.397 369.995 236.181 369.6 234.751 369.6C233.685 369.6 232.725 369.813 231.871 370.24C231.039 370.667 230.378 371.253 229.887 372C229.418 372.725 229.183 373.557 229.183 374.496C229.183 375.499 229.461 376.341 230.015 377.024C230.591 377.707 231.509 378.251 232.767 378.656L236.543 379.808C238.122 380.299 239.306 381.045 240.095 382.048C240.906 383.029 241.311 384.224 241.311 385.632C241.311 386.869 240.981 388 240.319 389.024C239.658 390.048 238.73 390.869 237.535 391.488C236.341 392.085 234.933 392.384 233.311 392.384ZM257.152 392.384C255.595 392.384 254.144 392.107 252.8 391.552C251.477 390.997 250.315 390.219 249.312 389.216C248.309 388.213 247.52 387.019 246.944 385.632C246.389 384.224 246.112 382.677 246.112 380.992C246.112 379.157 246.432 377.451 247.072 375.872C247.712 374.272 248.597 372.864 249.728 371.648C250.88 370.432 252.224 369.483 253.76 368.8C255.296 368.117 256.96 367.776 258.752 367.776C260.309 367.776 261.76 368.053 263.104 368.608C264.448 369.141 265.621 369.92 266.624 370.944C267.627 371.947 268.405 373.152 268.96 374.56C269.515 375.947 269.792 377.472 269.792 379.136C269.792 380.971 269.472 382.688 268.832 384.288C268.192 385.888 267.296 387.296 266.144 388.512C265.013 389.728 263.68 390.677 262.144 391.36C260.608 392.043 258.944 392.384 257.152 392.384ZM257.184 390.4C258.699 390.4 260.096 390.101 261.376 389.504C262.656 388.907 263.765 388.085 264.704 387.04C265.664 385.995 266.4 384.8 266.912 383.456C267.445 382.112 267.712 380.693 267.712 379.2C267.712 377.451 267.339 375.861 266.592 374.432C265.867 373.003 264.832 371.861 263.488 371.008C262.165 370.155 260.587 369.728 258.752 369.728C257.216 369.728 255.808 370.037 254.528 370.656C253.248 371.253 252.128 372.085 251.168 373.152C250.229 374.197 249.493 375.392 248.96 376.736C248.448 378.059 248.192 379.456 248.192 380.928C248.192 382.677 248.565 384.267 249.312 385.696C250.059 387.125 251.104 388.267 252.448 389.12C253.792 389.973 255.371 390.4 257.184 390.4ZM263.136 394.88L256.64 382.464H258.912L265.376 394.88H263.136ZM273.433 392L276.761 368.16H278.841L275.769 390.08H286.489L286.233 392H273.433Z" fill="black"/>
<path d="M13.6678 174V139.73H26.8238C29.1852 139.73 31.2705 140.144 33.0798 140.972C34.9198 141.8 36.3612 143.027 37.4038 144.652C38.4465 146.277 38.9678 148.286 38.9678 150.678C38.9678 153.009 38.4312 154.987 37.3578 156.612C36.3152 158.237 34.8738 159.479 33.0338 160.338C31.2245 161.166 29.1545 161.58 26.8238 161.58H20.7978V174H13.6678ZM20.7978 155.37H26.8698C27.8818 155.37 28.7558 155.171 29.4918 154.772C30.2278 154.373 30.7952 153.821 31.1938 153.116C31.6232 152.411 31.8378 151.598 31.8378 150.678C31.8378 149.727 31.6232 148.899 31.1938 148.194C30.7952 147.489 30.2278 146.937 29.4918 146.538C28.7558 146.139 27.8818 145.94 26.8698 145.94H20.7978V155.37ZM43.5409 174V139.73H66.5869V145.94H50.6709V153.714H65.6669V159.924H50.6709V167.79H66.5869V174H43.5409ZM70.6288 174V139.73H83.7388C86.1001 139.73 88.1854 140.144 89.9948 140.972C91.8348 141.8 93.2761 143.027 94.3188 144.652C95.3614 146.277 95.8828 148.286 95.8828 150.678C95.8828 153.009 95.3461 155.002 94.2728 156.658C93.1994 158.283 91.7581 159.51 89.9488 160.338L97.7688 174H89.7648L81.3008 158.866L85.9008 161.58H77.7588V174H70.6288ZM77.7588 155.37H83.7848C84.7968 155.37 85.6708 155.171 86.4068 154.772C87.1428 154.373 87.7101 153.821 88.1088 153.116C88.5381 152.411 88.7528 151.598 88.7528 150.678C88.7528 149.727 88.5381 148.899 88.1088 148.194C87.7101 147.489 87.1428 146.937 86.4068 146.538C85.6708 146.139 84.7968 145.94 83.7848 145.94H77.7588V155.37ZM101.31 174V139.73H114.466C116.828 139.73 118.913 140.144 120.722 140.972C122.562 141.8 124.004 143.027 125.046 144.652C126.089 146.277 126.61 148.286 126.61 150.678C126.61 153.009 126.074 154.987 125 156.612C123.958 158.237 122.516 159.479 120.676 160.338C118.867 161.166 116.797 161.58 114.466 161.58H108.44V174H101.31ZM108.44 155.37H114.512C115.524 155.37 116.398 155.171 117.134 154.772C117.87 154.373 118.438 153.821 118.836 153.116C119.266 152.411 119.48 151.598 119.48 150.678C119.48 149.727 119.266 148.899 118.836 148.194C118.438 147.489 117.87 146.937 117.134 146.538C116.398 146.139 115.524 145.94 114.512 145.94H108.44V155.37ZM144.799 174.552C142.101 174.552 139.693 173.985 137.577 172.85C135.461 171.715 133.79 170.167 132.563 168.204C131.367 166.211 130.769 163.957 130.769 161.442V139.73H137.899V160.982C137.899 162.331 138.191 163.558 138.773 164.662C139.387 165.735 140.215 166.579 141.257 167.192C142.3 167.805 143.481 168.112 144.799 168.112C146.149 168.112 147.329 167.805 148.341 167.192C149.384 166.579 150.197 165.735 150.779 164.662C151.393 163.558 151.699 162.331 151.699 160.982V139.73H158.829V161.442C158.829 163.957 158.216 166.211 156.989 168.204C155.793 170.167 154.137 171.715 152.021 172.85C149.905 173.985 147.498 174.552 144.799 174.552ZM176.937 174.552C174.79 174.552 172.766 174.169 170.865 173.402C168.994 172.605 167.369 171.485 165.989 170.044C164.639 168.603 163.627 166.901 162.953 164.938L168.795 162.316C169.653 164.187 170.834 165.659 172.337 166.732C173.87 167.805 175.557 168.342 177.397 168.342C178.378 168.342 179.221 168.189 179.927 167.882C180.632 167.575 181.184 167.161 181.583 166.64C181.981 166.088 182.181 165.444 182.181 164.708C182.181 163.911 181.935 163.236 181.445 162.684C180.954 162.101 180.187 161.641 179.145 161.304L172.429 159.096C169.699 158.207 167.645 156.949 166.265 155.324C164.885 153.668 164.195 151.69 164.195 149.39C164.195 147.366 164.685 145.587 165.667 144.054C166.679 142.521 168.074 141.325 169.853 140.466C171.662 139.607 173.732 139.178 176.063 139.178C178.117 139.178 180.019 139.531 181.767 140.236C183.515 140.941 185.017 141.938 186.275 143.226C187.563 144.514 188.529 146.063 189.173 147.872L183.377 150.494C182.733 148.899 181.767 147.657 180.479 146.768C179.191 145.848 177.719 145.388 176.063 145.388C175.112 145.388 174.269 145.541 173.533 145.848C172.797 146.155 172.229 146.599 171.831 147.182C171.432 147.734 171.233 148.378 171.233 149.114C171.233 149.911 171.493 150.617 172.015 151.23C172.536 151.813 173.318 152.273 174.361 152.61L180.939 154.726C183.699 155.615 185.753 156.857 187.103 158.452C188.483 160.047 189.173 161.994 189.173 164.294C189.173 166.287 188.651 168.066 187.609 169.63C186.566 171.163 185.125 172.375 183.285 173.264C181.475 174.123 179.359 174.552 176.937 174.552ZM200.418 174V145.94H191.724V139.73H216.104V145.94H207.548V174H200.418ZM214.814 174L226.406 139.73H235.882L247.474 174H239.7L237.4 167.008H224.842L222.542 174H214.814ZM226.82 160.798H235.422L230.178 144.606H232.11L226.82 160.798ZM251.035 174V139.73H258.165V156.888L256.187 156.198L269.895 139.73H278.819L265.249 156.106L265.663 151.046L279.095 174H270.769L262.397 159.51L258.165 164.616V174H251.035ZM280.085 174L291.677 139.73H301.153L312.745 174H304.971L302.671 167.008H290.113L287.813 174H280.085ZM292.091 160.798H300.693L295.449 144.606H297.381L292.091 160.798ZM313.777 174L325.369 139.73H334.845L346.437 174H338.663L336.363 167.008H323.805L321.505 174H313.777ZM325.783 160.798H334.385L329.141 144.606H331.073L325.783 160.798ZM349.998 174V139.73H355.472L373.872 163.972L370.928 164.662V139.73H378.058V174H372.538L354.46 149.574L357.128 148.884V174H349.998ZM125.501 225V190.73H132.631V218.79H147.121V225H125.501ZM166.917 225.552C164.341 225.552 161.949 225.107 159.741 224.218C157.533 223.329 155.601 222.087 153.945 220.492C152.319 218.867 151.047 216.981 150.127 214.834C149.207 212.687 148.747 210.357 148.747 207.842C148.747 205.327 149.191 202.997 150.081 200.85C151.001 198.703 152.273 196.833 153.899 195.238C155.555 193.643 157.487 192.401 159.695 191.512C161.903 190.623 164.31 190.178 166.917 190.178C169.523 190.178 171.931 190.623 174.139 191.512C176.347 192.401 178.263 193.643 179.889 195.238C181.545 196.833 182.817 198.703 183.707 200.85C184.627 202.997 185.087 205.327 185.087 207.842C185.087 210.357 184.627 212.687 183.707 214.834C182.787 216.981 181.499 218.867 179.843 220.492C178.217 222.087 176.301 223.329 174.093 224.218C171.885 225.107 169.493 225.552 166.917 225.552ZM166.917 219.112C168.481 219.112 169.922 218.836 171.241 218.284C172.59 217.732 173.771 216.965 174.783 215.984C175.795 214.972 176.577 213.776 177.129 212.396C177.681 211.016 177.957 209.498 177.957 207.842C177.957 206.186 177.681 204.683 177.129 203.334C176.577 201.954 175.795 200.758 174.783 199.746C173.771 198.734 172.59 197.967 171.241 197.446C169.922 196.894 168.481 196.618 166.917 196.618C165.353 196.618 163.896 196.894 162.547 197.446C161.228 197.967 160.063 198.734 159.051 199.746C158.039 200.758 157.257 201.954 156.705 203.334C156.153 204.683 155.877 206.186 155.877 207.842C155.877 209.498 156.153 211.016 156.705 212.396C157.257 213.776 158.039 214.972 159.051 215.984C160.063 216.965 161.228 217.732 162.547 218.284C163.896 218.836 165.353 219.112 166.917 219.112ZM190.143 225V190.73H197.273V207.888L195.295 207.198L209.003 190.73H217.927L204.357 207.106L204.771 202.046L218.203 225H209.877L201.505 210.51L197.273 215.616V225H190.143ZM219.194 225L230.786 190.73H240.262L251.854 225H244.08L241.78 218.008H229.222L226.922 225H219.194ZM231.2 211.798H239.802L234.558 195.606H236.49L231.2 211.798ZM255.415 225V190.73H262.545V218.79H277.035V225H255.415Z" fill="url(#paint0_linear_13_48)"/>
<defs>
<linearGradient id="paint0_linear_13_48" x1="10" y1="255" x2="390" y2="255" gradientUnits="userSpaceOnUse">
<stop stop-color="#3926AD"/>
<stop offset="1" stop-color="#C367D6"/>
</linearGradient>
</defs>
</svg>
