<svg width="240" height="240" viewBox="0 0 240 240" fill="none" xmlns="http://www.w3.org/2000/svg">
<path d="M103.999 129.199L136.399 110.4L168.397 129.199L136.399 147.6L103.999 129.6V129.199ZM6.79871 73.6013L136.399 0L232.8 54.7987L200.801 110.4L136.402 73.6013L39.2025 128.801L6.79871 73.6013Z" fill="#F6BD3A"/>
<path d="M103.999 202.8V166.001L135.997 147.6L168.397 129.199V165.997L136.399 184.399V221.197L103.999 240V202.8ZM103.999 129.199L71.5987 110.797L39.1987 128.798V91.9988L136.399 36.7987V110.4L103.999 129.199ZM200.4 91.9988V73.5975L232.8 54.7987L233.201 91.5975L200.801 110.396L200.4 91.9988Z" fill="#EB8C23"/>
<path d="M71.5987 220.399V110.801L103.597 92.8012L103.999 129.202L136.399 147.203V184.402L103.999 167.201V240L71.5987 220.399ZM22.8 119.201L6.79871 109.601V73.6013L39.1987 92.0025V128.801L22.8 119.201V119.201ZM136.399 73.6013V36.7987L200.4 73.5975L200.801 110.396L136.402 73.5975L136.399 73.6013Z" fill="#E35A2B"/>
</svg>
