<svg width="210" height="47" viewBox="0 0 210 47" fill="none" xmlns="http://www.w3.org/2000/svg">
<path d="M6.83594 0V36H0.273438V0H6.83594ZM5.89844 22.4531L4.11719 22.5C4.11719 20.7188 4.29688 19.0781 4.65625 17.5781C5.03125 16.0781 5.57031 14.7734 6.27344 13.6641C6.97656 12.5547 7.82812 11.6953 8.82812 11.0859C9.84375 10.4766 10.9609 10.1719 12.1797 10.1719C13.2266 10.1719 14.1797 10.3516 15.0391 10.7109C15.8984 11.0703 16.6406 11.6328 17.2656 12.3984C17.9062 13.1641 18.3984 14.1719 18.7422 15.4219C19.0859 16.6719 19.2578 18.1953 19.2578 19.9922V36H12.6719V19.9453C12.6719 18.8516 12.5625 17.9922 12.3438 17.3672C12.125 16.7422 11.7969 16.3047 11.3594 16.0547C10.9219 15.7891 10.375 15.6562 9.71875 15.6562C9.01562 15.6562 8.41406 15.8359 7.91406 16.1953C7.42969 16.5391 7.03906 17.0156 6.74219 17.625C6.44531 18.2344 6.22656 18.9531 6.08594 19.7812C5.96094 20.6094 5.89844 21.5 5.89844 22.4531ZM41.4062 30.5391V36H25.3047V30.5391H41.4062ZM41.2422 14.625L27.8828 36H23.5V31.875L36.7891 10.6406H41.2422V14.625ZM38.9453 10.6406V16.1016H23.7578V10.6406H38.9453ZM52.6562 0V36H46.0703V0H52.6562ZM64.3047 16.0547V36H57.7188V10.6406H63.8828L64.3047 16.0547ZM63.3203 22.4531L61.5625 22.5C61.5312 20.5938 61.7109 18.8828 62.1016 17.3672C62.5078 15.8516 63.0781 14.5625 63.8125 13.5C64.5625 12.4219 65.4531 11.6016 66.4844 11.0391C67.5312 10.4609 68.6953 10.1719 69.9766 10.1719C70.9609 10.1719 71.8594 10.3438 72.6719 10.6875C73.5 11.0312 74.2109 11.5781 74.8047 12.3281C75.3984 13.0781 75.8594 14.0781 76.1875 15.3281C76.5156 16.5625 76.6797 18.0781 76.6797 19.875V36H70.0938V19.8281C70.0938 18.7344 69.9844 17.8906 69.7656 17.2969C69.5469 16.6875 69.2188 16.2656 68.7812 16.0312C68.3438 15.7812 67.7969 15.6562 67.1406 15.6562C66.5156 15.6562 65.9609 15.8359 65.4766 16.1953C64.9922 16.5391 64.5859 17.0156 64.2578 17.625C63.9453 18.2344 63.7031 18.9531 63.5312 19.7812C63.375 20.6094 63.3047 21.5 63.3203 22.4531ZM93.7656 45.75V15.8438L94.5859 10.6406H100.352V45.75H93.7656ZM80.6172 24.1406V22.4531C80.6172 20.3906 80.7891 18.5859 81.1328 17.0391C81.4922 15.4922 82.0156 14.2109 82.7031 13.1953C83.3906 12.1797 84.25 11.4219 85.2812 10.9219C86.3125 10.4219 87.5078 10.1719 88.8672 10.1719C90.1328 10.1719 91.2188 10.4688 92.125 11.0625C93.0469 11.6562 93.8203 12.4922 94.4453 13.5703C95.0703 14.6484 95.5625 15.9219 95.9219 17.3906C96.2969 18.8438 96.5859 20.4453 96.7891 22.1953V24.6328C96.5859 26.2891 96.2891 27.8359 95.8984 29.2734C95.5234 30.7109 95.0234 31.9688 94.3984 33.0469C93.7734 34.125 93.0078 34.9688 92.1016 35.5781C91.1953 36.1719 90.1094 36.4688 88.8438 36.4688C87.4844 36.4688 86.2891 36.2031 85.2578 35.6719C84.2422 35.125 83.3906 34.3359 82.7031 33.3047C82.0156 32.2578 81.4922 30.9688 81.1328 29.4375C80.7891 27.8906 80.6172 26.125 80.6172 24.1406ZM87.1797 22.4531V24.1406C87.1797 25.3125 87.2422 26.3359 87.3672 27.2109C87.4922 28.0859 87.6875 28.7969 87.9531 29.3438C88.2188 29.8906 88.5781 30.3047 89.0312 30.5859C89.4844 30.8672 90.0547 31.0078 90.7422 31.0078C91.6797 31.0078 92.4219 30.7812 92.9688 30.3281C93.5156 29.8594 93.9141 29.2188 94.1641 28.4062C94.4297 27.5781 94.5781 26.6484 94.6094 25.6172V21.2109C94.5938 20.3516 94.5078 19.5781 94.3516 18.8906C94.1953 18.2031 93.9609 17.6172 93.6484 17.1328C93.3359 16.6484 92.9375 16.2812 92.4531 16.0312C91.9844 15.7656 91.4219 15.6328 90.7656 15.6328C90.1094 15.6328 89.5469 15.7656 89.0781 16.0312C88.625 16.2969 88.2578 16.7109 87.9766 17.2734C87.6953 17.8203 87.4922 18.5234 87.3672 19.3828C87.2422 20.2266 87.1797 21.25 87.1797 22.4531ZM104.594 24.1875V22.4766C104.594 20.4922 104.828 18.7344 105.297 17.2031C105.781 15.6719 106.469 14.3906 107.359 13.3594C108.25 12.3125 109.32 11.5234 110.57 10.9922C111.836 10.4453 113.25 10.1719 114.812 10.1719C116.391 10.1719 117.805 10.4453 119.055 10.9922C120.32 11.5234 121.398 12.3125 122.289 13.3594C123.195 14.3906 123.891 15.6719 124.375 17.2031C124.859 18.7344 125.102 20.4922 125.102 22.4766V24.1875C125.102 26.1562 124.859 27.9062 124.375 29.4375C123.891 30.9688 123.195 32.2578 122.289 33.3047C121.398 34.3516 120.328 35.1406 119.078 35.6719C117.828 36.2031 116.422 36.4688 114.859 36.4688C113.297 36.4688 111.883 36.2031 110.617 35.6719C109.367 35.1406 108.289 34.3516 107.383 33.3047C106.477 32.2578 105.781 30.9688 105.297 29.4375C104.828 27.9062 104.594 26.1562 104.594 24.1875ZM111.156 22.4766V24.1875C111.156 25.3594 111.234 26.375 111.391 27.2344C111.562 28.0938 111.805 28.8047 112.117 29.3672C112.445 29.9297 112.836 30.3438 113.289 30.6094C113.742 30.875 114.266 31.0078 114.859 31.0078C115.453 31.0078 115.984 30.875 116.453 30.6094C116.922 30.3438 117.305 29.9297 117.602 29.3672C117.914 28.8047 118.141 28.0938 118.281 27.2344C118.438 26.375 118.516 25.3594 118.516 24.1875V22.4766C118.516 21.3359 118.43 20.3359 118.258 19.4766C118.086 18.6016 117.844 17.8906 117.531 17.3438C117.219 16.7812 116.828 16.3594 116.359 16.0781C115.906 15.7812 115.391 15.6328 114.812 15.6328C114.234 15.6328 113.719 15.7812 113.266 16.0781C112.828 16.3594 112.445 16.7812 112.117 17.3438C111.805 17.8906 111.562 18.6016 111.391 19.4766C111.234 20.3359 111.156 21.3359 111.156 22.4766ZM141.531 30.3984V0H148.117V36L142.164 36.0234L141.531 30.3984ZM128.383 24.2109V22.5234C128.383 20.4609 128.555 18.6562 128.898 17.1094C129.258 15.5625 129.789 14.2734 130.492 13.2422C131.195 12.2109 132.055 11.4453 133.07 10.9453C134.102 10.4297 135.281 10.1719 136.609 10.1719C137.812 10.1719 138.867 10.4766 139.773 11.0859C140.695 11.6797 141.477 12.5156 142.117 13.5938C142.758 14.6719 143.273 15.9453 143.664 17.4141C144.055 18.8828 144.328 20.4922 144.484 22.2422V24.6797C144.297 26.3359 144.008 27.8828 143.617 29.3203C143.242 30.7578 142.727 32.0078 142.07 33.0703C141.43 34.1328 140.656 34.9688 139.75 35.5781C138.844 36.1719 137.789 36.4688 136.586 36.4688C135.258 36.4688 134.078 36.2031 133.047 35.6719C132.031 35.1406 131.172 34.3594 130.469 33.3281C129.781 32.2812 129.258 31 128.898 29.4844C128.555 27.9531 128.383 26.1953 128.383 24.2109ZM134.945 22.5234V24.2109C134.945 25.3984 135 26.4219 135.109 27.2812C135.234 28.125 135.43 28.8203 135.695 29.3672C135.977 29.8984 136.344 30.2969 136.797 30.5625C137.25 30.8125 137.812 30.9375 138.484 30.9375C139.359 30.9375 140.07 30.7188 140.617 30.2812C141.164 29.8281 141.57 29.2109 141.836 28.4297C142.117 27.6328 142.273 26.7188 142.305 25.6875V21.2578C142.273 20.3984 142.172 19.625 142 18.9375C141.828 18.25 141.586 17.6641 141.273 17.1797C140.961 16.6953 140.57 16.3203 140.102 16.0547C139.648 15.7891 139.117 15.6562 138.508 15.6562C137.852 15.6562 137.289 15.7891 136.82 16.0547C136.367 16.3203 136.008 16.7344 135.742 17.2969C135.477 17.8438 135.273 18.5547 135.133 19.4297C135.008 20.2891 134.945 21.3203 134.945 22.5234ZM159.625 16.2891V36H153.062V10.6406H159.25L159.625 16.2891ZM165.602 10.4531L165.508 16.9922C165.211 16.9297 164.852 16.8828 164.43 16.8516C164.023 16.8203 163.664 16.8047 163.352 16.8047C162.617 16.8047 161.992 16.9219 161.477 17.1562C160.961 17.375 160.531 17.7109 160.188 18.1641C159.859 18.6016 159.609 19.1484 159.438 19.8047C159.266 20.4609 159.164 21.2031 159.133 22.0312L157.891 21.5625C157.891 19.9062 158.016 18.3906 158.266 17.0156C158.531 15.625 158.922 14.4219 159.438 13.4062C159.953 12.375 160.57 11.5781 161.289 11.0156C162.023 10.4531 162.852 10.1719 163.773 10.1719C164.086 10.1719 164.414 10.2031 164.758 10.2656C165.117 10.3125 165.398 10.375 165.602 10.4531ZM178.703 36.4688C176.969 36.4688 175.43 36.2031 174.086 35.6719C172.758 35.1406 171.633 34.375 170.711 33.375C169.789 32.3594 169.086 31.1328 168.602 29.6953C168.117 28.2578 167.875 26.6172 167.875 24.7734V22.6875C167.875 20.625 168.109 18.8203 168.578 17.2734C169.047 15.7109 169.711 14.3984 170.57 13.3359C171.43 12.2734 172.484 11.4844 173.734 10.9688C175 10.4375 176.43 10.1719 178.023 10.1719C179.617 10.1719 181.016 10.4375 182.219 10.9688C183.438 11.4844 184.445 12.2656 185.242 13.3125C186.039 14.3438 186.641 15.625 187.047 17.1562C187.453 18.6875 187.656 20.4688 187.656 22.5V25.5H170.664V20.8828H181.211V20.2969C181.211 19.2656 181.102 18.4062 180.883 17.7188C180.664 17.0156 180.32 16.4922 179.852 16.1484C179.383 15.8047 178.758 15.6328 177.977 15.6328C177.32 15.6328 176.766 15.7656 176.312 16.0312C175.859 16.2969 175.5 16.7109 175.234 17.2734C174.969 17.8359 174.773 18.5703 174.648 19.4766C174.523 20.3672 174.461 21.4375 174.461 22.6875V24.7734C174.461 25.9453 174.562 26.9297 174.766 27.7266C174.969 28.5078 175.266 29.1484 175.656 29.6484C176.062 30.1328 176.555 30.4844 177.133 30.7031C177.711 30.9062 178.383 31.0078 179.148 31.0078C180.305 31.0078 181.344 30.8047 182.266 30.3984C183.203 29.9766 184 29.4062 184.656 28.6875L187.281 32.6719C186.828 33.2656 186.203 33.8594 185.406 34.4531C184.609 35.0469 183.656 35.5312 182.547 35.9062C181.438 36.2812 180.156 36.4688 178.703 36.4688ZM197.5 33.0938L202.797 10.6406H209.641L201.297 39.7969C201.109 40.4375 200.852 41.125 200.523 41.8594C200.195 42.6094 199.758 43.3125 199.211 43.9688C198.68 44.6406 198.008 45.1875 197.195 45.6094C196.383 46.0312 195.406 46.2422 194.266 46.2422C193.688 46.2422 193.219 46.2031 192.859 46.125C192.516 46.0625 192.078 45.9531 191.547 45.7969V40.6875C191.688 40.6875 191.82 40.6875 191.945 40.6875C192.086 40.7031 192.219 40.7109 192.344 40.7109C193.078 40.7109 193.664 40.6094 194.102 40.4062C194.539 40.2188 194.891 39.9219 195.156 39.5156C195.438 39.1094 195.672 38.6016 195.859 37.9922L197.5 33.0938ZM196.141 10.6406L200.078 28.8281L200.969 36.2344L196.539 36.6562L189.109 10.6406H196.141Z" fill="url(#paint0_linear_102_41)"/>
<defs>
<linearGradient id="paint0_linear_102_41" x1="211" y1="19.5" x2="164.082" y2="107.774" gradientUnits="userSpaceOnUse">
<stop stop-color="#D4FFEC"/>
<stop offset="0.478729" stop-color="#57F2CC"/>
<stop offset="1" stop-color="#4596FB"/>
</linearGradient>
</defs>
</svg>
